  0
SECTION
  2
HEADER
  9
$ANGBASE
  50
0.0
  9
$ANGDIR
  70
  1
  9
$MEASUREMENT
  70
0
  0
ENDSEC
  0
SECTION
  2
TABLES
  0
TABLE
  2
LTYPE
  70
1
  0
LTYPE
  2
CONTINUOUS
  70
0
  3
Solid line
  72
65
  73
0
  40
0.0
  0
ENDTAB
  0
TABLE
  2
STYLE
  70
4
  0
STYLE
  2
KICAD
  70
0
  40
0
  41
1
  42
1
  50
0
  71
0
  3
isocp.shx
  0
STYLE
  2
KICADB
  70
0
  40
0
  41
1
  42
1
  50
0
  71
0
  3
isocp.shx
  0
STYLE
  2
KICADI
  70
0
  40
0
  41
1
  42
1
  50
15
  71
0
  3
isocp.shx
  0
STYLE
  2
KICADBI
  70
0
  40
0
  41
1
  42
1
  50
15
  71
0
  3
isocp.shx
  0
ENDTAB
  0
TABLE
  2
LAYER
  70
30
  0
LAYER
  2
BLACK
  70
0
  62
7
  6
CONTINUOUS
  0
LAYER
  2
GRAY1
  70
0
  62
251
  6
CONTINUOUS
  0
LAYER
  2
GRAY2
  70
0
  62
8
  6
CONTINUOUS
  0
LAYER
  2
GRAY3
  70
0
  62
9
  6
CONTINUOUS
  0
LAYER
  2
WHITE
  70
0
  62
7
  6
CONTINUOUS
  0
LAYER
  2
LYELLOW
  70
0
  62
51
  6
CONTINUOUS
  0
LAYER
  2
BLUE1
  70
0
  62
178
  6
CONTINUOUS
  0
LAYER
  2
GREEN1
  70
0
  62
98
  6
CONTINUOUS
  0
LAYER
  2
CYAN1
  70
0
  62
138
  6
CONTINUOUS
  0
LAYER
  2
RED1
  70
0
  62
18
  6
CONTINUOUS
  0
LAYER
  2
MAGENTA1
  70
0
  62
228
  6
CONTINUOUS
  0
LAYER
  2
BROWN1
  70
0
  62
58
  6
CONTINUOUS
  0
LAYER
  2
BLUE2
  70
0
  62
5
  6
CONTINUOUS
  0
LAYER
  2
GREEN2
  70
0
  62
3
  6
CONTINUOUS
  0
LAYER
  2
CYAN2
  70
0
  62
4
  6
CONTINUOUS
  0
LAYER
  2
RED2
  70
0
  62
1
  6
CONTINUOUS
  0
LAYER
  2
MAGENTA2
  70
0
  62
6
  6
CONTINUOUS
  0
LAYER
  2
BROWN2
  70
0
  62
54
  6
CONTINUOUS
  0
LAYER
  2
BLUE3
  70
0
  62
171
  6
CONTINUOUS
  0
LAYER
  2
GREEN3
  70
0
  62
91
  6
CONTINUOUS
  0
LAYER
  2
CYAN3
  70
0
  62
131
  6
CONTINUOUS
  0
LAYER
  2
RED3
  70
0
  62
11
  6
CONTINUOUS
  0
LAYER
  2
MAGENTA3
  70
0
  62
221
  6
CONTINUOUS
  0
LAYER
  2
YELLOW3
  70
0
  62
2
  6
CONTINUOUS
  0
LAYER
  2
BLUE4
  70
0
  62
5
  6
CONTINUOUS
  0
LAYER
  2
GREEN4
  70
0
  62
3
  6
CONTINUOUS
  0
LAYER
  2
CYAN4
  70
0
  62
4
  6
CONTINUOUS
  0
LAYER
  2
RED4
  70
0
  62
1
  6
CONTINUOUS
  0
LAYER
  2
MAGENTA4
  70
0
  62
6
  6
CONTINUOUS
  0
LAYER
  2
YELLOW4
  70
0
  62
2
  6
CONTINUOUS
  0
ENDTAB
  0
ENDSEC
  0
SECTION
  2
ENTITIES
0
LINE
8
Black
10
177.002
20
-166.007
11
177.002
21
-198.007
0
LINE
8
Black
10
177.002
20
-198.007
11
285.002
21
-198.007
0
LINE
8
Black
10
285.002
20
-198.007
11
285.002
21
-166.007
0
LINE
8
Black
10
285.002
20
-166.007
11
177.002
21
-166.007
0
LINE
8
Black
10
10
20
-10
11
10
21
-200.007
0
LINE
8
Black
10
10
20
-200.007
11
287.002
21
-200.007
0
LINE
8
Black
10
287.002
20
-200.007
11
287.002
21
-10
0
LINE
8
Black
10
287.002
20
-10
11
10
21
-10
0
LINE
8
Black
10
12
20
-12
11
12
21
-198.007
0
LINE
8
Black
10
12
20
-198.007
11
285.002
21
-198.007
0
LINE
8
Black
10
285.002
20
-198.007
11
285.002
21
-12
0
LINE
8
Black
10
285.002
20
-12
11
12
21
-12
0
LINE
8
Black
10
60
20
-12
11
60
21
-10
0
LINE
8
Black
10
110
20
-12
11
110
21
-10
0
LINE
8
Black
10
160
20
-12
11
160
21
-10
0
LINE
8
Black
10
210
20
-12
11
210
21
-10
0
LINE
8
Black
10
260
20
-12
11
260
21
-10
0
LINE
8
Black
10
35.9905
20
-11.5881
11
35.2476
21
-11.5881
0
LINE
8
Black
10
35.619
20
-11.5881
11
35.619
21
-10.2881
0
LINE
8
Black
10
35.619
20
-10.2881
11
35.4952
21
-10.4738
0
LINE
8
Black
10
35.4952
20
-10.4738
11
35.3714
21
-10.5976
0
LINE
8
Black
10
35.3714
20
-10.5976
11
35.2476
21
-10.6595
0
LINE
8
Black
10
85.2476
20
-10.4119
11
85.3095
21
-10.35
0
LINE
8
Black
10
85.3095
20
-10.35
11
85.4333
21
-10.2881
0
LINE
8
Black
10
85.4333
20
-10.2881
11
85.7429
21
-10.2881
0
LINE
8
Black
10
85.7429
20
-10.2881
11
85.8667
21
-10.35
0
LINE
8
Black
10
85.8667
20
-10.35
11
85.9286
21
-10.4119
0
LINE
8
Black
10
85.9286
20
-10.4119
11
85.9905
21
-10.5357
0
LINE
8
Black
10
85.9905
20
-10.5357
11
85.9905
21
-10.6595
0
LINE
8
Black
10
85.9905
20
-10.6595
11
85.9286
21
-10.8452
0
LINE
8
Black
10
85.9286
20
-10.8452
11
85.1857
21
-11.5881
0
LINE
8
Black
10
85.1857
20
-11.5881
11
85.9905
21
-11.5881
0
LINE
8
Black
10
135.186
20
-10.2881
11
135.99
21
-10.2881
0
LINE
8
Black
10
135.99
20
-10.2881
11
135.557
21
-10.7833
0
LINE
8
Black
10
135.557
20
-10.7833
11
135.743
21
-10.7833
0
LINE
8
Black
10
135.743
20
-10.7833
11
135.867
21
-10.8452
0
LINE
8
Black
10
135.867
20
-10.8452
11
135.929
21
-10.9071
0
LINE
8
Black
10
135.929
20
-10.9071
11
135.99
21
-11.031
0
LINE
8
Black
10
135.99
20
-11.031
11
135.99
21
-11.3405
0
LINE
8
Black
10
135.99
20
-11.3405
11
135.929
21
-11.4643
0
LINE
8
Black
10
135.929
20
-11.4643
11
135.867
21
-11.5262
0
LINE
8
Black
10
135.867
20
-11.5262
11
135.743
21
-11.5881
0
LINE
8
Black
10
135.743
20
-11.5881
11
135.371
21
-11.5881
0
LINE
8
Black
10
135.371
20
-11.5881
11
135.248
21
-11.5262
0
LINE
8
Black
10
135.248
20
-11.5262
11
135.186
21
-11.4643
0
LINE
8
Black
10
185.867
20
-10.7214
11
185.867
21
-11.5881
0
LINE
8
Black
10
185.557
20
-10.2262
11
185.248
21
-11.1548
0
LINE
8
Black
10
185.248
20
-11.1548
11
186.052
21
-11.1548
0
LINE
8
Black
10
235.929
20
-10.2881
11
235.31
21
-10.2881
0
LINE
8
Black
10
235.31
20
-10.2881
11
235.248
21
-10.9071
0
LINE
8
Black
10
235.248
20
-10.9071
11
235.31
21
-10.8452
0
LINE
8
Black
10
235.31
20
-10.8452
11
235.433
21
-10.7833
0
LINE
8
Black
10
235.433
20
-10.7833
11
235.743
21
-10.7833
0
LINE
8
Black
10
235.743
20
-10.7833
11
235.867
21
-10.8452
0
LINE
8
Black
10
235.867
20
-10.8452
11
235.929
21
-10.9071
0
LINE
8
Black
10
235.929
20
-10.9071
11
235.99
21
-11.031
0
LINE
8
Black
10
235.99
20
-11.031
11
235.99
21
-11.3405
0
LINE
8
Black
10
235.99
20
-11.3405
11
235.929
21
-11.4643
0
LINE
8
Black
10
235.929
20
-11.4643
11
235.867
21
-11.5262
0
LINE
8
Black
10
235.867
20
-11.5262
11
235.743
21
-11.5881
0
LINE
8
Black
10
235.743
20
-11.5881
11
235.433
21
-11.5881
0
LINE
8
Black
10
235.433
20
-11.5881
11
235.31
21
-11.5262
0
LINE
8
Black
10
235.31
20
-11.5262
11
235.248
21
-11.4643
0
LINE
8
Black
10
285.867
20
-10.2881
11
285.619
21
-10.2881
0
LINE
8
Black
10
285.619
20
-10.2881
11
285.495
21
-10.35
0
LINE
8
Black
10
285.495
20
-10.35
11
285.433
21
-10.4119
0
LINE
8
Black
10
285.433
20
-10.4119
11
285.31
21
-10.5976
0
LINE
8
Black
10
285.31
20
-10.5976
11
285.248
21
-10.8452
0
LINE
8
Black
10
285.248
20
-10.8452
11
285.248
21
-11.3405
0
LINE
8
Black
10
285.248
20
-11.3405
11
285.31
21
-11.4643
0
LINE
8
Black
10
285.31
20
-11.4643
11
285.371
21
-11.5262
0
LINE
8
Black
10
285.371
20
-11.5262
11
285.495
21
-11.5881
0
LINE
8
Black
10
285.495
20
-11.5881
11
285.743
21
-11.5881
0
LINE
8
Black
10
285.743
20
-11.5881
11
285.867
21
-11.5262
0
LINE
8
Black
10
285.867
20
-11.5262
11
285.929
21
-11.4643
0
LINE
8
Black
10
285.929
20
-11.4643
11
285.99
21
-11.3405
0
LINE
8
Black
10
285.99
20
-11.3405
11
285.99
21
-11.031
0
LINE
8
Black
10
285.99
20
-11.031
11
285.929
21
-10.9071
0
LINE
8
Black
10
285.929
20
-10.9071
11
285.867
21
-10.8452
0
LINE
8
Black
10
285.867
20
-10.8452
11
285.743
21
-10.7833
0
LINE
8
Black
10
285.743
20
-10.7833
11
285.495
21
-10.7833
0
LINE
8
Black
10
285.495
20
-10.7833
11
285.371
21
-10.8452
0
LINE
8
Black
10
285.371
20
-10.8452
11
285.31
21
-10.9071
0
LINE
8
Black
10
285.31
20
-10.9071
11
285.248
21
-11.031
0
LINE
8
Black
10
60
20
-198.007
11
60
21
-200.007
0
LINE
8
Black
10
110
20
-198.007
11
110
21
-200.007
0
LINE
8
Black
10
160
20
-198.007
11
160
21
-200.007
0
LINE
8
Black
10
210
20
-198.007
11
210
21
-200.007
0
LINE
8
Black
10
260
20
-198.007
11
260
21
-200.007
0
LINE
8
Black
10
35.9905
20
-199.595
11
35.2476
21
-199.595
0
LINE
8
Black
10
35.619
20
-199.595
11
35.619
21
-198.295
0
LINE
8
Black
10
35.619
20
-198.295
11
35.4952
21
-198.481
0
LINE
8
Black
10
35.4952
20
-198.481
11
35.3714
21
-198.605
0
LINE
8
Black
10
35.3714
20
-198.605
11
35.2476
21
-198.667
0
LINE
8
Black
10
85.2476
20
-198.419
11
85.3095
21
-198.357
0
LINE
8
Black
10
85.3095
20
-198.357
11
85.4333
21
-198.295
0
LINE
8
Black
10
85.4333
20
-198.295
11
85.7429
21
-198.295
0
LINE
8
Black
10
85.7429
20
-198.295
11
85.8667
21
-198.357
0
LINE
8
Black
10
85.8667
20
-198.357
11
85.9286
21
-198.419
0
LINE
8
Black
10
85.9286
20
-198.419
11
85.9905
21
-198.543
0
LINE
8
Black
10
85.9905
20
-198.543
11
85.9905
21
-198.667
0
LINE
8
Black
10
85.9905
20
-198.667
11
85.9286
21
-198.852
0
LINE
8
Black
10
85.9286
20
-198.852
11
85.1857
21
-199.595
0
LINE
8
Black
10
85.1857
20
-199.595
11
85.9905
21
-199.595
0
LINE
8
Black
10
135.186
20
-198.295
11
135.99
21
-198.295
0
LINE
8
Black
10
135.99
20
-198.295
11
135.557
21
-198.791
0
LINE
8
Black
10
135.557
20
-198.791
11
135.743
21
-198.791
0
LINE
8
Black
10
135.743
20
-198.791
11
135.867
21
-198.852
0
LINE
8
Black
10
135.867
20
-198.852
11
135.929
21
-198.914
0
LINE
8
Black
10
135.929
20
-198.914
11
135.99
21
-199.038
0
LINE
8
Black
10
135.99
20
-199.038
11
135.99
21
-199.348
0
LINE
8
Black
10
135.99
20
-199.348
11
135.929
21
-199.471
0
LINE
8
Black
10
135.929
20
-199.471
11
135.867
21
-199.533
0
LINE
8
Black
10
135.867
20
-199.533
11
135.743
21
-199.595
0
LINE
8
Black
10
135.743
20
-199.595
11
135.371
21
-199.595
0
LINE
8
Black
10
135.371
20
-199.595
11
135.248
21
-199.533
0
LINE
8
Black
10
135.248
20
-199.533
11
135.186
21
-199.471
0
LINE
8
Black
10
185.867
20
-198.729
11
185.867
21
-199.595
0
LINE
8
Black
10
185.557
20
-198.233
11
185.248
21
-199.162
0
LINE
8
Black
10
185.248
20
-199.162
11
186.052
21
-199.162
0
LINE
8
Black
10
235.929
20
-198.295
11
235.31
21
-198.295
0
LINE
8
Black
10
235.31
20
-198.295
11
235.248
21
-198.914
0
LINE
8
Black
10
235.248
20
-198.914
11
235.31
21
-198.852
0
LINE
8
Black
10
235.31
20
-198.852
11
235.433
21
-198.791
0
LINE
8
Black
10
235.433
20
-198.791
11
235.743
21
-198.791
0
LINE
8
Black
10
235.743
20
-198.791
11
235.867
21
-198.852
0
LINE
8
Black
10
235.867
20
-198.852
11
235.929
21
-198.914
0
LINE
8
Black
10
235.929
20
-198.914
11
235.99
21
-199.038
0
LINE
8
Black
10
235.99
20
-199.038
11
235.99
21
-199.348
0
LINE
8
Black
10
235.99
20
-199.348
11
235.929
21
-199.471
0
LINE
8
Black
10
235.929
20
-199.471
11
235.867
21
-199.533
0
LINE
8
Black
10
235.867
20
-199.533
11
235.743
21
-199.595
0
LINE
8
Black
10
235.743
20
-199.595
11
235.433
21
-199.595
0
LINE
8
Black
10
235.433
20
-199.595
11
235.31
21
-199.533
0
LINE
8
Black
10
235.31
20
-199.533
11
235.248
21
-199.471
0
LINE
8
Black
10
285.867
20
-198.295
11
285.619
21
-198.295
0
LINE
8
Black
10
285.619
20
-198.295
11
285.495
21
-198.357
0
LINE
8
Black
10
285.495
20
-198.357
11
285.433
21
-198.419
0
LINE
8
Black
10
285.433
20
-198.419
11
285.31
21
-198.605
0
LINE
8
Black
10
285.31
20
-198.605
11
285.248
21
-198.852
0
LINE
8
Black
10
285.248
20
-198.852
11
285.248
21
-199.348
0
LINE
8
Black
10
285.248
20
-199.348
11
285.31
21
-199.471
0
LINE
8
Black
10
285.31
20
-199.471
11
285.371
21
-199.533
0
LINE
8
Black
10
285.371
20
-199.533
11
285.495
21
-199.595
0
LINE
8
Black
10
285.495
20
-199.595
11
285.743
21
-199.595
0
LINE
8
Black
10
285.743
20
-199.595
11
285.867
21
-199.533
0
LINE
8
Black
10
285.867
20
-199.533
11
285.929
21
-199.471
0
LINE
8
Black
10
285.929
20
-199.471
11
285.99
21
-199.348
0
LINE
8
Black
10
285.99
20
-199.348
11
285.99
21
-199.038
0
LINE
8
Black
10
285.99
20
-199.038
11
285.929
21
-198.914
0
LINE
8
Black
10
285.929
20
-198.914
11
285.867
21
-198.852
0
LINE
8
Black
10
285.867
20
-198.852
11
285.743
21
-198.791
0
LINE
8
Black
10
285.743
20
-198.791
11
285.495
21
-198.791
0
LINE
8
Black
10
285.495
20
-198.791
11
285.371
21
-198.852
0
LINE
8
Black
10
285.371
20
-198.852
11
285.31
21
-198.914
0
LINE
8
Black
10
285.31
20
-198.914
11
285.248
21
-199.038
0
LINE
8
Black
10
10
20
-60
11
12
21
-60
0
LINE
8
Black
10
10
20
-110
11
12
21
-110
0
LINE
8
Black
10
10
20
-160
11
12
21
-160
0
LINE
8
Black
10
10.6905
20
-35.2167
11
11.3095
21
-35.2167
0
LINE
8
Black
10
10.5667
20
-35.5881
11
11
21
-34.2881
0
LINE
8
Black
10
11
20
-34.2881
11
11.4333
21
-35.5881
0
LINE
8
Black
10
11.0929
20
-84.9071
11
11.2786
21
-84.969
0
LINE
8
Black
10
11.2786
20
-84.969
11
11.3405
21
-85.031
0
LINE
8
Black
10
11.3405
20
-85.031
11
11.4024
21
-85.1548
0
LINE
8
Black
10
11.4024
20
-85.1548
11
11.4024
21
-85.3405
0
LINE
8
Black
10
11.4024
20
-85.3405
11
11.3405
21
-85.4643
0
LINE
8
Black
10
11.3405
20
-85.4643
11
11.2786
21
-85.5262
0
LINE
8
Black
10
11.2786
20
-85.5262
11
11.1548
21
-85.5881
0
LINE
8
Black
10
11.1548
20
-85.5881
11
10.6595
21
-85.5881
0
LINE
8
Black
10
10.6595
20
-85.5881
11
10.6595
21
-84.2881
0
LINE
8
Black
10
10.6595
20
-84.2881
11
11.0929
21
-84.2881
0
LINE
8
Black
10
11.0929
20
-84.2881
11
11.2167
21
-84.35
0
LINE
8
Black
10
11.2167
20
-84.35
11
11.2786
21
-84.4119
0
LINE
8
Black
10
11.2786
20
-84.4119
11
11.3405
21
-84.5357
0
LINE
8
Black
10
11.3405
20
-84.5357
11
11.3405
21
-84.6595
0
LINE
8
Black
10
11.3405
20
-84.6595
11
11.2786
21
-84.7833
0
LINE
8
Black
10
11.2786
20
-84.7833
11
11.2167
21
-84.8452
0
LINE
8
Black
10
11.2167
20
-84.8452
11
11.0929
21
-84.9071
0
LINE
8
Black
10
11.0929
20
-84.9071
11
10.6595
21
-84.9071
0
LINE
8
Black
10
11.4024
20
-135.464
11
11.3405
21
-135.526
0
LINE
8
Black
10
11.3405
20
-135.526
11
11.1548
21
-135.588
0
LINE
8
Black
10
11.1548
20
-135.588
11
11.031
21
-135.588
0
LINE
8
Black
10
11.031
20
-135.588
11
10.8452
21
-135.526
0
LINE
8
Black
10
10.8452
20
-135.526
11
10.7214
21
-135.402
0
LINE
8
Black
10
10.7214
20
-135.402
11
10.6595
21
-135.279
0
LINE
8
Black
10
10.6595
20
-135.279
11
10.5976
21
-135.031
0
LINE
8
Black
10
10.5976
20
-135.031
11
10.5976
21
-134.845
0
LINE
8
Black
10
10.5976
20
-134.845
11
10.6595
21
-134.598
0
LINE
8
Black
10
10.6595
20
-134.598
11
10.7214
21
-134.474
0
LINE
8
Black
10
10.7214
20
-134.474
11
10.8452
21
-134.35
0
LINE
8
Black
10
10.8452
20
-134.35
11
11.031
21
-134.288
0
LINE
8
Black
10
11.031
20
-134.288
11
11.1548
21
-134.288
0
LINE
8
Black
10
11.1548
20
-134.288
11
11.3405
21
-134.35
0
LINE
8
Black
10
11.3405
20
-134.35
11
11.4024
21
-134.412
0
LINE
8
Black
10
10.6595
20
-185.588
11
10.6595
21
-184.288
0
LINE
8
Black
10
10.6595
20
-184.288
11
10.969
21
-184.288
0
LINE
8
Black
10
10.969
20
-184.288
11
11.1548
21
-184.35
0
LINE
8
Black
10
11.1548
20
-184.35
11
11.2786
21
-184.474
0
LINE
8
Black
10
11.2786
20
-184.474
11
11.3405
21
-184.598
0
LINE
8
Black
10
11.3405
20
-184.598
11
11.4024
21
-184.845
0
LINE
8
Black
10
11.4024
20
-184.845
11
11.4024
21
-185.031
0
LINE
8
Black
10
11.4024
20
-185.031
11
11.3405
21
-185.279
0
LINE
8
Black
10
11.3405
20
-185.279
11
11.2786
21
-185.402
0
LINE
8
Black
10
11.2786
20
-185.402
11
11.1548
21
-185.526
0
LINE
8
Black
10
11.1548
20
-185.526
11
10.969
21
-185.588
0
LINE
8
Black
10
10.969
20
-185.588
11
10.6595
21
-185.588
0
LINE
8
Black
10
287.002
20
-60
11
285.002
21
-60
0
LINE
8
Black
10
287.002
20
-110
11
285.002
21
-110
0
LINE
8
Black
10
287.002
20
-160
11
285.002
21
-160
0
LINE
8
Black
10
285.693
20
-35.2167
11
286.312
21
-35.2167
0
LINE
8
Black
10
285.569
20
-35.5881
11
286.002
21
-34.2881
0
LINE
8
Black
10
286.002
20
-34.2881
11
286.436
21
-35.5881
0
LINE
8
Black
10
286.095
20
-84.9071
11
286.281
21
-84.969
0
LINE
8
Black
10
286.281
20
-84.969
11
286.343
21
-85.031
0
LINE
8
Black
10
286.343
20
-85.031
11
286.405
21
-85.1548
0
LINE
8
Black
10
286.405
20
-85.1548
11
286.405
21
-85.3405
0
LINE
8
Black
10
286.405
20
-85.3405
11
286.343
21
-85.4643
0
LINE
8
Black
10
286.343
20
-85.4643
11
286.281
21
-85.5262
0
LINE
8
Black
10
286.281
20
-85.5262
11
286.157
21
-85.5881
0
LINE
8
Black
10
286.157
20
-85.5881
11
285.662
21
-85.5881
0
LINE
8
Black
10
285.662
20
-85.5881
11
285.662
21
-84.2881
0
LINE
8
Black
10
285.662
20
-84.2881
11
286.095
21
-84.2881
0
LINE
8
Black
10
286.095
20
-84.2881
11
286.219
21
-84.35
0
LINE
8
Black
10
286.219
20
-84.35
11
286.281
21
-84.4119
0
LINE
8
Black
10
286.281
20
-84.4119
11
286.343
21
-84.5357
0
LINE
8
Black
10
286.343
20
-84.5357
11
286.343
21
-84.6595
0
LINE
8
Black
10
286.343
20
-84.6595
11
286.281
21
-84.7833
0
LINE
8
Black
10
286.281
20
-84.7833
11
286.219
21
-84.8452
0
LINE
8
Black
10
286.219
20
-84.8452
11
286.095
21
-84.9071
0
LINE
8
Black
10
286.095
20
-84.9071
11
285.662
21
-84.9071
0
LINE
8
Black
10
286.405
20
-135.464
11
286.343
21
-135.526
0
LINE
8
Black
10
286.343
20
-135.526
11
286.157
21
-135.588
0
LINE
8
Black
10
286.157
20
-135.588
11
286.033
21
-135.588
0
LINE
8
Black
10
286.033
20
-135.588
11
285.847
21
-135.526
0
LINE
8
Black
10
285.847
20
-135.526
11
285.724
21
-135.402
0
LINE
8
Black
10
285.724
20
-135.402
11
285.662
21
-135.279
0
LINE
8
Black
10
285.662
20
-135.279
11
285.6
21
-135.031
0
LINE
8
Black
10
285.6
20
-135.031
11
285.6
21
-134.845
0
LINE
8
Black
10
285.6
20
-134.845
11
285.662
21
-134.598
0
LINE
8
Black
10
285.662
20
-134.598
11
285.724
21
-134.474
0
LINE
8
Black
10
285.724
20
-134.474
11
285.847
21
-134.35
0
LINE
8
Black
10
285.847
20
-134.35
11
286.033
21
-134.288
0
LINE
8
Black
10
286.033
20
-134.288
11
286.157
21
-134.288
0
LINE
8
Black
10
286.157
20
-134.288
11
286.343
21
-134.35
0
LINE
8
Black
10
286.343
20
-134.35
11
286.405
21
-134.412
0
LINE
8
Black
10
285.662
20
-185.588
11
285.662
21
-184.288
0
LINE
8
Black
10
285.662
20
-184.288
11
285.971
21
-184.288
0
LINE
8
Black
10
285.971
20
-184.288
11
286.157
21
-184.35
0
LINE
8
Black
10
286.157
20
-184.35
11
286.281
21
-184.474
0
LINE
8
Black
10
286.281
20
-184.474
11
286.343
21
-184.598
0
LINE
8
Black
10
286.343
20
-184.598
11
286.405
21
-184.845
0
LINE
8
Black
10
286.405
20
-184.845
11
286.405
21
-185.031
0
LINE
8
Black
10
286.405
20
-185.031
11
286.343
21
-185.279
0
LINE
8
Black
10
286.343
20
-185.279
11
286.281
21
-185.402
0
LINE
8
Black
10
286.281
20
-185.402
11
286.157
21
-185.526
0
LINE
8
Black
10
286.157
20
-185.526
11
285.971
21
-185.588
0
LINE
8
Black
10
285.971
20
-185.588
11
285.662
21
-185.588
0
LINE
8
Black
10
200.359
20
-193.786
11
200.359
21
-192.286
0
LINE
8
Black
10
200.359
20
-192.286
11
200.716
21
-192.286
0
LINE
8
Black
10
200.716
20
-192.286
11
200.931
21
-192.357
0
LINE
8
Black
10
200.931
20
-192.357
11
201.074
21
-192.5
0
LINE
8
Black
10
201.074
20
-192.5
11
201.145
21
-192.643
0
LINE
8
Black
10
201.145
20
-192.643
11
201.216
21
-192.929
0
LINE
8
Black
10
201.216
20
-192.929
11
201.216
21
-193.143
0
LINE
8
Black
10
201.216
20
-193.143
11
201.145
21
-193.429
0
LINE
8
Black
10
201.145
20
-193.429
11
201.074
21
-193.571
0
LINE
8
Black
10
201.074
20
-193.571
11
200.931
21
-193.714
0
LINE
8
Black
10
200.931
20
-193.714
11
200.716
21
-193.786
0
LINE
8
Black
10
200.716
20
-193.786
11
200.359
21
-193.786
0
LINE
8
Black
10
202.502
20
-193.786
11
202.502
21
-193
0
LINE
8
Black
10
202.502
20
-193
11
202.431
21
-192.857
0
LINE
8
Black
10
202.431
20
-192.857
11
202.288
21
-192.786
0
LINE
8
Black
10
202.288
20
-192.786
11
202.002
21
-192.786
0
LINE
8
Black
10
202.002
20
-192.786
11
201.859
21
-192.857
0
LINE
8
Black
10
202.502
20
-193.714
11
202.359
21
-193.786
0
LINE
8
Black
10
202.359
20
-193.786
11
202.002
21
-193.786
0
LINE
8
Black
10
202.002
20
-193.786
11
201.859
21
-193.714
0
LINE
8
Black
10
201.859
20
-193.714
11
201.788
21
-193.571
0
LINE
8
Black
10
201.788
20
-193.571
11
201.788
21
-193.429
0
LINE
8
Black
10
201.788
20
-193.429
11
201.859
21
-193.286
0
LINE
8
Black
10
201.859
20
-193.286
11
202.002
21
-193.214
0
LINE
8
Black
10
202.002
20
-193.214
11
202.359
21
-193.214
0
LINE
8
Black
10
202.359
20
-193.214
11
202.502
21
-193.143
0
LINE
8
Black
10
203.002
20
-192.786
11
203.574
21
-192.786
0
LINE
8
Black
10
203.216
20
-192.286
11
203.216
21
-193.571
0
LINE
8
Black
10
203.216
20
-193.571
11
203.288
21
-193.714
0
LINE
8
Black
10
203.288
20
-193.714
11
203.431
21
-193.786
0
LINE
8
Black
10
203.431
20
-193.786
11
203.574
21
-193.786
0
LINE
8
Black
10
204.645
20
-193.714
11
204.502
21
-193.786
0
LINE
8
Black
10
204.502
20
-193.786
11
204.216
21
-193.786
0
LINE
8
Black
10
204.216
20
-193.786
11
204.074
21
-193.714
0
LINE
8
Black
10
204.074
20
-193.714
11
204.002
21
-193.571
0
LINE
8
Black
10
204.002
20
-193.571
11
204.002
21
-193
0
LINE
8
Black
10
204.002
20
-193
11
204.074
21
-192.857
0
LINE
8
Black
10
204.074
20
-192.857
11
204.216
21
-192.786
0
LINE
8
Black
10
204.216
20
-192.786
11
204.502
21
-192.786
0
LINE
8
Black
10
204.502
20
-192.786
11
204.645
21
-192.857
0
LINE
8
Black
10
204.645
20
-192.857
11
204.716
21
-193
0
LINE
8
Black
10
204.716
20
-193
11
204.716
21
-193.143
0
LINE
8
Black
10
204.716
20
-193.143
11
204.002
21
-193.286
0
LINE
8
Black
10
205.359
20
-193.643
11
205.431
21
-193.714
0
LINE
8
Black
10
205.431
20
-193.714
11
205.359
21
-193.786
0
LINE
8
Black
10
205.359
20
-193.786
11
205.288
21
-193.714
0
LINE
8
Black
10
205.288
20
-193.714
11
205.359
21
-193.643
0
LINE
8
Black
10
205.359
20
-193.643
11
205.359
21
-193.786
0
LINE
8
Black
10
205.359
20
-192.857
11
205.431
21
-192.929
0
LINE
8
Black
10
205.431
20
-192.929
11
205.359
21
-193
0
LINE
8
Black
10
205.359
20
-193
11
205.288
21
-192.929
0
LINE
8
Black
10
205.288
20
-192.929
11
205.359
21
-192.857
0
LINE
8
Black
10
205.359
20
-192.857
11
205.359
21
-193
0
LINE
8
Black
10
177.002
20
-194.507
11
285.002
21
-194.507
0
LINE
8
Black
10
178.359
20
-196.586
11
178.359
21
-195.086
0
LINE
8
Black
10
179.216
20
-196.586
11
178.574
21
-195.729
0
LINE
8
Black
10
179.216
20
-195.086
11
178.359
21
-195.943
0
LINE
8
Black
10
179.859
20
-196.586
11
179.859
21
-195.586
0
LINE
8
Black
10
179.859
20
-195.086
11
179.788
21
-195.157
0
LINE
8
Black
10
179.788
20
-195.157
11
179.859
21
-195.229
0
LINE
8
Black
10
179.859
20
-195.229
11
179.931
21
-195.157
0
LINE
8
Black
10
179.931
20
-195.157
11
179.859
21
-195.086
0
LINE
8
Black
10
179.859
20
-195.086
11
179.859
21
-195.229
0
LINE
8
Black
10
181.431
20
-196.443
11
181.359
21
-196.514
0
LINE
8
Black
10
181.359
20
-196.514
11
181.145
21
-196.586
0
LINE
8
Black
10
181.145
20
-196.586
11
181.002
21
-196.586
0
LINE
8
Black
10
181.002
20
-196.586
11
180.788
21
-196.514
0
LINE
8
Black
10
180.788
20
-196.514
11
180.645
21
-196.371
0
LINE
8
Black
10
180.645
20
-196.371
11
180.574
21
-196.229
0
LINE
8
Black
10
180.574
20
-196.229
11
180.502
21
-195.943
0
LINE
8
Black
10
180.502
20
-195.943
11
180.502
21
-195.729
0
LINE
8
Black
10
180.502
20
-195.729
11
180.574
21
-195.443
0
LINE
8
Black
10
180.574
20
-195.443
11
180.645
21
-195.3
0
LINE
8
Black
10
180.645
20
-195.3
11
180.788
21
-195.157
0
LINE
8
Black
10
180.788
20
-195.157
11
181.002
21
-195.086
0
LINE
8
Black
10
181.002
20
-195.086
11
181.145
21
-195.086
0
LINE
8
Black
10
181.145
20
-195.086
11
181.359
21
-195.157
0
LINE
8
Black
10
181.359
20
-195.157
11
181.431
21
-195.229
0
LINE
8
Black
10
182.716
20
-196.586
11
182.716
21
-195.8
0
LINE
8
Black
10
182.716
20
-195.8
11
182.645
21
-195.657
0
LINE
8
Black
10
182.645
20
-195.657
11
182.502
21
-195.586
0
LINE
8
Black
10
182.502
20
-195.586
11
182.216
21
-195.586
0
LINE
8
Black
10
182.216
20
-195.586
11
182.074
21
-195.657
0
LINE
8
Black
10
182.716
20
-196.514
11
182.574
21
-196.586
0
LINE
8
Black
10
182.574
20
-196.586
11
182.216
21
-196.586
0
LINE
8
Black
10
182.216
20
-196.586
11
182.074
21
-196.514
0
LINE
8
Black
10
182.074
20
-196.514
11
182.002
21
-196.371
0
LINE
8
Black
10
182.002
20
-196.371
11
182.002
21
-196.229
0
LINE
8
Black
10
182.002
20
-196.229
11
182.074
21
-196.086
0
LINE
8
Black
10
182.074
20
-196.086
11
182.216
21
-196.014
0
LINE
8
Black
10
182.216
20
-196.014
11
182.574
21
-196.014
0
LINE
8
Black
10
182.574
20
-196.014
11
182.716
21
-195.943
0
LINE
8
Black
10
184.074
20
-196.586
11
184.074
21
-195.086
0
LINE
8
Black
10
184.074
20
-196.514
11
183.931
21
-196.586
0
LINE
8
Black
10
183.931
20
-196.586
11
183.645
21
-196.586
0
LINE
8
Black
10
183.645
20
-196.586
11
183.502
21
-196.514
0
LINE
8
Black
10
183.502
20
-196.514
11
183.431
21
-196.443
0
LINE
8
Black
10
183.431
20
-196.443
11
183.359
21
-196.3
0
LINE
8
Black
10
183.359
20
-196.3
11
183.359
21
-195.871
0
LINE
8
Black
10
183.359
20
-195.871
11
183.431
21
-195.729
0
LINE
8
Black
10
183.431
20
-195.729
11
183.502
21
-195.657
0
LINE
8
Black
10
183.502
20
-195.657
11
183.645
21
-195.586
0
LINE
8
Black
10
183.645
20
-195.586
11
183.931
21
-195.586
0
LINE
8
Black
10
183.931
20
-195.586
11
184.074
21
-195.657
0
LINE
8
Black
10
185.931
20
-195.8
11
186.431
21
-195.8
0
LINE
8
Black
10
186.645
20
-196.586
11
185.931
21
-196.586
0
LINE
8
Black
10
185.931
20
-196.586
11
185.931
21
-195.086
0
LINE
8
Black
10
185.931
20
-195.086
11
186.645
21
-195.086
0
LINE
8
Black
10
187.288
20
-196.443
11
187.359
21
-196.514
0
LINE
8
Black
10
187.359
20
-196.514
11
187.288
21
-196.586
0
LINE
8
Black
10
187.288
20
-196.586
11
187.216
21
-196.514
0
LINE
8
Black
10
187.216
20
-196.514
11
187.288
21
-196.443
0
LINE
8
Black
10
187.288
20
-196.443
11
187.288
21
-196.586
0
LINE
8
Black
10
188.002
20
-196.586
11
188.002
21
-195.086
0
LINE
8
Black
10
188.002
20
-195.086
11
188.359
21
-195.086
0
LINE
8
Black
10
188.359
20
-195.086
11
188.574
21
-195.157
0
LINE
8
Black
10
188.574
20
-195.157
11
188.716
21
-195.3
0
LINE
8
Black
10
188.716
20
-195.3
11
188.788
21
-195.443
0
LINE
8
Black
10
188.788
20
-195.443
11
188.859
21
-195.729
0
LINE
8
Black
10
188.859
20
-195.729
11
188.859
21
-195.943
0
LINE
8
Black
10
188.859
20
-195.943
11
188.788
21
-196.229
0
LINE
8
Black
10
188.788
20
-196.229
11
188.716
21
-196.371
0
LINE
8
Black
10
188.716
20
-196.371
11
188.574
21
-196.514
0
LINE
8
Black
10
188.574
20
-196.514
11
188.359
21
-196.586
0
LINE
8
Black
10
188.359
20
-196.586
11
188.002
21
-196.586
0
LINE
8
Black
10
189.502
20
-196.443
11
189.574
21
-196.514
0
LINE
8
Black
10
189.574
20
-196.514
11
189.502
21
-196.586
0
LINE
8
Black
10
189.502
20
-196.586
11
189.431
21
-196.514
0
LINE
8
Black
10
189.431
20
-196.514
11
189.502
21
-196.443
0
LINE
8
Black
10
189.502
20
-196.443
11
189.502
21
-196.586
0
LINE
8
Black
10
190.145
20
-196.157
11
190.859
21
-196.157
0
LINE
8
Black
10
190.002
20
-196.586
11
190.502
21
-195.086
0
LINE
8
Black
10
190.502
20
-195.086
11
191.002
21
-196.586
0
LINE
8
Black
10
191.502
20
-196.443
11
191.574
21
-196.514
0
LINE
8
Black
10
191.574
20
-196.514
11
191.502
21
-196.586
0
LINE
8
Black
10
191.502
20
-196.586
11
191.431
21
-196.514
0
LINE
8
Black
10
191.431
20
-196.514
11
191.502
21
-196.443
0
LINE
8
Black
10
191.502
20
-196.443
11
191.502
21
-196.586
0
LINE
8
Black
10
194.502
20
-195.586
11
194.502
21
-197.086
0
LINE
8
Black
10
194.502
20
-195.657
11
194.645
21
-195.586
0
LINE
8
Black
10
194.645
20
-195.586
11
194.931
21
-195.586
0
LINE
8
Black
10
194.931
20
-195.586
11
195.074
21
-195.657
0
LINE
8
Black
10
195.074
20
-195.657
11
195.145
21
-195.729
0
LINE
8
Black
10
195.145
20
-195.729
11
195.216
21
-195.871
0
LINE
8
Black
10
195.216
20
-195.871
11
195.216
21
-196.3
0
LINE
8
Black
10
195.216
20
-196.3
11
195.145
21
-196.443
0
LINE
8
Black
10
195.145
20
-196.443
11
195.074
21
-196.514
0
LINE
8
Black
10
195.074
20
-196.514
11
194.931
21
-196.586
0
LINE
8
Black
10
194.931
20
-196.586
11
194.645
21
-196.586
0
LINE
8
Black
10
194.645
20
-196.586
11
194.502
21
-196.514
0
LINE
8
Black
10
196.502
20
-196.514
11
196.359
21
-196.586
0
LINE
8
Black
10
196.359
20
-196.586
11
196.074
21
-196.586
0
LINE
8
Black
10
196.074
20
-196.586
11
195.931
21
-196.514
0
LINE
8
Black
10
195.931
20
-196.514
11
195.859
21
-196.443
0
LINE
8
Black
10
195.859
20
-196.443
11
195.788
21
-196.3
0
LINE
8
Black
10
195.788
20
-196.3
11
195.788
21
-195.871
0
LINE
8
Black
10
195.788
20
-195.871
11
195.859
21
-195.729
0
LINE
8
Black
10
195.859
20
-195.729
11
195.931
21
-195.657
0
LINE
8
Black
10
195.931
20
-195.657
11
196.074
21
-195.586
0
LINE
8
Black
10
196.074
20
-195.586
11
196.359
21
-195.586
0
LINE
8
Black
10
196.359
20
-195.586
11
196.502
21
-195.657
0
LINE
8
Black
10
197.145
20
-196.586
11
197.145
21
-195.086
0
LINE
8
Black
10
197.145
20
-195.657
11
197.288
21
-195.586
0
LINE
8
Black
10
197.288
20
-195.586
11
197.574
21
-195.586
0
LINE
8
Black
10
197.574
20
-195.586
11
197.716
21
-195.657
0
LINE
8
Black
10
197.716
20
-195.657
11
197.788
21
-195.729
0
LINE
8
Black
10
197.788
20
-195.729
11
197.859
21
-195.871
0
LINE
8
Black
10
197.859
20
-195.871
11
197.859
21
-196.3
0
LINE
8
Black
10
197.859
20
-196.3
11
197.788
21
-196.443
0
LINE
8
Black
10
197.788
20
-196.443
11
197.716
21
-196.514
0
LINE
8
Black
10
197.716
20
-196.514
11
197.574
21
-196.586
0
LINE
8
Black
10
197.574
20
-196.586
11
197.288
21
-196.586
0
LINE
8
Black
10
197.288
20
-196.586
11
197.145
21
-196.514
0
LINE
8
Black
10
198.502
20
-195.586
11
198.502
21
-196.586
0
LINE
8
Black
10
198.502
20
-195.729
11
198.574
21
-195.657
0
LINE
8
Black
10
198.574
20
-195.657
11
198.716
21
-195.586
0
LINE
8
Black
10
198.716
20
-195.586
11
198.931
21
-195.586
0
LINE
8
Black
10
198.931
20
-195.586
11
199.074
21
-195.657
0
LINE
8
Black
10
199.074
20
-195.657
11
199.145
21
-195.8
0
LINE
8
Black
10
199.145
20
-195.8
11
199.145
21
-196.586
0
LINE
8
Black
10
200.431
20
-196.514
11
200.288
21
-196.586
0
LINE
8
Black
10
200.288
20
-196.586
11
200.002
21
-196.586
0
LINE
8
Black
10
200.002
20
-196.586
11
199.859
21
-196.514
0
LINE
8
Black
10
199.859
20
-196.514
11
199.788
21
-196.371
0
LINE
8
Black
10
199.788
20
-196.371
11
199.788
21
-195.8
0
LINE
8
Black
10
199.788
20
-195.8
11
199.859
21
-195.657
0
LINE
8
Black
10
199.859
20
-195.657
11
200.002
21
-195.586
0
LINE
8
Black
10
200.002
20
-195.586
11
200.288
21
-195.586
0
LINE
8
Black
10
200.288
20
-195.586
11
200.431
21
-195.657
0
LINE
8
Black
10
200.431
20
-195.657
11
200.502
21
-195.8
0
LINE
8
Black
10
200.502
20
-195.8
11
200.502
21
-195.943
0
LINE
8
Black
10
200.502
20
-195.943
11
199.788
21
-196.086
0
LINE
8
Black
10
201.002
20
-195.586
11
201.288
21
-196.586
0
LINE
8
Black
10
201.288
20
-196.586
11
201.574
21
-195.871
0
LINE
8
Black
10
201.574
20
-195.871
11
201.859
21
-196.586
0
LINE
8
Black
10
201.859
20
-196.586
11
202.145
21
-195.586
0
LINE
8
Black
10
204.502
20
-195.586
11
204.502
21
-196.586
0
LINE
8
Black
10
204.145
20
-195.014
11
203.788
21
-196.086
0
LINE
8
Black
10
203.788
20
-196.086
11
204.716
21
-196.086
0
LINE
8
Black
10
205.288
20
-196.443
11
205.359
21
-196.514
0
LINE
8
Black
10
205.359
20
-196.514
11
205.288
21
-196.586
0
LINE
8
Black
10
205.288
20
-196.586
11
205.216
21
-196.514
0
LINE
8
Black
10
205.216
20
-196.514
11
205.288
21
-196.443
0
LINE
8
Black
10
205.288
20
-196.443
11
205.288
21
-196.586
0
LINE
8
Black
10
206.288
20
-195.086
11
206.431
21
-195.086
0
LINE
8
Black
10
206.431
20
-195.086
11
206.574
21
-195.157
0
LINE
8
Black
10
206.574
20
-195.157
11
206.645
21
-195.229
0
LINE
8
Black
10
206.645
20
-195.229
11
206.716
21
-195.371
0
LINE
8
Black
10
206.716
20
-195.371
11
206.788
21
-195.657
0
LINE
8
Black
10
206.788
20
-195.657
11
206.788
21
-196.014
0
LINE
8
Black
10
206.788
20
-196.014
11
206.716
21
-196.3
0
LINE
8
Black
10
206.716
20
-196.3
11
206.645
21
-196.443
0
LINE
8
Black
10
206.645
20
-196.443
11
206.574
21
-196.514
0
LINE
8
Black
10
206.574
20
-196.514
11
206.431
21
-196.586
0
LINE
8
Black
10
206.431
20
-196.586
11
206.288
21
-196.586
0
LINE
8
Black
10
206.288
20
-196.586
11
206.145
21
-196.514
0
LINE
8
Black
10
206.145
20
-196.514
11
206.074
21
-196.443
0
LINE
8
Black
10
206.074
20
-196.443
11
206.002
21
-196.3
0
LINE
8
Black
10
206.002
20
-196.3
11
205.931
21
-196.014
0
LINE
8
Black
10
205.931
20
-196.014
11
205.931
21
-195.657
0
LINE
8
Black
10
205.931
20
-195.657
11
206.002
21
-195.371
0
LINE
8
Black
10
206.002
20
-195.371
11
206.074
21
-195.229
0
LINE
8
Black
10
206.074
20
-195.229
11
206.145
21
-195.157
0
LINE
8
Black
10
206.145
20
-195.157
11
206.288
21
-195.086
0
LINE
8
Black
10
207.431
20
-196.443
11
207.502
21
-196.514
0
LINE
8
Black
10
207.502
20
-196.514
11
207.431
21
-196.586
0
LINE
8
Black
10
207.431
20
-196.586
11
207.359
21
-196.514
0
LINE
8
Black
10
207.359
20
-196.514
11
207.431
21
-196.443
0
LINE
8
Black
10
207.431
20
-196.443
11
207.431
21
-196.586
0
LINE
8
Black
10
208.931
20
-196.586
11
208.074
21
-196.586
0
LINE
8
Black
10
208.502
20
-196.586
11
208.502
21
-195.086
0
LINE
8
Black
10
208.502
20
-195.086
11
208.359
21
-195.3
0
LINE
8
Black
10
208.359
20
-195.3
11
208.216
21
-195.443
0
LINE
8
Black
10
208.216
20
-195.443
11
208.074
21
-195.514
0
LINE
8
Black
10
209.574
20
-196.014
11
210.716
21
-196.014
0
LINE
8
Black
10
212.074
20
-195.586
11
212.074
21
-196.586
0
LINE
8
Black
10
211.716
20
-195.014
11
211.359
21
-196.086
0
LINE
8
Black
10
211.359
20
-196.086
11
212.288
21
-196.086
0
LINE
8
Black
10
212.859
20
-196.443
11
212.931
21
-196.514
0
LINE
8
Black
10
212.931
20
-196.514
11
212.859
21
-196.586
0
LINE
8
Black
10
212.859
20
-196.586
11
212.788
21
-196.514
0
LINE
8
Black
10
212.788
20
-196.514
11
212.859
21
-196.443
0
LINE
8
Black
10
212.859
20
-196.443
11
212.859
21
-196.586
0
LINE
8
Black
10
213.502
20
-195.229
11
213.574
21
-195.157
0
LINE
8
Black
10
213.574
20
-195.157
11
213.716
21
-195.086
0
LINE
8
Black
10
213.716
20
-195.086
11
214.074
21
-195.086
0
LINE
8
Black
10
214.074
20
-195.086
11
214.216
21
-195.157
0
LINE
8
Black
10
214.216
20
-195.157
11
214.288
21
-195.229
0
LINE
8
Black
10
214.288
20
-195.229
11
214.359
21
-195.371
0
LINE
8
Black
10
214.359
20
-195.371
11
214.359
21
-195.514
0
LINE
8
Black
10
214.359
20
-195.514
11
214.288
21
-195.729
0
LINE
8
Black
10
214.288
20
-195.729
11
213.431
21
-196.586
0
LINE
8
Black
10
213.431
20
-196.586
11
214.359
21
-196.586
0
LINE
8
Black
10
215.288
20
-195.086
11
215.431
21
-195.086
0
LINE
8
Black
10
215.431
20
-195.086
11
215.574
21
-195.157
0
LINE
8
Black
10
215.574
20
-195.157
11
215.645
21
-195.229
0
LINE
8
Black
10
215.645
20
-195.229
11
215.716
21
-195.371
0
LINE
8
Black
10
215.716
20
-195.371
11
215.788
21
-195.657
0
LINE
8
Black
10
215.788
20
-195.657
11
215.788
21
-196.014
0
LINE
8
Black
10
215.788
20
-196.014
11
215.716
21
-196.3
0
LINE
8
Black
10
215.716
20
-196.3
11
215.645
21
-196.443
0
LINE
8
Black
10
215.645
20
-196.443
11
215.574
21
-196.514
0
LINE
8
Black
10
215.574
20
-196.514
11
215.431
21
-196.586
0
LINE
8
Black
10
215.431
20
-196.586
11
215.288
21
-196.586
0
LINE
8
Black
10
215.288
20
-196.586
11
215.145
21
-196.514
0
LINE
8
Black
10
215.145
20
-196.514
11
215.074
21
-196.443
0
LINE
8
Black
10
215.074
20
-196.443
11
215.002
21
-196.3
0
LINE
8
Black
10
215.002
20
-196.3
11
214.931
21
-196.014
0
LINE
8
Black
10
214.931
20
-196.014
11
214.931
21
-195.657
0
LINE
8
Black
10
214.931
20
-195.657
11
215.002
21
-195.371
0
LINE
8
Black
10
215.002
20
-195.371
11
215.074
21
-195.229
0
LINE
8
Black
10
215.074
20
-195.229
11
215.145
21
-195.157
0
LINE
8
Black
10
215.145
20
-195.157
11
215.288
21
-195.086
0
LINE
8
Black
10
217.216
20
-196.586
11
216.359
21
-196.586
0
LINE
8
Black
10
216.788
20
-196.586
11
216.788
21
-195.086
0
LINE
8
Black
10
216.788
20
-195.086
11
216.645
21
-195.3
0
LINE
8
Black
10
216.645
20
-195.3
11
216.502
21
-195.443
0
LINE
8
Black
10
216.502
20
-195.443
11
216.359
21
-195.514
0
LINE
8
Black
10
218.502
20
-195.086
11
218.216
21
-195.086
0
LINE
8
Black
10
218.216
20
-195.086
11
218.074
21
-195.157
0
LINE
8
Black
10
218.074
20
-195.157
11
218.002
21
-195.229
0
LINE
8
Black
10
218.002
20
-195.229
11
217.859
21
-195.443
0
LINE
8
Black
10
217.859
20
-195.443
11
217.788
21
-195.729
0
LINE
8
Black
10
217.788
20
-195.729
11
217.788
21
-196.3
0
LINE
8
Black
10
217.788
20
-196.3
11
217.859
21
-196.443
0
LINE
8
Black
10
217.859
20
-196.443
11
217.931
21
-196.514
0
LINE
8
Black
10
217.931
20
-196.514
11
218.074
21
-196.586
0
LINE
8
Black
10
218.074
20
-196.586
11
218.359
21
-196.586
0
LINE
8
Black
10
218.359
20
-196.586
11
218.502
21
-196.514
0
LINE
8
Black
10
218.502
20
-196.514
11
218.574
21
-196.443
0
LINE
8
Black
10
218.574
20
-196.443
11
218.645
21
-196.3
0
LINE
8
Black
10
218.645
20
-196.3
11
218.645
21
-195.943
0
LINE
8
Black
10
218.645
20
-195.943
11
218.574
21
-195.8
0
LINE
8
Black
10
218.574
20
-195.8
11
218.502
21
-195.729
0
LINE
8
Black
10
218.502
20
-195.729
11
218.359
21
-195.657
0
LINE
8
Black
10
218.359
20
-195.657
11
218.074
21
-195.657
0
LINE
8
Black
10
218.074
20
-195.657
11
217.931
21
-195.729
0
LINE
8
Black
10
217.931
20
-195.729
11
217.859
21
-195.8
0
LINE
8
Black
10
217.859
20
-195.8
11
217.788
21
-195.943
0
LINE
8
Black
10
219.574
20
-195.086
11
219.716
21
-195.086
0
LINE
8
Black
10
219.716
20
-195.086
11
219.859
21
-195.157
0
LINE
8
Black
10
219.859
20
-195.157
11
219.931
21
-195.229
0
LINE
8
Black
10
219.931
20
-195.229
11
220.002
21
-195.371
0
LINE
8
Black
10
220.002
20
-195.371
11
220.074
21
-195.657
0
LINE
8
Black
10
220.074
20
-195.657
11
220.074
21
-196.014
0
LINE
8
Black
10
220.074
20
-196.014
11
220.002
21
-196.3
0
LINE
8
Black
10
220.002
20
-196.3
11
219.931
21
-196.443
0
LINE
8
Black
10
219.931
20
-196.443
11
219.859
21
-196.514
0
LINE
8
Black
10
219.859
20
-196.514
11
219.716
21
-196.586
0
LINE
8
Black
10
219.716
20
-196.586
11
219.574
21
-196.586
0
LINE
8
Black
10
219.574
20
-196.586
11
219.431
21
-196.514
0
LINE
8
Black
10
219.431
20
-196.514
11
219.359
21
-196.443
0
LINE
8
Black
10
219.359
20
-196.443
11
219.288
21
-196.3
0
LINE
8
Black
10
219.288
20
-196.3
11
219.216
21
-196.014
0
LINE
8
Black
10
219.216
20
-196.014
11
219.216
21
-195.657
0
LINE
8
Black
10
219.216
20
-195.657
11
219.288
21
-195.371
0
LINE
8
Black
10
219.288
20
-195.371
11
219.359
21
-195.229
0
LINE
8
Black
10
219.359
20
-195.229
11
219.431
21
-195.157
0
LINE
8
Black
10
219.431
20
-195.157
11
219.574
21
-195.086
0
LINE
8
Black
10
220.645
20
-195.229
11
220.716
21
-195.157
0
LINE
8
Black
10
220.716
20
-195.157
11
220.859
21
-195.086
0
LINE
8
Black
10
220.859
20
-195.086
11
221.216
21
-195.086
0
LINE
8
Black
10
221.216
20
-195.086
11
221.359
21
-195.157
0
LINE
8
Black
10
221.359
20
-195.157
11
221.431
21
-195.229
0
LINE
8
Black
10
221.431
20
-195.229
11
221.502
21
-195.371
0
LINE
8
Black
10
221.502
20
-195.371
11
221.502
21
-195.514
0
LINE
8
Black
10
221.502
20
-195.514
11
221.431
21
-195.729
0
LINE
8
Black
10
221.431
20
-195.729
11
220.574
21
-196.586
0
LINE
8
Black
10
220.574
20
-196.586
11
221.502
21
-196.586
0
LINE
8
Black
10
222.931
20
-196.586
11
222.074
21
-196.586
0
LINE
8
Black
10
222.502
20
-196.586
11
222.502
21
-195.086
0
LINE
8
Black
10
222.502
20
-195.086
11
222.359
21
-195.3
0
LINE
8
Black
10
222.359
20
-195.3
11
222.216
21
-195.443
0
LINE
8
Black
10
222.216
20
-195.443
11
222.074
21
-195.514
0
LINE
8
Black
10
223.502
20
-195.229
11
223.574
21
-195.157
0
LINE
8
Black
10
223.574
20
-195.157
11
223.716
21
-195.086
0
LINE
8
Black
10
223.716
20
-195.086
11
224.074
21
-195.086
0
LINE
8
Black
10
224.074
20
-195.086
11
224.216
21
-195.157
0
LINE
8
Black
10
224.216
20
-195.157
11
224.288
21
-195.229
0
LINE
8
Black
10
224.288
20
-195.229
11
224.359
21
-195.371
0
LINE
8
Black
10
224.359
20
-195.371
11
224.359
21
-195.514
0
LINE
8
Black
10
224.359
20
-195.514
11
224.288
21
-195.729
0
LINE
8
Black
10
224.288
20
-195.729
11
223.431
21
-196.586
0
LINE
8
Black
10
223.431
20
-196.586
11
224.359
21
-196.586
0
LINE
8
Black
10
225.288
20
-195.086
11
225.431
21
-195.086
0
LINE
8
Black
10
225.431
20
-195.086
11
225.574
21
-195.157
0
LINE
8
Black
10
225.574
20
-195.157
11
225.645
21
-195.229
0
LINE
8
Black
10
225.645
20
-195.229
11
225.716
21
-195.371
0
LINE
8
Black
10
225.716
20
-195.371
11
225.788
21
-195.657
0
LINE
8
Black
10
225.788
20
-195.657
11
225.788
21
-196.014
0
LINE
8
Black
10
225.788
20
-196.014
11
225.716
21
-196.3
0
LINE
8
Black
10
225.716
20
-196.3
11
225.645
21
-196.443
0
LINE
8
Black
10
225.645
20
-196.443
11
225.574
21
-196.514
0
LINE
8
Black
10
225.574
20
-196.514
11
225.431
21
-196.586
0
LINE
8
Black
10
225.431
20
-196.586
11
225.288
21
-196.586
0
LINE
8
Black
10
225.288
20
-196.586
11
225.145
21
-196.514
0
LINE
8
Black
10
225.145
20
-196.514
11
225.074
21
-196.443
0
LINE
8
Black
10
225.074
20
-196.443
11
225.002
21
-196.3
0
LINE
8
Black
10
225.002
20
-196.3
11
224.931
21
-196.014
0
LINE
8
Black
10
224.931
20
-196.014
11
224.931
21
-195.657
0
LINE
8
Black
10
224.931
20
-195.657
11
225.002
21
-195.371
0
LINE
8
Black
10
225.002
20
-195.371
11
225.074
21
-195.229
0
LINE
8
Black
10
225.074
20
-195.229
11
225.145
21
-195.157
0
LINE
8
Black
10
225.145
20
-195.157
11
225.288
21
-195.086
0
LINE
8
Black
10
226.645
20
-195.729
11
226.502
21
-195.657
0
LINE
8
Black
10
226.502
20
-195.657
11
226.431
21
-195.586
0
LINE
8
Black
10
226.431
20
-195.586
11
226.359
21
-195.443
0
LINE
8
Black
10
226.359
20
-195.443
11
226.359
21
-195.371
0
LINE
8
Black
10
226.359
20
-195.371
11
226.431
21
-195.229
0
LINE
8
Black
10
226.431
20
-195.229
11
226.502
21
-195.157
0
LINE
8
Black
10
226.502
20
-195.157
11
226.645
21
-195.086
0
LINE
8
Black
10
226.645
20
-195.086
11
226.931
21
-195.086
0
LINE
8
Black
10
226.931
20
-195.086
11
227.074
21
-195.157
0
LINE
8
Black
10
227.074
20
-195.157
11
227.145
21
-195.229
0
LINE
8
Black
10
227.145
20
-195.229
11
227.216
21
-195.371
0
LINE
8
Black
10
227.216
20
-195.371
11
227.216
21
-195.443
0
LINE
8
Black
10
227.216
20
-195.443
11
227.145
21
-195.586
0
LINE
8
Black
10
227.145
20
-195.586
11
227.074
21
-195.657
0
LINE
8
Black
10
227.074
20
-195.657
11
226.931
21
-195.729
0
LINE
8
Black
10
226.931
20
-195.729
11
226.645
21
-195.729
0
LINE
8
Black
10
226.645
20
-195.729
11
226.502
21
-195.8
0
LINE
8
Black
10
226.502
20
-195.8
11
226.431
21
-195.871
0
LINE
8
Black
10
226.431
20
-195.871
11
226.359
21
-196.014
0
LINE
8
Black
10
226.359
20
-196.014
11
226.359
21
-196.3
0
LINE
8
Black
10
226.359
20
-196.3
11
226.431
21
-196.443
0
LINE
8
Black
10
226.431
20
-196.443
11
226.502
21
-196.514
0
LINE
8
Black
10
226.502
20
-196.514
11
226.645
21
-196.586
0
LINE
8
Black
10
226.645
20
-196.586
11
226.931
21
-196.586
0
LINE
8
Black
10
226.931
20
-196.586
11
227.074
21
-196.514
0
LINE
8
Black
10
227.074
20
-196.514
11
227.145
21
-196.443
0
LINE
8
Black
10
227.145
20
-196.443
11
227.216
21
-196.3
0
LINE
8
Black
10
227.216
20
-196.3
11
227.216
21
-196.014
0
LINE
8
Black
10
227.216
20
-196.014
11
227.145
21
-195.871
0
LINE
8
Black
10
227.145
20
-195.871
11
227.074
21
-195.8
0
LINE
8
Black
10
227.074
20
-195.8
11
226.931
21
-195.729
0
LINE
8
Black
10
228.502
20
-195.586
11
228.502
21
-196.586
0
LINE
8
Black
10
228.145
20
-195.014
11
227.788
21
-196.086
0
LINE
8
Black
10
227.788
20
-196.086
11
228.716
21
-196.086
0
LINE
8
Black
10
229.931
20
-195.086
11
229.645
21
-195.086
0
LINE
8
Black
10
229.645
20
-195.086
11
229.502
21
-195.157
0
LINE
8
Black
10
229.502
20
-195.157
11
229.431
21
-195.229
0
LINE
8
Black
10
229.431
20
-195.229
11
229.288
21
-195.443
0
LINE
8
Black
10
229.288
20
-195.443
11
229.216
21
-195.729
0
LINE
8
Black
10
229.216
20
-195.729
11
229.216
21
-196.3
0
LINE
8
Black
10
229.216
20
-196.3
11
229.288
21
-196.443
0
LINE
8
Black
10
229.288
20
-196.443
11
229.359
21
-196.514
0
LINE
8
Black
10
229.359
20
-196.514
11
229.502
21
-196.586
0
LINE
8
Black
10
229.502
20
-196.586
11
229.788
21
-196.586
0
LINE
8
Black
10
229.788
20
-196.586
11
229.931
21
-196.514
0
LINE
8
Black
10
229.931
20
-196.514
11
230.002
21
-196.443
0
LINE
8
Black
10
230.002
20
-196.443
11
230.074
21
-196.3
0
LINE
8
Black
10
230.074
20
-196.3
11
230.074
21
-195.943
0
LINE
8
Black
10
230.074
20
-195.943
11
230.002
21
-195.8
0
LINE
8
Black
10
230.002
20
-195.8
11
229.931
21
-195.729
0
LINE
8
Black
10
229.931
20
-195.729
11
229.788
21
-195.657
0
LINE
8
Black
10
229.788
20
-195.657
11
229.502
21
-195.657
0
LINE
8
Black
10
229.502
20
-195.657
11
229.359
21
-195.729
0
LINE
8
Black
10
229.359
20
-195.729
11
229.288
21
-195.8
0
LINE
8
Black
10
229.288
20
-195.8
11
229.216
21
-195.943
0
LINE
8
Black
10
230.716
20
-196.014
11
231.859
21
-196.014
0
LINE
8
Black
10
231.288
20
-196.586
11
231.288
21
-195.443
0
LINE
8
Black
10
233.216
20
-195.086
11
232.931
21
-195.086
0
LINE
8
Black
10
232.931
20
-195.086
11
232.788
21
-195.157
0
LINE
8
Black
10
232.788
20
-195.157
11
232.716
21
-195.229
0
LINE
8
Black
10
232.716
20
-195.229
11
232.574
21
-195.443
0
LINE
8
Black
10
232.574
20
-195.443
11
232.502
21
-195.729
0
LINE
8
Black
10
232.502
20
-195.729
11
232.502
21
-196.3
0
LINE
8
Black
10
232.502
20
-196.3
11
232.574
21
-196.443
0
LINE
8
Black
10
232.574
20
-196.443
11
232.645
21
-196.514
0
LINE
8
Black
10
232.645
20
-196.514
11
232.788
21
-196.586
0
LINE
8
Black
10
232.788
20
-196.586
11
233.074
21
-196.586
0
LINE
8
Black
10
233.074
20
-196.586
11
233.216
21
-196.514
0
LINE
8
Black
10
233.216
20
-196.514
11
233.288
21
-196.443
0
LINE
8
Black
10
233.288
20
-196.443
11
233.359
21
-196.3
0
LINE
8
Black
10
233.359
20
-196.3
11
233.359
21
-195.943
0
LINE
8
Black
10
233.359
20
-195.943
11
233.288
21
-195.8
0
LINE
8
Black
10
233.288
20
-195.8
11
233.216
21
-195.729
0
LINE
8
Black
10
233.216
20
-195.729
11
233.074
21
-195.657
0
LINE
8
Black
10
233.074
20
-195.657
11
232.788
21
-195.657
0
LINE
8
Black
10
232.788
20
-195.657
11
232.645
21
-195.729
0
LINE
8
Black
10
232.645
20
-195.729
11
232.574
21
-195.8
0
LINE
8
Black
10
232.574
20
-195.8
11
232.502
21
-195.943
0
LINE
8
Black
10
234.788
20
-196.586
11
233.931
21
-196.586
0
LINE
8
Black
10
234.359
20
-196.586
11
234.359
21
-195.086
0
LINE
8
Black
10
234.359
20
-195.086
11
234.216
21
-195.3
0
LINE
8
Black
10
234.216
20
-195.3
11
234.074
21
-195.443
0
LINE
8
Black
10
234.074
20
-195.443
11
233.931
21
-195.514
0
LINE
8
Black
10
235.502
20
-196.586
11
235.788
21
-196.586
0
LINE
8
Black
10
235.788
20
-196.586
11
235.931
21
-196.514
0
LINE
8
Black
10
235.931
20
-196.514
11
236.002
21
-196.443
0
LINE
8
Black
10
236.002
20
-196.443
11
236.145
21
-196.229
0
LINE
8
Black
10
236.145
20
-196.229
11
236.216
21
-195.943
0
LINE
8
Black
10
236.216
20
-195.943
11
236.216
21
-195.371
0
LINE
8
Black
10
236.216
20
-195.371
11
236.145
21
-195.229
0
LINE
8
Black
10
236.145
20
-195.229
11
236.074
21
-195.157
0
LINE
8
Black
10
236.074
20
-195.157
11
235.931
21
-195.086
0
LINE
8
Black
10
235.931
20
-195.086
11
235.645
21
-195.086
0
LINE
8
Black
10
235.645
20
-195.086
11
235.502
21
-195.157
0
LINE
8
Black
10
235.502
20
-195.157
11
235.431
21
-195.229
0
LINE
8
Black
10
235.431
20
-195.229
11
235.359
21
-195.371
0
LINE
8
Black
10
235.359
20
-195.371
11
235.359
21
-195.729
0
LINE
8
Black
10
235.359
20
-195.729
11
235.431
21
-195.871
0
LINE
8
Black
10
235.431
20
-195.871
11
235.502
21
-195.943
0
LINE
8
Black
10
235.502
20
-195.943
11
235.645
21
-196.014
0
LINE
8
Black
10
235.645
20
-196.014
11
235.931
21
-196.014
0
LINE
8
Black
10
235.931
20
-196.014
11
236.074
21
-195.943
0
LINE
8
Black
10
236.074
20
-195.943
11
236.145
21
-195.871
0
LINE
8
Black
10
236.145
20
-195.871
11
236.216
21
-195.729
0
LINE
8
Black
10
237.574
20
-195.086
11
236.859
21
-195.086
0
LINE
8
Black
10
236.859
20
-195.086
11
236.788
21
-195.8
0
LINE
8
Black
10
236.788
20
-195.8
11
236.859
21
-195.729
0
LINE
8
Black
10
236.859
20
-195.729
11
237.002
21
-195.657
0
LINE
8
Black
10
237.002
20
-195.657
11
237.359
21
-195.657
0
LINE
8
Black
10
237.359
20
-195.657
11
237.502
21
-195.729
0
LINE
8
Black
10
237.502
20
-195.729
11
237.574
21
-195.8
0
LINE
8
Black
10
237.574
20
-195.8
11
237.645
21
-195.943
0
LINE
8
Black
10
237.645
20
-195.943
11
237.645
21
-196.3
0
LINE
8
Black
10
237.645
20
-196.3
11
237.574
21
-196.443
0
LINE
8
Black
10
237.574
20
-196.443
11
237.502
21
-196.514
0
LINE
8
Black
10
237.502
20
-196.514
11
237.359
21
-196.586
0
LINE
8
Black
10
237.359
20
-196.586
11
237.002
21
-196.586
0
LINE
8
Black
10
237.002
20
-196.586
11
236.859
21
-196.514
0
LINE
8
Black
10
236.859
20
-196.514
11
236.788
21
-196.443
0
LINE
8
Black
10
238.145
20
-195.086
11
239.074
21
-195.086
0
LINE
8
Black
10
239.074
20
-195.086
11
238.574
21
-195.657
0
LINE
8
Black
10
238.574
20
-195.657
11
238.788
21
-195.657
0
LINE
8
Black
10
238.788
20
-195.657
11
238.931
21
-195.729
0
LINE
8
Black
10
238.931
20
-195.729
11
239.002
21
-195.8
0
LINE
8
Black
10
239.002
20
-195.8
11
239.074
21
-195.943
0
LINE
8
Black
10
239.074
20
-195.943
11
239.074
21
-196.3
0
LINE
8
Black
10
239.074
20
-196.3
11
239.002
21
-196.443
0
LINE
8
Black
10
239.002
20
-196.443
11
238.931
21
-196.514
0
LINE
8
Black
10
238.931
20
-196.514
11
238.788
21
-196.586
0
LINE
8
Black
10
238.788
20
-196.586
11
238.359
21
-196.586
0
LINE
8
Black
10
238.359
20
-196.586
11
238.216
21
-196.514
0
LINE
8
Black
10
238.216
20
-196.514
11
238.145
21
-196.443
0
LINE
8
Black
10
239.931
20
-195.729
11
239.788
21
-195.657
0
LINE
8
Black
10
239.788
20
-195.657
11
239.716
21
-195.586
0
LINE
8
Black
10
239.716
20
-195.586
11
239.645
21
-195.443
0
LINE
8
Black
10
239.645
20
-195.443
11
239.645
21
-195.371
0
LINE
8
Black
10
239.645
20
-195.371
11
239.716
21
-195.229
0
LINE
8
Black
10
239.716
20
-195.229
11
239.788
21
-195.157
0
LINE
8
Black
10
239.788
20
-195.157
11
239.931
21
-195.086
0
LINE
8
Black
10
239.931
20
-195.086
11
240.216
21
-195.086
0
LINE
8
Black
10
240.216
20
-195.086
11
240.359
21
-195.157
0
LINE
8
Black
10
240.359
20
-195.157
11
240.431
21
-195.229
0
LINE
8
Black
10
240.431
20
-195.229
11
240.502
21
-195.371
0
LINE
8
Black
10
240.502
20
-195.371
11
240.502
21
-195.443
0
LINE
8
Black
10
240.502
20
-195.443
11
240.431
21
-195.586
0
LINE
8
Black
10
240.431
20
-195.586
11
240.359
21
-195.657
0
LINE
8
Black
10
240.359
20
-195.657
11
240.216
21
-195.729
0
LINE
8
Black
10
240.216
20
-195.729
11
239.931
21
-195.729
0
LINE
8
Black
10
239.931
20
-195.729
11
239.788
21
-195.8
0
LINE
8
Black
10
239.788
20
-195.8
11
239.716
21
-195.871
0
LINE
8
Black
10
239.716
20
-195.871
11
239.645
21
-196.014
0
LINE
8
Black
10
239.645
20
-196.014
11
239.645
21
-196.3
0
LINE
8
Black
10
239.645
20
-196.3
11
239.716
21
-196.443
0
LINE
8
Black
10
239.716
20
-196.443
11
239.788
21
-196.514
0
LINE
8
Black
10
239.788
20
-196.514
11
239.931
21
-196.586
0
LINE
8
Black
10
239.931
20
-196.586
11
240.216
21
-196.586
0
LINE
8
Black
10
240.216
20
-196.586
11
240.359
21
-196.514
0
LINE
8
Black
10
240.359
20
-196.514
11
240.431
21
-196.443
0
LINE
8
Black
10
240.431
20
-196.443
11
240.502
21
-196.3
0
LINE
8
Black
10
240.502
20
-196.3
11
240.502
21
-196.014
0
LINE
8
Black
10
240.502
20
-196.014
11
240.431
21
-195.871
0
LINE
8
Black
10
240.431
20
-195.871
11
240.359
21
-195.8
0
LINE
8
Black
10
240.359
20
-195.8
11
240.216
21
-195.729
0
LINE
8
Black
10
237.931
20
-194.827
11
240.788
21
-194.827
0
LINE
8
Black
10
241.788
20
-195.586
11
241.788
21
-196.586
0
LINE
8
Black
10
241.145
20
-195.586
11
241.145
21
-196.371
0
LINE
8
Black
10
241.145
20
-196.371
11
241.216
21
-196.514
0
LINE
8
Black
10
241.216
20
-196.514
11
241.359
21
-196.586
0
LINE
8
Black
10
241.359
20
-196.586
11
241.574
21
-196.586
0
LINE
8
Black
10
241.574
20
-196.586
11
241.716
21
-196.514
0
LINE
8
Black
10
241.716
20
-196.514
11
241.788
21
-196.443
0
LINE
8
Black
10
242.502
20
-196.586
11
242.502
21
-195.086
0
LINE
8
Black
10
242.502
20
-195.657
11
242.645
21
-195.586
0
LINE
8
Black
10
242.645
20
-195.586
11
242.931
21
-195.586
0
LINE
8
Black
10
242.931
20
-195.586
11
243.074
21
-195.657
0
LINE
8
Black
10
243.074
20
-195.657
11
243.145
21
-195.729
0
LINE
8
Black
10
243.145
20
-195.729
11
243.216
21
-195.871
0
LINE
8
Black
10
243.216
20
-195.871
11
243.216
21
-196.3
0
LINE
8
Black
10
243.216
20
-196.3
11
243.145
21
-196.443
0
LINE
8
Black
10
243.145
20
-196.443
11
243.074
21
-196.514
0
LINE
8
Black
10
243.074
20
-196.514
11
242.931
21
-196.586
0
LINE
8
Black
10
242.931
20
-196.586
11
242.645
21
-196.586
0
LINE
8
Black
10
242.645
20
-196.586
11
242.502
21
-196.514
0
LINE
8
Black
10
244.502
20
-195.586
11
244.502
21
-196.586
0
LINE
8
Black
10
243.859
20
-195.586
11
243.859
21
-196.371
0
LINE
8
Black
10
243.859
20
-196.371
11
243.931
21
-196.514
0
LINE
8
Black
10
243.931
20
-196.514
11
244.074
21
-196.586
0
LINE
8
Black
10
244.074
20
-196.586
11
244.288
21
-196.586
0
LINE
8
Black
10
244.288
20
-196.586
11
244.431
21
-196.514
0
LINE
8
Black
10
244.431
20
-196.514
11
244.502
21
-196.443
0
LINE
8
Black
10
245.216
20
-195.586
11
245.216
21
-196.586
0
LINE
8
Black
10
245.216
20
-195.729
11
245.288
21
-195.657
0
LINE
8
Black
10
245.288
20
-195.657
11
245.431
21
-195.586
0
LINE
8
Black
10
245.431
20
-195.586
11
245.645
21
-195.586
0
LINE
8
Black
10
245.645
20
-195.586
11
245.788
21
-195.657
0
LINE
8
Black
10
245.788
20
-195.657
11
245.859
21
-195.8
0
LINE
8
Black
10
245.859
20
-195.8
11
245.859
21
-196.586
0
LINE
8
Black
10
246.359
20
-195.586
11
246.931
21
-195.586
0
LINE
8
Black
10
246.574
20
-195.086
11
246.574
21
-196.371
0
LINE
8
Black
10
246.574
20
-196.371
11
246.645
21
-196.514
0
LINE
8
Black
10
246.645
20
-196.514
11
246.788
21
-196.586
0
LINE
8
Black
10
246.788
20
-196.586
11
246.931
21
-196.586
0
LINE
8
Black
10
248.074
20
-195.586
11
248.074
21
-196.586
0
LINE
8
Black
10
247.431
20
-195.586
11
247.431
21
-196.371
0
LINE
8
Black
10
247.431
20
-196.371
11
247.502
21
-196.514
0
LINE
8
Black
10
247.502
20
-196.514
11
247.645
21
-196.586
0
LINE
8
Black
10
247.645
20
-196.586
11
247.859
21
-196.586
0
LINE
8
Black
10
247.859
20
-196.586
11
248.002
21
-196.514
0
LINE
8
Black
10
248.002
20
-196.514
11
248.074
21
-196.443
0
LINE
8
Black
10
249.574
20
-196.586
11
248.716
21
-196.586
0
LINE
8
Black
10
249.145
20
-196.586
11
249.145
21
-195.086
0
LINE
8
Black
10
249.145
20
-195.086
11
249.002
21
-195.3
0
LINE
8
Black
10
249.002
20
-195.3
11
248.859
21
-195.443
0
LINE
8
Black
10
248.859
20
-195.443
11
248.716
21
-195.514
0
LINE
8
Black
10
250.931
20
-195.086
11
250.216
21
-195.086
0
LINE
8
Black
10
250.216
20
-195.086
11
250.145
21
-195.8
0
LINE
8
Black
10
250.145
20
-195.8
11
250.216
21
-195.729
0
LINE
8
Black
10
250.216
20
-195.729
11
250.359
21
-195.657
0
LINE
8
Black
10
250.359
20
-195.657
11
250.716
21
-195.657
0
LINE
8
Black
10
250.716
20
-195.657
11
250.859
21
-195.729
0
LINE
8
Black
10
250.859
20
-195.729
11
250.931
21
-195.8
0
LINE
8
Black
10
250.931
20
-195.8
11
251.002
21
-195.943
0
LINE
8
Black
10
251.002
20
-195.943
11
251.002
21
-196.3
0
LINE
8
Black
10
251.002
20
-196.3
11
250.931
21
-196.443
0
LINE
8
Black
10
250.931
20
-196.443
11
250.859
21
-196.514
0
LINE
8
Black
10
250.859
20
-196.514
11
250.716
21
-196.586
0
LINE
8
Black
10
250.716
20
-196.586
11
250.359
21
-196.586
0
LINE
8
Black
10
250.359
20
-196.586
11
250.216
21
-196.514
0
LINE
8
Black
10
250.216
20
-196.514
11
250.145
21
-196.443
0
LINE
8
Black
10
251.645
20
-196.443
11
251.716
21
-196.514
0
LINE
8
Black
10
251.716
20
-196.514
11
251.645
21
-196.586
0
LINE
8
Black
10
251.645
20
-196.586
11
251.574
21
-196.514
0
LINE
8
Black
10
251.574
20
-196.514
11
251.645
21
-196.443
0
LINE
8
Black
10
251.645
20
-196.443
11
251.645
21
-196.586
0
LINE
8
Black
10
252.645
20
-195.086
11
252.788
21
-195.086
0
LINE
8
Black
10
252.788
20
-195.086
11
252.931
21
-195.157
0
LINE
8
Black
10
252.931
20
-195.157
11
253.002
21
-195.229
0
LINE
8
Black
10
253.002
20
-195.229
11
253.074
21
-195.371
0
LINE
8
Black
10
253.074
20
-195.371
11
253.145
21
-195.657
0
LINE
8
Black
10
253.145
20
-195.657
11
253.145
21
-196.014
0
LINE
8
Black
10
253.145
20
-196.014
11
253.074
21
-196.3
0
LINE
8
Black
10
253.074
20
-196.3
11
253.002
21
-196.443
0
LINE
8
Black
10
253.002
20
-196.443
11
252.931
21
-196.514
0
LINE
8
Black
10
252.931
20
-196.514
11
252.788
21
-196.586
0
LINE
8
Black
10
252.788
20
-196.586
11
252.645
21
-196.586
0
LINE
8
Black
10
252.645
20
-196.586
11
252.502
21
-196.514
0
LINE
8
Black
10
252.502
20
-196.514
11
252.431
21
-196.443
0
LINE
8
Black
10
252.431
20
-196.443
11
252.359
21
-196.3
0
LINE
8
Black
10
252.359
20
-196.3
11
252.288
21
-196.014
0
LINE
8
Black
10
252.288
20
-196.014
11
252.288
21
-195.657
0
LINE
8
Black
10
252.288
20
-195.657
11
252.359
21
-195.371
0
LINE
8
Black
10
252.359
20
-195.371
11
252.431
21
-195.229
0
LINE
8
Black
10
252.431
20
-195.229
11
252.502
21
-195.157
0
LINE
8
Black
10
252.502
20
-195.157
11
252.645
21
-195.086
0
LINE
8
Black
10
254.431
20
-195.586
11
254.431
21
-196.586
0
LINE
8
Black
10
254.074
20
-195.014
11
253.716
21
-196.086
0
LINE
8
Black
10
253.716
20
-196.086
11
254.645
21
-196.086
0
LINE
8
Black
10
255.216
20
-196.443
11
255.288
21
-196.514
0
LINE
8
Black
10
255.288
20
-196.514
11
255.216
21
-196.586
0
LINE
8
Black
10
255.216
20
-196.586
11
255.145
21
-196.514
0
LINE
8
Black
10
255.145
20
-196.514
11
255.216
21
-196.443
0
LINE
8
Black
10
255.216
20
-196.443
11
255.216
21
-196.586
0
LINE
8
Black
10
256.716
20
-196.586
11
255.859
21
-196.586
0
LINE
8
Black
10
256.288
20
-196.586
11
256.288
21
-195.086
0
LINE
8
Black
10
256.288
20
-195.086
11
256.145
21
-195.3
0
LINE
8
Black
10
256.145
20
-195.3
11
256.002
21
-195.443
0
LINE
8
Black
10
256.002
20
-195.443
11
255.859
21
-195.514
0
LINE
8
Black
10
257.359
20
-196.014
11
258.502
21
-196.014
0
LINE
8
Black
10
259.145
20
-196.514
11
259.288
21
-196.586
0
LINE
8
Black
10
259.288
20
-196.586
11
259.574
21
-196.586
0
LINE
8
Black
10
259.574
20
-196.586
11
259.716
21
-196.514
0
LINE
8
Black
10
259.716
20
-196.514
11
259.788
21
-196.371
0
LINE
8
Black
10
259.788
20
-196.371
11
259.788
21
-196.3
0
LINE
8
Black
10
259.788
20
-196.3
11
259.716
21
-196.157
0
LINE
8
Black
10
259.716
20
-196.157
11
259.574
21
-196.086
0
LINE
8
Black
10
259.574
20
-196.086
11
259.359
21
-196.086
0
LINE
8
Black
10
259.359
20
-196.086
11
259.216
21
-196.014
0
LINE
8
Black
10
259.216
20
-196.014
11
259.145
21
-195.871
0
LINE
8
Black
10
259.145
20
-195.871
11
259.145
21
-195.8
0
LINE
8
Black
10
259.145
20
-195.8
11
259.216
21
-195.657
0
LINE
8
Black
10
259.216
20
-195.657
11
259.359
21
-195.586
0
LINE
8
Black
10
259.359
20
-195.586
11
259.574
21
-195.586
0
LINE
8
Black
10
259.574
20
-195.586
11
259.716
21
-195.657
0
LINE
8
Black
10
260.216
20
-195.586
11
260.788
21
-195.586
0
LINE
8
Black
10
260.431
20
-195.086
11
260.431
21
-196.371
0
LINE
8
Black
10
260.431
20
-196.371
11
260.502
21
-196.514
0
LINE
8
Black
10
260.502
20
-196.514
11
260.645
21
-196.586
0
LINE
8
Black
10
260.645
20
-196.586
11
260.788
21
-196.586
0
LINE
8
Black
10
261.931
20
-196.586
11
261.931
21
-195.8
0
LINE
8
Black
10
261.931
20
-195.8
11
261.859
21
-195.657
0
LINE
8
Black
10
261.859
20
-195.657
11
261.716
21
-195.586
0
LINE
8
Black
10
261.716
20
-195.586
11
261.431
21
-195.586
0
LINE
8
Black
10
261.431
20
-195.586
11
261.288
21
-195.657
0
LINE
8
Black
10
261.931
20
-196.514
11
261.788
21
-196.586
0
LINE
8
Black
10
261.788
20
-196.586
11
261.431
21
-196.586
0
LINE
8
Black
10
261.431
20
-196.586
11
261.288
21
-196.514
0
LINE
8
Black
10
261.288
20
-196.514
11
261.216
21
-196.371
0
LINE
8
Black
10
261.216
20
-196.371
11
261.216
21
-196.229
0
LINE
8
Black
10
261.216
20
-196.229
11
261.288
21
-196.086
0
LINE
8
Black
10
261.288
20
-196.086
11
261.431
21
-196.014
0
LINE
8
Black
10
261.431
20
-196.014
11
261.788
21
-196.014
0
LINE
8
Black
10
261.788
20
-196.014
11
261.931
21
-195.943
0
LINE
8
Black
10
262.645
20
-196.586
11
262.645
21
-195.086
0
LINE
8
Black
10
262.645
20
-195.657
11
262.788
21
-195.586
0
LINE
8
Black
10
262.788
20
-195.586
11
263.074
21
-195.586
0
LINE
8
Black
10
263.074
20
-195.586
11
263.216
21
-195.657
0
LINE
8
Black
10
263.216
20
-195.657
11
263.288
21
-195.729
0
LINE
8
Black
10
263.288
20
-195.729
11
263.359
21
-195.871
0
LINE
8
Black
10
263.359
20
-195.871
11
263.359
21
-196.3
0
LINE
8
Black
10
263.359
20
-196.3
11
263.288
21
-196.443
0
LINE
8
Black
10
263.288
20
-196.443
11
263.216
21
-196.514
0
LINE
8
Black
10
263.216
20
-196.514
11
263.074
21
-196.586
0
LINE
8
Black
10
263.074
20
-196.586
11
262.788
21
-196.586
0
LINE
8
Black
10
262.788
20
-196.586
11
262.645
21
-196.514
0
LINE
8
Black
10
264.216
20
-196.586
11
264.074
21
-196.514
0
LINE
8
Black
10
264.074
20
-196.514
11
264.002
21
-196.371
0
LINE
8
Black
10
264.002
20
-196.371
11
264.002
21
-195.086
0
LINE
8
Black
10
265.359
20
-196.514
11
265.216
21
-196.586
0
LINE
8
Black
10
265.216
20
-196.586
11
264.931
21
-196.586
0
LINE
8
Black
10
264.931
20
-196.586
11
264.788
21
-196.514
0
LINE
8
Black
10
264.788
20
-196.514
11
264.716
21
-196.371
0
LINE
8
Black
10
264.716
20
-196.371
11
264.716
21
-195.8
0
LINE
8
Black
10
264.716
20
-195.8
11
264.788
21
-195.657
0
LINE
8
Black
10
264.788
20
-195.657
11
264.931
21
-195.586
0
LINE
8
Black
10
264.931
20
-195.586
11
265.216
21
-195.586
0
LINE
8
Black
10
265.216
20
-195.586
11
265.359
21
-195.657
0
LINE
8
Black
10
265.359
20
-195.657
11
265.431
21
-195.8
0
LINE
8
Black
10
265.431
20
-195.8
11
265.431
21
-195.943
0
LINE
8
Black
10
265.431
20
-195.943
11
264.716
21
-196.086
0
LINE
8
Black
10
177.002
20
-191.507
11
285.002
21
-191.507
0
LINE
8
Black
10
264.216
20
-193.786
11
263.716
21
-193.071
0
LINE
8
Black
10
263.359
20
-193.786
11
263.359
21
-192.286
0
LINE
8
Black
10
263.359
20
-192.286
11
263.931
21
-192.286
0
LINE
8
Black
10
263.931
20
-192.286
11
264.074
21
-192.357
0
LINE
8
Black
10
264.074
20
-192.357
11
264.145
21
-192.429
0
LINE
8
Black
10
264.145
20
-192.429
11
264.216
21
-192.571
0
LINE
8
Black
10
264.216
20
-192.571
11
264.216
21
-192.786
0
LINE
8
Black
10
264.216
20
-192.786
11
264.145
21
-192.929
0
LINE
8
Black
10
264.145
20
-192.929
11
264.074
21
-193
0
LINE
8
Black
10
264.074
20
-193
11
263.931
21
-193.071
0
LINE
8
Black
10
263.931
20
-193.071
11
263.359
21
-193.071
0
LINE
8
Black
10
265.431
20
-193.714
11
265.288
21
-193.786
0
LINE
8
Black
10
265.288
20
-193.786
11
265.002
21
-193.786
0
LINE
8
Black
10
265.002
20
-193.786
11
264.859
21
-193.714
0
LINE
8
Black
10
264.859
20
-193.714
11
264.788
21
-193.571
0
LINE
8
Black
10
264.788
20
-193.571
11
264.788
21
-193
0
LINE
8
Black
10
264.788
20
-193
11
264.859
21
-192.857
0
LINE
8
Black
10
264.859
20
-192.857
11
265.002
21
-192.786
0
LINE
8
Black
10
265.002
20
-192.786
11
265.288
21
-192.786
0
LINE
8
Black
10
265.288
20
-192.786
11
265.431
21
-192.857
0
LINE
8
Black
10
265.431
20
-192.857
11
265.502
21
-193
0
LINE
8
Black
10
265.502
20
-193
11
265.502
21
-193.143
0
LINE
8
Black
10
265.502
20
-193.143
11
264.788
21
-193.286
0
LINE
8
Black
10
266.002
20
-192.786
11
266.359
21
-193.786
0
LINE
8
Black
10
266.359
20
-193.786
11
266.716
21
-192.786
0
LINE
8
Black
10
267.288
20
-193.643
11
267.359
21
-193.714
0
LINE
8
Black
10
267.359
20
-193.714
11
267.288
21
-193.786
0
LINE
8
Black
10
267.288
20
-193.786
11
267.216
21
-193.714
0
LINE
8
Black
10
267.216
20
-193.714
11
267.288
21
-193.643
0
LINE
8
Black
10
267.288
20
-193.643
11
267.288
21
-193.786
0
LINE
8
Black
10
267.288
20
-192.857
11
267.359
21
-192.929
0
LINE
8
Black
10
267.359
20
-192.929
11
267.288
21
-193
0
LINE
8
Black
10
267.288
20
-193
11
267.216
21
-192.929
0
LINE
8
Black
10
267.216
20
-192.929
11
267.288
21
-192.857
0
LINE
8
Black
10
267.288
20
-192.857
11
267.288
21
-193
0
LINE
8
Black
10
178.288
20
-193.714
11
178.502
21
-193.786
0
LINE
8
Black
10
178.502
20
-193.786
11
178.859
21
-193.786
0
LINE
8
Black
10
178.859
20
-193.786
11
179.002
21
-193.714
0
LINE
8
Black
10
179.002
20
-193.714
11
179.074
21
-193.643
0
LINE
8
Black
10
179.074
20
-193.643
11
179.145
21
-193.5
0
LINE
8
Black
10
179.145
20
-193.5
11
179.145
21
-193.357
0
LINE
8
Black
10
179.145
20
-193.357
11
179.074
21
-193.214
0
LINE
8
Black
10
179.074
20
-193.214
11
179.002
21
-193.143
0
LINE
8
Black
10
179.002
20
-193.143
11
178.859
21
-193.071
0
LINE
8
Black
10
178.859
20
-193.071
11
178.574
21
-193
0
LINE
8
Black
10
178.574
20
-193
11
178.431
21
-192.929
0
LINE
8
Black
10
178.431
20
-192.929
11
178.359
21
-192.857
0
LINE
8
Black
10
178.359
20
-192.857
11
178.288
21
-192.714
0
LINE
8
Black
10
178.288
20
-192.714
11
178.288
21
-192.571
0
LINE
8
Black
10
178.288
20
-192.571
11
178.359
21
-192.429
0
LINE
8
Black
10
178.359
20
-192.429
11
178.431
21
-192.357
0
LINE
8
Black
10
178.431
20
-192.357
11
178.574
21
-192.286
0
LINE
8
Black
10
178.574
20
-192.286
11
178.931
21
-192.286
0
LINE
8
Black
10
178.931
20
-192.286
11
179.145
21
-192.357
0
LINE
8
Black
10
179.788
20
-193.786
11
179.788
21
-192.786
0
LINE
8
Black
10
179.788
20
-192.286
11
179.716
21
-192.357
0
LINE
8
Black
10
179.716
20
-192.357
11
179.788
21
-192.429
0
LINE
8
Black
10
179.788
20
-192.429
11
179.859
21
-192.357
0
LINE
8
Black
10
179.859
20
-192.357
11
179.788
21
-192.286
0
LINE
8
Black
10
179.788
20
-192.286
11
179.788
21
-192.429
0
LINE
8
Black
10
180.359
20
-192.786
11
181.145
21
-192.786
0
LINE
8
Black
10
181.145
20
-192.786
11
180.359
21
-193.786
0
LINE
8
Black
10
180.359
20
-193.786
11
181.145
21
-193.786
0
LINE
8
Black
10
182.288
20
-193.714
11
182.145
21
-193.786
0
LINE
8
Black
10
182.145
20
-193.786
11
181.859
21
-193.786
0
LINE
8
Black
10
181.859
20
-193.786
11
181.716
21
-193.714
0
LINE
8
Black
10
181.716
20
-193.714
11
181.645
21
-193.571
0
LINE
8
Black
10
181.645
20
-193.571
11
181.645
21
-193
0
LINE
8
Black
10
181.645
20
-193
11
181.716
21
-192.857
0
LINE
8
Black
10
181.716
20
-192.857
11
181.859
21
-192.786
0
LINE
8
Black
10
181.859
20
-192.786
11
182.145
21
-192.786
0
LINE
8
Black
10
182.145
20
-192.786
11
182.288
21
-192.857
0
LINE
8
Black
10
182.288
20
-192.857
11
182.359
21
-193
0
LINE
8
Black
10
182.359
20
-193
11
182.359
21
-193.143
0
LINE
8
Black
10
182.359
20
-193.143
11
181.645
21
-193.286
0
LINE
8
Black
10
183.002
20
-193.643
11
183.074
21
-193.714
0
LINE
8
Black
10
183.074
20
-193.714
11
183.002
21
-193.786
0
LINE
8
Black
10
183.002
20
-193.786
11
182.931
21
-193.714
0
LINE
8
Black
10
182.931
20
-193.714
11
183.002
21
-193.643
0
LINE
8
Black
10
183.002
20
-193.643
11
183.002
21
-193.786
0
LINE
8
Black
10
183.002
20
-192.857
11
183.074
21
-192.929
0
LINE
8
Black
10
183.074
20
-192.929
11
183.002
21
-193
0
LINE
8
Black
10
183.002
20
-193
11
182.931
21
-192.929
0
LINE
8
Black
10
182.931
20
-192.929
11
183.002
21
-192.857
0
LINE
8
Black
10
183.002
20
-192.857
11
183.002
21
-193
0
LINE
8
Black
10
184.788
20
-193.357
11
185.502
21
-193.357
0
LINE
8
Black
10
184.645
20
-193.786
11
185.145
21
-192.286
0
LINE
8
Black
10
185.145
20
-192.286
11
185.645
21
-193.786
0
LINE
8
Black
10
186.788
20
-192.786
11
186.788
21
-193.786
0
LINE
8
Black
10
186.431
20
-192.214
11
186.074
21
-193.286
0
LINE
8
Black
10
186.074
20
-193.286
11
187.002
21
-193.286
0
LINE
8
Black
10
263.359
20
-196.586
11
263.359
21
-195.086
0
LINE
8
Black
10
264.716
20
-196.586
11
264.716
21
-195.086
0
LINE
8
Black
10
264.716
20
-196.514
11
264.574
21
-196.586
0
LINE
8
Black
10
264.574
20
-196.586
11
264.288
21
-196.586
0
LINE
8
Black
10
264.288
20
-196.586
11
264.145
21
-196.514
0
LINE
8
Black
10
264.145
20
-196.514
11
264.074
21
-196.443
0
LINE
8
Black
10
264.074
20
-196.443
11
264.002
21
-196.3
0
LINE
8
Black
10
264.002
20
-196.3
11
264.002
21
-195.871
0
LINE
8
Black
10
264.002
20
-195.871
11
264.074
21
-195.729
0
LINE
8
Black
10
264.074
20
-195.729
11
264.145
21
-195.657
0
LINE
8
Black
10
264.145
20
-195.657
11
264.288
21
-195.586
0
LINE
8
Black
10
264.288
20
-195.586
11
264.574
21
-195.586
0
LINE
8
Black
10
264.574
20
-195.586
11
264.716
21
-195.657
0
LINE
8
Black
10
265.431
20
-196.443
11
265.502
21
-196.514
0
LINE
8
Black
10
265.502
20
-196.514
11
265.431
21
-196.586
0
LINE
8
Black
10
265.431
20
-196.586
11
265.359
21
-196.514
0
LINE
8
Black
10
265.359
20
-196.514
11
265.431
21
-196.443
0
LINE
8
Black
10
265.431
20
-196.443
11
265.431
21
-196.586
0
LINE
8
Black
10
265.431
20
-195.657
11
265.502
21
-195.729
0
LINE
8
Black
10
265.502
20
-195.729
11
265.431
21
-195.8
0
LINE
8
Black
10
265.431
20
-195.8
11
265.359
21
-195.729
0
LINE
8
Black
10
265.359
20
-195.729
11
265.431
21
-195.657
0
LINE
8
Black
10
265.431
20
-195.657
11
265.431
21
-195.8
0
LINE
8
Black
10
268.074
20
-196.586
11
267.216
21
-196.586
0
LINE
8
Black
10
267.645
20
-196.586
11
267.645
21
-195.086
0
LINE
8
Black
10
267.645
20
-195.086
11
267.502
21
-195.3
0
LINE
8
Black
10
267.502
20
-195.3
11
267.359
21
-195.443
0
LINE
8
Black
10
267.359
20
-195.443
11
267.216
21
-195.514
0
LINE
8
Black
10
269.788
20
-195.014
11
268.502
21
-196.943
0
LINE
8
Black
10
271.074
20
-196.586
11
270.216
21
-196.586
0
LINE
8
Black
10
270.645
20
-196.586
11
270.645
21
-195.086
0
LINE
8
Black
10
270.645
20
-195.086
11
270.502
21
-195.3
0
LINE
8
Black
10
270.502
20
-195.3
11
270.359
21
-195.443
0
LINE
8
Black
10
270.359
20
-195.443
11
270.216
21
-195.514
0
LINE
8
Black
10
177.002
20
-187.507
11
285.002
21
-187.507
0
LINE
8
Black
10
178.455
20
-188.212
11
179.597
21
-188.212
0
LINE
8
Black
10
178.776
20
-190.212
11
179.026
21
-188.212
0
LINE
8
Black
10
180.014
20
-190.212
11
180.181
21
-188.879
0
LINE
8
Black
10
180.264
20
-188.212
11
180.157
21
-188.307
0
LINE
8
Black
10
180.157
20
-188.307
11
180.24
21
-188.402
0
LINE
8
Black
10
180.24
20
-188.402
11
180.347
21
-188.307
0
LINE
8
Black
10
180.347
20
-188.307
11
180.264
21
-188.212
0
LINE
8
Black
10
180.264
20
-188.212
11
180.24
21
-188.402
0
LINE
8
Black
10
180.847
20
-188.879
11
181.609
21
-188.879
0
LINE
8
Black
10
181.216
20
-188.212
11
181.002
21
-189.926
0
LINE
8
Black
10
181.002
20
-189.926
11
181.074
21
-190.117
0
LINE
8
Black
10
181.074
20
-190.117
11
181.252
21
-190.212
0
LINE
8
Black
10
181.252
20
-190.212
11
181.443
21
-190.212
0
LINE
8
Black
10
182.395
20
-190.212
11
182.216
21
-190.117
0
LINE
8
Black
10
182.216
20
-190.117
11
182.145
21
-189.926
0
LINE
8
Black
10
182.145
20
-189.926
11
182.359
21
-188.212
0
LINE
8
Black
10
183.931
20
-190.117
11
183.728
21
-190.212
0
LINE
8
Black
10
183.728
20
-190.212
11
183.347
21
-190.212
0
LINE
8
Black
10
183.347
20
-190.212
11
183.169
21
-190.117
0
LINE
8
Black
10
183.169
20
-190.117
11
183.097
21
-189.926
0
LINE
8
Black
10
183.097
20
-189.926
11
183.193
21
-189.164
0
LINE
8
Black
10
183.193
20
-189.164
11
183.312
21
-188.974
0
LINE
8
Black
10
183.312
20
-188.974
11
183.514
21
-188.879
0
LINE
8
Black
10
183.514
20
-188.879
11
183.895
21
-188.879
0
LINE
8
Black
10
183.895
20
-188.879
11
184.074
21
-188.974
0
LINE
8
Black
10
184.074
20
-188.974
11
184.145
21
-189.164
0
LINE
8
Black
10
184.145
20
-189.164
11
184.121
21
-189.355
0
LINE
8
Black
10
184.121
20
-189.355
11
183.145
21
-189.545
0
LINE
8
Black
10
184.895
20
-190.021
11
184.978
21
-190.117
0
LINE
8
Black
10
184.978
20
-190.117
11
184.871
21
-190.212
0
LINE
8
Black
10
184.871
20
-190.212
11
184.788
21
-190.117
0
LINE
8
Black
10
184.788
20
-190.117
11
184.895
21
-190.021
0
LINE
8
Black
10
184.895
20
-190.021
11
184.871
21
-190.212
0
LINE
8
Black
10
185.026
20
-188.974
11
185.109
21
-189.069
0
LINE
8
Black
10
185.109
20
-189.069
11
185.002
21
-189.164
0
LINE
8
Black
10
185.002
20
-189.164
11
184.919
21
-189.069
0
LINE
8
Black
10
184.919
20
-189.069
11
185.026
21
-188.974
0
LINE
8
Black
10
185.026
20
-188.974
11
185.002
21
-189.164
0
LINE
8
Black
10
178.859
20
-185.6
11
178.359
21
-185.6
0
LINE
8
Black
10
178.359
20
-186.386
11
178.359
21
-184.886
0
LINE
8
Black
10
178.359
20
-184.886
11
179.074
21
-184.886
0
LINE
8
Black
10
179.645
20
-186.386
11
179.645
21
-185.386
0
LINE
8
Black
10
179.645
20
-184.886
11
179.574
21
-184.957
0
LINE
8
Black
10
179.574
20
-184.957
11
179.645
21
-185.029
0
LINE
8
Black
10
179.645
20
-185.029
11
179.716
21
-184.957
0
LINE
8
Black
10
179.716
20
-184.957
11
179.645
21
-184.886
0
LINE
8
Black
10
179.645
20
-184.886
11
179.645
21
-185.029
0
LINE
8
Black
10
180.574
20
-186.386
11
180.431
21
-186.314
0
LINE
8
Black
10
180.431
20
-186.314
11
180.359
21
-186.171
0
LINE
8
Black
10
180.359
20
-186.171
11
180.359
21
-184.886
0
LINE
8
Black
10
181.716
20
-186.314
11
181.574
21
-186.386
0
LINE
8
Black
10
181.574
20
-186.386
11
181.288
21
-186.386
0
LINE
8
Black
10
181.288
20
-186.386
11
181.145
21
-186.314
0
LINE
8
Black
10
181.145
20
-186.314
11
181.074
21
-186.171
0
LINE
8
Black
10
181.074
20
-186.171
11
181.074
21
-185.6
0
LINE
8
Black
10
181.074
20
-185.6
11
181.145
21
-185.457
0
LINE
8
Black
10
181.145
20
-185.457
11
181.288
21
-185.386
0
LINE
8
Black
10
181.288
20
-185.386
11
181.574
21
-185.386
0
LINE
8
Black
10
181.574
20
-185.386
11
181.716
21
-185.457
0
LINE
8
Black
10
181.716
20
-185.457
11
181.788
21
-185.6
0
LINE
8
Black
10
181.788
20
-185.6
11
181.788
21
-185.743
0
LINE
8
Black
10
181.788
20
-185.743
11
181.074
21
-185.886
0
LINE
8
Black
10
182.431
20
-186.243
11
182.502
21
-186.314
0
LINE
8
Black
10
182.502
20
-186.314
11
182.431
21
-186.386
0
LINE
8
Black
10
182.431
20
-186.386
11
182.359
21
-186.314
0
LINE
8
Black
10
182.359
20
-186.314
11
182.431
21
-186.243
0
LINE
8
Black
10
182.431
20
-186.243
11
182.431
21
-186.386
0
LINE
8
Black
10
182.431
20
-185.457
11
182.502
21
-185.529
0
LINE
8
Black
10
182.502
20
-185.529
11
182.431
21
-185.6
0
LINE
8
Black
10
182.431
20
-185.6
11
182.359
21
-185.529
0
LINE
8
Black
10
182.359
20
-185.529
11
182.431
21
-185.457
0
LINE
8
Black
10
182.431
20
-185.457
11
182.431
21
-185.6
0
LINE
8
Black
10
184.216
20
-186.314
11
184.359
21
-186.386
0
LINE
8
Black
10
184.359
20
-186.386
11
184.645
21
-186.386
0
LINE
8
Black
10
184.645
20
-186.386
11
184.788
21
-186.314
0
LINE
8
Black
10
184.788
20
-186.314
11
184.859
21
-186.171
0
LINE
8
Black
10
184.859
20
-186.171
11
184.859
21
-186.1
0
LINE
8
Black
10
184.859
20
-186.1
11
184.788
21
-185.957
0
LINE
8
Black
10
184.788
20
-185.957
11
184.645
21
-185.886
0
LINE
8
Black
10
184.645
20
-185.886
11
184.431
21
-185.886
0
LINE
8
Black
10
184.431
20
-185.886
11
184.288
21
-185.814
0
LINE
8
Black
10
184.288
20
-185.814
11
184.216
21
-185.671
0
LINE
8
Black
10
184.216
20
-185.671
11
184.216
21
-185.6
0
LINE
8
Black
10
184.216
20
-185.6
11
184.288
21
-185.457
0
LINE
8
Black
10
184.288
20
-185.457
11
184.431
21
-185.386
0
LINE
8
Black
10
184.431
20
-185.386
11
184.645
21
-185.386
0
LINE
8
Black
10
184.645
20
-185.386
11
184.788
21
-185.457
0
LINE
8
Black
10
185.359
20
-185.386
11
185.645
21
-186.386
0
LINE
8
Black
10
185.645
20
-186.386
11
185.931
21
-185.671
0
LINE
8
Black
10
185.931
20
-185.671
11
186.216
21
-186.386
0
LINE
8
Black
10
186.216
20
-186.386
11
186.502
21
-185.386
0
LINE
8
Black
10
187.074
20
-186.386
11
187.074
21
-185.386
0
LINE
8
Black
10
187.074
20
-184.886
11
187.002
21
-184.957
0
LINE
8
Black
10
187.002
20
-184.957
11
187.074
21
-185.029
0
LINE
8
Black
10
187.074
20
-185.029
11
187.145
21
-184.957
0
LINE
8
Black
10
187.145
20
-184.957
11
187.074
21
-184.886
0
LINE
8
Black
10
187.074
20
-184.886
11
187.074
21
-185.029
0
LINE
8
Black
10
187.574
20
-185.386
11
188.145
21
-185.386
0
LINE
8
Black
10
187.788
20
-184.886
11
187.788
21
-186.171
0
LINE
8
Black
10
187.788
20
-186.171
11
187.859
21
-186.314
0
LINE
8
Black
10
187.859
20
-186.314
11
188.002
21
-186.386
0
LINE
8
Black
10
188.002
20
-186.386
11
188.145
21
-186.386
0
LINE
8
Black
10
189.288
20
-186.314
11
189.145
21
-186.386
0
LINE
8
Black
10
189.145
20
-186.386
11
188.859
21
-186.386
0
LINE
8
Black
10
188.859
20
-186.386
11
188.716
21
-186.314
0
LINE
8
Black
10
188.716
20
-186.314
11
188.645
21
-186.243
0
LINE
8
Black
10
188.645
20
-186.243
11
188.574
21
-186.1
0
LINE
8
Black
10
188.574
20
-186.1
11
188.574
21
-185.671
0
LINE
8
Black
10
188.574
20
-185.671
11
188.645
21
-185.529
0
LINE
8
Black
10
188.645
20
-185.529
11
188.716
21
-185.457
0
LINE
8
Black
10
188.716
20
-185.457
11
188.859
21
-185.386
0
LINE
8
Black
10
188.859
20
-185.386
11
189.145
21
-185.386
0
LINE
8
Black
10
189.145
20
-185.386
11
189.288
21
-185.457
0
LINE
8
Black
10
189.931
20
-186.386
11
189.931
21
-184.886
0
LINE
8
Black
10
190.574
20
-186.386
11
190.574
21
-185.6
0
LINE
8
Black
10
190.574
20
-185.6
11
190.502
21
-185.457
0
LINE
8
Black
10
190.502
20
-185.457
11
190.359
21
-185.386
0
LINE
8
Black
10
190.359
20
-185.386
11
190.145
21
-185.386
0
LINE
8
Black
10
190.145
20
-185.386
11
190.002
21
-185.457
0
LINE
8
Black
10
190.002
20
-185.457
11
189.931
21
-185.529
0
LINE
8
Black
10
191.859
20
-186.314
11
191.716
21
-186.386
0
LINE
8
Black
10
191.716
20
-186.386
11
191.431
21
-186.386
0
LINE
8
Black
10
191.431
20
-186.386
11
191.288
21
-186.314
0
LINE
8
Black
10
191.288
20
-186.314
11
191.216
21
-186.171
0
LINE
8
Black
10
191.216
20
-186.171
11
191.216
21
-185.6
0
LINE
8
Black
10
191.216
20
-185.6
11
191.288
21
-185.457
0
LINE
8
Black
10
191.288
20
-185.457
11
191.431
21
-185.386
0
LINE
8
Black
10
191.431
20
-185.386
11
191.716
21
-185.386
0
LINE
8
Black
10
191.716
20
-185.386
11
191.859
21
-185.457
0
LINE
8
Black
10
191.859
20
-185.457
11
191.931
21
-185.6
0
LINE
8
Black
10
191.931
20
-185.6
11
191.931
21
-185.743
0
LINE
8
Black
10
191.931
20
-185.743
11
191.216
21
-185.886
0
LINE
8
Black
10
192.574
20
-186.386
11
192.574
21
-185.386
0
LINE
8
Black
10
192.574
20
-185.671
11
192.645
21
-185.529
0
LINE
8
Black
10
192.645
20
-185.529
11
192.716
21
-185.457
0
LINE
8
Black
10
192.716
20
-185.457
11
192.859
21
-185.386
0
LINE
8
Black
10
192.859
20
-185.386
11
193.002
21
-185.386
0
LINE
8
Black
10
193.502
20
-186.243
11
193.574
21
-186.314
0
LINE
8
Black
10
193.574
20
-186.314
11
193.502
21
-186.386
0
LINE
8
Black
10
193.502
20
-186.386
11
193.431
21
-186.314
0
LINE
8
Black
10
193.431
20
-186.314
11
193.502
21
-186.243
0
LINE
8
Black
10
193.502
20
-186.243
11
193.502
21
-186.386
0
LINE
8
Black
10
194.216
20
-186.386
11
194.216
21
-184.886
0
LINE
8
Black
10
194.359
20
-185.814
11
194.788
21
-186.386
0
LINE
8
Black
10
194.788
20
-185.386
11
194.216
21
-185.957
0
LINE
8
Black
10
195.431
20
-186.386
11
195.431
21
-185.386
0
LINE
8
Black
10
195.431
20
-184.886
11
195.359
21
-184.957
0
LINE
8
Black
10
195.359
20
-184.957
11
195.431
21
-185.029
0
LINE
8
Black
10
195.431
20
-185.029
11
195.502
21
-184.957
0
LINE
8
Black
10
195.502
20
-184.957
11
195.431
21
-184.886
0
LINE
8
Black
10
195.431
20
-184.886
11
195.431
21
-185.029
0
LINE
8
Black
10
196.788
20
-186.314
11
196.645
21
-186.386
0
LINE
8
Black
10
196.645
20
-186.386
11
196.359
21
-186.386
0
LINE
8
Black
10
196.359
20
-186.386
11
196.216
21
-186.314
0
LINE
8
Black
10
196.216
20
-186.314
11
196.145
21
-186.243
0
LINE
8
Black
10
196.145
20
-186.243
11
196.074
21
-186.1
0
LINE
8
Black
10
196.074
20
-186.1
11
196.074
21
-185.671
0
LINE
8
Black
10
196.074
20
-185.671
11
196.145
21
-185.529
0
LINE
8
Black
10
196.145
20
-185.529
11
196.216
21
-185.457
0
LINE
8
Black
10
196.216
20
-185.457
11
196.359
21
-185.386
0
LINE
8
Black
10
196.359
20
-185.386
11
196.645
21
-185.386
0
LINE
8
Black
10
196.645
20
-185.386
11
196.788
21
-185.457
0
LINE
8
Black
10
198.074
20
-186.386
11
198.074
21
-185.6
0
LINE
8
Black
10
198.074
20
-185.6
11
198.002
21
-185.457
0
LINE
8
Black
10
198.002
20
-185.457
11
197.859
21
-185.386
0
LINE
8
Black
10
197.859
20
-185.386
11
197.574
21
-185.386
0
LINE
8
Black
10
197.574
20
-185.386
11
197.431
21
-185.457
0
LINE
8
Black
10
198.074
20
-186.314
11
197.931
21
-186.386
0
LINE
8
Black
10
197.931
20
-186.386
11
197.574
21
-186.386
0
LINE
8
Black
10
197.574
20
-186.386
11
197.431
21
-186.314
0
LINE
8
Black
10
197.431
20
-186.314
11
197.359
21
-186.171
0
LINE
8
Black
10
197.359
20
-186.171
11
197.359
21
-186.029
0
LINE
8
Black
10
197.359
20
-186.029
11
197.431
21
-185.886
0
LINE
8
Black
10
197.431
20
-185.886
11
197.574
21
-185.814
0
LINE
8
Black
10
197.574
20
-185.814
11
197.931
21
-185.814
0
LINE
8
Black
10
197.931
20
-185.814
11
198.074
21
-185.743
0
LINE
8
Black
10
199.431
20
-186.386
11
199.431
21
-184.886
0
LINE
8
Black
10
199.431
20
-186.314
11
199.288
21
-186.386
0
LINE
8
Black
10
199.288
20
-186.386
11
199.002
21
-186.386
0
LINE
8
Black
10
199.002
20
-186.386
11
198.859
21
-186.314
0
LINE
8
Black
10
198.859
20
-186.314
11
198.788
21
-186.243
0
LINE
8
Black
10
198.788
20
-186.243
11
198.716
21
-186.1
0
LINE
8
Black
10
198.716
20
-186.1
11
198.716
21
-185.671
0
LINE
8
Black
10
198.716
20
-185.671
11
198.788
21
-185.529
0
LINE
8
Black
10
198.788
20
-185.529
11
198.859
21
-185.457
0
LINE
8
Black
10
198.859
20
-185.457
11
199.002
21
-185.386
0
LINE
8
Black
10
199.002
20
-185.386
11
199.288
21
-185.386
0
LINE
8
Black
10
199.288
20
-185.386
11
199.431
21
-185.457
0
LINE
8
Black
10
199.788
20
-186.529
11
200.931
21
-186.529
0
LINE
8
Black
10
201.288
20
-185.386
11
201.288
21
-186.886
0
LINE
8
Black
10
201.288
20
-185.457
11
201.431
21
-185.386
0
LINE
8
Black
10
201.431
20
-185.386
11
201.716
21
-185.386
0
LINE
8
Black
10
201.716
20
-185.386
11
201.859
21
-185.457
0
LINE
8
Black
10
201.859
20
-185.457
11
201.931
21
-185.529
0
LINE
8
Black
10
201.931
20
-185.529
11
202.002
21
-185.671
0
LINE
8
Black
10
202.002
20
-185.671
11
202.002
21
-186.1
0
LINE
8
Black
10
202.002
20
-186.1
11
201.931
21
-186.243
0
LINE
8
Black
10
201.931
20
-186.243
11
201.859
21
-186.314
0
LINE
8
Black
10
201.859
20
-186.314
11
201.716
21
-186.386
0
LINE
8
Black
10
201.716
20
-186.386
11
201.431
21
-186.386
0
LINE
8
Black
10
201.431
20
-186.386
11
201.288
21
-186.314
0
LINE
8
Black
10
203.288
20
-186.314
11
203.145
21
-186.386
0
LINE
8
Black
10
203.145
20
-186.386
11
202.859
21
-186.386
0
LINE
8
Black
10
202.859
20
-186.386
11
202.716
21
-186.314
0
LINE
8
Black
10
202.716
20
-186.314
11
202.645
21
-186.243
0
LINE
8
Black
10
202.645
20
-186.243
11
202.574
21
-186.1
0
LINE
8
Black
10
202.574
20
-186.1
11
202.574
21
-185.671
0
LINE
8
Black
10
202.574
20
-185.671
11
202.645
21
-185.529
0
LINE
8
Black
10
202.645
20
-185.529
11
202.716
21
-185.457
0
LINE
8
Black
10
202.716
20
-185.457
11
202.859
21
-185.386
0
LINE
8
Black
10
202.859
20
-185.386
11
203.145
21
-185.386
0
LINE
8
Black
10
203.145
20
-185.386
11
203.288
21
-185.457
0
LINE
8
Black
10
203.931
20
-186.386
11
203.931
21
-184.886
0
LINE
8
Black
10
203.931
20
-185.457
11
204.074
21
-185.386
0
LINE
8
Black
10
204.074
20
-185.386
11
204.359
21
-185.386
0
LINE
8
Black
10
204.359
20
-185.386
11
204.502
21
-185.457
0
LINE
8
Black
10
204.502
20
-185.457
11
204.574
21
-185.529
0
LINE
8
Black
10
204.574
20
-185.529
11
204.645
21
-185.671
0
LINE
8
Black
10
204.645
20
-185.671
11
204.645
21
-186.1
0
LINE
8
Black
10
204.645
20
-186.1
11
204.574
21
-186.243
0
LINE
8
Black
10
204.574
20
-186.243
11
204.502
21
-186.314
0
LINE
8
Black
10
204.502
20
-186.314
11
204.359
21
-186.386
0
LINE
8
Black
10
204.359
20
-186.386
11
204.074
21
-186.386
0
LINE
8
Black
10
204.074
20
-186.386
11
203.931
21
-186.314
0
LINE
8
Black
10
177.002
20
-181.507
11
285.002
21
-181.507
0
LINE
8
Black
10
178.288
20
-183.614
11
178.502
21
-183.686
0
LINE
8
Black
10
178.502
20
-183.686
11
178.859
21
-183.686
0
LINE
8
Black
10
178.859
20
-183.686
11
179.002
21
-183.614
0
LINE
8
Black
10
179.002
20
-183.614
11
179.074
21
-183.543
0
LINE
8
Black
10
179.074
20
-183.543
11
179.145
21
-183.4
0
LINE
8
Black
10
179.145
20
-183.4
11
179.145
21
-183.257
0
LINE
8
Black
10
179.145
20
-183.257
11
179.074
21
-183.114
0
LINE
8
Black
10
179.074
20
-183.114
11
179.002
21
-183.043
0
LINE
8
Black
10
179.002
20
-183.043
11
178.859
21
-182.971
0
LINE
8
Black
10
178.859
20
-182.971
11
178.574
21
-182.9
0
LINE
8
Black
10
178.574
20
-182.9
11
178.431
21
-182.829
0
LINE
8
Black
10
178.431
20
-182.829
11
178.359
21
-182.757
0
LINE
8
Black
10
178.359
20
-182.757
11
178.288
21
-182.614
0
LINE
8
Black
10
178.288
20
-182.614
11
178.288
21
-182.471
0
LINE
8
Black
10
178.288
20
-182.471
11
178.359
21
-182.329
0
LINE
8
Black
10
178.359
20
-182.329
11
178.431
21
-182.257
0
LINE
8
Black
10
178.431
20
-182.257
11
178.574
21
-182.186
0
LINE
8
Black
10
178.574
20
-182.186
11
178.931
21
-182.186
0
LINE
8
Black
10
178.931
20
-182.186
11
179.145
21
-182.257
0
LINE
8
Black
10
179.788
20
-183.686
11
179.788
21
-182.186
0
LINE
8
Black
10
180.431
20
-183.686
11
180.431
21
-182.9
0
LINE
8
Black
10
180.431
20
-182.9
11
180.359
21
-182.757
0
LINE
8
Black
10
180.359
20
-182.757
11
180.216
21
-182.686
0
LINE
8
Black
10
180.216
20
-182.686
11
180.002
21
-182.686
0
LINE
8
Black
10
180.002
20
-182.686
11
179.859
21
-182.757
0
LINE
8
Black
10
179.859
20
-182.757
11
179.788
21
-182.829
0
LINE
8
Black
10
181.716
20
-183.614
11
181.574
21
-183.686
0
LINE
8
Black
10
181.574
20
-183.686
11
181.288
21
-183.686
0
LINE
8
Black
10
181.288
20
-183.686
11
181.145
21
-183.614
0
LINE
8
Black
10
181.145
20
-183.614
11
181.074
21
-183.471
0
LINE
8
Black
10
181.074
20
-183.471
11
181.074
21
-182.9
0
LINE
8
Black
10
181.074
20
-182.9
11
181.145
21
-182.757
0
LINE
8
Black
10
181.145
20
-182.757
11
181.288
21
-182.686
0
LINE
8
Black
10
181.288
20
-182.686
11
181.574
21
-182.686
0
LINE
8
Black
10
181.574
20
-182.686
11
181.716
21
-182.757
0
LINE
8
Black
10
181.716
20
-182.757
11
181.788
21
-182.9
0
LINE
8
Black
10
181.788
20
-182.9
11
181.788
21
-183.043
0
LINE
8
Black
10
181.788
20
-183.043
11
181.074
21
-183.186
0
LINE
8
Black
10
183.002
20
-183.614
11
182.859
21
-183.686
0
LINE
8
Black
10
182.859
20
-183.686
11
182.574
21
-183.686
0
LINE
8
Black
10
182.574
20
-183.686
11
182.431
21
-183.614
0
LINE
8
Black
10
182.431
20
-183.614
11
182.359
21
-183.471
0
LINE
8
Black
10
182.359
20
-183.471
11
182.359
21
-182.9
0
LINE
8
Black
10
182.359
20
-182.9
11
182.431
21
-182.757
0
LINE
8
Black
10
182.431
20
-182.757
11
182.574
21
-182.686
0
LINE
8
Black
10
182.574
20
-182.686
11
182.859
21
-182.686
0
LINE
8
Black
10
182.859
20
-182.686
11
183.002
21
-182.757
0
LINE
8
Black
10
183.002
20
-182.757
11
183.074
21
-182.9
0
LINE
8
Black
10
183.074
20
-182.9
11
183.074
21
-183.043
0
LINE
8
Black
10
183.074
20
-183.043
11
182.359
21
-183.186
0
LINE
8
Black
10
183.502
20
-182.686
11
184.074
21
-182.686
0
LINE
8
Black
10
183.716
20
-182.186
11
183.716
21
-183.471
0
LINE
8
Black
10
183.716
20
-183.471
11
183.788
21
-183.614
0
LINE
8
Black
10
183.788
20
-183.614
11
183.931
21
-183.686
0
LINE
8
Black
10
183.931
20
-183.686
11
184.074
21
-183.686
0
LINE
8
Black
10
184.574
20
-183.543
11
184.645
21
-183.614
0
LINE
8
Black
10
184.645
20
-183.614
11
184.574
21
-183.686
0
LINE
8
Black
10
184.574
20
-183.686
11
184.502
21
-183.614
0
LINE
8
Black
10
184.502
20
-183.614
11
184.574
21
-183.543
0
LINE
8
Black
10
184.574
20
-183.543
11
184.574
21
-183.686
0
LINE
8
Black
10
184.574
20
-182.757
11
184.645
21
-182.829
0
LINE
8
Black
10
184.645
20
-182.829
11
184.574
21
-182.9
0
LINE
8
Black
10
184.574
20
-182.9
11
184.502
21
-182.829
0
LINE
8
Black
10
184.502
20
-182.829
11
184.574
21
-182.757
0
LINE
8
Black
10
184.574
20
-182.757
11
184.574
21
-182.9
0
LINE
8
Black
10
197.002
20
-191.507
11
197.002
21
-194.507
0
LINE
8
Black
10
261.002
20
-191.507
11
261.002
21
-198.007
0
LINE
8
Black
10
212.004
20
-29.9508
11
212.009
21
-29.9508
0
LINE
8
Black
10
212.009
20
-29.9508
11
212.013
21
-29.9523
0
LINE
8
Black
10
212.013
20
-29.9523
11
212.017
21
-29.953
0
LINE
8
Black
10
212.017
20
-29.953
11
212.021
21
-29.9552
0
LINE
8
Black
10
212.021
20
-29.9552
11
212.025
21
-29.9567
0
LINE
8
Black
10
212.025
20
-29.9567
11
212.028
21
-29.9595
0
LINE
8
Black
10
212.028
20
-29.9595
11
212.032
21
-29.9617
0
LINE
8
Black
10
212.032
20
-29.9617
11
212.035
21
-29.965
0
LINE
8
Black
10
212.035
20
-29.965
11
212.038
21
-29.9679
0
LINE
8
Black
10
212.038
20
-29.9679
11
212.04
21
-29.9716
0
LINE
8
Black
10
212.04
20
-29.9716
11
212.043
21
-29.975
0
LINE
8
Black
10
212.043
20
-29.975
11
212.045
21
-29.9791
0
LINE
8
Black
10
212.045
20
-29.9791
11
212.047
21
-29.9829
0
LINE
8
Black
10
212.047
20
-29.9829
11
212.048
21
-29.9872
0
LINE
8
Black
10
212.048
20
-29.9872
11
212.049
21
-29.9913
0
LINE
8
Black
10
212.049
20
-29.9913
11
212.049
21
-29.9957
0
LINE
8
Black
10
212.049
20
-29.9957
11
212.05
21
-30
0
LINE
8
Black
10
212.05
20
-30
11
212.05
21
-130
0
LINE
8
Black
10
212.05
20
-130
11
212.049
21
-130.004
0
LINE
8
Black
10
212.049
20
-130.004
11
212.049
21
-130.009
0
LINE
8
Black
10
212.049
20
-130.009
11
212.048
21
-130.013
0
LINE
8
Black
10
212.048
20
-130.013
11
212.047
21
-130.017
0
LINE
8
Black
10
212.047
20
-130.017
11
212.045
21
-130.021
0
LINE
8
Black
10
212.045
20
-130.021
11
212.043
21
-130.025
0
LINE
8
Black
10
212.043
20
-130.025
11
212.04
21
-130.028
0
LINE
8
Black
10
212.04
20
-130.028
11
212.038
21
-130.032
0
LINE
8
Black
10
212.038
20
-130.032
11
212.035
21
-130.035
0
LINE
8
Black
10
212.035
20
-130.035
11
212.032
21
-130.038
0
LINE
8
Black
10
212.032
20
-130.038
11
212.028
21
-130.04
0
LINE
8
Black
10
212.028
20
-130.04
11
212.025
21
-130.043
0
LINE
8
Black
10
212.025
20
-130.043
11
212.021
21
-130.045
0
LINE
8
Black
10
212.021
20
-130.045
11
212.017
21
-130.047
0
LINE
8
Black
10
212.017
20
-130.047
11
212.013
21
-130.048
0
LINE
8
Black
10
212.013
20
-130.048
11
212.009
21
-130.049
0
LINE
8
Black
10
212.009
20
-130.049
11
212.004
21
-130.049
0
LINE
8
Black
10
212.004
20
-130.049
11
212
21
-130.05
0
LINE
8
Black
10
212
20
-130.05
11
74.5
21
-130.05
0
LINE
8
Black
10
74.5
20
-130.05
11
74.4957
21
-130.049
0
LINE
8
Black
10
74.4957
20
-130.049
11
74.4913
21
-130.049
0
LINE
8
Black
10
74.4913
20
-130.049
11
74.4872
21
-130.048
0
LINE
8
Black
10
74.4872
20
-130.048
11
74.4829
21
-130.047
0
LINE
8
Black
10
74.4829
20
-130.047
11
74.4791
21
-130.045
0
LINE
8
Black
10
74.4791
20
-130.045
11
74.475
21
-130.043
0
LINE
8
Black
10
74.475
20
-130.043
11
74.4716
21
-130.04
0
LINE
8
Black
10
74.4716
20
-130.04
11
74.4679
21
-130.038
0
LINE
8
Black
10
74.4679
20
-130.038
11
74.465
21
-130.035
0
LINE
8
Black
10
74.465
20
-130.035
11
74.4617
21
-130.032
0
LINE
8
Black
10
74.4617
20
-130.032
11
74.4595
21
-130.028
0
LINE
8
Black
10
74.4595
20
-130.028
11
74.4567
21
-130.025
0
LINE
8
Black
10
74.4567
20
-130.025
11
74.4552
21
-130.021
0
LINE
8
Black
10
74.4552
20
-130.021
11
74.453
21
-130.017
0
LINE
8
Black
10
74.453
20
-130.017
11
74.4523
21
-130.013
0
LINE
8
Black
10
74.4523
20
-130.013
11
74.4508
21
-130.009
0
LINE
8
Black
10
74.4508
20
-130.009
11
74.4508
21
-130.004
0
LINE
8
Black
10
74.4508
20
-130.004
11
74.45
21
-130
0
LINE
8
Black
10
74.45
20
-130
11
74.45
21
-30
0
LINE
8
Black
10
74.45
20
-30
11
74.4508
21
-29.9957
0
LINE
8
Black
10
74.4508
20
-29.9957
11
74.4508
21
-29.9913
0
LINE
8
Black
10
74.4508
20
-29.9913
11
74.4523
21
-29.9872
0
LINE
8
Black
10
74.4523
20
-29.9872
11
74.453
21
-29.9829
0
LINE
8
Black
10
74.453
20
-29.9829
11
74.4552
21
-29.9791
0
LINE
8
Black
10
74.4552
20
-29.9791
11
74.4567
21
-29.975
0
LINE
8
Black
10
74.4567
20
-29.975
11
74.4595
21
-29.9716
0
LINE
8
Black
10
74.4595
20
-29.9716
11
74.4617
21
-29.9679
0
LINE
8
Black
10
74.4617
20
-29.9679
11
74.465
21
-29.965
0
LINE
8
Black
10
74.465
20
-29.965
11
74.4679
21
-29.9617
0
LINE
8
Black
10
74.4679
20
-29.9617
11
74.4716
21
-29.9595
0
LINE
8
Black
10
74.4716
20
-29.9595
11
74.475
21
-29.9567
0
LINE
8
Black
10
74.475
20
-29.9567
11
74.4791
21
-29.9552
0
LINE
8
Black
10
74.4791
20
-29.9552
11
74.4829
21
-29.953
0
LINE
8
Black
10
74.4829
20
-29.953
11
74.4872
21
-29.9523
0
LINE
8
Black
10
74.4872
20
-29.9523
11
74.4913
21
-29.9508
0
LINE
8
Black
10
74.4913
20
-29.9508
11
74.4957
21
-29.9508
0
LINE
8
Black
10
74.4957
20
-29.9508
11
74.5
21
-29.95
0
LINE
8
Black
10
74.5
20
-29.95
11
212
21
-29.95
0
LINE
8
Black
10
212
20
-29.95
11
212.004
21
-29.9508
0
LINE
8
Black
10
74.55
20
-30.05
11
74.55
21
-129.95
0
LINE
8
Black
10
74.55
20
-129.95
11
211.95
21
-129.95
0
LINE
8
Black
10
211.95
20
-129.95
11
211.95
21
-30.05
0
LINE
8
Black
10
211.95
20
-30.05
11
74.55
21
-30.05
0
LINE
8
Black
10
123.802
20
-86.7254
11
123.804
21
-86.7254
0
LINE
8
Black
10
123.804
20
-86.7254
11
123.806
21
-86.7261
0
LINE
8
Black
10
123.806
20
-86.7261
11
123.809
21
-86.7265
0
LINE
8
Black
10
123.809
20
-86.7265
11
123.81
21
-86.7276
0
LINE
8
Black
10
123.81
20
-86.7276
11
123.812
21
-86.7283
0
LINE
8
Black
10
123.812
20
-86.7283
11
123.814
21
-86.7298
0
LINE
8
Black
10
123.814
20
-86.7298
11
123.816
21
-86.7308
0
LINE
8
Black
10
123.816
20
-86.7308
11
123.817
21
-86.7325
0
LINE
8
Black
10
123.817
20
-86.7325
11
123.819
21
-86.7339
0
LINE
8
Black
10
123.819
20
-86.7339
11
123.82
21
-86.7358
0
LINE
8
Black
10
123.82
20
-86.7358
11
123.822
21
-86.7375
0
LINE
8
Black
10
123.822
20
-86.7375
11
123.822
21
-86.7396
0
LINE
8
Black
10
123.822
20
-86.7396
11
123.823
21
-86.7414
0
LINE
8
Black
10
123.823
20
-86.7414
11
123.824
21
-86.7436
0
LINE
8
Black
10
123.824
20
-86.7436
11
123.825
21
-86.7457
0
LINE
8
Black
10
123.825
20
-86.7457
11
123.825
21
-86.7478
0
LINE
8
Black
10
123.825
20
-86.7478
11
123.825
21
-86.75
0
LINE
8
Black
10
123.825
20
-86.75
11
123.825
21
-95.35
0
LINE
8
Black
10
123.825
20
-95.35
11
123.825
21
-95.3522
0
LINE
8
Black
10
123.825
20
-95.3522
11
123.825
21
-95.3543
0
LINE
8
Black
10
123.825
20
-95.3543
11
123.824
21
-95.3564
0
LINE
8
Black
10
123.824
20
-95.3564
11
123.823
21
-95.3586
0
LINE
8
Black
10
123.823
20
-95.3586
11
123.822
21
-95.3604
0
LINE
8
Black
10
123.822
20
-95.3604
11
123.822
21
-95.3625
0
LINE
8
Black
10
123.822
20
-95.3625
11
123.82
21
-95.3642
0
LINE
8
Black
10
123.82
20
-95.3642
11
123.819
21
-95.3661
0
LINE
8
Black
10
123.819
20
-95.3661
11
123.817
21
-95.3675
0
LINE
8
Black
10
123.817
20
-95.3675
11
123.816
21
-95.3692
0
LINE
8
Black
10
123.816
20
-95.3692
11
123.814
21
-95.3702
0
LINE
8
Black
10
123.814
20
-95.3702
11
123.812
21
-95.3717
0
LINE
8
Black
10
123.812
20
-95.3717
11
123.81
21
-95.3724
0
LINE
8
Black
10
123.81
20
-95.3724
11
123.809
21
-95.3735
0
LINE
8
Black
10
123.809
20
-95.3735
11
123.806
21
-95.3739
0
LINE
8
Black
10
123.806
20
-95.3739
11
123.804
21
-95.3746
0
LINE
8
Black
10
123.804
20
-95.3746
11
123.802
21
-95.3746
0
LINE
8
Black
10
123.802
20
-95.3746
11
123.8
21
-95.375
0
LINE
8
Black
10
123.8
20
-95.375
11
117.55
21
-95.375
0
LINE
8
Black
10
117.55
20
-95.375
11
117.548
21
-95.3746
0
LINE
8
Black
10
117.548
20
-95.3746
11
117.546
21
-95.3746
0
LINE
8
Black
10
117.546
20
-95.3746
11
117.544
21
-95.3739
0
LINE
8
Black
10
117.544
20
-95.3739
11
117.541
21
-95.3735
0
LINE
8
Black
10
117.541
20
-95.3735
11
117.54
21
-95.3724
0
LINE
8
Black
10
117.54
20
-95.3724
11
117.537
21
-95.3717
0
LINE
8
Black
10
117.537
20
-95.3717
11
117.536
21
-95.3702
0
LINE
8
Black
10
117.536
20
-95.3702
11
117.534
21
-95.3692
0
LINE
8
Black
10
117.534
20
-95.3692
11
117.533
21
-95.3675
0
LINE
8
Black
10
117.533
20
-95.3675
11
117.531
21
-95.3661
0
LINE
8
Black
10
117.531
20
-95.3661
11
117.53
21
-95.3642
0
LINE
8
Black
10
117.53
20
-95.3642
11
117.528
21
-95.3625
0
LINE
8
Black
10
117.528
20
-95.3625
11
117.528
21
-95.3604
0
LINE
8
Black
10
117.528
20
-95.3604
11
117.527
21
-95.3586
0
LINE
8
Black
10
117.527
20
-95.3586
11
117.526
21
-95.3564
0
LINE
8
Black
10
117.526
20
-95.3564
11
117.525
21
-95.3543
0
LINE
8
Black
10
117.525
20
-95.3543
11
117.525
21
-95.3522
0
LINE
8
Black
10
117.525
20
-95.3522
11
117.525
21
-95.35
0
LINE
8
Black
10
117.525
20
-95.35
11
117.525
21
-86.75
0
LINE
8
Black
10
117.525
20
-86.75
11
117.525
21
-86.7478
0
LINE
8
Black
10
117.525
20
-86.7478
11
117.525
21
-86.7457
0
LINE
8
Black
10
117.525
20
-86.7457
11
117.526
21
-86.7436
0
LINE
8
Black
10
117.526
20
-86.7436
11
117.527
21
-86.7414
0
LINE
8
Black
10
117.527
20
-86.7414
11
117.528
21
-86.7396
0
LINE
8
Black
10
117.528
20
-86.7396
11
117.528
21
-86.7375
0
LINE
8
Black
10
117.528
20
-86.7375
11
117.53
21
-86.7358
0
LINE
8
Black
10
117.53
20
-86.7358
11
117.531
21
-86.7339
0
LINE
8
Black
10
117.531
20
-86.7339
11
117.533
21
-86.7325
0
LINE
8
Black
10
117.533
20
-86.7325
11
117.534
21
-86.7308
0
LINE
8
Black
10
117.534
20
-86.7308
11
117.536
21
-86.7298
0
LINE
8
Black
10
117.536
20
-86.7298
11
117.537
21
-86.7283
0
LINE
8
Black
10
117.537
20
-86.7283
11
117.54
21
-86.7276
0
LINE
8
Black
10
117.54
20
-86.7276
11
117.541
21
-86.7265
0
LINE
8
Black
10
117.541
20
-86.7265
11
117.544
21
-86.7261
0
LINE
8
Black
10
117.544
20
-86.7261
11
117.546
21
-86.7254
0
LINE
8
Black
10
117.546
20
-86.7254
11
117.548
21
-86.7254
0
LINE
8
Black
10
117.548
20
-86.7254
11
117.55
21
-86.725
0
LINE
8
Black
10
117.55
20
-86.725
11
123.8
21
-86.725
0
LINE
8
Black
10
123.8
20
-86.725
11
123.802
21
-86.7254
0
LINE
8
Black
10
117.575
20
-86.775
11
117.575
21
-95.325
0
LINE
8
Black
10
117.575
20
-95.325
11
123.775
21
-95.325
0
LINE
8
Black
10
123.775
20
-95.325
11
123.775
21
-86.775
0
LINE
8
Black
10
123.775
20
-86.775
11
117.575
21
-86.775
0
LINE
8
Black
10
142.802
20
-44.2254
11
142.804
21
-44.2254
0
LINE
8
Black
10
142.804
20
-44.2254
11
142.806
21
-44.2261
0
LINE
8
Black
10
142.806
20
-44.2261
11
142.809
21
-44.2265
0
LINE
8
Black
10
142.809
20
-44.2265
11
142.81
21
-44.2276
0
LINE
8
Black
10
142.81
20
-44.2276
11
142.812
21
-44.2283
0
LINE
8
Black
10
142.812
20
-44.2283
11
142.814
21
-44.2298
0
LINE
8
Black
10
142.814
20
-44.2298
11
142.816
21
-44.2308
0
LINE
8
Black
10
142.816
20
-44.2308
11
142.817
21
-44.2325
0
LINE
8
Black
10
142.817
20
-44.2325
11
142.819
21
-44.2339
0
LINE
8
Black
10
142.819
20
-44.2339
11
142.82
21
-44.2358
0
LINE
8
Black
10
142.82
20
-44.2358
11
142.822
21
-44.2375
0
LINE
8
Black
10
142.822
20
-44.2375
11
142.822
21
-44.2396
0
LINE
8
Black
10
142.822
20
-44.2396
11
142.823
21
-44.2414
0
LINE
8
Black
10
142.823
20
-44.2414
11
142.824
21
-44.2436
0
LINE
8
Black
10
142.824
20
-44.2436
11
142.825
21
-44.2457
0
LINE
8
Black
10
142.825
20
-44.2457
11
142.825
21
-44.2478
0
LINE
8
Black
10
142.825
20
-44.2478
11
142.825
21
-44.25
0
LINE
8
Black
10
142.825
20
-44.25
11
142.825
21
-52.85
0
LINE
8
Black
10
142.825
20
-52.85
11
142.825
21
-52.8522
0
LINE
8
Black
10
142.825
20
-52.8522
11
142.825
21
-52.8543
0
LINE
8
Black
10
142.825
20
-52.8543
11
142.824
21
-52.8564
0
LINE
8
Black
10
142.824
20
-52.8564
11
142.823
21
-52.8586
0
LINE
8
Black
10
142.823
20
-52.8586
11
142.822
21
-52.8604
0
LINE
8
Black
10
142.822
20
-52.8604
11
142.822
21
-52.8625
0
LINE
8
Black
10
142.822
20
-52.8625
11
142.82
21
-52.8642
0
LINE
8
Black
10
142.82
20
-52.8642
11
142.819
21
-52.8661
0
LINE
8
Black
10
142.819
20
-52.8661
11
142.817
21
-52.8675
0
LINE
8
Black
10
142.817
20
-52.8675
11
142.816
21
-52.8692
0
LINE
8
Black
10
142.816
20
-52.8692
11
142.814
21
-52.8702
0
LINE
8
Black
10
142.814
20
-52.8702
11
142.812
21
-52.8717
0
LINE
8
Black
10
142.812
20
-52.8717
11
142.81
21
-52.8724
0
LINE
8
Black
10
142.81
20
-52.8724
11
142.809
21
-52.8735
0
LINE
8
Black
10
142.809
20
-52.8735
11
142.806
21
-52.8739
0
LINE
8
Black
10
142.806
20
-52.8739
11
142.804
21
-52.8746
0
LINE
8
Black
10
142.804
20
-52.8746
11
142.802
21
-52.8746
0
LINE
8
Black
10
142.802
20
-52.8746
11
142.8
21
-52.875
0
LINE
8
Black
10
142.8
20
-52.875
11
136.75
21
-52.875
0
LINE
8
Black
10
136.75
20
-52.875
11
136.748
21
-52.8746
0
LINE
8
Black
10
136.748
20
-52.8746
11
136.746
21
-52.8746
0
LINE
8
Black
10
136.746
20
-52.8746
11
136.744
21
-52.8739
0
LINE
8
Black
10
136.744
20
-52.8739
11
136.741
21
-52.8735
0
LINE
8
Black
10
136.741
20
-52.8735
11
136.74
21
-52.8724
0
LINE
8
Black
10
136.74
20
-52.8724
11
136.737
21
-52.8717
0
LINE
8
Black
10
136.737
20
-52.8717
11
136.736
21
-52.8702
0
LINE
8
Black
10
136.736
20
-52.8702
11
136.734
21
-52.8692
0
LINE
8
Black
10
136.734
20
-52.8692
11
136.733
21
-52.8675
0
LINE
8
Black
10
136.733
20
-52.8675
11
136.731
21
-52.8661
0
LINE
8
Black
10
136.731
20
-52.8661
11
136.73
21
-52.8642
0
LINE
8
Black
10
136.73
20
-52.8642
11
136.728
21
-52.8625
0
LINE
8
Black
10
136.728
20
-52.8625
11
136.728
21
-52.8604
0
LINE
8
Black
10
136.728
20
-52.8604
11
136.727
21
-52.8586
0
LINE
8
Black
10
136.727
20
-52.8586
11
136.726
21
-52.8564
0
LINE
8
Black
10
136.726
20
-52.8564
11
136.725
21
-52.8543
0
LINE
8
Black
10
136.725
20
-52.8543
11
136.725
21
-52.8522
0
LINE
8
Black
10
136.725
20
-52.8522
11
136.725
21
-52.85
0
LINE
8
Black
10
136.725
20
-52.85
11
136.725
21
-44.25
0
LINE
8
Black
10
136.725
20
-44.25
11
136.725
21
-44.2478
0
LINE
8
Black
10
136.725
20
-44.2478
11
136.725
21
-44.2457
0
LINE
8
Black
10
136.725
20
-44.2457
11
136.726
21
-44.2436
0
LINE
8
Black
10
136.726
20
-44.2436
11
136.727
21
-44.2414
0
LINE
8
Black
10
136.727
20
-44.2414
11
136.728
21
-44.2396
0
LINE
8
Black
10
136.728
20
-44.2396
11
136.728
21
-44.2375
0
LINE
8
Black
10
136.728
20
-44.2375
11
136.73
21
-44.2358
0
LINE
8
Black
10
136.73
20
-44.2358
11
136.731
21
-44.2339
0
LINE
8
Black
10
136.731
20
-44.2339
11
136.733
21
-44.2325
0
LINE
8
Black
10
136.733
20
-44.2325
11
136.734
21
-44.2308
0
LINE
8
Black
10
136.734
20
-44.2308
11
136.736
21
-44.2298
0
LINE
8
Black
10
136.736
20
-44.2298
11
136.737
21
-44.2283
0
LINE
8
Black
10
136.737
20
-44.2283
11
136.74
21
-44.2276
0
LINE
8
Black
10
136.74
20
-44.2276
11
136.741
21
-44.2265
0
LINE
8
Black
10
136.741
20
-44.2265
11
136.744
21
-44.2261
0
LINE
8
Black
10
136.744
20
-44.2261
11
136.746
21
-44.2254
0
LINE
8
Black
10
136.746
20
-44.2254
11
136.748
21
-44.2254
0
LINE
8
Black
10
136.748
20
-44.2254
11
136.75
21
-44.225
0
LINE
8
Black
10
136.75
20
-44.225
11
142.8
21
-44.225
0
LINE
8
Black
10
142.8
20
-44.225
11
142.802
21
-44.2254
0
LINE
8
Black
10
136.775
20
-44.275
11
136.775
21
-52.825
0
LINE
8
Black
10
136.775
20
-52.825
11
142.775
21
-52.825
0
LINE
8
Black
10
142.775
20
-52.825
11
142.775
21
-44.275
0
LINE
8
Black
10
142.775
20
-44.275
11
136.775
21
-44.275
0
LINE
8
Black
10
182.47
20
-50.978
11
181.612
21
-51.6979
0
LINE
8
Black
10
181.612
20
-51.6979
11
180.56
21
-52.081
0
LINE
8
Black
10
180.56
20
-52.081
11
179.44
21
-52.081
0
LINE
8
Black
10
179.44
20
-52.081
11
178.387
21
-51.6979
0
LINE
8
Black
10
178.387
20
-51.6979
11
177.53
21
-50.978
0
LINE
8
Black
10
177.53
20
-50.978
11
176.969
21
-50.008
0
LINE
8
Black
10
176.969
20
-50.008
11
176.775
21
-48.905
0
LINE
8
Black
10
176.775
20
-48.905
11
176.969
21
-47.802
0
LINE
8
Black
10
176.969
20
-47.802
11
177.53
21
-46.832
0
LINE
8
Black
10
177.53
20
-46.832
11
178.387
21
-46.1121
0
LINE
8
Black
10
178.387
20
-46.1121
11
179.44
21
-45.729
0
LINE
8
Black
10
179.44
20
-45.729
11
180.56
21
-45.729
0
LINE
8
Black
10
180.56
20
-45.729
11
181.612
21
-46.1121
0
LINE
8
Black
10
181.612
20
-46.1121
11
182.47
21
-46.832
0
LINE
8
Black
10
182.47
20
-46.832
11
183.031
21
-47.802
0
LINE
8
Black
10
183.031
20
-47.802
11
183.225
21
-48.905
0
LINE
8
Black
10
183.225
20
-48.905
11
183.031
21
-50.008
0
LINE
8
Black
10
183.031
20
-50.008
11
182.47
21
-50.978
0
LINE
8
Black
10
182.432
20
-46.8641
11
181.588
21
-46.1554
0
LINE
8
Black
10
181.588
20
-46.1554
11
180.551
21
-45.7782
0
LINE
8
Black
10
180.551
20
-45.7782
11
179.449
21
-45.7782
0
LINE
8
Black
10
179.449
20
-45.7782
11
178.412
21
-46.1554
0
LINE
8
Black
10
178.412
20
-46.1554
11
177.568
21
-46.8641
0
LINE
8
Black
10
177.568
20
-46.8641
11
177.016
21
-47.8191
0
LINE
8
Black
10
177.016
20
-47.8191
11
176.825
21
-48.905
0
LINE
8
Black
10
176.825
20
-48.905
11
177.016
21
-49.9909
0
LINE
8
Black
10
177.016
20
-49.9909
11
177.568
21
-50.9459
0
LINE
8
Black
10
177.568
20
-50.9459
11
178.412
21
-51.6546
0
LINE
8
Black
10
178.412
20
-51.6546
11
179.449
21
-52.0318
0
LINE
8
Black
10
179.449
20
-52.0318
11
180.551
21
-52.0318
0
LINE
8
Black
10
180.551
20
-52.0318
11
181.588
21
-51.6546
0
LINE
8
Black
10
181.588
20
-51.6546
11
182.432
21
-50.9459
0
LINE
8
Black
10
182.432
20
-50.9459
11
182.984
21
-49.9909
0
LINE
8
Black
10
182.984
20
-49.9909
11
183.175
21
-48.905
0
LINE
8
Black
10
183.175
20
-48.905
11
182.984
21
-47.8191
0
LINE
8
Black
10
182.984
20
-47.8191
11
182.432
21
-46.8641
  0
ENDSEC
  0
EOF
