  0
SECTION
  2
HEADER
  9
$ANGBASE
  50
0.0
  9
$ANGDIR
  70
  1
  9
$MEASUREMENT
  70
0
  0
ENDSEC
  0
SECTION
  2
TABLES
  0
TABLE
  2
LTYPE
  70
1
  0
LTYPE
  2
CONTINUOUS
  70
0
  3
Solid line
  72
65
  73
0
  40
0.0
  0
ENDTAB
  0
TABLE
  2
STYLE
  70
4
  0
STYLE
  2
KICAD
  70
0
  40
0
  41
1
  42
1
  50
0
  71
0
  3
isocp.shx
  0
STYLE
  2
KICADB
  70
0
  40
0
  41
1
  42
1
  50
0
  71
0
  3
isocp.shx
  0
STYLE
  2
KICADI
  70
0
  40
0
  41
1
  42
1
  50
15
  71
0
  3
isocp.shx
  0
STYLE
  2
KICADBI
  70
0
  40
0
  41
1
  42
1
  50
15
  71
0
  3
isocp.shx
  0
ENDTAB
  0
TABLE
  2
LAYER
  70
30
  0
LAYER
  2
BLACK
  70
0
  62
7
  6
CONTINUOUS
  0
LAYER
  2
GRAY1
  70
0
  62
251
  6
CONTINUOUS
  0
LAYER
  2
GRAY2
  70
0
  62
8
  6
CONTINUOUS
  0
LAYER
  2
GRAY3
  70
0
  62
9
  6
CONTINUOUS
  0
LAYER
  2
WHITE
  70
0
  62
7
  6
CONTINUOUS
  0
LAYER
  2
LYELLOW
  70
0
  62
51
  6
CONTINUOUS
  0
LAYER
  2
BLUE1
  70
0
  62
178
  6
CONTINUOUS
  0
LAYER
  2
GREEN1
  70
0
  62
98
  6
CONTINUOUS
  0
LAYER
  2
CYAN1
  70
0
  62
138
  6
CONTINUOUS
  0
LAYER
  2
RED1
  70
0
  62
18
  6
CONTINUOUS
  0
LAYER
  2
MAGENTA1
  70
0
  62
228
  6
CONTINUOUS
  0
LAYER
  2
BROWN1
  70
0
  62
58
  6
CONTINUOUS
  0
LAYER
  2
BLUE2
  70
0
  62
5
  6
CONTINUOUS
  0
LAYER
  2
GREEN2
  70
0
  62
3
  6
CONTINUOUS
  0
LAYER
  2
CYAN2
  70
0
  62
4
  6
CONTINUOUS
  0
LAYER
  2
RED2
  70
0
  62
1
  6
CONTINUOUS
  0
LAYER
  2
MAGENTA2
  70
0
  62
6
  6
CONTINUOUS
  0
LAYER
  2
BROWN2
  70
0
  62
54
  6
CONTINUOUS
  0
LAYER
  2
BLUE3
  70
0
  62
171
  6
CONTINUOUS
  0
LAYER
  2
GREEN3
  70
0
  62
91
  6
CONTINUOUS
  0
LAYER
  2
CYAN3
  70
0
  62
131
  6
CONTINUOUS
  0
LAYER
  2
RED3
  70
0
  62
11
  6
CONTINUOUS
  0
LAYER
  2
MAGENTA3
  70
0
  62
221
  6
CONTINUOUS
  0
LAYER
  2
YELLOW3
  70
0
  62
2
  6
CONTINUOUS
  0
LAYER
  2
BLUE4
  70
0
  62
5
  6
CONTINUOUS
  0
LAYER
  2
GREEN4
  70
0
  62
3
  6
CONTINUOUS
  0
LAYER
  2
CYAN4
  70
0
  62
4
  6
CONTINUOUS
  0
LAYER
  2
RED4
  70
0
  62
1
  6
CONTINUOUS
  0
LAYER
  2
MAGENTA4
  70
0
  62
6
  6
CONTINUOUS
  0
LAYER
  2
YELLOW4
  70
0
  62
2
  6
CONTINUOUS
  0
ENDTAB
  0
ENDSEC
  0
SECTION
  2
ENTITIES
0
LINE
8
Black
10
177.002
20
-166.007
11
177.002
21
-198.007
0
LINE
8
Black
10
177.002
20
-198.007
11
285.002
21
-198.007
0
LINE
8
Black
10
285.002
20
-198.007
11
285.002
21
-166.007
0
LINE
8
Black
10
285.002
20
-166.007
11
177.002
21
-166.007
0
LINE
8
Black
10
10
20
-10
11
10
21
-200.007
0
LINE
8
Black
10
10
20
-200.007
11
287.002
21
-200.007
0
LINE
8
Black
10
287.002
20
-200.007
11
287.002
21
-10
0
LINE
8
Black
10
287.002
20
-10
11
10
21
-10
0
LINE
8
Black
10
12
20
-12
11
12
21
-198.007
0
LINE
8
Black
10
12
20
-198.007
11
285.002
21
-198.007
0
LINE
8
Black
10
285.002
20
-198.007
11
285.002
21
-12
0
LINE
8
Black
10
285.002
20
-12
11
12
21
-12
0
LINE
8
Black
10
60
20
-12
11
60
21
-10
0
LINE
8
Black
10
110
20
-12
11
110
21
-10
0
LINE
8
Black
10
160
20
-12
11
160
21
-10
0
LINE
8
Black
10
210
20
-12
11
210
21
-10
0
LINE
8
Black
10
260
20
-12
11
260
21
-10
0
LINE
8
Black
10
35.9905
20
-11.5881
11
35.2476
21
-11.5881
0
LINE
8
Black
10
35.619
20
-11.5881
11
35.619
21
-10.2881
0
LINE
8
Black
10
35.619
20
-10.2881
11
35.4952
21
-10.4738
0
LINE
8
Black
10
35.4952
20
-10.4738
11
35.3714
21
-10.5976
0
LINE
8
Black
10
35.3714
20
-10.5976
11
35.2476
21
-10.6595
0
LINE
8
Black
10
85.2476
20
-10.4119
11
85.3095
21
-10.35
0
LINE
8
Black
10
85.3095
20
-10.35
11
85.4333
21
-10.2881
0
LINE
8
Black
10
85.4333
20
-10.2881
11
85.7429
21
-10.2881
0
LINE
8
Black
10
85.7429
20
-10.2881
11
85.8667
21
-10.35
0
LINE
8
Black
10
85.8667
20
-10.35
11
85.9286
21
-10.4119
0
LINE
8
Black
10
85.9286
20
-10.4119
11
85.9905
21
-10.5357
0
LINE
8
Black
10
85.9905
20
-10.5357
11
85.9905
21
-10.6595
0
LINE
8
Black
10
85.9905
20
-10.6595
11
85.9286
21
-10.8452
0
LINE
8
Black
10
85.9286
20
-10.8452
11
85.1857
21
-11.5881
0
LINE
8
Black
10
85.1857
20
-11.5881
11
85.9905
21
-11.5881
0
LINE
8
Black
10
135.186
20
-10.2881
11
135.99
21
-10.2881
0
LINE
8
Black
10
135.99
20
-10.2881
11
135.557
21
-10.7833
0
LINE
8
Black
10
135.557
20
-10.7833
11
135.743
21
-10.7833
0
LINE
8
Black
10
135.743
20
-10.7833
11
135.867
21
-10.8452
0
LINE
8
Black
10
135.867
20
-10.8452
11
135.929
21
-10.9071
0
LINE
8
Black
10
135.929
20
-10.9071
11
135.99
21
-11.031
0
LINE
8
Black
10
135.99
20
-11.031
11
135.99
21
-11.3405
0
LINE
8
Black
10
135.99
20
-11.3405
11
135.929
21
-11.4643
0
LINE
8
Black
10
135.929
20
-11.4643
11
135.867
21
-11.5262
0
LINE
8
Black
10
135.867
20
-11.5262
11
135.743
21
-11.5881
0
LINE
8
Black
10
135.743
20
-11.5881
11
135.371
21
-11.5881
0
LINE
8
Black
10
135.371
20
-11.5881
11
135.248
21
-11.5262
0
LINE
8
Black
10
135.248
20
-11.5262
11
135.186
21
-11.4643
0
LINE
8
Black
10
185.867
20
-10.7214
11
185.867
21
-11.5881
0
LINE
8
Black
10
185.557
20
-10.2262
11
185.248
21
-11.1548
0
LINE
8
Black
10
185.248
20
-11.1548
11
186.052
21
-11.1548
0
LINE
8
Black
10
235.929
20
-10.2881
11
235.31
21
-10.2881
0
LINE
8
Black
10
235.31
20
-10.2881
11
235.248
21
-10.9071
0
LINE
8
Black
10
235.248
20
-10.9071
11
235.31
21
-10.8452
0
LINE
8
Black
10
235.31
20
-10.8452
11
235.433
21
-10.7833
0
LINE
8
Black
10
235.433
20
-10.7833
11
235.743
21
-10.7833
0
LINE
8
Black
10
235.743
20
-10.7833
11
235.867
21
-10.8452
0
LINE
8
Black
10
235.867
20
-10.8452
11
235.929
21
-10.9071
0
LINE
8
Black
10
235.929
20
-10.9071
11
235.99
21
-11.031
0
LINE
8
Black
10
235.99
20
-11.031
11
235.99
21
-11.3405
0
LINE
8
Black
10
235.99
20
-11.3405
11
235.929
21
-11.4643
0
LINE
8
Black
10
235.929
20
-11.4643
11
235.867
21
-11.5262
0
LINE
8
Black
10
235.867
20
-11.5262
11
235.743
21
-11.5881
0
LINE
8
Black
10
235.743
20
-11.5881
11
235.433
21
-11.5881
0
LINE
8
Black
10
235.433
20
-11.5881
11
235.31
21
-11.5262
0
LINE
8
Black
10
235.31
20
-11.5262
11
235.248
21
-11.4643
0
LINE
8
Black
10
285.867
20
-10.2881
11
285.619
21
-10.2881
0
LINE
8
Black
10
285.619
20
-10.2881
11
285.495
21
-10.35
0
LINE
8
Black
10
285.495
20
-10.35
11
285.433
21
-10.4119
0
LINE
8
Black
10
285.433
20
-10.4119
11
285.31
21
-10.5976
0
LINE
8
Black
10
285.31
20
-10.5976
11
285.248
21
-10.8452
0
LINE
8
Black
10
285.248
20
-10.8452
11
285.248
21
-11.3405
0
LINE
8
Black
10
285.248
20
-11.3405
11
285.31
21
-11.4643
0
LINE
8
Black
10
285.31
20
-11.4643
11
285.371
21
-11.5262
0
LINE
8
Black
10
285.371
20
-11.5262
11
285.495
21
-11.5881
0
LINE
8
Black
10
285.495
20
-11.5881
11
285.743
21
-11.5881
0
LINE
8
Black
10
285.743
20
-11.5881
11
285.867
21
-11.5262
0
LINE
8
Black
10
285.867
20
-11.5262
11
285.929
21
-11.4643
0
LINE
8
Black
10
285.929
20
-11.4643
11
285.99
21
-11.3405
0
LINE
8
Black
10
285.99
20
-11.3405
11
285.99
21
-11.031
0
LINE
8
Black
10
285.99
20
-11.031
11
285.929
21
-10.9071
0
LINE
8
Black
10
285.929
20
-10.9071
11
285.867
21
-10.8452
0
LINE
8
Black
10
285.867
20
-10.8452
11
285.743
21
-10.7833
0
LINE
8
Black
10
285.743
20
-10.7833
11
285.495
21
-10.7833
0
LINE
8
Black
10
285.495
20
-10.7833
11
285.371
21
-10.8452
0
LINE
8
Black
10
285.371
20
-10.8452
11
285.31
21
-10.9071
0
LINE
8
Black
10
285.31
20
-10.9071
11
285.248
21
-11.031
0
LINE
8
Black
10
60
20
-198.007
11
60
21
-200.007
0
LINE
8
Black
10
110
20
-198.007
11
110
21
-200.007
0
LINE
8
Black
10
160
20
-198.007
11
160
21
-200.007
0
LINE
8
Black
10
210
20
-198.007
11
210
21
-200.007
0
LINE
8
Black
10
260
20
-198.007
11
260
21
-200.007
0
LINE
8
Black
10
35.9905
20
-199.595
11
35.2476
21
-199.595
0
LINE
8
Black
10
35.619
20
-199.595
11
35.619
21
-198.295
0
LINE
8
Black
10
35.619
20
-198.295
11
35.4952
21
-198.481
0
LINE
8
Black
10
35.4952
20
-198.481
11
35.3714
21
-198.605
0
LINE
8
Black
10
35.3714
20
-198.605
11
35.2476
21
-198.667
0
LINE
8
Black
10
85.2476
20
-198.419
11
85.3095
21
-198.357
0
LINE
8
Black
10
85.3095
20
-198.357
11
85.4333
21
-198.295
0
LINE
8
Black
10
85.4333
20
-198.295
11
85.7429
21
-198.295
0
LINE
8
Black
10
85.7429
20
-198.295
11
85.8667
21
-198.357
0
LINE
8
Black
10
85.8667
20
-198.357
11
85.9286
21
-198.419
0
LINE
8
Black
10
85.9286
20
-198.419
11
85.9905
21
-198.543
0
LINE
8
Black
10
85.9905
20
-198.543
11
85.9905
21
-198.667
0
LINE
8
Black
10
85.9905
20
-198.667
11
85.9286
21
-198.852
0
LINE
8
Black
10
85.9286
20
-198.852
11
85.1857
21
-199.595
0
LINE
8
Black
10
85.1857
20
-199.595
11
85.9905
21
-199.595
0
LINE
8
Black
10
135.186
20
-198.295
11
135.99
21
-198.295
0
LINE
8
Black
10
135.99
20
-198.295
11
135.557
21
-198.791
0
LINE
8
Black
10
135.557
20
-198.791
11
135.743
21
-198.791
0
LINE
8
Black
10
135.743
20
-198.791
11
135.867
21
-198.852
0
LINE
8
Black
10
135.867
20
-198.852
11
135.929
21
-198.914
0
LINE
8
Black
10
135.929
20
-198.914
11
135.99
21
-199.038
0
LINE
8
Black
10
135.99
20
-199.038
11
135.99
21
-199.348
0
LINE
8
Black
10
135.99
20
-199.348
11
135.929
21
-199.471
0
LINE
8
Black
10
135.929
20
-199.471
11
135.867
21
-199.533
0
LINE
8
Black
10
135.867
20
-199.533
11
135.743
21
-199.595
0
LINE
8
Black
10
135.743
20
-199.595
11
135.371
21
-199.595
0
LINE
8
Black
10
135.371
20
-199.595
11
135.248
21
-199.533
0
LINE
8
Black
10
135.248
20
-199.533
11
135.186
21
-199.471
0
LINE
8
Black
10
185.867
20
-198.729
11
185.867
21
-199.595
0
LINE
8
Black
10
185.557
20
-198.233
11
185.248
21
-199.162
0
LINE
8
Black
10
185.248
20
-199.162
11
186.052
21
-199.162
0
LINE
8
Black
10
235.929
20
-198.295
11
235.31
21
-198.295
0
LINE
8
Black
10
235.31
20
-198.295
11
235.248
21
-198.914
0
LINE
8
Black
10
235.248
20
-198.914
11
235.31
21
-198.852
0
LINE
8
Black
10
235.31
20
-198.852
11
235.433
21
-198.791
0
LINE
8
Black
10
235.433
20
-198.791
11
235.743
21
-198.791
0
LINE
8
Black
10
235.743
20
-198.791
11
235.867
21
-198.852
0
LINE
8
Black
10
235.867
20
-198.852
11
235.929
21
-198.914
0
LINE
8
Black
10
235.929
20
-198.914
11
235.99
21
-199.038
0
LINE
8
Black
10
235.99
20
-199.038
11
235.99
21
-199.348
0
LINE
8
Black
10
235.99
20
-199.348
11
235.929
21
-199.471
0
LINE
8
Black
10
235.929
20
-199.471
11
235.867
21
-199.533
0
LINE
8
Black
10
235.867
20
-199.533
11
235.743
21
-199.595
0
LINE
8
Black
10
235.743
20
-199.595
11
235.433
21
-199.595
0
LINE
8
Black
10
235.433
20
-199.595
11
235.31
21
-199.533
0
LINE
8
Black
10
235.31
20
-199.533
11
235.248
21
-199.471
0
LINE
8
Black
10
285.867
20
-198.295
11
285.619
21
-198.295
0
LINE
8
Black
10
285.619
20
-198.295
11
285.495
21
-198.357
0
LINE
8
Black
10
285.495
20
-198.357
11
285.433
21
-198.419
0
LINE
8
Black
10
285.433
20
-198.419
11
285.31
21
-198.605
0
LINE
8
Black
10
285.31
20
-198.605
11
285.248
21
-198.852
0
LINE
8
Black
10
285.248
20
-198.852
11
285.248
21
-199.348
0
LINE
8
Black
10
285.248
20
-199.348
11
285.31
21
-199.471
0
LINE
8
Black
10
285.31
20
-199.471
11
285.371
21
-199.533
0
LINE
8
Black
10
285.371
20
-199.533
11
285.495
21
-199.595
0
LINE
8
Black
10
285.495
20
-199.595
11
285.743
21
-199.595
0
LINE
8
Black
10
285.743
20
-199.595
11
285.867
21
-199.533
0
LINE
8
Black
10
285.867
20
-199.533
11
285.929
21
-199.471
0
LINE
8
Black
10
285.929
20
-199.471
11
285.99
21
-199.348
0
LINE
8
Black
10
285.99
20
-199.348
11
285.99
21
-199.038
0
LINE
8
Black
10
285.99
20
-199.038
11
285.929
21
-198.914
0
LINE
8
Black
10
285.929
20
-198.914
11
285.867
21
-198.852
0
LINE
8
Black
10
285.867
20
-198.852
11
285.743
21
-198.791
0
LINE
8
Black
10
285.743
20
-198.791
11
285.495
21
-198.791
0
LINE
8
Black
10
285.495
20
-198.791
11
285.371
21
-198.852
0
LINE
8
Black
10
285.371
20
-198.852
11
285.31
21
-198.914
0
LINE
8
Black
10
285.31
20
-198.914
11
285.248
21
-199.038
0
LINE
8
Black
10
10
20
-60
11
12
21
-60
0
LINE
8
Black
10
10
20
-110
11
12
21
-110
0
LINE
8
Black
10
10
20
-160
11
12
21
-160
0
LINE
8
Black
10
10.6905
20
-35.2167
11
11.3095
21
-35.2167
0
LINE
8
Black
10
10.5667
20
-35.5881
11
11
21
-34.2881
0
LINE
8
Black
10
11
20
-34.2881
11
11.4333
21
-35.5881
0
LINE
8
Black
10
11.0929
20
-84.9071
11
11.2786
21
-84.969
0
LINE
8
Black
10
11.2786
20
-84.969
11
11.3405
21
-85.031
0
LINE
8
Black
10
11.3405
20
-85.031
11
11.4024
21
-85.1548
0
LINE
8
Black
10
11.4024
20
-85.1548
11
11.4024
21
-85.3405
0
LINE
8
Black
10
11.4024
20
-85.3405
11
11.3405
21
-85.4643
0
LINE
8
Black
10
11.3405
20
-85.4643
11
11.2786
21
-85.5262
0
LINE
8
Black
10
11.2786
20
-85.5262
11
11.1548
21
-85.5881
0
LINE
8
Black
10
11.1548
20
-85.5881
11
10.6595
21
-85.5881
0
LINE
8
Black
10
10.6595
20
-85.5881
11
10.6595
21
-84.2881
0
LINE
8
Black
10
10.6595
20
-84.2881
11
11.0929
21
-84.2881
0
LINE
8
Black
10
11.0929
20
-84.2881
11
11.2167
21
-84.35
0
LINE
8
Black
10
11.2167
20
-84.35
11
11.2786
21
-84.4119
0
LINE
8
Black
10
11.2786
20
-84.4119
11
11.3405
21
-84.5357
0
LINE
8
Black
10
11.3405
20
-84.5357
11
11.3405
21
-84.6595
0
LINE
8
Black
10
11.3405
20
-84.6595
11
11.2786
21
-84.7833
0
LINE
8
Black
10
11.2786
20
-84.7833
11
11.2167
21
-84.8452
0
LINE
8
Black
10
11.2167
20
-84.8452
11
11.0929
21
-84.9071
0
LINE
8
Black
10
11.0929
20
-84.9071
11
10.6595
21
-84.9071
0
LINE
8
Black
10
11.4024
20
-135.464
11
11.3405
21
-135.526
0
LINE
8
Black
10
11.3405
20
-135.526
11
11.1548
21
-135.588
0
LINE
8
Black
10
11.1548
20
-135.588
11
11.031
21
-135.588
0
LINE
8
Black
10
11.031
20
-135.588
11
10.8452
21
-135.526
0
LINE
8
Black
10
10.8452
20
-135.526
11
10.7214
21
-135.402
0
LINE
8
Black
10
10.7214
20
-135.402
11
10.6595
21
-135.279
0
LINE
8
Black
10
10.6595
20
-135.279
11
10.5976
21
-135.031
0
LINE
8
Black
10
10.5976
20
-135.031
11
10.5976
21
-134.845
0
LINE
8
Black
10
10.5976
20
-134.845
11
10.6595
21
-134.598
0
LINE
8
Black
10
10.6595
20
-134.598
11
10.7214
21
-134.474
0
LINE
8
Black
10
10.7214
20
-134.474
11
10.8452
21
-134.35
0
LINE
8
Black
10
10.8452
20
-134.35
11
11.031
21
-134.288
0
LINE
8
Black
10
11.031
20
-134.288
11
11.1548
21
-134.288
0
LINE
8
Black
10
11.1548
20
-134.288
11
11.3405
21
-134.35
0
LINE
8
Black
10
11.3405
20
-134.35
11
11.4024
21
-134.412
0
LINE
8
Black
10
10.6595
20
-185.588
11
10.6595
21
-184.288
0
LINE
8
Black
10
10.6595
20
-184.288
11
10.969
21
-184.288
0
LINE
8
Black
10
10.969
20
-184.288
11
11.1548
21
-184.35
0
LINE
8
Black
10
11.1548
20
-184.35
11
11.2786
21
-184.474
0
LINE
8
Black
10
11.2786
20
-184.474
11
11.3405
21
-184.598
0
LINE
8
Black
10
11.3405
20
-184.598
11
11.4024
21
-184.845
0
LINE
8
Black
10
11.4024
20
-184.845
11
11.4024
21
-185.031
0
LINE
8
Black
10
11.4024
20
-185.031
11
11.3405
21
-185.279
0
LINE
8
Black
10
11.3405
20
-185.279
11
11.2786
21
-185.402
0
LINE
8
Black
10
11.2786
20
-185.402
11
11.1548
21
-185.526
0
LINE
8
Black
10
11.1548
20
-185.526
11
10.969
21
-185.588
0
LINE
8
Black
10
10.969
20
-185.588
11
10.6595
21
-185.588
0
LINE
8
Black
10
287.002
20
-60
11
285.002
21
-60
0
LINE
8
Black
10
287.002
20
-110
11
285.002
21
-110
0
LINE
8
Black
10
287.002
20
-160
11
285.002
21
-160
0
LINE
8
Black
10
285.693
20
-35.2167
11
286.312
21
-35.2167
0
LINE
8
Black
10
285.569
20
-35.5881
11
286.002
21
-34.2881
0
LINE
8
Black
10
286.002
20
-34.2881
11
286.436
21
-35.5881
0
LINE
8
Black
10
286.095
20
-84.9071
11
286.281
21
-84.969
0
LINE
8
Black
10
286.281
20
-84.969
11
286.343
21
-85.031
0
LINE
8
Black
10
286.343
20
-85.031
11
286.405
21
-85.1548
0
LINE
8
Black
10
286.405
20
-85.1548
11
286.405
21
-85.3405
0
LINE
8
Black
10
286.405
20
-85.3405
11
286.343
21
-85.4643
0
LINE
8
Black
10
286.343
20
-85.4643
11
286.281
21
-85.5262
0
LINE
8
Black
10
286.281
20
-85.5262
11
286.157
21
-85.5881
0
LINE
8
Black
10
286.157
20
-85.5881
11
285.662
21
-85.5881
0
LINE
8
Black
10
285.662
20
-85.5881
11
285.662
21
-84.2881
0
LINE
8
Black
10
285.662
20
-84.2881
11
286.095
21
-84.2881
0
LINE
8
Black
10
286.095
20
-84.2881
11
286.219
21
-84.35
0
LINE
8
Black
10
286.219
20
-84.35
11
286.281
21
-84.4119
0
LINE
8
Black
10
286.281
20
-84.4119
11
286.343
21
-84.5357
0
LINE
8
Black
10
286.343
20
-84.5357
11
286.343
21
-84.6595
0
LINE
8
Black
10
286.343
20
-84.6595
11
286.281
21
-84.7833
0
LINE
8
Black
10
286.281
20
-84.7833
11
286.219
21
-84.8452
0
LINE
8
Black
10
286.219
20
-84.8452
11
286.095
21
-84.9071
0
LINE
8
Black
10
286.095
20
-84.9071
11
285.662
21
-84.9071
0
LINE
8
Black
10
286.405
20
-135.464
11
286.343
21
-135.526
0
LINE
8
Black
10
286.343
20
-135.526
11
286.157
21
-135.588
0
LINE
8
Black
10
286.157
20
-135.588
11
286.033
21
-135.588
0
LINE
8
Black
10
286.033
20
-135.588
11
285.847
21
-135.526
0
LINE
8
Black
10
285.847
20
-135.526
11
285.724
21
-135.402
0
LINE
8
Black
10
285.724
20
-135.402
11
285.662
21
-135.279
0
LINE
8
Black
10
285.662
20
-135.279
11
285.6
21
-135.031
0
LINE
8
Black
10
285.6
20
-135.031
11
285.6
21
-134.845
0
LINE
8
Black
10
285.6
20
-134.845
11
285.662
21
-134.598
0
LINE
8
Black
10
285.662
20
-134.598
11
285.724
21
-134.474
0
LINE
8
Black
10
285.724
20
-134.474
11
285.847
21
-134.35
0
LINE
8
Black
10
285.847
20
-134.35
11
286.033
21
-134.288
0
LINE
8
Black
10
286.033
20
-134.288
11
286.157
21
-134.288
0
LINE
8
Black
10
286.157
20
-134.288
11
286.343
21
-134.35
0
LINE
8
Black
10
286.343
20
-134.35
11
286.405
21
-134.412
0
LINE
8
Black
10
285.662
20
-185.588
11
285.662
21
-184.288
0
LINE
8
Black
10
285.662
20
-184.288
11
285.971
21
-184.288
0
LINE
8
Black
10
285.971
20
-184.288
11
286.157
21
-184.35
0
LINE
8
Black
10
286.157
20
-184.35
11
286.281
21
-184.474
0
LINE
8
Black
10
286.281
20
-184.474
11
286.343
21
-184.598
0
LINE
8
Black
10
286.343
20
-184.598
11
286.405
21
-184.845
0
LINE
8
Black
10
286.405
20
-184.845
11
286.405
21
-185.031
0
LINE
8
Black
10
286.405
20
-185.031
11
286.343
21
-185.279
0
LINE
8
Black
10
286.343
20
-185.279
11
286.281
21
-185.402
0
LINE
8
Black
10
286.281
20
-185.402
11
286.157
21
-185.526
0
LINE
8
Black
10
286.157
20
-185.526
11
285.971
21
-185.588
0
LINE
8
Black
10
285.971
20
-185.588
11
285.662
21
-185.588
0
LINE
8
Black
10
200.359
20
-193.786
11
200.359
21
-192.286
0
LINE
8
Black
10
200.359
20
-192.286
11
200.716
21
-192.286
0
LINE
8
Black
10
200.716
20
-192.286
11
200.931
21
-192.357
0
LINE
8
Black
10
200.931
20
-192.357
11
201.074
21
-192.5
0
LINE
8
Black
10
201.074
20
-192.5
11
201.145
21
-192.643
0
LINE
8
Black
10
201.145
20
-192.643
11
201.216
21
-192.929
0
LINE
8
Black
10
201.216
20
-192.929
11
201.216
21
-193.143
0
LINE
8
Black
10
201.216
20
-193.143
11
201.145
21
-193.429
0
LINE
8
Black
10
201.145
20
-193.429
11
201.074
21
-193.571
0
LINE
8
Black
10
201.074
20
-193.571
11
200.931
21
-193.714
0
LINE
8
Black
10
200.931
20
-193.714
11
200.716
21
-193.786
0
LINE
8
Black
10
200.716
20
-193.786
11
200.359
21
-193.786
0
LINE
8
Black
10
202.502
20
-193.786
11
202.502
21
-193
0
LINE
8
Black
10
202.502
20
-193
11
202.431
21
-192.857
0
LINE
8
Black
10
202.431
20
-192.857
11
202.288
21
-192.786
0
LINE
8
Black
10
202.288
20
-192.786
11
202.002
21
-192.786
0
LINE
8
Black
10
202.002
20
-192.786
11
201.859
21
-192.857
0
LINE
8
Black
10
202.502
20
-193.714
11
202.359
21
-193.786
0
LINE
8
Black
10
202.359
20
-193.786
11
202.002
21
-193.786
0
LINE
8
Black
10
202.002
20
-193.786
11
201.859
21
-193.714
0
LINE
8
Black
10
201.859
20
-193.714
11
201.788
21
-193.571
0
LINE
8
Black
10
201.788
20
-193.571
11
201.788
21
-193.429
0
LINE
8
Black
10
201.788
20
-193.429
11
201.859
21
-193.286
0
LINE
8
Black
10
201.859
20
-193.286
11
202.002
21
-193.214
0
LINE
8
Black
10
202.002
20
-193.214
11
202.359
21
-193.214
0
LINE
8
Black
10
202.359
20
-193.214
11
202.502
21
-193.143
0
LINE
8
Black
10
203.002
20
-192.786
11
203.574
21
-192.786
0
LINE
8
Black
10
203.216
20
-192.286
11
203.216
21
-193.571
0
LINE
8
Black
10
203.216
20
-193.571
11
203.288
21
-193.714
0
LINE
8
Black
10
203.288
20
-193.714
11
203.431
21
-193.786
0
LINE
8
Black
10
203.431
20
-193.786
11
203.574
21
-193.786
0
LINE
8
Black
10
204.645
20
-193.714
11
204.502
21
-193.786
0
LINE
8
Black
10
204.502
20
-193.786
11
204.216
21
-193.786
0
LINE
8
Black
10
204.216
20
-193.786
11
204.074
21
-193.714
0
LINE
8
Black
10
204.074
20
-193.714
11
204.002
21
-193.571
0
LINE
8
Black
10
204.002
20
-193.571
11
204.002
21
-193
0
LINE
8
Black
10
204.002
20
-193
11
204.074
21
-192.857
0
LINE
8
Black
10
204.074
20
-192.857
11
204.216
21
-192.786
0
LINE
8
Black
10
204.216
20
-192.786
11
204.502
21
-192.786
0
LINE
8
Black
10
204.502
20
-192.786
11
204.645
21
-192.857
0
LINE
8
Black
10
204.645
20
-192.857
11
204.716
21
-193
0
LINE
8
Black
10
204.716
20
-193
11
204.716
21
-193.143
0
LINE
8
Black
10
204.716
20
-193.143
11
204.002
21
-193.286
0
LINE
8
Black
10
205.359
20
-193.643
11
205.431
21
-193.714
0
LINE
8
Black
10
205.431
20
-193.714
11
205.359
21
-193.786
0
LINE
8
Black
10
205.359
20
-193.786
11
205.288
21
-193.714
0
LINE
8
Black
10
205.288
20
-193.714
11
205.359
21
-193.643
0
LINE
8
Black
10
205.359
20
-193.643
11
205.359
21
-193.786
0
LINE
8
Black
10
205.359
20
-192.857
11
205.431
21
-192.929
0
LINE
8
Black
10
205.431
20
-192.929
11
205.359
21
-193
0
LINE
8
Black
10
205.359
20
-193
11
205.288
21
-192.929
0
LINE
8
Black
10
205.288
20
-192.929
11
205.359
21
-192.857
0
LINE
8
Black
10
205.359
20
-192.857
11
205.359
21
-193
0
LINE
8
Black
10
177.002
20
-194.507
11
285.002
21
-194.507
0
LINE
8
Black
10
178.359
20
-196.586
11
178.359
21
-195.086
0
LINE
8
Black
10
179.216
20
-196.586
11
178.574
21
-195.729
0
LINE
8
Black
10
179.216
20
-195.086
11
178.359
21
-195.943
0
LINE
8
Black
10
179.859
20
-196.586
11
179.859
21
-195.586
0
LINE
8
Black
10
179.859
20
-195.086
11
179.788
21
-195.157
0
LINE
8
Black
10
179.788
20
-195.157
11
179.859
21
-195.229
0
LINE
8
Black
10
179.859
20
-195.229
11
179.931
21
-195.157
0
LINE
8
Black
10
179.931
20
-195.157
11
179.859
21
-195.086
0
LINE
8
Black
10
179.859
20
-195.086
11
179.859
21
-195.229
0
LINE
8
Black
10
181.431
20
-196.443
11
181.359
21
-196.514
0
LINE
8
Black
10
181.359
20
-196.514
11
181.145
21
-196.586
0
LINE
8
Black
10
181.145
20
-196.586
11
181.002
21
-196.586
0
LINE
8
Black
10
181.002
20
-196.586
11
180.788
21
-196.514
0
LINE
8
Black
10
180.788
20
-196.514
11
180.645
21
-196.371
0
LINE
8
Black
10
180.645
20
-196.371
11
180.574
21
-196.229
0
LINE
8
Black
10
180.574
20
-196.229
11
180.502
21
-195.943
0
LINE
8
Black
10
180.502
20
-195.943
11
180.502
21
-195.729
0
LINE
8
Black
10
180.502
20
-195.729
11
180.574
21
-195.443
0
LINE
8
Black
10
180.574
20
-195.443
11
180.645
21
-195.3
0
LINE
8
Black
10
180.645
20
-195.3
11
180.788
21
-195.157
0
LINE
8
Black
10
180.788
20
-195.157
11
181.002
21
-195.086
0
LINE
8
Black
10
181.002
20
-195.086
11
181.145
21
-195.086
0
LINE
8
Black
10
181.145
20
-195.086
11
181.359
21
-195.157
0
LINE
8
Black
10
181.359
20
-195.157
11
181.431
21
-195.229
0
LINE
8
Black
10
182.716
20
-196.586
11
182.716
21
-195.8
0
LINE
8
Black
10
182.716
20
-195.8
11
182.645
21
-195.657
0
LINE
8
Black
10
182.645
20
-195.657
11
182.502
21
-195.586
0
LINE
8
Black
10
182.502
20
-195.586
11
182.216
21
-195.586
0
LINE
8
Black
10
182.216
20
-195.586
11
182.074
21
-195.657
0
LINE
8
Black
10
182.716
20
-196.514
11
182.574
21
-196.586
0
LINE
8
Black
10
182.574
20
-196.586
11
182.216
21
-196.586
0
LINE
8
Black
10
182.216
20
-196.586
11
182.074
21
-196.514
0
LINE
8
Black
10
182.074
20
-196.514
11
182.002
21
-196.371
0
LINE
8
Black
10
182.002
20
-196.371
11
182.002
21
-196.229
0
LINE
8
Black
10
182.002
20
-196.229
11
182.074
21
-196.086
0
LINE
8
Black
10
182.074
20
-196.086
11
182.216
21
-196.014
0
LINE
8
Black
10
182.216
20
-196.014
11
182.574
21
-196.014
0
LINE
8
Black
10
182.574
20
-196.014
11
182.716
21
-195.943
0
LINE
8
Black
10
184.074
20
-196.586
11
184.074
21
-195.086
0
LINE
8
Black
10
184.074
20
-196.514
11
183.931
21
-196.586
0
LINE
8
Black
10
183.931
20
-196.586
11
183.645
21
-196.586
0
LINE
8
Black
10
183.645
20
-196.586
11
183.502
21
-196.514
0
LINE
8
Black
10
183.502
20
-196.514
11
183.431
21
-196.443
0
LINE
8
Black
10
183.431
20
-196.443
11
183.359
21
-196.3
0
LINE
8
Black
10
183.359
20
-196.3
11
183.359
21
-195.871
0
LINE
8
Black
10
183.359
20
-195.871
11
183.431
21
-195.729
0
LINE
8
Black
10
183.431
20
-195.729
11
183.502
21
-195.657
0
LINE
8
Black
10
183.502
20
-195.657
11
183.645
21
-195.586
0
LINE
8
Black
10
183.645
20
-195.586
11
183.931
21
-195.586
0
LINE
8
Black
10
183.931
20
-195.586
11
184.074
21
-195.657
0
LINE
8
Black
10
185.931
20
-195.8
11
186.431
21
-195.8
0
LINE
8
Black
10
186.645
20
-196.586
11
185.931
21
-196.586
0
LINE
8
Black
10
185.931
20
-196.586
11
185.931
21
-195.086
0
LINE
8
Black
10
185.931
20
-195.086
11
186.645
21
-195.086
0
LINE
8
Black
10
187.288
20
-196.443
11
187.359
21
-196.514
0
LINE
8
Black
10
187.359
20
-196.514
11
187.288
21
-196.586
0
LINE
8
Black
10
187.288
20
-196.586
11
187.216
21
-196.514
0
LINE
8
Black
10
187.216
20
-196.514
11
187.288
21
-196.443
0
LINE
8
Black
10
187.288
20
-196.443
11
187.288
21
-196.586
0
LINE
8
Black
10
188.002
20
-196.586
11
188.002
21
-195.086
0
LINE
8
Black
10
188.002
20
-195.086
11
188.359
21
-195.086
0
LINE
8
Black
10
188.359
20
-195.086
11
188.574
21
-195.157
0
LINE
8
Black
10
188.574
20
-195.157
11
188.716
21
-195.3
0
LINE
8
Black
10
188.716
20
-195.3
11
188.788
21
-195.443
0
LINE
8
Black
10
188.788
20
-195.443
11
188.859
21
-195.729
0
LINE
8
Black
10
188.859
20
-195.729
11
188.859
21
-195.943
0
LINE
8
Black
10
188.859
20
-195.943
11
188.788
21
-196.229
0
LINE
8
Black
10
188.788
20
-196.229
11
188.716
21
-196.371
0
LINE
8
Black
10
188.716
20
-196.371
11
188.574
21
-196.514
0
LINE
8
Black
10
188.574
20
-196.514
11
188.359
21
-196.586
0
LINE
8
Black
10
188.359
20
-196.586
11
188.002
21
-196.586
0
LINE
8
Black
10
189.502
20
-196.443
11
189.574
21
-196.514
0
LINE
8
Black
10
189.574
20
-196.514
11
189.502
21
-196.586
0
LINE
8
Black
10
189.502
20
-196.586
11
189.431
21
-196.514
0
LINE
8
Black
10
189.431
20
-196.514
11
189.502
21
-196.443
0
LINE
8
Black
10
189.502
20
-196.443
11
189.502
21
-196.586
0
LINE
8
Black
10
190.145
20
-196.157
11
190.859
21
-196.157
0
LINE
8
Black
10
190.002
20
-196.586
11
190.502
21
-195.086
0
LINE
8
Black
10
190.502
20
-195.086
11
191.002
21
-196.586
0
LINE
8
Black
10
191.502
20
-196.443
11
191.574
21
-196.514
0
LINE
8
Black
10
191.574
20
-196.514
11
191.502
21
-196.586
0
LINE
8
Black
10
191.502
20
-196.586
11
191.431
21
-196.514
0
LINE
8
Black
10
191.431
20
-196.514
11
191.502
21
-196.443
0
LINE
8
Black
10
191.502
20
-196.443
11
191.502
21
-196.586
0
LINE
8
Black
10
194.502
20
-195.586
11
194.502
21
-197.086
0
LINE
8
Black
10
194.502
20
-195.657
11
194.645
21
-195.586
0
LINE
8
Black
10
194.645
20
-195.586
11
194.931
21
-195.586
0
LINE
8
Black
10
194.931
20
-195.586
11
195.074
21
-195.657
0
LINE
8
Black
10
195.074
20
-195.657
11
195.145
21
-195.729
0
LINE
8
Black
10
195.145
20
-195.729
11
195.216
21
-195.871
0
LINE
8
Black
10
195.216
20
-195.871
11
195.216
21
-196.3
0
LINE
8
Black
10
195.216
20
-196.3
11
195.145
21
-196.443
0
LINE
8
Black
10
195.145
20
-196.443
11
195.074
21
-196.514
0
LINE
8
Black
10
195.074
20
-196.514
11
194.931
21
-196.586
0
LINE
8
Black
10
194.931
20
-196.586
11
194.645
21
-196.586
0
LINE
8
Black
10
194.645
20
-196.586
11
194.502
21
-196.514
0
LINE
8
Black
10
196.502
20
-196.514
11
196.359
21
-196.586
0
LINE
8
Black
10
196.359
20
-196.586
11
196.074
21
-196.586
0
LINE
8
Black
10
196.074
20
-196.586
11
195.931
21
-196.514
0
LINE
8
Black
10
195.931
20
-196.514
11
195.859
21
-196.443
0
LINE
8
Black
10
195.859
20
-196.443
11
195.788
21
-196.3
0
LINE
8
Black
10
195.788
20
-196.3
11
195.788
21
-195.871
0
LINE
8
Black
10
195.788
20
-195.871
11
195.859
21
-195.729
0
LINE
8
Black
10
195.859
20
-195.729
11
195.931
21
-195.657
0
LINE
8
Black
10
195.931
20
-195.657
11
196.074
21
-195.586
0
LINE
8
Black
10
196.074
20
-195.586
11
196.359
21
-195.586
0
LINE
8
Black
10
196.359
20
-195.586
11
196.502
21
-195.657
0
LINE
8
Black
10
197.145
20
-196.586
11
197.145
21
-195.086
0
LINE
8
Black
10
197.145
20
-195.657
11
197.288
21
-195.586
0
LINE
8
Black
10
197.288
20
-195.586
11
197.574
21
-195.586
0
LINE
8
Black
10
197.574
20
-195.586
11
197.716
21
-195.657
0
LINE
8
Black
10
197.716
20
-195.657
11
197.788
21
-195.729
0
LINE
8
Black
10
197.788
20
-195.729
11
197.859
21
-195.871
0
LINE
8
Black
10
197.859
20
-195.871
11
197.859
21
-196.3
0
LINE
8
Black
10
197.859
20
-196.3
11
197.788
21
-196.443
0
LINE
8
Black
10
197.788
20
-196.443
11
197.716
21
-196.514
0
LINE
8
Black
10
197.716
20
-196.514
11
197.574
21
-196.586
0
LINE
8
Black
10
197.574
20
-196.586
11
197.288
21
-196.586
0
LINE
8
Black
10
197.288
20
-196.586
11
197.145
21
-196.514
0
LINE
8
Black
10
198.502
20
-195.586
11
198.502
21
-196.586
0
LINE
8
Black
10
198.502
20
-195.729
11
198.574
21
-195.657
0
LINE
8
Black
10
198.574
20
-195.657
11
198.716
21
-195.586
0
LINE
8
Black
10
198.716
20
-195.586
11
198.931
21
-195.586
0
LINE
8
Black
10
198.931
20
-195.586
11
199.074
21
-195.657
0
LINE
8
Black
10
199.074
20
-195.657
11
199.145
21
-195.8
0
LINE
8
Black
10
199.145
20
-195.8
11
199.145
21
-196.586
0
LINE
8
Black
10
200.431
20
-196.514
11
200.288
21
-196.586
0
LINE
8
Black
10
200.288
20
-196.586
11
200.002
21
-196.586
0
LINE
8
Black
10
200.002
20
-196.586
11
199.859
21
-196.514
0
LINE
8
Black
10
199.859
20
-196.514
11
199.788
21
-196.371
0
LINE
8
Black
10
199.788
20
-196.371
11
199.788
21
-195.8
0
LINE
8
Black
10
199.788
20
-195.8
11
199.859
21
-195.657
0
LINE
8
Black
10
199.859
20
-195.657
11
200.002
21
-195.586
0
LINE
8
Black
10
200.002
20
-195.586
11
200.288
21
-195.586
0
LINE
8
Black
10
200.288
20
-195.586
11
200.431
21
-195.657
0
LINE
8
Black
10
200.431
20
-195.657
11
200.502
21
-195.8
0
LINE
8
Black
10
200.502
20
-195.8
11
200.502
21
-195.943
0
LINE
8
Black
10
200.502
20
-195.943
11
199.788
21
-196.086
0
LINE
8
Black
10
201.002
20
-195.586
11
201.288
21
-196.586
0
LINE
8
Black
10
201.288
20
-196.586
11
201.574
21
-195.871
0
LINE
8
Black
10
201.574
20
-195.871
11
201.859
21
-196.586
0
LINE
8
Black
10
201.859
20
-196.586
11
202.145
21
-195.586
0
LINE
8
Black
10
204.502
20
-195.586
11
204.502
21
-196.586
0
LINE
8
Black
10
204.145
20
-195.014
11
203.788
21
-196.086
0
LINE
8
Black
10
203.788
20
-196.086
11
204.716
21
-196.086
0
LINE
8
Black
10
205.288
20
-196.443
11
205.359
21
-196.514
0
LINE
8
Black
10
205.359
20
-196.514
11
205.288
21
-196.586
0
LINE
8
Black
10
205.288
20
-196.586
11
205.216
21
-196.514
0
LINE
8
Black
10
205.216
20
-196.514
11
205.288
21
-196.443
0
LINE
8
Black
10
205.288
20
-196.443
11
205.288
21
-196.586
0
LINE
8
Black
10
206.288
20
-195.086
11
206.431
21
-195.086
0
LINE
8
Black
10
206.431
20
-195.086
11
206.574
21
-195.157
0
LINE
8
Black
10
206.574
20
-195.157
11
206.645
21
-195.229
0
LINE
8
Black
10
206.645
20
-195.229
11
206.716
21
-195.371
0
LINE
8
Black
10
206.716
20
-195.371
11
206.788
21
-195.657
0
LINE
8
Black
10
206.788
20
-195.657
11
206.788
21
-196.014
0
LINE
8
Black
10
206.788
20
-196.014
11
206.716
21
-196.3
0
LINE
8
Black
10
206.716
20
-196.3
11
206.645
21
-196.443
0
LINE
8
Black
10
206.645
20
-196.443
11
206.574
21
-196.514
0
LINE
8
Black
10
206.574
20
-196.514
11
206.431
21
-196.586
0
LINE
8
Black
10
206.431
20
-196.586
11
206.288
21
-196.586
0
LINE
8
Black
10
206.288
20
-196.586
11
206.145
21
-196.514
0
LINE
8
Black
10
206.145
20
-196.514
11
206.074
21
-196.443
0
LINE
8
Black
10
206.074
20
-196.443
11
206.002
21
-196.3
0
LINE
8
Black
10
206.002
20
-196.3
11
205.931
21
-196.014
0
LINE
8
Black
10
205.931
20
-196.014
11
205.931
21
-195.657
0
LINE
8
Black
10
205.931
20
-195.657
11
206.002
21
-195.371
0
LINE
8
Black
10
206.002
20
-195.371
11
206.074
21
-195.229
0
LINE
8
Black
10
206.074
20
-195.229
11
206.145
21
-195.157
0
LINE
8
Black
10
206.145
20
-195.157
11
206.288
21
-195.086
0
LINE
8
Black
10
207.431
20
-196.443
11
207.502
21
-196.514
0
LINE
8
Black
10
207.502
20
-196.514
11
207.431
21
-196.586
0
LINE
8
Black
10
207.431
20
-196.586
11
207.359
21
-196.514
0
LINE
8
Black
10
207.359
20
-196.514
11
207.431
21
-196.443
0
LINE
8
Black
10
207.431
20
-196.443
11
207.431
21
-196.586
0
LINE
8
Black
10
208.931
20
-196.586
11
208.074
21
-196.586
0
LINE
8
Black
10
208.502
20
-196.586
11
208.502
21
-195.086
0
LINE
8
Black
10
208.502
20
-195.086
11
208.359
21
-195.3
0
LINE
8
Black
10
208.359
20
-195.3
11
208.216
21
-195.443
0
LINE
8
Black
10
208.216
20
-195.443
11
208.074
21
-195.514
0
LINE
8
Black
10
209.574
20
-196.014
11
210.716
21
-196.014
0
LINE
8
Black
10
212.074
20
-195.586
11
212.074
21
-196.586
0
LINE
8
Black
10
211.716
20
-195.014
11
211.359
21
-196.086
0
LINE
8
Black
10
211.359
20
-196.086
11
212.288
21
-196.086
0
LINE
8
Black
10
212.859
20
-196.443
11
212.931
21
-196.514
0
LINE
8
Black
10
212.931
20
-196.514
11
212.859
21
-196.586
0
LINE
8
Black
10
212.859
20
-196.586
11
212.788
21
-196.514
0
LINE
8
Black
10
212.788
20
-196.514
11
212.859
21
-196.443
0
LINE
8
Black
10
212.859
20
-196.443
11
212.859
21
-196.586
0
LINE
8
Black
10
213.502
20
-195.229
11
213.574
21
-195.157
0
LINE
8
Black
10
213.574
20
-195.157
11
213.716
21
-195.086
0
LINE
8
Black
10
213.716
20
-195.086
11
214.074
21
-195.086
0
LINE
8
Black
10
214.074
20
-195.086
11
214.216
21
-195.157
0
LINE
8
Black
10
214.216
20
-195.157
11
214.288
21
-195.229
0
LINE
8
Black
10
214.288
20
-195.229
11
214.359
21
-195.371
0
LINE
8
Black
10
214.359
20
-195.371
11
214.359
21
-195.514
0
LINE
8
Black
10
214.359
20
-195.514
11
214.288
21
-195.729
0
LINE
8
Black
10
214.288
20
-195.729
11
213.431
21
-196.586
0
LINE
8
Black
10
213.431
20
-196.586
11
214.359
21
-196.586
0
LINE
8
Black
10
215.288
20
-195.086
11
215.431
21
-195.086
0
LINE
8
Black
10
215.431
20
-195.086
11
215.574
21
-195.157
0
LINE
8
Black
10
215.574
20
-195.157
11
215.645
21
-195.229
0
LINE
8
Black
10
215.645
20
-195.229
11
215.716
21
-195.371
0
LINE
8
Black
10
215.716
20
-195.371
11
215.788
21
-195.657
0
LINE
8
Black
10
215.788
20
-195.657
11
215.788
21
-196.014
0
LINE
8
Black
10
215.788
20
-196.014
11
215.716
21
-196.3
0
LINE
8
Black
10
215.716
20
-196.3
11
215.645
21
-196.443
0
LINE
8
Black
10
215.645
20
-196.443
11
215.574
21
-196.514
0
LINE
8
Black
10
215.574
20
-196.514
11
215.431
21
-196.586
0
LINE
8
Black
10
215.431
20
-196.586
11
215.288
21
-196.586
0
LINE
8
Black
10
215.288
20
-196.586
11
215.145
21
-196.514
0
LINE
8
Black
10
215.145
20
-196.514
11
215.074
21
-196.443
0
LINE
8
Black
10
215.074
20
-196.443
11
215.002
21
-196.3
0
LINE
8
Black
10
215.002
20
-196.3
11
214.931
21
-196.014
0
LINE
8
Black
10
214.931
20
-196.014
11
214.931
21
-195.657
0
LINE
8
Black
10
214.931
20
-195.657
11
215.002
21
-195.371
0
LINE
8
Black
10
215.002
20
-195.371
11
215.074
21
-195.229
0
LINE
8
Black
10
215.074
20
-195.229
11
215.145
21
-195.157
0
LINE
8
Black
10
215.145
20
-195.157
11
215.288
21
-195.086
0
LINE
8
Black
10
217.216
20
-196.586
11
216.359
21
-196.586
0
LINE
8
Black
10
216.788
20
-196.586
11
216.788
21
-195.086
0
LINE
8
Black
10
216.788
20
-195.086
11
216.645
21
-195.3
0
LINE
8
Black
10
216.645
20
-195.3
11
216.502
21
-195.443
0
LINE
8
Black
10
216.502
20
-195.443
11
216.359
21
-195.514
0
LINE
8
Black
10
218.502
20
-195.086
11
218.216
21
-195.086
0
LINE
8
Black
10
218.216
20
-195.086
11
218.074
21
-195.157
0
LINE
8
Black
10
218.074
20
-195.157
11
218.002
21
-195.229
0
LINE
8
Black
10
218.002
20
-195.229
11
217.859
21
-195.443
0
LINE
8
Black
10
217.859
20
-195.443
11
217.788
21
-195.729
0
LINE
8
Black
10
217.788
20
-195.729
11
217.788
21
-196.3
0
LINE
8
Black
10
217.788
20
-196.3
11
217.859
21
-196.443
0
LINE
8
Black
10
217.859
20
-196.443
11
217.931
21
-196.514
0
LINE
8
Black
10
217.931
20
-196.514
11
218.074
21
-196.586
0
LINE
8
Black
10
218.074
20
-196.586
11
218.359
21
-196.586
0
LINE
8
Black
10
218.359
20
-196.586
11
218.502
21
-196.514
0
LINE
8
Black
10
218.502
20
-196.514
11
218.574
21
-196.443
0
LINE
8
Black
10
218.574
20
-196.443
11
218.645
21
-196.3
0
LINE
8
Black
10
218.645
20
-196.3
11
218.645
21
-195.943
0
LINE
8
Black
10
218.645
20
-195.943
11
218.574
21
-195.8
0
LINE
8
Black
10
218.574
20
-195.8
11
218.502
21
-195.729
0
LINE
8
Black
10
218.502
20
-195.729
11
218.359
21
-195.657
0
LINE
8
Black
10
218.359
20
-195.657
11
218.074
21
-195.657
0
LINE
8
Black
10
218.074
20
-195.657
11
217.931
21
-195.729
0
LINE
8
Black
10
217.931
20
-195.729
11
217.859
21
-195.8
0
LINE
8
Black
10
217.859
20
-195.8
11
217.788
21
-195.943
0
LINE
8
Black
10
219.574
20
-195.086
11
219.716
21
-195.086
0
LINE
8
Black
10
219.716
20
-195.086
11
219.859
21
-195.157
0
LINE
8
Black
10
219.859
20
-195.157
11
219.931
21
-195.229
0
LINE
8
Black
10
219.931
20
-195.229
11
220.002
21
-195.371
0
LINE
8
Black
10
220.002
20
-195.371
11
220.074
21
-195.657
0
LINE
8
Black
10
220.074
20
-195.657
11
220.074
21
-196.014
0
LINE
8
Black
10
220.074
20
-196.014
11
220.002
21
-196.3
0
LINE
8
Black
10
220.002
20
-196.3
11
219.931
21
-196.443
0
LINE
8
Black
10
219.931
20
-196.443
11
219.859
21
-196.514
0
LINE
8
Black
10
219.859
20
-196.514
11
219.716
21
-196.586
0
LINE
8
Black
10
219.716
20
-196.586
11
219.574
21
-196.586
0
LINE
8
Black
10
219.574
20
-196.586
11
219.431
21
-196.514
0
LINE
8
Black
10
219.431
20
-196.514
11
219.359
21
-196.443
0
LINE
8
Black
10
219.359
20
-196.443
11
219.288
21
-196.3
0
LINE
8
Black
10
219.288
20
-196.3
11
219.216
21
-196.014
0
LINE
8
Black
10
219.216
20
-196.014
11
219.216
21
-195.657
0
LINE
8
Black
10
219.216
20
-195.657
11
219.288
21
-195.371
0
LINE
8
Black
10
219.288
20
-195.371
11
219.359
21
-195.229
0
LINE
8
Black
10
219.359
20
-195.229
11
219.431
21
-195.157
0
LINE
8
Black
10
219.431
20
-195.157
11
219.574
21
-195.086
0
LINE
8
Black
10
220.645
20
-195.229
11
220.716
21
-195.157
0
LINE
8
Black
10
220.716
20
-195.157
11
220.859
21
-195.086
0
LINE
8
Black
10
220.859
20
-195.086
11
221.216
21
-195.086
0
LINE
8
Black
10
221.216
20
-195.086
11
221.359
21
-195.157
0
LINE
8
Black
10
221.359
20
-195.157
11
221.431
21
-195.229
0
LINE
8
Black
10
221.431
20
-195.229
11
221.502
21
-195.371
0
LINE
8
Black
10
221.502
20
-195.371
11
221.502
21
-195.514
0
LINE
8
Black
10
221.502
20
-195.514
11
221.431
21
-195.729
0
LINE
8
Black
10
221.431
20
-195.729
11
220.574
21
-196.586
0
LINE
8
Black
10
220.574
20
-196.586
11
221.502
21
-196.586
0
LINE
8
Black
10
222.931
20
-196.586
11
222.074
21
-196.586
0
LINE
8
Black
10
222.502
20
-196.586
11
222.502
21
-195.086
0
LINE
8
Black
10
222.502
20
-195.086
11
222.359
21
-195.3
0
LINE
8
Black
10
222.359
20
-195.3
11
222.216
21
-195.443
0
LINE
8
Black
10
222.216
20
-195.443
11
222.074
21
-195.514
0
LINE
8
Black
10
223.502
20
-195.229
11
223.574
21
-195.157
0
LINE
8
Black
10
223.574
20
-195.157
11
223.716
21
-195.086
0
LINE
8
Black
10
223.716
20
-195.086
11
224.074
21
-195.086
0
LINE
8
Black
10
224.074
20
-195.086
11
224.216
21
-195.157
0
LINE
8
Black
10
224.216
20
-195.157
11
224.288
21
-195.229
0
LINE
8
Black
10
224.288
20
-195.229
11
224.359
21
-195.371
0
LINE
8
Black
10
224.359
20
-195.371
11
224.359
21
-195.514
0
LINE
8
Black
10
224.359
20
-195.514
11
224.288
21
-195.729
0
LINE
8
Black
10
224.288
20
-195.729
11
223.431
21
-196.586
0
LINE
8
Black
10
223.431
20
-196.586
11
224.359
21
-196.586
0
LINE
8
Black
10
225.288
20
-195.086
11
225.431
21
-195.086
0
LINE
8
Black
10
225.431
20
-195.086
11
225.574
21
-195.157
0
LINE
8
Black
10
225.574
20
-195.157
11
225.645
21
-195.229
0
LINE
8
Black
10
225.645
20
-195.229
11
225.716
21
-195.371
0
LINE
8
Black
10
225.716
20
-195.371
11
225.788
21
-195.657
0
LINE
8
Black
10
225.788
20
-195.657
11
225.788
21
-196.014
0
LINE
8
Black
10
225.788
20
-196.014
11
225.716
21
-196.3
0
LINE
8
Black
10
225.716
20
-196.3
11
225.645
21
-196.443
0
LINE
8
Black
10
225.645
20
-196.443
11
225.574
21
-196.514
0
LINE
8
Black
10
225.574
20
-196.514
11
225.431
21
-196.586
0
LINE
8
Black
10
225.431
20
-196.586
11
225.288
21
-196.586
0
LINE
8
Black
10
225.288
20
-196.586
11
225.145
21
-196.514
0
LINE
8
Black
10
225.145
20
-196.514
11
225.074
21
-196.443
0
LINE
8
Black
10
225.074
20
-196.443
11
225.002
21
-196.3
0
LINE
8
Black
10
225.002
20
-196.3
11
224.931
21
-196.014
0
LINE
8
Black
10
224.931
20
-196.014
11
224.931
21
-195.657
0
LINE
8
Black
10
224.931
20
-195.657
11
225.002
21
-195.371
0
LINE
8
Black
10
225.002
20
-195.371
11
225.074
21
-195.229
0
LINE
8
Black
10
225.074
20
-195.229
11
225.145
21
-195.157
0
LINE
8
Black
10
225.145
20
-195.157
11
225.288
21
-195.086
0
LINE
8
Black
10
226.645
20
-195.729
11
226.502
21
-195.657
0
LINE
8
Black
10
226.502
20
-195.657
11
226.431
21
-195.586
0
LINE
8
Black
10
226.431
20
-195.586
11
226.359
21
-195.443
0
LINE
8
Black
10
226.359
20
-195.443
11
226.359
21
-195.371
0
LINE
8
Black
10
226.359
20
-195.371
11
226.431
21
-195.229
0
LINE
8
Black
10
226.431
20
-195.229
11
226.502
21
-195.157
0
LINE
8
Black
10
226.502
20
-195.157
11
226.645
21
-195.086
0
LINE
8
Black
10
226.645
20
-195.086
11
226.931
21
-195.086
0
LINE
8
Black
10
226.931
20
-195.086
11
227.074
21
-195.157
0
LINE
8
Black
10
227.074
20
-195.157
11
227.145
21
-195.229
0
LINE
8
Black
10
227.145
20
-195.229
11
227.216
21
-195.371
0
LINE
8
Black
10
227.216
20
-195.371
11
227.216
21
-195.443
0
LINE
8
Black
10
227.216
20
-195.443
11
227.145
21
-195.586
0
LINE
8
Black
10
227.145
20
-195.586
11
227.074
21
-195.657
0
LINE
8
Black
10
227.074
20
-195.657
11
226.931
21
-195.729
0
LINE
8
Black
10
226.931
20
-195.729
11
226.645
21
-195.729
0
LINE
8
Black
10
226.645
20
-195.729
11
226.502
21
-195.8
0
LINE
8
Black
10
226.502
20
-195.8
11
226.431
21
-195.871
0
LINE
8
Black
10
226.431
20
-195.871
11
226.359
21
-196.014
0
LINE
8
Black
10
226.359
20
-196.014
11
226.359
21
-196.3
0
LINE
8
Black
10
226.359
20
-196.3
11
226.431
21
-196.443
0
LINE
8
Black
10
226.431
20
-196.443
11
226.502
21
-196.514
0
LINE
8
Black
10
226.502
20
-196.514
11
226.645
21
-196.586
0
LINE
8
Black
10
226.645
20
-196.586
11
226.931
21
-196.586
0
LINE
8
Black
10
226.931
20
-196.586
11
227.074
21
-196.514
0
LINE
8
Black
10
227.074
20
-196.514
11
227.145
21
-196.443
0
LINE
8
Black
10
227.145
20
-196.443
11
227.216
21
-196.3
0
LINE
8
Black
10
227.216
20
-196.3
11
227.216
21
-196.014
0
LINE
8
Black
10
227.216
20
-196.014
11
227.145
21
-195.871
0
LINE
8
Black
10
227.145
20
-195.871
11
227.074
21
-195.8
0
LINE
8
Black
10
227.074
20
-195.8
11
226.931
21
-195.729
0
LINE
8
Black
10
228.502
20
-195.586
11
228.502
21
-196.586
0
LINE
8
Black
10
228.145
20
-195.014
11
227.788
21
-196.086
0
LINE
8
Black
10
227.788
20
-196.086
11
228.716
21
-196.086
0
LINE
8
Black
10
229.931
20
-195.086
11
229.645
21
-195.086
0
LINE
8
Black
10
229.645
20
-195.086
11
229.502
21
-195.157
0
LINE
8
Black
10
229.502
20
-195.157
11
229.431
21
-195.229
0
LINE
8
Black
10
229.431
20
-195.229
11
229.288
21
-195.443
0
LINE
8
Black
10
229.288
20
-195.443
11
229.216
21
-195.729
0
LINE
8
Black
10
229.216
20
-195.729
11
229.216
21
-196.3
0
LINE
8
Black
10
229.216
20
-196.3
11
229.288
21
-196.443
0
LINE
8
Black
10
229.288
20
-196.443
11
229.359
21
-196.514
0
LINE
8
Black
10
229.359
20
-196.514
11
229.502
21
-196.586
0
LINE
8
Black
10
229.502
20
-196.586
11
229.788
21
-196.586
0
LINE
8
Black
10
229.788
20
-196.586
11
229.931
21
-196.514
0
LINE
8
Black
10
229.931
20
-196.514
11
230.002
21
-196.443
0
LINE
8
Black
10
230.002
20
-196.443
11
230.074
21
-196.3
0
LINE
8
Black
10
230.074
20
-196.3
11
230.074
21
-195.943
0
LINE
8
Black
10
230.074
20
-195.943
11
230.002
21
-195.8
0
LINE
8
Black
10
230.002
20
-195.8
11
229.931
21
-195.729
0
LINE
8
Black
10
229.931
20
-195.729
11
229.788
21
-195.657
0
LINE
8
Black
10
229.788
20
-195.657
11
229.502
21
-195.657
0
LINE
8
Black
10
229.502
20
-195.657
11
229.359
21
-195.729
0
LINE
8
Black
10
229.359
20
-195.729
11
229.288
21
-195.8
0
LINE
8
Black
10
229.288
20
-195.8
11
229.216
21
-195.943
0
LINE
8
Black
10
230.716
20
-196.014
11
231.859
21
-196.014
0
LINE
8
Black
10
231.288
20
-196.586
11
231.288
21
-195.443
0
LINE
8
Black
10
233.216
20
-195.086
11
232.931
21
-195.086
0
LINE
8
Black
10
232.931
20
-195.086
11
232.788
21
-195.157
0
LINE
8
Black
10
232.788
20
-195.157
11
232.716
21
-195.229
0
LINE
8
Black
10
232.716
20
-195.229
11
232.574
21
-195.443
0
LINE
8
Black
10
232.574
20
-195.443
11
232.502
21
-195.729
0
LINE
8
Black
10
232.502
20
-195.729
11
232.502
21
-196.3
0
LINE
8
Black
10
232.502
20
-196.3
11
232.574
21
-196.443
0
LINE
8
Black
10
232.574
20
-196.443
11
232.645
21
-196.514
0
LINE
8
Black
10
232.645
20
-196.514
11
232.788
21
-196.586
0
LINE
8
Black
10
232.788
20
-196.586
11
233.074
21
-196.586
0
LINE
8
Black
10
233.074
20
-196.586
11
233.216
21
-196.514
0
LINE
8
Black
10
233.216
20
-196.514
11
233.288
21
-196.443
0
LINE
8
Black
10
233.288
20
-196.443
11
233.359
21
-196.3
0
LINE
8
Black
10
233.359
20
-196.3
11
233.359
21
-195.943
0
LINE
8
Black
10
233.359
20
-195.943
11
233.288
21
-195.8
0
LINE
8
Black
10
233.288
20
-195.8
11
233.216
21
-195.729
0
LINE
8
Black
10
233.216
20
-195.729
11
233.074
21
-195.657
0
LINE
8
Black
10
233.074
20
-195.657
11
232.788
21
-195.657
0
LINE
8
Black
10
232.788
20
-195.657
11
232.645
21
-195.729
0
LINE
8
Black
10
232.645
20
-195.729
11
232.574
21
-195.8
0
LINE
8
Black
10
232.574
20
-195.8
11
232.502
21
-195.943
0
LINE
8
Black
10
234.788
20
-196.586
11
233.931
21
-196.586
0
LINE
8
Black
10
234.359
20
-196.586
11
234.359
21
-195.086
0
LINE
8
Black
10
234.359
20
-195.086
11
234.216
21
-195.3
0
LINE
8
Black
10
234.216
20
-195.3
11
234.074
21
-195.443
0
LINE
8
Black
10
234.074
20
-195.443
11
233.931
21
-195.514
0
LINE
8
Black
10
235.502
20
-196.586
11
235.788
21
-196.586
0
LINE
8
Black
10
235.788
20
-196.586
11
235.931
21
-196.514
0
LINE
8
Black
10
235.931
20
-196.514
11
236.002
21
-196.443
0
LINE
8
Black
10
236.002
20
-196.443
11
236.145
21
-196.229
0
LINE
8
Black
10
236.145
20
-196.229
11
236.216
21
-195.943
0
LINE
8
Black
10
236.216
20
-195.943
11
236.216
21
-195.371
0
LINE
8
Black
10
236.216
20
-195.371
11
236.145
21
-195.229
0
LINE
8
Black
10
236.145
20
-195.229
11
236.074
21
-195.157
0
LINE
8
Black
10
236.074
20
-195.157
11
235.931
21
-195.086
0
LINE
8
Black
10
235.931
20
-195.086
11
235.645
21
-195.086
0
LINE
8
Black
10
235.645
20
-195.086
11
235.502
21
-195.157
0
LINE
8
Black
10
235.502
20
-195.157
11
235.431
21
-195.229
0
LINE
8
Black
10
235.431
20
-195.229
11
235.359
21
-195.371
0
LINE
8
Black
10
235.359
20
-195.371
11
235.359
21
-195.729
0
LINE
8
Black
10
235.359
20
-195.729
11
235.431
21
-195.871
0
LINE
8
Black
10
235.431
20
-195.871
11
235.502
21
-195.943
0
LINE
8
Black
10
235.502
20
-195.943
11
235.645
21
-196.014
0
LINE
8
Black
10
235.645
20
-196.014
11
235.931
21
-196.014
0
LINE
8
Black
10
235.931
20
-196.014
11
236.074
21
-195.943
0
LINE
8
Black
10
236.074
20
-195.943
11
236.145
21
-195.871
0
LINE
8
Black
10
236.145
20
-195.871
11
236.216
21
-195.729
0
LINE
8
Black
10
237.574
20
-195.086
11
236.859
21
-195.086
0
LINE
8
Black
10
236.859
20
-195.086
11
236.788
21
-195.8
0
LINE
8
Black
10
236.788
20
-195.8
11
236.859
21
-195.729
0
LINE
8
Black
10
236.859
20
-195.729
11
237.002
21
-195.657
0
LINE
8
Black
10
237.002
20
-195.657
11
237.359
21
-195.657
0
LINE
8
Black
10
237.359
20
-195.657
11
237.502
21
-195.729
0
LINE
8
Black
10
237.502
20
-195.729
11
237.574
21
-195.8
0
LINE
8
Black
10
237.574
20
-195.8
11
237.645
21
-195.943
0
LINE
8
Black
10
237.645
20
-195.943
11
237.645
21
-196.3
0
LINE
8
Black
10
237.645
20
-196.3
11
237.574
21
-196.443
0
LINE
8
Black
10
237.574
20
-196.443
11
237.502
21
-196.514
0
LINE
8
Black
10
237.502
20
-196.514
11
237.359
21
-196.586
0
LINE
8
Black
10
237.359
20
-196.586
11
237.002
21
-196.586
0
LINE
8
Black
10
237.002
20
-196.586
11
236.859
21
-196.514
0
LINE
8
Black
10
236.859
20
-196.514
11
236.788
21
-196.443
0
LINE
8
Black
10
238.145
20
-195.086
11
239.074
21
-195.086
0
LINE
8
Black
10
239.074
20
-195.086
11
238.574
21
-195.657
0
LINE
8
Black
10
238.574
20
-195.657
11
238.788
21
-195.657
0
LINE
8
Black
10
238.788
20
-195.657
11
238.931
21
-195.729
0
LINE
8
Black
10
238.931
20
-195.729
11
239.002
21
-195.8
0
LINE
8
Black
10
239.002
20
-195.8
11
239.074
21
-195.943
0
LINE
8
Black
10
239.074
20
-195.943
11
239.074
21
-196.3
0
LINE
8
Black
10
239.074
20
-196.3
11
239.002
21
-196.443
0
LINE
8
Black
10
239.002
20
-196.443
11
238.931
21
-196.514
0
LINE
8
Black
10
238.931
20
-196.514
11
238.788
21
-196.586
0
LINE
8
Black
10
238.788
20
-196.586
11
238.359
21
-196.586
0
LINE
8
Black
10
238.359
20
-196.586
11
238.216
21
-196.514
0
LINE
8
Black
10
238.216
20
-196.514
11
238.145
21
-196.443
0
LINE
8
Black
10
239.931
20
-195.729
11
239.788
21
-195.657
0
LINE
8
Black
10
239.788
20
-195.657
11
239.716
21
-195.586
0
LINE
8
Black
10
239.716
20
-195.586
11
239.645
21
-195.443
0
LINE
8
Black
10
239.645
20
-195.443
11
239.645
21
-195.371
0
LINE
8
Black
10
239.645
20
-195.371
11
239.716
21
-195.229
0
LINE
8
Black
10
239.716
20
-195.229
11
239.788
21
-195.157
0
LINE
8
Black
10
239.788
20
-195.157
11
239.931
21
-195.086
0
LINE
8
Black
10
239.931
20
-195.086
11
240.216
21
-195.086
0
LINE
8
Black
10
240.216
20
-195.086
11
240.359
21
-195.157
0
LINE
8
Black
10
240.359
20
-195.157
11
240.431
21
-195.229
0
LINE
8
Black
10
240.431
20
-195.229
11
240.502
21
-195.371
0
LINE
8
Black
10
240.502
20
-195.371
11
240.502
21
-195.443
0
LINE
8
Black
10
240.502
20
-195.443
11
240.431
21
-195.586
0
LINE
8
Black
10
240.431
20
-195.586
11
240.359
21
-195.657
0
LINE
8
Black
10
240.359
20
-195.657
11
240.216
21
-195.729
0
LINE
8
Black
10
240.216
20
-195.729
11
239.931
21
-195.729
0
LINE
8
Black
10
239.931
20
-195.729
11
239.788
21
-195.8
0
LINE
8
Black
10
239.788
20
-195.8
11
239.716
21
-195.871
0
LINE
8
Black
10
239.716
20
-195.871
11
239.645
21
-196.014
0
LINE
8
Black
10
239.645
20
-196.014
11
239.645
21
-196.3
0
LINE
8
Black
10
239.645
20
-196.3
11
239.716
21
-196.443
0
LINE
8
Black
10
239.716
20
-196.443
11
239.788
21
-196.514
0
LINE
8
Black
10
239.788
20
-196.514
11
239.931
21
-196.586
0
LINE
8
Black
10
239.931
20
-196.586
11
240.216
21
-196.586
0
LINE
8
Black
10
240.216
20
-196.586
11
240.359
21
-196.514
0
LINE
8
Black
10
240.359
20
-196.514
11
240.431
21
-196.443
0
LINE
8
Black
10
240.431
20
-196.443
11
240.502
21
-196.3
0
LINE
8
Black
10
240.502
20
-196.3
11
240.502
21
-196.014
0
LINE
8
Black
10
240.502
20
-196.014
11
240.431
21
-195.871
0
LINE
8
Black
10
240.431
20
-195.871
11
240.359
21
-195.8
0
LINE
8
Black
10
240.359
20
-195.8
11
240.216
21
-195.729
0
LINE
8
Black
10
237.931
20
-194.827
11
240.788
21
-194.827
0
LINE
8
Black
10
241.788
20
-195.586
11
241.788
21
-196.586
0
LINE
8
Black
10
241.145
20
-195.586
11
241.145
21
-196.371
0
LINE
8
Black
10
241.145
20
-196.371
11
241.216
21
-196.514
0
LINE
8
Black
10
241.216
20
-196.514
11
241.359
21
-196.586
0
LINE
8
Black
10
241.359
20
-196.586
11
241.574
21
-196.586
0
LINE
8
Black
10
241.574
20
-196.586
11
241.716
21
-196.514
0
LINE
8
Black
10
241.716
20
-196.514
11
241.788
21
-196.443
0
LINE
8
Black
10
242.502
20
-196.586
11
242.502
21
-195.086
0
LINE
8
Black
10
242.502
20
-195.657
11
242.645
21
-195.586
0
LINE
8
Black
10
242.645
20
-195.586
11
242.931
21
-195.586
0
LINE
8
Black
10
242.931
20
-195.586
11
243.074
21
-195.657
0
LINE
8
Black
10
243.074
20
-195.657
11
243.145
21
-195.729
0
LINE
8
Black
10
243.145
20
-195.729
11
243.216
21
-195.871
0
LINE
8
Black
10
243.216
20
-195.871
11
243.216
21
-196.3
0
LINE
8
Black
10
243.216
20
-196.3
11
243.145
21
-196.443
0
LINE
8
Black
10
243.145
20
-196.443
11
243.074
21
-196.514
0
LINE
8
Black
10
243.074
20
-196.514
11
242.931
21
-196.586
0
LINE
8
Black
10
242.931
20
-196.586
11
242.645
21
-196.586
0
LINE
8
Black
10
242.645
20
-196.586
11
242.502
21
-196.514
0
LINE
8
Black
10
244.502
20
-195.586
11
244.502
21
-196.586
0
LINE
8
Black
10
243.859
20
-195.586
11
243.859
21
-196.371
0
LINE
8
Black
10
243.859
20
-196.371
11
243.931
21
-196.514
0
LINE
8
Black
10
243.931
20
-196.514
11
244.074
21
-196.586
0
LINE
8
Black
10
244.074
20
-196.586
11
244.288
21
-196.586
0
LINE
8
Black
10
244.288
20
-196.586
11
244.431
21
-196.514
0
LINE
8
Black
10
244.431
20
-196.514
11
244.502
21
-196.443
0
LINE
8
Black
10
245.216
20
-195.586
11
245.216
21
-196.586
0
LINE
8
Black
10
245.216
20
-195.729
11
245.288
21
-195.657
0
LINE
8
Black
10
245.288
20
-195.657
11
245.431
21
-195.586
0
LINE
8
Black
10
245.431
20
-195.586
11
245.645
21
-195.586
0
LINE
8
Black
10
245.645
20
-195.586
11
245.788
21
-195.657
0
LINE
8
Black
10
245.788
20
-195.657
11
245.859
21
-195.8
0
LINE
8
Black
10
245.859
20
-195.8
11
245.859
21
-196.586
0
LINE
8
Black
10
246.359
20
-195.586
11
246.931
21
-195.586
0
LINE
8
Black
10
246.574
20
-195.086
11
246.574
21
-196.371
0
LINE
8
Black
10
246.574
20
-196.371
11
246.645
21
-196.514
0
LINE
8
Black
10
246.645
20
-196.514
11
246.788
21
-196.586
0
LINE
8
Black
10
246.788
20
-196.586
11
246.931
21
-196.586
0
LINE
8
Black
10
248.074
20
-195.586
11
248.074
21
-196.586
0
LINE
8
Black
10
247.431
20
-195.586
11
247.431
21
-196.371
0
LINE
8
Black
10
247.431
20
-196.371
11
247.502
21
-196.514
0
LINE
8
Black
10
247.502
20
-196.514
11
247.645
21
-196.586
0
LINE
8
Black
10
247.645
20
-196.586
11
247.859
21
-196.586
0
LINE
8
Black
10
247.859
20
-196.586
11
248.002
21
-196.514
0
LINE
8
Black
10
248.002
20
-196.514
11
248.074
21
-196.443
0
LINE
8
Black
10
249.574
20
-196.586
11
248.716
21
-196.586
0
LINE
8
Black
10
249.145
20
-196.586
11
249.145
21
-195.086
0
LINE
8
Black
10
249.145
20
-195.086
11
249.002
21
-195.3
0
LINE
8
Black
10
249.002
20
-195.3
11
248.859
21
-195.443
0
LINE
8
Black
10
248.859
20
-195.443
11
248.716
21
-195.514
0
LINE
8
Black
10
250.931
20
-195.086
11
250.216
21
-195.086
0
LINE
8
Black
10
250.216
20
-195.086
11
250.145
21
-195.8
0
LINE
8
Black
10
250.145
20
-195.8
11
250.216
21
-195.729
0
LINE
8
Black
10
250.216
20
-195.729
11
250.359
21
-195.657
0
LINE
8
Black
10
250.359
20
-195.657
11
250.716
21
-195.657
0
LINE
8
Black
10
250.716
20
-195.657
11
250.859
21
-195.729
0
LINE
8
Black
10
250.859
20
-195.729
11
250.931
21
-195.8
0
LINE
8
Black
10
250.931
20
-195.8
11
251.002
21
-195.943
0
LINE
8
Black
10
251.002
20
-195.943
11
251.002
21
-196.3
0
LINE
8
Black
10
251.002
20
-196.3
11
250.931
21
-196.443
0
LINE
8
Black
10
250.931
20
-196.443
11
250.859
21
-196.514
0
LINE
8
Black
10
250.859
20
-196.514
11
250.716
21
-196.586
0
LINE
8
Black
10
250.716
20
-196.586
11
250.359
21
-196.586
0
LINE
8
Black
10
250.359
20
-196.586
11
250.216
21
-196.514
0
LINE
8
Black
10
250.216
20
-196.514
11
250.145
21
-196.443
0
LINE
8
Black
10
251.645
20
-196.443
11
251.716
21
-196.514
0
LINE
8
Black
10
251.716
20
-196.514
11
251.645
21
-196.586
0
LINE
8
Black
10
251.645
20
-196.586
11
251.574
21
-196.514
0
LINE
8
Black
10
251.574
20
-196.514
11
251.645
21
-196.443
0
LINE
8
Black
10
251.645
20
-196.443
11
251.645
21
-196.586
0
LINE
8
Black
10
252.645
20
-195.086
11
252.788
21
-195.086
0
LINE
8
Black
10
252.788
20
-195.086
11
252.931
21
-195.157
0
LINE
8
Black
10
252.931
20
-195.157
11
253.002
21
-195.229
0
LINE
8
Black
10
253.002
20
-195.229
11
253.074
21
-195.371
0
LINE
8
Black
10
253.074
20
-195.371
11
253.145
21
-195.657
0
LINE
8
Black
10
253.145
20
-195.657
11
253.145
21
-196.014
0
LINE
8
Black
10
253.145
20
-196.014
11
253.074
21
-196.3
0
LINE
8
Black
10
253.074
20
-196.3
11
253.002
21
-196.443
0
LINE
8
Black
10
253.002
20
-196.443
11
252.931
21
-196.514
0
LINE
8
Black
10
252.931
20
-196.514
11
252.788
21
-196.586
0
LINE
8
Black
10
252.788
20
-196.586
11
252.645
21
-196.586
0
LINE
8
Black
10
252.645
20
-196.586
11
252.502
21
-196.514
0
LINE
8
Black
10
252.502
20
-196.514
11
252.431
21
-196.443
0
LINE
8
Black
10
252.431
20
-196.443
11
252.359
21
-196.3
0
LINE
8
Black
10
252.359
20
-196.3
11
252.288
21
-196.014
0
LINE
8
Black
10
252.288
20
-196.014
11
252.288
21
-195.657
0
LINE
8
Black
10
252.288
20
-195.657
11
252.359
21
-195.371
0
LINE
8
Black
10
252.359
20
-195.371
11
252.431
21
-195.229
0
LINE
8
Black
10
252.431
20
-195.229
11
252.502
21
-195.157
0
LINE
8
Black
10
252.502
20
-195.157
11
252.645
21
-195.086
0
LINE
8
Black
10
254.431
20
-195.586
11
254.431
21
-196.586
0
LINE
8
Black
10
254.074
20
-195.014
11
253.716
21
-196.086
0
LINE
8
Black
10
253.716
20
-196.086
11
254.645
21
-196.086
0
LINE
8
Black
10
255.216
20
-196.443
11
255.288
21
-196.514
0
LINE
8
Black
10
255.288
20
-196.514
11
255.216
21
-196.586
0
LINE
8
Black
10
255.216
20
-196.586
11
255.145
21
-196.514
0
LINE
8
Black
10
255.145
20
-196.514
11
255.216
21
-196.443
0
LINE
8
Black
10
255.216
20
-196.443
11
255.216
21
-196.586
0
LINE
8
Black
10
256.716
20
-196.586
11
255.859
21
-196.586
0
LINE
8
Black
10
256.288
20
-196.586
11
256.288
21
-195.086
0
LINE
8
Black
10
256.288
20
-195.086
11
256.145
21
-195.3
0
LINE
8
Black
10
256.145
20
-195.3
11
256.002
21
-195.443
0
LINE
8
Black
10
256.002
20
-195.443
11
255.859
21
-195.514
0
LINE
8
Black
10
257.359
20
-196.014
11
258.502
21
-196.014
0
LINE
8
Black
10
259.145
20
-196.514
11
259.288
21
-196.586
0
LINE
8
Black
10
259.288
20
-196.586
11
259.574
21
-196.586
0
LINE
8
Black
10
259.574
20
-196.586
11
259.716
21
-196.514
0
LINE
8
Black
10
259.716
20
-196.514
11
259.788
21
-196.371
0
LINE
8
Black
10
259.788
20
-196.371
11
259.788
21
-196.3
0
LINE
8
Black
10
259.788
20
-196.3
11
259.716
21
-196.157
0
LINE
8
Black
10
259.716
20
-196.157
11
259.574
21
-196.086
0
LINE
8
Black
10
259.574
20
-196.086
11
259.359
21
-196.086
0
LINE
8
Black
10
259.359
20
-196.086
11
259.216
21
-196.014
0
LINE
8
Black
10
259.216
20
-196.014
11
259.145
21
-195.871
0
LINE
8
Black
10
259.145
20
-195.871
11
259.145
21
-195.8
0
LINE
8
Black
10
259.145
20
-195.8
11
259.216
21
-195.657
0
LINE
8
Black
10
259.216
20
-195.657
11
259.359
21
-195.586
0
LINE
8
Black
10
259.359
20
-195.586
11
259.574
21
-195.586
0
LINE
8
Black
10
259.574
20
-195.586
11
259.716
21
-195.657
0
LINE
8
Black
10
260.216
20
-195.586
11
260.788
21
-195.586
0
LINE
8
Black
10
260.431
20
-195.086
11
260.431
21
-196.371
0
LINE
8
Black
10
260.431
20
-196.371
11
260.502
21
-196.514
0
LINE
8
Black
10
260.502
20
-196.514
11
260.645
21
-196.586
0
LINE
8
Black
10
260.645
20
-196.586
11
260.788
21
-196.586
0
LINE
8
Black
10
261.931
20
-196.586
11
261.931
21
-195.8
0
LINE
8
Black
10
261.931
20
-195.8
11
261.859
21
-195.657
0
LINE
8
Black
10
261.859
20
-195.657
11
261.716
21
-195.586
0
LINE
8
Black
10
261.716
20
-195.586
11
261.431
21
-195.586
0
LINE
8
Black
10
261.431
20
-195.586
11
261.288
21
-195.657
0
LINE
8
Black
10
261.931
20
-196.514
11
261.788
21
-196.586
0
LINE
8
Black
10
261.788
20
-196.586
11
261.431
21
-196.586
0
LINE
8
Black
10
261.431
20
-196.586
11
261.288
21
-196.514
0
LINE
8
Black
10
261.288
20
-196.514
11
261.216
21
-196.371
0
LINE
8
Black
10
261.216
20
-196.371
11
261.216
21
-196.229
0
LINE
8
Black
10
261.216
20
-196.229
11
261.288
21
-196.086
0
LINE
8
Black
10
261.288
20
-196.086
11
261.431
21
-196.014
0
LINE
8
Black
10
261.431
20
-196.014
11
261.788
21
-196.014
0
LINE
8
Black
10
261.788
20
-196.014
11
261.931
21
-195.943
0
LINE
8
Black
10
262.645
20
-196.586
11
262.645
21
-195.086
0
LINE
8
Black
10
262.645
20
-195.657
11
262.788
21
-195.586
0
LINE
8
Black
10
262.788
20
-195.586
11
263.074
21
-195.586
0
LINE
8
Black
10
263.074
20
-195.586
11
263.216
21
-195.657
0
LINE
8
Black
10
263.216
20
-195.657
11
263.288
21
-195.729
0
LINE
8
Black
10
263.288
20
-195.729
11
263.359
21
-195.871
0
LINE
8
Black
10
263.359
20
-195.871
11
263.359
21
-196.3
0
LINE
8
Black
10
263.359
20
-196.3
11
263.288
21
-196.443
0
LINE
8
Black
10
263.288
20
-196.443
11
263.216
21
-196.514
0
LINE
8
Black
10
263.216
20
-196.514
11
263.074
21
-196.586
0
LINE
8
Black
10
263.074
20
-196.586
11
262.788
21
-196.586
0
LINE
8
Black
10
262.788
20
-196.586
11
262.645
21
-196.514
0
LINE
8
Black
10
264.216
20
-196.586
11
264.074
21
-196.514
0
LINE
8
Black
10
264.074
20
-196.514
11
264.002
21
-196.371
0
LINE
8
Black
10
264.002
20
-196.371
11
264.002
21
-195.086
0
LINE
8
Black
10
265.359
20
-196.514
11
265.216
21
-196.586
0
LINE
8
Black
10
265.216
20
-196.586
11
264.931
21
-196.586
0
LINE
8
Black
10
264.931
20
-196.586
11
264.788
21
-196.514
0
LINE
8
Black
10
264.788
20
-196.514
11
264.716
21
-196.371
0
LINE
8
Black
10
264.716
20
-196.371
11
264.716
21
-195.8
0
LINE
8
Black
10
264.716
20
-195.8
11
264.788
21
-195.657
0
LINE
8
Black
10
264.788
20
-195.657
11
264.931
21
-195.586
0
LINE
8
Black
10
264.931
20
-195.586
11
265.216
21
-195.586
0
LINE
8
Black
10
265.216
20
-195.586
11
265.359
21
-195.657
0
LINE
8
Black
10
265.359
20
-195.657
11
265.431
21
-195.8
0
LINE
8
Black
10
265.431
20
-195.8
11
265.431
21
-195.943
0
LINE
8
Black
10
265.431
20
-195.943
11
264.716
21
-196.086
0
LINE
8
Black
10
177.002
20
-191.507
11
285.002
21
-191.507
0
LINE
8
Black
10
264.216
20
-193.786
11
263.716
21
-193.071
0
LINE
8
Black
10
263.359
20
-193.786
11
263.359
21
-192.286
0
LINE
8
Black
10
263.359
20
-192.286
11
263.931
21
-192.286
0
LINE
8
Black
10
263.931
20
-192.286
11
264.074
21
-192.357
0
LINE
8
Black
10
264.074
20
-192.357
11
264.145
21
-192.429
0
LINE
8
Black
10
264.145
20
-192.429
11
264.216
21
-192.571
0
LINE
8
Black
10
264.216
20
-192.571
11
264.216
21
-192.786
0
LINE
8
Black
10
264.216
20
-192.786
11
264.145
21
-192.929
0
LINE
8
Black
10
264.145
20
-192.929
11
264.074
21
-193
0
LINE
8
Black
10
264.074
20
-193
11
263.931
21
-193.071
0
LINE
8
Black
10
263.931
20
-193.071
11
263.359
21
-193.071
0
LINE
8
Black
10
265.431
20
-193.714
11
265.288
21
-193.786
0
LINE
8
Black
10
265.288
20
-193.786
11
265.002
21
-193.786
0
LINE
8
Black
10
265.002
20
-193.786
11
264.859
21
-193.714
0
LINE
8
Black
10
264.859
20
-193.714
11
264.788
21
-193.571
0
LINE
8
Black
10
264.788
20
-193.571
11
264.788
21
-193
0
LINE
8
Black
10
264.788
20
-193
11
264.859
21
-192.857
0
LINE
8
Black
10
264.859
20
-192.857
11
265.002
21
-192.786
0
LINE
8
Black
10
265.002
20
-192.786
11
265.288
21
-192.786
0
LINE
8
Black
10
265.288
20
-192.786
11
265.431
21
-192.857
0
LINE
8
Black
10
265.431
20
-192.857
11
265.502
21
-193
0
LINE
8
Black
10
265.502
20
-193
11
265.502
21
-193.143
0
LINE
8
Black
10
265.502
20
-193.143
11
264.788
21
-193.286
0
LINE
8
Black
10
266.002
20
-192.786
11
266.359
21
-193.786
0
LINE
8
Black
10
266.359
20
-193.786
11
266.716
21
-192.786
0
LINE
8
Black
10
267.288
20
-193.643
11
267.359
21
-193.714
0
LINE
8
Black
10
267.359
20
-193.714
11
267.288
21
-193.786
0
LINE
8
Black
10
267.288
20
-193.786
11
267.216
21
-193.714
0
LINE
8
Black
10
267.216
20
-193.714
11
267.288
21
-193.643
0
LINE
8
Black
10
267.288
20
-193.643
11
267.288
21
-193.786
0
LINE
8
Black
10
267.288
20
-192.857
11
267.359
21
-192.929
0
LINE
8
Black
10
267.359
20
-192.929
11
267.288
21
-193
0
LINE
8
Black
10
267.288
20
-193
11
267.216
21
-192.929
0
LINE
8
Black
10
267.216
20
-192.929
11
267.288
21
-192.857
0
LINE
8
Black
10
267.288
20
-192.857
11
267.288
21
-193
0
LINE
8
Black
10
178.288
20
-193.714
11
178.502
21
-193.786
0
LINE
8
Black
10
178.502
20
-193.786
11
178.859
21
-193.786
0
LINE
8
Black
10
178.859
20
-193.786
11
179.002
21
-193.714
0
LINE
8
Black
10
179.002
20
-193.714
11
179.074
21
-193.643
0
LINE
8
Black
10
179.074
20
-193.643
11
179.145
21
-193.5
0
LINE
8
Black
10
179.145
20
-193.5
11
179.145
21
-193.357
0
LINE
8
Black
10
179.145
20
-193.357
11
179.074
21
-193.214
0
LINE
8
Black
10
179.074
20
-193.214
11
179.002
21
-193.143
0
LINE
8
Black
10
179.002
20
-193.143
11
178.859
21
-193.071
0
LINE
8
Black
10
178.859
20
-193.071
11
178.574
21
-193
0
LINE
8
Black
10
178.574
20
-193
11
178.431
21
-192.929
0
LINE
8
Black
10
178.431
20
-192.929
11
178.359
21
-192.857
0
LINE
8
Black
10
178.359
20
-192.857
11
178.288
21
-192.714
0
LINE
8
Black
10
178.288
20
-192.714
11
178.288
21
-192.571
0
LINE
8
Black
10
178.288
20
-192.571
11
178.359
21
-192.429
0
LINE
8
Black
10
178.359
20
-192.429
11
178.431
21
-192.357
0
LINE
8
Black
10
178.431
20
-192.357
11
178.574
21
-192.286
0
LINE
8
Black
10
178.574
20
-192.286
11
178.931
21
-192.286
0
LINE
8
Black
10
178.931
20
-192.286
11
179.145
21
-192.357
0
LINE
8
Black
10
179.788
20
-193.786
11
179.788
21
-192.786
0
LINE
8
Black
10
179.788
20
-192.286
11
179.716
21
-192.357
0
LINE
8
Black
10
179.716
20
-192.357
11
179.788
21
-192.429
0
LINE
8
Black
10
179.788
20
-192.429
11
179.859
21
-192.357
0
LINE
8
Black
10
179.859
20
-192.357
11
179.788
21
-192.286
0
LINE
8
Black
10
179.788
20
-192.286
11
179.788
21
-192.429
0
LINE
8
Black
10
180.359
20
-192.786
11
181.145
21
-192.786
0
LINE
8
Black
10
181.145
20
-192.786
11
180.359
21
-193.786
0
LINE
8
Black
10
180.359
20
-193.786
11
181.145
21
-193.786
0
LINE
8
Black
10
182.288
20
-193.714
11
182.145
21
-193.786
0
LINE
8
Black
10
182.145
20
-193.786
11
181.859
21
-193.786
0
LINE
8
Black
10
181.859
20
-193.786
11
181.716
21
-193.714
0
LINE
8
Black
10
181.716
20
-193.714
11
181.645
21
-193.571
0
LINE
8
Black
10
181.645
20
-193.571
11
181.645
21
-193
0
LINE
8
Black
10
181.645
20
-193
11
181.716
21
-192.857
0
LINE
8
Black
10
181.716
20
-192.857
11
181.859
21
-192.786
0
LINE
8
Black
10
181.859
20
-192.786
11
182.145
21
-192.786
0
LINE
8
Black
10
182.145
20
-192.786
11
182.288
21
-192.857
0
LINE
8
Black
10
182.288
20
-192.857
11
182.359
21
-193
0
LINE
8
Black
10
182.359
20
-193
11
182.359
21
-193.143
0
LINE
8
Black
10
182.359
20
-193.143
11
181.645
21
-193.286
0
LINE
8
Black
10
183.002
20
-193.643
11
183.074
21
-193.714
0
LINE
8
Black
10
183.074
20
-193.714
11
183.002
21
-193.786
0
LINE
8
Black
10
183.002
20
-193.786
11
182.931
21
-193.714
0
LINE
8
Black
10
182.931
20
-193.714
11
183.002
21
-193.643
0
LINE
8
Black
10
183.002
20
-193.643
11
183.002
21
-193.786
0
LINE
8
Black
10
183.002
20
-192.857
11
183.074
21
-192.929
0
LINE
8
Black
10
183.074
20
-192.929
11
183.002
21
-193
0
LINE
8
Black
10
183.002
20
-193
11
182.931
21
-192.929
0
LINE
8
Black
10
182.931
20
-192.929
11
183.002
21
-192.857
0
LINE
8
Black
10
183.002
20
-192.857
11
183.002
21
-193
0
LINE
8
Black
10
184.788
20
-193.357
11
185.502
21
-193.357
0
LINE
8
Black
10
184.645
20
-193.786
11
185.145
21
-192.286
0
LINE
8
Black
10
185.145
20
-192.286
11
185.645
21
-193.786
0
LINE
8
Black
10
186.788
20
-192.786
11
186.788
21
-193.786
0
LINE
8
Black
10
186.431
20
-192.214
11
186.074
21
-193.286
0
LINE
8
Black
10
186.074
20
-193.286
11
187.002
21
-193.286
0
LINE
8
Black
10
263.359
20
-196.586
11
263.359
21
-195.086
0
LINE
8
Black
10
264.716
20
-196.586
11
264.716
21
-195.086
0
LINE
8
Black
10
264.716
20
-196.514
11
264.574
21
-196.586
0
LINE
8
Black
10
264.574
20
-196.586
11
264.288
21
-196.586
0
LINE
8
Black
10
264.288
20
-196.586
11
264.145
21
-196.514
0
LINE
8
Black
10
264.145
20
-196.514
11
264.074
21
-196.443
0
LINE
8
Black
10
264.074
20
-196.443
11
264.002
21
-196.3
0
LINE
8
Black
10
264.002
20
-196.3
11
264.002
21
-195.871
0
LINE
8
Black
10
264.002
20
-195.871
11
264.074
21
-195.729
0
LINE
8
Black
10
264.074
20
-195.729
11
264.145
21
-195.657
0
LINE
8
Black
10
264.145
20
-195.657
11
264.288
21
-195.586
0
LINE
8
Black
10
264.288
20
-195.586
11
264.574
21
-195.586
0
LINE
8
Black
10
264.574
20
-195.586
11
264.716
21
-195.657
0
LINE
8
Black
10
265.431
20
-196.443
11
265.502
21
-196.514
0
LINE
8
Black
10
265.502
20
-196.514
11
265.431
21
-196.586
0
LINE
8
Black
10
265.431
20
-196.586
11
265.359
21
-196.514
0
LINE
8
Black
10
265.359
20
-196.514
11
265.431
21
-196.443
0
LINE
8
Black
10
265.431
20
-196.443
11
265.431
21
-196.586
0
LINE
8
Black
10
265.431
20
-195.657
11
265.502
21
-195.729
0
LINE
8
Black
10
265.502
20
-195.729
11
265.431
21
-195.8
0
LINE
8
Black
10
265.431
20
-195.8
11
265.359
21
-195.729
0
LINE
8
Black
10
265.359
20
-195.729
11
265.431
21
-195.657
0
LINE
8
Black
10
265.431
20
-195.657
11
265.431
21
-195.8
0
LINE
8
Black
10
268.074
20
-196.586
11
267.216
21
-196.586
0
LINE
8
Black
10
267.645
20
-196.586
11
267.645
21
-195.086
0
LINE
8
Black
10
267.645
20
-195.086
11
267.502
21
-195.3
0
LINE
8
Black
10
267.502
20
-195.3
11
267.359
21
-195.443
0
LINE
8
Black
10
267.359
20
-195.443
11
267.216
21
-195.514
0
LINE
8
Black
10
269.788
20
-195.014
11
268.502
21
-196.943
0
LINE
8
Black
10
271.074
20
-196.586
11
270.216
21
-196.586
0
LINE
8
Black
10
270.645
20
-196.586
11
270.645
21
-195.086
0
LINE
8
Black
10
270.645
20
-195.086
11
270.502
21
-195.3
0
LINE
8
Black
10
270.502
20
-195.3
11
270.359
21
-195.443
0
LINE
8
Black
10
270.359
20
-195.443
11
270.216
21
-195.514
0
LINE
8
Black
10
177.002
20
-187.507
11
285.002
21
-187.507
0
LINE
8
Black
10
178.455
20
-188.212
11
179.597
21
-188.212
0
LINE
8
Black
10
178.776
20
-190.212
11
179.026
21
-188.212
0
LINE
8
Black
10
180.014
20
-190.212
11
180.181
21
-188.879
0
LINE
8
Black
10
180.264
20
-188.212
11
180.157
21
-188.307
0
LINE
8
Black
10
180.157
20
-188.307
11
180.24
21
-188.402
0
LINE
8
Black
10
180.24
20
-188.402
11
180.347
21
-188.307
0
LINE
8
Black
10
180.347
20
-188.307
11
180.264
21
-188.212
0
LINE
8
Black
10
180.264
20
-188.212
11
180.24
21
-188.402
0
LINE
8
Black
10
180.847
20
-188.879
11
181.609
21
-188.879
0
LINE
8
Black
10
181.216
20
-188.212
11
181.002
21
-189.926
0
LINE
8
Black
10
181.002
20
-189.926
11
181.074
21
-190.117
0
LINE
8
Black
10
181.074
20
-190.117
11
181.252
21
-190.212
0
LINE
8
Black
10
181.252
20
-190.212
11
181.443
21
-190.212
0
LINE
8
Black
10
182.395
20
-190.212
11
182.216
21
-190.117
0
LINE
8
Black
10
182.216
20
-190.117
11
182.145
21
-189.926
0
LINE
8
Black
10
182.145
20
-189.926
11
182.359
21
-188.212
0
LINE
8
Black
10
183.931
20
-190.117
11
183.728
21
-190.212
0
LINE
8
Black
10
183.728
20
-190.212
11
183.347
21
-190.212
0
LINE
8
Black
10
183.347
20
-190.212
11
183.169
21
-190.117
0
LINE
8
Black
10
183.169
20
-190.117
11
183.097
21
-189.926
0
LINE
8
Black
10
183.097
20
-189.926
11
183.193
21
-189.164
0
LINE
8
Black
10
183.193
20
-189.164
11
183.312
21
-188.974
0
LINE
8
Black
10
183.312
20
-188.974
11
183.514
21
-188.879
0
LINE
8
Black
10
183.514
20
-188.879
11
183.895
21
-188.879
0
LINE
8
Black
10
183.895
20
-188.879
11
184.074
21
-188.974
0
LINE
8
Black
10
184.074
20
-188.974
11
184.145
21
-189.164
0
LINE
8
Black
10
184.145
20
-189.164
11
184.121
21
-189.355
0
LINE
8
Black
10
184.121
20
-189.355
11
183.145
21
-189.545
0
LINE
8
Black
10
184.895
20
-190.021
11
184.978
21
-190.117
0
LINE
8
Black
10
184.978
20
-190.117
11
184.871
21
-190.212
0
LINE
8
Black
10
184.871
20
-190.212
11
184.788
21
-190.117
0
LINE
8
Black
10
184.788
20
-190.117
11
184.895
21
-190.021
0
LINE
8
Black
10
184.895
20
-190.021
11
184.871
21
-190.212
0
LINE
8
Black
10
185.026
20
-188.974
11
185.109
21
-189.069
0
LINE
8
Black
10
185.109
20
-189.069
11
185.002
21
-189.164
0
LINE
8
Black
10
185.002
20
-189.164
11
184.919
21
-189.069
0
LINE
8
Black
10
184.919
20
-189.069
11
185.026
21
-188.974
0
LINE
8
Black
10
185.026
20
-188.974
11
185.002
21
-189.164
0
LINE
8
Black
10
178.859
20
-185.6
11
178.359
21
-185.6
0
LINE
8
Black
10
178.359
20
-186.386
11
178.359
21
-184.886
0
LINE
8
Black
10
178.359
20
-184.886
11
179.074
21
-184.886
0
LINE
8
Black
10
179.645
20
-186.386
11
179.645
21
-185.386
0
LINE
8
Black
10
179.645
20
-184.886
11
179.574
21
-184.957
0
LINE
8
Black
10
179.574
20
-184.957
11
179.645
21
-185.029
0
LINE
8
Black
10
179.645
20
-185.029
11
179.716
21
-184.957
0
LINE
8
Black
10
179.716
20
-184.957
11
179.645
21
-184.886
0
LINE
8
Black
10
179.645
20
-184.886
11
179.645
21
-185.029
0
LINE
8
Black
10
180.574
20
-186.386
11
180.431
21
-186.314
0
LINE
8
Black
10
180.431
20
-186.314
11
180.359
21
-186.171
0
LINE
8
Black
10
180.359
20
-186.171
11
180.359
21
-184.886
0
LINE
8
Black
10
181.716
20
-186.314
11
181.574
21
-186.386
0
LINE
8
Black
10
181.574
20
-186.386
11
181.288
21
-186.386
0
LINE
8
Black
10
181.288
20
-186.386
11
181.145
21
-186.314
0
LINE
8
Black
10
181.145
20
-186.314
11
181.074
21
-186.171
0
LINE
8
Black
10
181.074
20
-186.171
11
181.074
21
-185.6
0
LINE
8
Black
10
181.074
20
-185.6
11
181.145
21
-185.457
0
LINE
8
Black
10
181.145
20
-185.457
11
181.288
21
-185.386
0
LINE
8
Black
10
181.288
20
-185.386
11
181.574
21
-185.386
0
LINE
8
Black
10
181.574
20
-185.386
11
181.716
21
-185.457
0
LINE
8
Black
10
181.716
20
-185.457
11
181.788
21
-185.6
0
LINE
8
Black
10
181.788
20
-185.6
11
181.788
21
-185.743
0
LINE
8
Black
10
181.788
20
-185.743
11
181.074
21
-185.886
0
LINE
8
Black
10
182.431
20
-186.243
11
182.502
21
-186.314
0
LINE
8
Black
10
182.502
20
-186.314
11
182.431
21
-186.386
0
LINE
8
Black
10
182.431
20
-186.386
11
182.359
21
-186.314
0
LINE
8
Black
10
182.359
20
-186.314
11
182.431
21
-186.243
0
LINE
8
Black
10
182.431
20
-186.243
11
182.431
21
-186.386
0
LINE
8
Black
10
182.431
20
-185.457
11
182.502
21
-185.529
0
LINE
8
Black
10
182.502
20
-185.529
11
182.431
21
-185.6
0
LINE
8
Black
10
182.431
20
-185.6
11
182.359
21
-185.529
0
LINE
8
Black
10
182.359
20
-185.529
11
182.431
21
-185.457
0
LINE
8
Black
10
182.431
20
-185.457
11
182.431
21
-185.6
0
LINE
8
Black
10
184.216
20
-186.314
11
184.359
21
-186.386
0
LINE
8
Black
10
184.359
20
-186.386
11
184.645
21
-186.386
0
LINE
8
Black
10
184.645
20
-186.386
11
184.788
21
-186.314
0
LINE
8
Black
10
184.788
20
-186.314
11
184.859
21
-186.171
0
LINE
8
Black
10
184.859
20
-186.171
11
184.859
21
-186.1
0
LINE
8
Black
10
184.859
20
-186.1
11
184.788
21
-185.957
0
LINE
8
Black
10
184.788
20
-185.957
11
184.645
21
-185.886
0
LINE
8
Black
10
184.645
20
-185.886
11
184.431
21
-185.886
0
LINE
8
Black
10
184.431
20
-185.886
11
184.288
21
-185.814
0
LINE
8
Black
10
184.288
20
-185.814
11
184.216
21
-185.671
0
LINE
8
Black
10
184.216
20
-185.671
11
184.216
21
-185.6
0
LINE
8
Black
10
184.216
20
-185.6
11
184.288
21
-185.457
0
LINE
8
Black
10
184.288
20
-185.457
11
184.431
21
-185.386
0
LINE
8
Black
10
184.431
20
-185.386
11
184.645
21
-185.386
0
LINE
8
Black
10
184.645
20
-185.386
11
184.788
21
-185.457
0
LINE
8
Black
10
185.359
20
-185.386
11
185.645
21
-186.386
0
LINE
8
Black
10
185.645
20
-186.386
11
185.931
21
-185.671
0
LINE
8
Black
10
185.931
20
-185.671
11
186.216
21
-186.386
0
LINE
8
Black
10
186.216
20
-186.386
11
186.502
21
-185.386
0
LINE
8
Black
10
187.074
20
-186.386
11
187.074
21
-185.386
0
LINE
8
Black
10
187.074
20
-184.886
11
187.002
21
-184.957
0
LINE
8
Black
10
187.002
20
-184.957
11
187.074
21
-185.029
0
LINE
8
Black
10
187.074
20
-185.029
11
187.145
21
-184.957
0
LINE
8
Black
10
187.145
20
-184.957
11
187.074
21
-184.886
0
LINE
8
Black
10
187.074
20
-184.886
11
187.074
21
-185.029
0
LINE
8
Black
10
187.574
20
-185.386
11
188.145
21
-185.386
0
LINE
8
Black
10
187.788
20
-184.886
11
187.788
21
-186.171
0
LINE
8
Black
10
187.788
20
-186.171
11
187.859
21
-186.314
0
LINE
8
Black
10
187.859
20
-186.314
11
188.002
21
-186.386
0
LINE
8
Black
10
188.002
20
-186.386
11
188.145
21
-186.386
0
LINE
8
Black
10
189.288
20
-186.314
11
189.145
21
-186.386
0
LINE
8
Black
10
189.145
20
-186.386
11
188.859
21
-186.386
0
LINE
8
Black
10
188.859
20
-186.386
11
188.716
21
-186.314
0
LINE
8
Black
10
188.716
20
-186.314
11
188.645
21
-186.243
0
LINE
8
Black
10
188.645
20
-186.243
11
188.574
21
-186.1
0
LINE
8
Black
10
188.574
20
-186.1
11
188.574
21
-185.671
0
LINE
8
Black
10
188.574
20
-185.671
11
188.645
21
-185.529
0
LINE
8
Black
10
188.645
20
-185.529
11
188.716
21
-185.457
0
LINE
8
Black
10
188.716
20
-185.457
11
188.859
21
-185.386
0
LINE
8
Black
10
188.859
20
-185.386
11
189.145
21
-185.386
0
LINE
8
Black
10
189.145
20
-185.386
11
189.288
21
-185.457
0
LINE
8
Black
10
189.931
20
-186.386
11
189.931
21
-184.886
0
LINE
8
Black
10
190.574
20
-186.386
11
190.574
21
-185.6
0
LINE
8
Black
10
190.574
20
-185.6
11
190.502
21
-185.457
0
LINE
8
Black
10
190.502
20
-185.457
11
190.359
21
-185.386
0
LINE
8
Black
10
190.359
20
-185.386
11
190.145
21
-185.386
0
LINE
8
Black
10
190.145
20
-185.386
11
190.002
21
-185.457
0
LINE
8
Black
10
190.002
20
-185.457
11
189.931
21
-185.529
0
LINE
8
Black
10
191.859
20
-186.314
11
191.716
21
-186.386
0
LINE
8
Black
10
191.716
20
-186.386
11
191.431
21
-186.386
0
LINE
8
Black
10
191.431
20
-186.386
11
191.288
21
-186.314
0
LINE
8
Black
10
191.288
20
-186.314
11
191.216
21
-186.171
0
LINE
8
Black
10
191.216
20
-186.171
11
191.216
21
-185.6
0
LINE
8
Black
10
191.216
20
-185.6
11
191.288
21
-185.457
0
LINE
8
Black
10
191.288
20
-185.457
11
191.431
21
-185.386
0
LINE
8
Black
10
191.431
20
-185.386
11
191.716
21
-185.386
0
LINE
8
Black
10
191.716
20
-185.386
11
191.859
21
-185.457
0
LINE
8
Black
10
191.859
20
-185.457
11
191.931
21
-185.6
0
LINE
8
Black
10
191.931
20
-185.6
11
191.931
21
-185.743
0
LINE
8
Black
10
191.931
20
-185.743
11
191.216
21
-185.886
0
LINE
8
Black
10
192.574
20
-186.386
11
192.574
21
-185.386
0
LINE
8
Black
10
192.574
20
-185.671
11
192.645
21
-185.529
0
LINE
8
Black
10
192.645
20
-185.529
11
192.716
21
-185.457
0
LINE
8
Black
10
192.716
20
-185.457
11
192.859
21
-185.386
0
LINE
8
Black
10
192.859
20
-185.386
11
193.002
21
-185.386
0
LINE
8
Black
10
193.502
20
-186.243
11
193.574
21
-186.314
0
LINE
8
Black
10
193.574
20
-186.314
11
193.502
21
-186.386
0
LINE
8
Black
10
193.502
20
-186.386
11
193.431
21
-186.314
0
LINE
8
Black
10
193.431
20
-186.314
11
193.502
21
-186.243
0
LINE
8
Black
10
193.502
20
-186.243
11
193.502
21
-186.386
0
LINE
8
Black
10
194.216
20
-186.386
11
194.216
21
-184.886
0
LINE
8
Black
10
194.359
20
-185.814
11
194.788
21
-186.386
0
LINE
8
Black
10
194.788
20
-185.386
11
194.216
21
-185.957
0
LINE
8
Black
10
195.431
20
-186.386
11
195.431
21
-185.386
0
LINE
8
Black
10
195.431
20
-184.886
11
195.359
21
-184.957
0
LINE
8
Black
10
195.359
20
-184.957
11
195.431
21
-185.029
0
LINE
8
Black
10
195.431
20
-185.029
11
195.502
21
-184.957
0
LINE
8
Black
10
195.502
20
-184.957
11
195.431
21
-184.886
0
LINE
8
Black
10
195.431
20
-184.886
11
195.431
21
-185.029
0
LINE
8
Black
10
196.788
20
-186.314
11
196.645
21
-186.386
0
LINE
8
Black
10
196.645
20
-186.386
11
196.359
21
-186.386
0
LINE
8
Black
10
196.359
20
-186.386
11
196.216
21
-186.314
0
LINE
8
Black
10
196.216
20
-186.314
11
196.145
21
-186.243
0
LINE
8
Black
10
196.145
20
-186.243
11
196.074
21
-186.1
0
LINE
8
Black
10
196.074
20
-186.1
11
196.074
21
-185.671
0
LINE
8
Black
10
196.074
20
-185.671
11
196.145
21
-185.529
0
LINE
8
Black
10
196.145
20
-185.529
11
196.216
21
-185.457
0
LINE
8
Black
10
196.216
20
-185.457
11
196.359
21
-185.386
0
LINE
8
Black
10
196.359
20
-185.386
11
196.645
21
-185.386
0
LINE
8
Black
10
196.645
20
-185.386
11
196.788
21
-185.457
0
LINE
8
Black
10
198.074
20
-186.386
11
198.074
21
-185.6
0
LINE
8
Black
10
198.074
20
-185.6
11
198.002
21
-185.457
0
LINE
8
Black
10
198.002
20
-185.457
11
197.859
21
-185.386
0
LINE
8
Black
10
197.859
20
-185.386
11
197.574
21
-185.386
0
LINE
8
Black
10
197.574
20
-185.386
11
197.431
21
-185.457
0
LINE
8
Black
10
198.074
20
-186.314
11
197.931
21
-186.386
0
LINE
8
Black
10
197.931
20
-186.386
11
197.574
21
-186.386
0
LINE
8
Black
10
197.574
20
-186.386
11
197.431
21
-186.314
0
LINE
8
Black
10
197.431
20
-186.314
11
197.359
21
-186.171
0
LINE
8
Black
10
197.359
20
-186.171
11
197.359
21
-186.029
0
LINE
8
Black
10
197.359
20
-186.029
11
197.431
21
-185.886
0
LINE
8
Black
10
197.431
20
-185.886
11
197.574
21
-185.814
0
LINE
8
Black
10
197.574
20
-185.814
11
197.931
21
-185.814
0
LINE
8
Black
10
197.931
20
-185.814
11
198.074
21
-185.743
0
LINE
8
Black
10
199.431
20
-186.386
11
199.431
21
-184.886
0
LINE
8
Black
10
199.431
20
-186.314
11
199.288
21
-186.386
0
LINE
8
Black
10
199.288
20
-186.386
11
199.002
21
-186.386
0
LINE
8
Black
10
199.002
20
-186.386
11
198.859
21
-186.314
0
LINE
8
Black
10
198.859
20
-186.314
11
198.788
21
-186.243
0
LINE
8
Black
10
198.788
20
-186.243
11
198.716
21
-186.1
0
LINE
8
Black
10
198.716
20
-186.1
11
198.716
21
-185.671
0
LINE
8
Black
10
198.716
20
-185.671
11
198.788
21
-185.529
0
LINE
8
Black
10
198.788
20
-185.529
11
198.859
21
-185.457
0
LINE
8
Black
10
198.859
20
-185.457
11
199.002
21
-185.386
0
LINE
8
Black
10
199.002
20
-185.386
11
199.288
21
-185.386
0
LINE
8
Black
10
199.288
20
-185.386
11
199.431
21
-185.457
0
LINE
8
Black
10
199.788
20
-186.529
11
200.931
21
-186.529
0
LINE
8
Black
10
201.288
20
-185.386
11
201.288
21
-186.886
0
LINE
8
Black
10
201.288
20
-185.457
11
201.431
21
-185.386
0
LINE
8
Black
10
201.431
20
-185.386
11
201.716
21
-185.386
0
LINE
8
Black
10
201.716
20
-185.386
11
201.859
21
-185.457
0
LINE
8
Black
10
201.859
20
-185.457
11
201.931
21
-185.529
0
LINE
8
Black
10
201.931
20
-185.529
11
202.002
21
-185.671
0
LINE
8
Black
10
202.002
20
-185.671
11
202.002
21
-186.1
0
LINE
8
Black
10
202.002
20
-186.1
11
201.931
21
-186.243
0
LINE
8
Black
10
201.931
20
-186.243
11
201.859
21
-186.314
0
LINE
8
Black
10
201.859
20
-186.314
11
201.716
21
-186.386
0
LINE
8
Black
10
201.716
20
-186.386
11
201.431
21
-186.386
0
LINE
8
Black
10
201.431
20
-186.386
11
201.288
21
-186.314
0
LINE
8
Black
10
203.288
20
-186.314
11
203.145
21
-186.386
0
LINE
8
Black
10
203.145
20
-186.386
11
202.859
21
-186.386
0
LINE
8
Black
10
202.859
20
-186.386
11
202.716
21
-186.314
0
LINE
8
Black
10
202.716
20
-186.314
11
202.645
21
-186.243
0
LINE
8
Black
10
202.645
20
-186.243
11
202.574
21
-186.1
0
LINE
8
Black
10
202.574
20
-186.1
11
202.574
21
-185.671
0
LINE
8
Black
10
202.574
20
-185.671
11
202.645
21
-185.529
0
LINE
8
Black
10
202.645
20
-185.529
11
202.716
21
-185.457
0
LINE
8
Black
10
202.716
20
-185.457
11
202.859
21
-185.386
0
LINE
8
Black
10
202.859
20
-185.386
11
203.145
21
-185.386
0
LINE
8
Black
10
203.145
20
-185.386
11
203.288
21
-185.457
0
LINE
8
Black
10
203.931
20
-186.386
11
203.931
21
-184.886
0
LINE
8
Black
10
203.931
20
-185.457
11
204.074
21
-185.386
0
LINE
8
Black
10
204.074
20
-185.386
11
204.359
21
-185.386
0
LINE
8
Black
10
204.359
20
-185.386
11
204.502
21
-185.457
0
LINE
8
Black
10
204.502
20
-185.457
11
204.574
21
-185.529
0
LINE
8
Black
10
204.574
20
-185.529
11
204.645
21
-185.671
0
LINE
8
Black
10
204.645
20
-185.671
11
204.645
21
-186.1
0
LINE
8
Black
10
204.645
20
-186.1
11
204.574
21
-186.243
0
LINE
8
Black
10
204.574
20
-186.243
11
204.502
21
-186.314
0
LINE
8
Black
10
204.502
20
-186.314
11
204.359
21
-186.386
0
LINE
8
Black
10
204.359
20
-186.386
11
204.074
21
-186.386
0
LINE
8
Black
10
204.074
20
-186.386
11
203.931
21
-186.314
0
LINE
8
Black
10
177.002
20
-181.507
11
285.002
21
-181.507
0
LINE
8
Black
10
178.288
20
-183.614
11
178.502
21
-183.686
0
LINE
8
Black
10
178.502
20
-183.686
11
178.859
21
-183.686
0
LINE
8
Black
10
178.859
20
-183.686
11
179.002
21
-183.614
0
LINE
8
Black
10
179.002
20
-183.614
11
179.074
21
-183.543
0
LINE
8
Black
10
179.074
20
-183.543
11
179.145
21
-183.4
0
LINE
8
Black
10
179.145
20
-183.4
11
179.145
21
-183.257
0
LINE
8
Black
10
179.145
20
-183.257
11
179.074
21
-183.114
0
LINE
8
Black
10
179.074
20
-183.114
11
179.002
21
-183.043
0
LINE
8
Black
10
179.002
20
-183.043
11
178.859
21
-182.971
0
LINE
8
Black
10
178.859
20
-182.971
11
178.574
21
-182.9
0
LINE
8
Black
10
178.574
20
-182.9
11
178.431
21
-182.829
0
LINE
8
Black
10
178.431
20
-182.829
11
178.359
21
-182.757
0
LINE
8
Black
10
178.359
20
-182.757
11
178.288
21
-182.614
0
LINE
8
Black
10
178.288
20
-182.614
11
178.288
21
-182.471
0
LINE
8
Black
10
178.288
20
-182.471
11
178.359
21
-182.329
0
LINE
8
Black
10
178.359
20
-182.329
11
178.431
21
-182.257
0
LINE
8
Black
10
178.431
20
-182.257
11
178.574
21
-182.186
0
LINE
8
Black
10
178.574
20
-182.186
11
178.931
21
-182.186
0
LINE
8
Black
10
178.931
20
-182.186
11
179.145
21
-182.257
0
LINE
8
Black
10
179.788
20
-183.686
11
179.788
21
-182.186
0
LINE
8
Black
10
180.431
20
-183.686
11
180.431
21
-182.9
0
LINE
8
Black
10
180.431
20
-182.9
11
180.359
21
-182.757
0
LINE
8
Black
10
180.359
20
-182.757
11
180.216
21
-182.686
0
LINE
8
Black
10
180.216
20
-182.686
11
180.002
21
-182.686
0
LINE
8
Black
10
180.002
20
-182.686
11
179.859
21
-182.757
0
LINE
8
Black
10
179.859
20
-182.757
11
179.788
21
-182.829
0
LINE
8
Black
10
181.716
20
-183.614
11
181.574
21
-183.686
0
LINE
8
Black
10
181.574
20
-183.686
11
181.288
21
-183.686
0
LINE
8
Black
10
181.288
20
-183.686
11
181.145
21
-183.614
0
LINE
8
Black
10
181.145
20
-183.614
11
181.074
21
-183.471
0
LINE
8
Black
10
181.074
20
-183.471
11
181.074
21
-182.9
0
LINE
8
Black
10
181.074
20
-182.9
11
181.145
21
-182.757
0
LINE
8
Black
10
181.145
20
-182.757
11
181.288
21
-182.686
0
LINE
8
Black
10
181.288
20
-182.686
11
181.574
21
-182.686
0
LINE
8
Black
10
181.574
20
-182.686
11
181.716
21
-182.757
0
LINE
8
Black
10
181.716
20
-182.757
11
181.788
21
-182.9
0
LINE
8
Black
10
181.788
20
-182.9
11
181.788
21
-183.043
0
LINE
8
Black
10
181.788
20
-183.043
11
181.074
21
-183.186
0
LINE
8
Black
10
183.002
20
-183.614
11
182.859
21
-183.686
0
LINE
8
Black
10
182.859
20
-183.686
11
182.574
21
-183.686
0
LINE
8
Black
10
182.574
20
-183.686
11
182.431
21
-183.614
0
LINE
8
Black
10
182.431
20
-183.614
11
182.359
21
-183.471
0
LINE
8
Black
10
182.359
20
-183.471
11
182.359
21
-182.9
0
LINE
8
Black
10
182.359
20
-182.9
11
182.431
21
-182.757
0
LINE
8
Black
10
182.431
20
-182.757
11
182.574
21
-182.686
0
LINE
8
Black
10
182.574
20
-182.686
11
182.859
21
-182.686
0
LINE
8
Black
10
182.859
20
-182.686
11
183.002
21
-182.757
0
LINE
8
Black
10
183.002
20
-182.757
11
183.074
21
-182.9
0
LINE
8
Black
10
183.074
20
-182.9
11
183.074
21
-183.043
0
LINE
8
Black
10
183.074
20
-183.043
11
182.359
21
-183.186
0
LINE
8
Black
10
183.502
20
-182.686
11
184.074
21
-182.686
0
LINE
8
Black
10
183.716
20
-182.186
11
183.716
21
-183.471
0
LINE
8
Black
10
183.716
20
-183.471
11
183.788
21
-183.614
0
LINE
8
Black
10
183.788
20
-183.614
11
183.931
21
-183.686
0
LINE
8
Black
10
183.931
20
-183.686
11
184.074
21
-183.686
0
LINE
8
Black
10
184.574
20
-183.543
11
184.645
21
-183.614
0
LINE
8
Black
10
184.645
20
-183.614
11
184.574
21
-183.686
0
LINE
8
Black
10
184.574
20
-183.686
11
184.502
21
-183.614
0
LINE
8
Black
10
184.502
20
-183.614
11
184.574
21
-183.543
0
LINE
8
Black
10
184.574
20
-183.543
11
184.574
21
-183.686
0
LINE
8
Black
10
184.574
20
-182.757
11
184.645
21
-182.829
0
LINE
8
Black
10
184.645
20
-182.829
11
184.574
21
-182.9
0
LINE
8
Black
10
184.574
20
-182.9
11
184.502
21
-182.829
0
LINE
8
Black
10
184.502
20
-182.829
11
184.574
21
-182.757
0
LINE
8
Black
10
184.574
20
-182.757
11
184.574
21
-182.9
0
LINE
8
Black
10
197.002
20
-191.507
11
197.002
21
-194.507
0
LINE
8
Black
10
261.002
20
-191.507
11
261.002
21
-198.007
0
LINE
8
Black
10
96.8065
20
-93.0261
11
96.813
21
-93.0261
0
LINE
8
Black
10
96.813
20
-93.0261
11
96.8192
21
-93.0284
0
LINE
8
Black
10
96.8192
20
-93.0284
11
96.8257
21
-93.0295
0
LINE
8
Black
10
96.8257
20
-93.0295
11
96.8313
21
-93.0328
0
LINE
8
Black
10
96.8313
20
-93.0328
11
96.8375
21
-93.035
0
LINE
8
Black
10
96.8375
20
-93.035
11
96.8425
21
-93.0393
0
LINE
8
Black
10
96.8425
20
-93.0393
11
96.8482
21
-93.0425
0
LINE
8
Black
10
96.8482
20
-93.0425
11
96.8524
21
-93.0476
0
LINE
8
Black
10
96.8524
20
-93.0476
11
96.8575
21
-93.0518
0
LINE
8
Black
10
96.8575
20
-93.0518
11
96.8607
21
-93.0575
0
LINE
8
Black
10
96.8607
20
-93.0575
11
96.865
21
-93.0625
0
LINE
8
Black
10
96.865
20
-93.0625
11
96.8672
21
-93.0687
0
LINE
8
Black
10
96.8672
20
-93.0687
11
96.8705
21
-93.0743
0
LINE
8
Black
10
96.8705
20
-93.0743
11
96.8716
21
-93.0808
0
LINE
8
Black
10
96.8716
20
-93.0808
11
96.8739
21
-93.087
0
LINE
8
Black
10
96.8739
20
-93.087
11
96.8739
21
-93.0935
0
LINE
8
Black
10
96.8739
20
-93.0935
11
96.875
21
-93.1
0
LINE
8
Black
10
96.875
20
-93.1
11
96.875
21
-98.325
0
LINE
8
Black
10
96.875
20
-98.325
11
116.2
21
-98.325
0
LINE
8
Black
10
116.2
20
-98.325
11
116.206
21
-98.3261
0
LINE
8
Black
10
116.206
20
-98.3261
11
116.213
21
-98.3261
0
LINE
8
Black
10
116.213
20
-98.3261
11
116.219
21
-98.3284
0
LINE
8
Black
10
116.219
20
-98.3284
11
116.226
21
-98.3295
0
LINE
8
Black
10
116.226
20
-98.3295
11
116.231
21
-98.3328
0
LINE
8
Black
10
116.231
20
-98.3328
11
116.237
21
-98.335
0
LINE
8
Black
10
116.237
20
-98.335
11
116.243
21
-98.3393
0
LINE
8
Black
10
116.243
20
-98.3393
11
116.248
21
-98.3425
0
LINE
8
Black
10
116.248
20
-98.3425
11
116.252
21
-98.3476
0
LINE
8
Black
10
116.252
20
-98.3476
11
116.257
21
-98.3518
0
LINE
8
Black
10
116.257
20
-98.3518
11
116.261
21
-98.3575
0
LINE
8
Black
10
116.261
20
-98.3575
11
116.265
21
-98.3625
0
LINE
8
Black
10
116.265
20
-98.3625
11
116.267
21
-98.3687
0
LINE
8
Black
10
116.267
20
-98.3687
11
116.27
21
-98.3743
0
LINE
8
Black
10
116.27
20
-98.3743
11
116.272
21
-98.3808
0
LINE
8
Black
10
116.272
20
-98.3808
11
116.274
21
-98.387
0
LINE
8
Black
10
116.274
20
-98.387
11
116.274
21
-98.3935
0
LINE
8
Black
10
116.274
20
-98.3935
11
116.275
21
-98.4
0
LINE
8
Black
10
116.275
20
-98.4
11
116.275
21
-116
0
LINE
8
Black
10
116.275
20
-116
11
116.274
21
-116.006
0
LINE
8
Black
10
116.274
20
-116.006
11
116.274
21
-116.013
0
LINE
8
Black
10
116.274
20
-116.013
11
116.272
21
-116.019
0
LINE
8
Black
10
116.272
20
-116.019
11
116.27
21
-116.026
0
LINE
8
Black
10
116.27
20
-116.026
11
116.267
21
-116.031
0
LINE
8
Black
10
116.267
20
-116.031
11
116.265
21
-116.037
0
LINE
8
Black
10
116.265
20
-116.037
11
116.261
21
-116.043
0
LINE
8
Black
10
116.261
20
-116.043
11
116.257
21
-116.048
0
LINE
8
Black
10
116.257
20
-116.048
11
116.252
21
-116.052
0
LINE
8
Black
10
116.252
20
-116.052
11
116.248
21
-116.057
0
LINE
8
Black
10
116.248
20
-116.057
11
116.243
21
-116.061
0
LINE
8
Black
10
116.243
20
-116.061
11
116.237
21
-116.065
0
LINE
8
Black
10
116.237
20
-116.065
11
116.231
21
-116.067
0
LINE
8
Black
10
116.231
20
-116.067
11
116.226
21
-116.07
0
LINE
8
Black
10
116.226
20
-116.07
11
116.219
21
-116.072
0
LINE
8
Black
10
116.219
20
-116.072
11
116.213
21
-116.074
0
LINE
8
Black
10
116.213
20
-116.074
11
116.206
21
-116.074
0
LINE
8
Black
10
116.206
20
-116.074
11
116.2
21
-116.075
0
LINE
8
Black
10
116.2
20
-116.075
11
102.275
21
-116.075
0
LINE
8
Black
10
102.275
20
-116.075
11
102.275
21
-120.6
0
LINE
8
Black
10
102.275
20
-120.6
11
102.274
21
-120.606
0
LINE
8
Black
10
102.274
20
-120.606
11
102.274
21
-120.613
0
LINE
8
Black
10
102.274
20
-120.613
11
102.272
21
-120.619
0
LINE
8
Black
10
102.272
20
-120.619
11
102.27
21
-120.626
0
LINE
8
Black
10
102.27
20
-120.626
11
102.267
21
-120.631
0
LINE
8
Black
10
102.267
20
-120.631
11
102.265
21
-120.637
0
LINE
8
Black
10
102.265
20
-120.637
11
102.261
21
-120.643
0
LINE
8
Black
10
102.261
20
-120.643
11
102.257
21
-120.648
0
LINE
8
Black
10
102.257
20
-120.648
11
102.252
21
-120.652
0
LINE
8
Black
10
102.252
20
-120.652
11
102.248
21
-120.657
0
LINE
8
Black
10
102.248
20
-120.657
11
102.243
21
-120.661
0
LINE
8
Black
10
102.243
20
-120.661
11
102.237
21
-120.665
0
LINE
8
Black
10
102.237
20
-120.665
11
102.231
21
-120.667
0
LINE
8
Black
10
102.231
20
-120.667
11
102.226
21
-120.67
0
LINE
8
Black
10
102.226
20
-120.67
11
102.219
21
-120.672
0
LINE
8
Black
10
102.219
20
-120.672
11
102.213
21
-120.674
0
LINE
8
Black
10
102.213
20
-120.674
11
102.206
21
-120.674
0
LINE
8
Black
10
102.206
20
-120.674
11
102.2
21
-120.675
0
LINE
8
Black
10
102.2
20
-120.675
11
84.2
21
-120.675
0
LINE
8
Black
10
84.2
20
-120.675
11
84.1935
21
-120.674
0
LINE
8
Black
10
84.1935
20
-120.674
11
84.187
21
-120.674
0
LINE
8
Black
10
84.187
20
-120.674
11
84.1808
21
-120.672
0
LINE
8
Black
10
84.1808
20
-120.672
11
84.1743
21
-120.67
0
LINE
8
Black
10
84.1743
20
-120.67
11
84.1687
21
-120.667
0
LINE
8
Black
10
84.1687
20
-120.667
11
84.1625
21
-120.665
0
LINE
8
Black
10
84.1625
20
-120.665
11
84.1575
21
-120.661
0
LINE
8
Black
10
84.1575
20
-120.661
11
84.1518
21
-120.657
0
LINE
8
Black
10
84.1518
20
-120.657
11
84.1476
21
-120.652
0
LINE
8
Black
10
84.1476
20
-120.652
11
84.1425
21
-120.648
0
LINE
8
Black
10
84.1425
20
-120.648
11
84.1393
21
-120.643
0
LINE
8
Black
10
84.1393
20
-120.643
11
84.135
21
-120.637
0
LINE
8
Black
10
84.135
20
-120.637
11
84.1328
21
-120.631
0
LINE
8
Black
10
84.1328
20
-120.631
11
84.1295
21
-120.626
0
LINE
8
Black
10
84.1295
20
-120.626
11
84.1284
21
-120.619
0
LINE
8
Black
10
84.1284
20
-120.619
11
84.1261
21
-120.613
0
LINE
8
Black
10
84.1261
20
-120.613
11
84.1261
21
-120.606
0
LINE
8
Black
10
84.1261
20
-120.606
11
84.125
21
-120.6
0
LINE
8
Black
10
84.125
20
-120.6
11
84.125
21
-116
0
LINE
8
Black
10
84.125
20
-116
11
84.125
21
-98.4
0
LINE
8
Black
10
84.125
20
-98.4
11
84.125
21
-93.1
0
LINE
8
Black
10
84.125
20
-93.1
11
84.1261
21
-93.0935
0
LINE
8
Black
10
84.1261
20
-93.0935
11
84.1261
21
-93.087
0
LINE
8
Black
10
84.1261
20
-93.087
11
84.1284
21
-93.0808
0
LINE
8
Black
10
84.1284
20
-93.0808
11
84.1295
21
-93.0743
0
LINE
8
Black
10
84.1295
20
-93.0743
11
84.1328
21
-93.0687
0
LINE
8
Black
10
84.1328
20
-93.0687
11
84.135
21
-93.0625
0
LINE
8
Black
10
84.135
20
-93.0625
11
84.1393
21
-93.0575
0
LINE
8
Black
10
84.1393
20
-93.0575
11
84.1425
21
-93.0518
0
LINE
8
Black
10
84.1425
20
-93.0518
11
84.1476
21
-93.0476
0
LINE
8
Black
10
84.1476
20
-93.0476
11
84.1518
21
-93.0425
0
LINE
8
Black
10
84.1518
20
-93.0425
11
84.1575
21
-93.0393
0
LINE
8
Black
10
84.1575
20
-93.0393
11
84.1625
21
-93.035
0
LINE
8
Black
10
84.1625
20
-93.035
11
84.1687
21
-93.0328
0
LINE
8
Black
10
84.1687
20
-93.0328
11
84.1743
21
-93.0295
0
LINE
8
Black
10
84.1743
20
-93.0295
11
84.1808
21
-93.0284
0
LINE
8
Black
10
84.1808
20
-93.0284
11
84.187
21
-93.0261
0
LINE
8
Black
10
84.187
20
-93.0261
11
84.1935
21
-93.0261
0
LINE
8
Black
10
84.1935
20
-93.0261
11
84.2
21
-93.025
0
LINE
8
Black
10
84.2
20
-93.025
11
96.8
21
-93.025
0
LINE
8
Black
10
96.8
20
-93.025
11
96.8065
21
-93.0261
0
LINE
8
Black
10
102.125
20
-116
11
102.126
21
-115.994
0
LINE
8
Black
10
102.126
20
-115.994
11
102.126
21
-115.987
0
LINE
8
Black
10
102.126
20
-115.987
11
102.128
21
-115.981
0
LINE
8
Black
10
102.128
20
-115.981
11
102.13
21
-115.974
0
LINE
8
Black
10
102.13
20
-115.974
11
102.133
21
-115.969
0
LINE
8
Black
10
102.133
20
-115.969
11
102.135
21
-115.962
0
LINE
8
Black
10
102.135
20
-115.962
11
102.139
21
-115.957
0
LINE
8
Black
10
102.139
20
-115.957
11
102.143
21
-115.952
0
LINE
8
Black
10
102.143
20
-115.952
11
102.148
21
-115.948
0
LINE
8
Black
10
102.148
20
-115.948
11
102.152
21
-115.943
0
LINE
8
Black
10
102.152
20
-115.943
11
102.157
21
-115.939
0
LINE
8
Black
10
102.157
20
-115.939
11
102.162
21
-115.935
0
LINE
8
Black
10
102.162
20
-115.935
11
102.169
21
-115.933
0
LINE
8
Black
10
102.169
20
-115.933
11
102.174
21
-115.93
0
LINE
8
Black
10
102.174
20
-115.93
11
102.181
21
-115.928
0
LINE
8
Black
10
102.181
20
-115.928
11
102.187
21
-115.926
0
LINE
8
Black
10
102.187
20
-115.926
11
102.194
21
-115.926
0
LINE
8
Black
10
102.194
20
-115.926
11
102.2
21
-115.925
0
LINE
8
Black
10
102.2
20
-115.925
11
116.125
21
-115.925
0
LINE
8
Black
10
116.125
20
-115.925
11
116.125
21
-98.475
0
LINE
8
Black
10
116.125
20
-98.475
11
96.8
21
-98.475
0
LINE
8
Black
10
96.8
20
-98.475
11
96.7935
21
-98.4739
0
LINE
8
Black
10
96.7935
20
-98.4739
11
96.787
21
-98.4739
0
LINE
8
Black
10
96.787
20
-98.4739
11
96.7808
21
-98.4716
0
LINE
8
Black
10
96.7808
20
-98.4716
11
96.7743
21
-98.4705
0
LINE
8
Black
10
96.7743
20
-98.4705
11
96.7687
21
-98.4672
0
LINE
8
Black
10
96.7687
20
-98.4672
11
96.7625
21
-98.465
0
LINE
8
Black
10
96.7625
20
-98.465
11
96.7575
21
-98.4607
0
LINE
8
Black
10
96.7575
20
-98.4607
11
96.7518
21
-98.4575
0
LINE
8
Black
10
96.7518
20
-98.4575
11
96.7476
21
-98.4524
0
LINE
8
Black
10
96.7476
20
-98.4524
11
96.7425
21
-98.4482
0
LINE
8
Black
10
96.7425
20
-98.4482
11
96.7393
21
-98.4425
0
LINE
8
Black
10
96.7393
20
-98.4425
11
96.735
21
-98.4375
0
LINE
8
Black
10
96.735
20
-98.4375
11
96.7328
21
-98.4313
0
LINE
8
Black
10
96.7328
20
-98.4313
11
96.7295
21
-98.4257
0
LINE
8
Black
10
96.7295
20
-98.4257
11
96.7284
21
-98.4192
0
LINE
8
Black
10
96.7284
20
-98.4192
11
96.7261
21
-98.413
0
LINE
8
Black
10
96.7261
20
-98.413
11
96.7261
21
-98.4065
0
LINE
8
Black
10
96.7261
20
-98.4065
11
96.725
21
-98.4
0
LINE
8
Black
10
96.725
20
-98.4
11
96.725
21
-93.175
0
LINE
8
Black
10
96.725
20
-93.175
11
84.275
21
-93.175
0
LINE
8
Black
10
84.275
20
-93.175
11
84.275
21
-98.4
0
LINE
8
Black
10
84.275
20
-98.4
11
84.275
21
-116
0
LINE
8
Black
10
84.275
20
-116
11
84.275
21
-120.525
0
LINE
8
Black
10
84.275
20
-120.525
11
92.2
21
-120.525
0
LINE
8
Black
10
92.2
20
-120.525
11
102.125
21
-120.525
0
LINE
8
Black
10
102.125
20
-120.525
11
102.125
21
-116
0
LINE
8
Black
10
97.315
20
-114.785
11
97.7679
21
-115.047
0
LINE
8
Black
10
97.7679
20
-115.047
11
98.104
21
-115.447
0
LINE
8
Black
10
98.104
20
-115.447
11
98.2829
21
-115.939
0
LINE
8
Black
10
98.2829
20
-115.939
11
98.2829
21
-116.461
0
LINE
8
Black
10
98.2829
20
-116.461
11
98.104
21
-116.953
0
LINE
8
Black
10
98.104
20
-116.953
11
97.7679
21
-117.353
0
LINE
8
Black
10
97.7679
20
-117.353
11
97.315
21
-117.615
0
LINE
8
Black
10
97.315
20
-117.615
11
96.8
21
-117.706
0
LINE
8
Black
10
96.8
20
-117.706
11
96.285
21
-117.615
0
LINE
8
Black
10
96.285
20
-117.615
11
95.8321
21
-117.353
0
LINE
8
Black
10
95.8321
20
-117.353
11
95.496
21
-116.953
0
LINE
8
Black
10
95.496
20
-116.953
11
95.3171
21
-116.461
0
LINE
8
Black
10
95.3171
20
-116.461
11
95.3171
21
-115.939
0
LINE
8
Black
10
95.3171
20
-115.939
11
95.496
21
-115.447
0
LINE
8
Black
10
95.496
20
-115.447
11
95.8321
21
-115.047
0
LINE
8
Black
10
95.8321
20
-115.047
11
96.285
21
-114.785
0
LINE
8
Black
10
96.285
20
-114.785
11
96.8
21
-114.694
0
LINE
8
Black
10
96.8
20
-114.694
11
97.315
21
-114.785
0
LINE
8
Black
10
109.943
20
-111.457
11
110.245
21
-111.631
0
LINE
8
Black
10
110.245
20
-111.631
11
110.469
21
-111.898
0
LINE
8
Black
10
110.469
20
-111.898
11
110.589
21
-112.226
0
LINE
8
Black
10
110.589
20
-112.226
11
110.589
21
-112.574
0
LINE
8
Black
10
110.589
20
-112.574
11
110.469
21
-112.902
0
LINE
8
Black
10
110.469
20
-112.902
11
110.245
21
-113.169
0
LINE
8
Black
10
110.245
20
-113.169
11
109.943
21
-113.343
0
LINE
8
Black
10
109.943
20
-113.343
11
109.6
21
-113.404
0
LINE
8
Black
10
109.6
20
-113.404
11
109.257
21
-113.343
0
LINE
8
Black
10
109.257
20
-113.343
11
108.955
21
-113.169
0
LINE
8
Black
10
108.955
20
-113.169
11
108.731
21
-112.902
0
LINE
8
Black
10
108.731
20
-112.902
11
108.611
21
-112.574
0
LINE
8
Black
10
108.611
20
-112.574
11
108.611
21
-112.226
0
LINE
8
Black
10
108.611
20
-112.226
11
108.731
21
-111.898
0
LINE
8
Black
10
108.731
20
-111.898
11
108.955
21
-111.631
0
LINE
8
Black
10
108.955
20
-111.631
11
109.257
21
-111.457
0
LINE
8
Black
10
109.257
20
-111.457
11
109.6
21
-111.396
0
LINE
8
Black
10
109.6
20
-111.396
11
109.943
21
-111.457
0
LINE
8
Black
10
112.615
20
-105.885
11
113.068
21
-106.147
0
LINE
8
Black
10
113.068
20
-106.147
11
113.404
21
-106.547
0
LINE
8
Black
10
113.404
20
-106.547
11
113.583
21
-107.039
0
LINE
8
Black
10
113.583
20
-107.039
11
113.583
21
-107.561
0
LINE
8
Black
10
113.583
20
-107.561
11
113.404
21
-108.053
0
LINE
8
Black
10
113.404
20
-108.053
11
113.068
21
-108.453
0
LINE
8
Black
10
113.068
20
-108.453
11
112.615
21
-108.715
0
LINE
8
Black
10
112.615
20
-108.715
11
112.1
21
-108.806
0
LINE
8
Black
10
112.1
20
-108.806
11
111.585
21
-108.715
0
LINE
8
Black
10
111.585
20
-108.715
11
111.132
21
-108.453
0
LINE
8
Black
10
111.132
20
-108.453
11
110.796
21
-108.053
0
LINE
8
Black
10
110.796
20
-108.053
11
110.617
21
-107.561
0
LINE
8
Black
10
110.617
20
-107.561
11
110.617
21
-107.039
0
LINE
8
Black
10
110.617
20
-107.039
11
110.796
21
-106.547
0
LINE
8
Black
10
110.796
20
-106.547
11
111.132
21
-106.147
0
LINE
8
Black
10
111.132
20
-106.147
11
111.585
21
-105.885
0
LINE
8
Black
10
111.585
20
-105.885
11
112.1
21
-105.794
0
LINE
8
Black
10
112.1
20
-105.794
11
112.615
21
-105.885
0
LINE
8
Black
10
100.859
20
-107.042
11
100.883
21
-107.054
0
LINE
8
Black
10
100.883
20
-107.054
11
100.901
21
-107.073
0
LINE
8
Black
10
100.901
20
-107.073
11
100.911
21
-107.097
0
LINE
8
Black
10
100.911
20
-107.097
11
100.913
21
-107.123
0
LINE
8
Black
10
100.913
20
-107.123
11
100.905
21
-107.148
0
LINE
8
Black
10
100.905
20
-107.148
11
100.858
21
-107.243
0
LINE
8
Black
10
100.858
20
-107.243
11
100.85
21
-107.253
0
LINE
8
Black
10
100.85
20
-107.253
11
100.844
21
-107.263
0
LINE
8
Black
10
100.844
20
-107.263
11
100.781
21
-107.325
0
LINE
8
Black
10
100.781
20
-107.325
11
101.477
21
-107.325
0
LINE
8
Black
10
101.477
20
-107.325
11
101.477
21
-107.114
0
LINE
8
Black
10
101.477
20
-107.114
11
101.482
21
-107.089
0
LINE
8
Black
10
101.482
20
-107.089
11
101.495
21
-107.066
0
LINE
8
Black
10
101.495
20
-107.066
11
101.515
21
-107.049
0
LINE
8
Black
10
101.515
20
-107.049
11
101.539
21
-107.04
0
LINE
8
Black
10
101.539
20
-107.04
11
101.565
21
-107.04
0
LINE
8
Black
10
101.565
20
-107.04
11
101.59
21
-107.049
0
LINE
8
Black
10
101.59
20
-107.049
11
101.61
21
-107.066
0
LINE
8
Black
10
101.61
20
-107.066
11
101.623
21
-107.089
0
LINE
8
Black
10
101.623
20
-107.089
11
101.627
21
-107.114
0
LINE
8
Black
10
101.627
20
-107.114
11
101.627
21
-107.686
0
LINE
8
Black
10
101.627
20
-107.686
11
101.623
21
-107.711
0
LINE
8
Black
10
101.623
20
-107.711
11
101.61
21
-107.734
0
LINE
8
Black
10
101.61
20
-107.734
11
101.59
21
-107.751
0
LINE
8
Black
10
101.59
20
-107.751
11
101.565
21
-107.76
0
LINE
8
Black
10
101.565
20
-107.76
11
101.539
21
-107.76
0
LINE
8
Black
10
101.539
20
-107.76
11
101.515
21
-107.751
0
LINE
8
Black
10
101.515
20
-107.751
11
101.495
21
-107.734
0
LINE
8
Black
10
101.495
20
-107.734
11
101.482
21
-107.711
0
LINE
8
Black
10
101.482
20
-107.711
11
101.477
21
-107.686
0
LINE
8
Black
10
101.477
20
-107.686
11
101.477
21
-107.475
0
LINE
8
Black
10
101.477
20
-107.475
11
100.552
21
-107.475
0
LINE
8
Black
10
100.552
20
-107.475
11
100.548
21
-107.474
0
LINE
8
Black
10
100.548
20
-107.474
11
100.544
21
-107.475
0
LINE
8
Black
10
100.544
20
-107.475
11
100.536
21
-107.472
0
LINE
8
Black
10
100.536
20
-107.472
11
100.527
21
-107.47
0
LINE
8
Black
10
100.527
20
-107.47
11
100.523
21
-107.468
0
LINE
8
Black
10
100.523
20
-107.468
11
100.519
21
-107.467
0
LINE
8
Black
10
100.519
20
-107.467
11
100.512
21
-107.462
0
LINE
8
Black
10
100.512
20
-107.462
11
100.504
21
-107.457
0
LINE
8
Black
10
100.504
20
-107.457
11
100.502
21
-107.454
0
LINE
8
Black
10
100.502
20
-107.454
11
100.498
21
-107.452
0
LINE
8
Black
10
100.498
20
-107.452
11
100.493
21
-107.444
0
LINE
8
Black
10
100.493
20
-107.444
11
100.487
21
-107.438
0
LINE
8
Black
10
100.487
20
-107.438
11
100.486
21
-107.434
0
LINE
8
Black
10
100.486
20
-107.434
11
100.484
21
-107.43
0
LINE
8
Black
10
100.484
20
-107.43
11
100.482
21
-107.421
0
LINE
8
Black
10
100.482
20
-107.421
11
100.479
21
-107.413
0
LINE
8
Black
10
100.479
20
-107.413
11
100.479
21
-107.409
0
LINE
8
Black
10
100.479
20
-107.409
11
100.478
21
-107.405
0
LINE
8
Black
10
100.478
20
-107.405
11
100.479
21
-107.396
0
LINE
8
Black
10
100.479
20
-107.396
11
100.479
21
-107.387
0
LINE
8
Black
10
100.479
20
-107.387
11
100.48
21
-107.383
0
LINE
8
Black
10
100.48
20
-107.383
11
100.48
21
-107.379
0
LINE
8
Black
10
100.48
20
-107.379
11
100.484
21
-107.371
0
LINE
8
Black
10
100.484
20
-107.371
11
100.487
21
-107.362
0
LINE
8
Black
10
100.487
20
-107.362
11
100.49
21
-107.359
0
LINE
8
Black
10
100.49
20
-107.359
11
100.492
21
-107.356
0
LINE
8
Black
10
100.492
20
-107.356
11
100.498
21
-107.349
0
LINE
8
Black
10
100.498
20
-107.349
11
100.504
21
-107.343
0
LINE
8
Black
10
100.504
20
-107.343
11
100.508
21
-107.34
0
LINE
8
Black
10
100.508
20
-107.34
11
100.511
21
-107.338
0
LINE
8
Black
10
100.511
20
-107.338
11
100.647
21
-107.246
0
LINE
8
Black
10
100.647
20
-107.246
11
100.729
21
-107.165
0
LINE
8
Black
10
100.729
20
-107.165
11
100.771
21
-107.081
0
LINE
8
Black
10
100.771
20
-107.081
11
100.787
21
-107.06
0
LINE
8
Black
10
100.787
20
-107.06
11
100.808
21
-107.045
0
LINE
8
Black
10
100.808
20
-107.045
11
100.834
21
-107.039
0
LINE
8
Black
10
100.834
20
-107.039
11
100.859
21
-107.042
0
LINE
8
Black
10
101.578
20
-106.091
11
101.601
21
-106.104
0
LINE
8
Black
10
101.601
20
-106.104
11
101.617
21
-106.124
0
LINE
8
Black
10
101.617
20
-106.124
11
101.626
21
-106.149
0
LINE
8
Black
10
101.626
20
-106.149
11
101.626
21
-106.175
0
LINE
8
Black
10
101.626
20
-106.175
11
101.617
21
-106.199
0
LINE
8
Black
10
101.617
20
-106.199
11
101.601
21
-106.219
0
LINE
8
Black
10
101.601
20
-106.219
11
101.578
21
-106.232
0
LINE
8
Black
10
101.578
20
-106.232
11
101.552
21
-106.237
0
LINE
8
Black
10
101.552
20
-106.237
11
101.155
21
-106.237
0
LINE
8
Black
10
101.155
20
-106.237
11
101.095
21
-106.297
0
LINE
8
Black
10
101.095
20
-106.297
11
101.597
21
-106.673
0
LINE
8
Black
10
101.597
20
-106.673
11
101.615
21
-106.692
0
LINE
8
Black
10
101.615
20
-106.692
11
101.625
21
-106.716
0
LINE
8
Black
10
101.625
20
-106.716
11
101.627
21
-106.742
0
LINE
8
Black
10
101.627
20
-106.742
11
101.619
21
-106.767
0
LINE
8
Black
10
101.619
20
-106.767
11
101.604
21
-106.788
0
LINE
8
Black
10
101.604
20
-106.788
11
101.582
21
-106.802
0
LINE
8
Black
10
101.582
20
-106.802
11
101.556
21
-106.808
0
LINE
8
Black
10
101.556
20
-106.808
11
101.531
21
-106.805
0
LINE
8
Black
10
101.531
20
-106.805
11
101.507
21
-106.793
0
LINE
8
Black
10
101.507
20
-106.793
11
100.988
21
-106.404
0
LINE
8
Black
10
100.988
20
-106.404
11
100.605
21
-106.786
0
LINE
8
Black
10
100.605
20
-106.786
11
100.584
21
-106.801
0
LINE
8
Black
10
100.584
20
-106.801
11
100.559
21
-106.808
0
LINE
8
Black
10
100.559
20
-106.808
11
100.533
21
-106.806
0
LINE
8
Black
10
100.533
20
-106.806
11
100.509
21
-106.795
0
LINE
8
Black
10
100.509
20
-106.795
11
100.491
21
-106.776
0
LINE
8
Black
10
100.491
20
-106.776
11
100.48
21
-106.753
0
LINE
8
Black
10
100.48
20
-106.753
11
100.478
21
-106.727
0
LINE
8
Black
10
100.478
20
-106.727
11
100.484
21
-106.702
0
LINE
8
Black
10
100.484
20
-106.702
11
100.499
21
-106.68
0
LINE
8
Black
10
100.499
20
-106.68
11
100.943
21
-106.237
0
LINE
8
Black
10
100.943
20
-106.237
11
100.552
21
-106.237
0
LINE
8
Black
10
100.552
20
-106.237
11
100.527
21
-106.232
0
LINE
8
Black
10
100.527
20
-106.232
11
100.504
21
-106.219
0
LINE
8
Black
10
100.504
20
-106.219
11
100.487
21
-106.199
0
LINE
8
Black
10
100.487
20
-106.199
11
100.479
21
-106.175
0
LINE
8
Black
10
100.479
20
-106.175
11
100.479
21
-106.149
0
LINE
8
Black
10
100.479
20
-106.149
11
100.487
21
-106.124
0
LINE
8
Black
10
100.487
20
-106.124
11
100.504
21
-106.104
0
LINE
8
Black
10
100.504
20
-106.104
11
100.527
21
-106.091
0
LINE
8
Black
10
100.527
20
-106.091
11
100.552
21
-106.087
0
LINE
8
Black
10
100.552
20
-106.087
11
101.552
21
-106.087
0
LINE
8
Black
10
101.552
20
-106.087
11
101.578
21
-106.091
0
LINE
8
Black
10
109.943
20
-101.257
11
110.245
21
-101.431
0
LINE
8
Black
10
110.245
20
-101.431
11
110.469
21
-101.698
0
LINE
8
Black
10
110.469
20
-101.698
11
110.589
21
-102.026
0
LINE
8
Black
10
110.589
20
-102.026
11
110.589
21
-102.374
0
LINE
8
Black
10
110.589
20
-102.374
11
110.469
21
-102.702
0
LINE
8
Black
10
110.469
20
-102.702
11
110.245
21
-102.969
0
LINE
8
Black
10
110.245
20
-102.969
11
109.943
21
-103.143
0
LINE
8
Black
10
109.943
20
-103.143
11
109.6
21
-103.204
0
LINE
8
Black
10
109.6
20
-103.204
11
109.257
21
-103.143
0
LINE
8
Black
10
109.257
20
-103.143
11
108.955
21
-102.969
0
LINE
8
Black
10
108.955
20
-102.969
11
108.731
21
-102.702
0
LINE
8
Black
10
108.731
20
-102.702
11
108.611
21
-102.374
0
LINE
8
Black
10
108.611
20
-102.374
11
108.611
21
-102.026
0
LINE
8
Black
10
108.611
20
-102.026
11
108.731
21
-101.698
0
LINE
8
Black
10
108.731
20
-101.698
11
108.955
21
-101.431
0
LINE
8
Black
10
108.955
20
-101.431
11
109.257
21
-101.257
0
LINE
8
Black
10
109.257
20
-101.257
11
109.6
21
-101.196
0
LINE
8
Black
10
109.6
20
-101.196
11
109.943
21
-101.257
0
LINE
8
Black
10
94.815
20
-96.9851
11
95.2679
21
-97.2465
0
LINE
8
Black
10
95.2679
20
-97.2465
11
95.604
21
-97.6471
0
LINE
8
Black
10
95.604
20
-97.6471
11
95.7829
21
-98.1385
0
LINE
8
Black
10
95.7829
20
-98.1385
11
95.7829
21
-98.6615
0
LINE
8
Black
10
95.7829
20
-98.6615
11
95.604
21
-99.1529
0
LINE
8
Black
10
95.604
20
-99.1529
11
95.2679
21
-99.5535
0
LINE
8
Black
10
95.2679
20
-99.5535
11
94.815
21
-99.8149
0
LINE
8
Black
10
94.815
20
-99.8149
11
94.3
21
-99.9057
0
LINE
8
Black
10
94.3
20
-99.9057
11
93.785
21
-99.8149
0
LINE
8
Black
10
93.785
20
-99.8149
11
93.3321
21
-99.5535
0
LINE
8
Black
10
93.3321
20
-99.5535
11
92.996
21
-99.1529
0
LINE
8
Black
10
92.996
20
-99.1529
11
92.8171
21
-98.6615
0
LINE
8
Black
10
92.8171
20
-98.6615
11
92.8171
21
-98.1385
0
LINE
8
Black
10
92.8171
20
-98.1385
11
92.996
21
-97.6471
0
LINE
8
Black
10
92.996
20
-97.6471
11
93.3321
21
-97.2465
0
LINE
8
Black
10
93.3321
20
-97.2465
11
93.785
21
-96.9851
0
LINE
8
Black
10
93.785
20
-96.9851
11
94.3
21
-96.8943
0
LINE
8
Black
10
94.3
20
-96.8943
11
94.815
21
-96.9851
0
LINE
8
Black
10
87.215
20
-96.9851
11
87.6679
21
-97.2465
0
LINE
8
Black
10
87.6679
20
-97.2465
11
88.004
21
-97.6471
0
LINE
8
Black
10
88.004
20
-97.6471
11
88.1829
21
-98.1385
0
LINE
8
Black
10
88.1829
20
-98.1385
11
88.1829
21
-98.6615
0
LINE
8
Black
10
88.1829
20
-98.6615
11
88.004
21
-99.1529
0
LINE
8
Black
10
88.004
20
-99.1529
11
87.6679
21
-99.5535
0
LINE
8
Black
10
87.6679
20
-99.5535
11
87.215
21
-99.8149
0
LINE
8
Black
10
87.215
20
-99.8149
11
86.7
21
-99.9057
0
LINE
8
Black
10
86.7
20
-99.9057
11
86.185
21
-99.8149
0
LINE
8
Black
10
86.185
20
-99.8149
11
85.7321
21
-99.5535
0
LINE
8
Black
10
85.7321
20
-99.5535
11
85.396
21
-99.1529
0
LINE
8
Black
10
85.396
20
-99.1529
11
85.2171
21
-98.6615
0
LINE
8
Black
10
85.2171
20
-98.6615
11
85.2171
21
-98.1385
0
LINE
8
Black
10
85.2171
20
-98.1385
11
85.396
21
-97.6471
0
LINE
8
Black
10
85.396
20
-97.6471
11
85.7321
21
-97.2465
0
LINE
8
Black
10
85.7321
20
-97.2465
11
86.185
21
-96.9851
0
LINE
8
Black
10
86.185
20
-96.9851
11
86.7
21
-96.8943
0
LINE
8
Black
10
86.7
20
-96.8943
11
87.215
21
-96.9851
0
LINE
8
Black
10
86.8416
20
-80.3612
11
87.0717
21
-80.494
0
LINE
8
Black
10
87.0717
20
-80.494
11
87.2424
21
-80.6975
0
LINE
8
Black
10
87.2424
20
-80.6975
11
87.3333
21
-80.9472
0
LINE
8
Black
10
87.3333
20
-80.9472
11
87.3333
21
-81.2128
0
LINE
8
Black
10
87.3333
20
-81.2128
11
87.2424
21
-81.4625
0
LINE
8
Black
10
87.2424
20
-81.4625
11
87.0717
21
-81.666
0
LINE
8
Black
10
87.0717
20
-81.666
11
86.8416
21
-81.7988
0
LINE
8
Black
10
86.8416
20
-81.7988
11
86.58
21
-81.8449
0
LINE
8
Black
10
86.58
20
-81.8449
11
86.3184
21
-81.7988
0
LINE
8
Black
10
86.3184
20
-81.7988
11
86.0883
21
-81.666
0
LINE
8
Black
10
86.0883
20
-81.666
11
85.9176
21
-81.4625
0
LINE
8
Black
10
85.9176
20
-81.4625
11
85.8267
21
-81.2128
0
LINE
8
Black
10
85.8267
20
-81.2128
11
85.8267
21
-80.9472
0
LINE
8
Black
10
85.8267
20
-80.9472
11
85.9176
21
-80.6975
0
LINE
8
Black
10
85.9176
20
-80.6975
11
86.0883
21
-80.494
0
LINE
8
Black
10
86.0883
20
-80.494
11
86.3184
21
-80.3612
0
LINE
8
Black
10
86.3184
20
-80.3612
11
86.58
21
-80.3151
0
LINE
8
Black
10
86.58
20
-80.3151
11
86.8416
21
-80.3612
0
LINE
8
Black
10
81.7616
20
-80.3612
11
81.9917
21
-80.494
0
LINE
8
Black
10
81.9917
20
-80.494
11
82.1624
21
-80.6975
0
LINE
8
Black
10
82.1624
20
-80.6975
11
82.2533
21
-80.9472
0
LINE
8
Black
10
82.2533
20
-80.9472
11
82.2533
21
-81.2128
0
LINE
8
Black
10
82.2533
20
-81.2128
11
82.1624
21
-81.4625
0
LINE
8
Black
10
82.1624
20
-81.4625
11
81.9917
21
-81.666
0
LINE
8
Black
10
81.9917
20
-81.666
11
81.7616
21
-81.7988
0
LINE
8
Black
10
81.7616
20
-81.7988
11
81.5
21
-81.8449
0
LINE
8
Black
10
81.5
20
-81.8449
11
81.2384
21
-81.7988
0
LINE
8
Black
10
81.2384
20
-81.7988
11
81.0083
21
-81.666
0
LINE
8
Black
10
81.0083
20
-81.666
11
80.8376
21
-81.4625
0
LINE
8
Black
10
80.8376
20
-81.4625
11
80.7467
21
-81.2128
0
LINE
8
Black
10
80.7467
20
-81.2128
11
80.7467
21
-80.9472
0
LINE
8
Black
10
80.7467
20
-80.9472
11
80.8376
21
-80.6975
0
LINE
8
Black
10
80.8376
20
-80.6975
11
81.0083
21
-80.494
0
LINE
8
Black
10
81.0083
20
-80.494
11
81.2384
21
-80.3612
0
LINE
8
Black
10
81.2384
20
-80.3612
11
81.5
21
-80.3151
0
LINE
8
Black
10
81.5
20
-80.3151
11
81.7616
21
-80.3612
0
LINE
8
Black
10
81.7616
20
-75.2812
11
81.9917
21
-75.414
0
LINE
8
Black
10
81.9917
20
-75.414
11
82.1624
21
-75.6175
0
LINE
8
Black
10
82.1624
20
-75.6175
11
82.2533
21
-75.8672
0
LINE
8
Black
10
82.2533
20
-75.8672
11
82.2533
21
-76.1328
0
LINE
8
Black
10
82.2533
20
-76.1328
11
82.1624
21
-76.3825
0
LINE
8
Black
10
82.1624
20
-76.3825
11
81.9917
21
-76.586
0
LINE
8
Black
10
81.9917
20
-76.586
11
81.7616
21
-76.7188
0
LINE
8
Black
10
81.7616
20
-76.7188
11
81.5
21
-76.7649
0
LINE
8
Black
10
81.5
20
-76.7649
11
81.2384
21
-76.7188
0
LINE
8
Black
10
81.2384
20
-76.7188
11
81.0083
21
-76.586
0
LINE
8
Black
10
81.0083
20
-76.586
11
80.8376
21
-76.3825
0
LINE
8
Black
10
80.8376
20
-76.3825
11
80.7467
21
-76.1328
0
LINE
8
Black
10
80.7467
20
-76.1328
11
80.7467
21
-75.8672
0
LINE
8
Black
10
80.7467
20
-75.8672
11
80.8376
21
-75.6175
0
LINE
8
Black
10
80.8376
20
-75.6175
11
81.0083
21
-75.414
0
LINE
8
Black
10
81.0083
20
-75.414
11
81.2384
21
-75.2812
0
LINE
8
Black
10
81.2384
20
-75.2812
11
81.5
21
-75.2351
0
LINE
8
Black
10
81.5
20
-75.2351
11
81.7616
21
-75.2812
0
LINE
8
Black
10
86.8416
20
-75.2812
11
87.0717
21
-75.414
0
LINE
8
Black
10
87.0717
20
-75.414
11
87.2424
21
-75.6175
0
LINE
8
Black
10
87.2424
20
-75.6175
11
87.3333
21
-75.8672
0
LINE
8
Black
10
87.3333
20
-75.8672
11
87.3333
21
-76.1328
0
LINE
8
Black
10
87.3333
20
-76.1328
11
87.2424
21
-76.3825
0
LINE
8
Black
10
87.2424
20
-76.3825
11
87.0717
21
-76.586
0
LINE
8
Black
10
87.0717
20
-76.586
11
86.8416
21
-76.7188
0
LINE
8
Black
10
86.8416
20
-76.7188
11
86.58
21
-76.7649
0
LINE
8
Black
10
86.58
20
-76.7649
11
86.3184
21
-76.7188
0
LINE
8
Black
10
86.3184
20
-76.7188
11
86.0883
21
-76.586
0
LINE
8
Black
10
86.0883
20
-76.586
11
85.9176
21
-76.3825
0
LINE
8
Black
10
85.9176
20
-76.3825
11
85.8267
21
-76.1328
0
LINE
8
Black
10
85.8267
20
-76.1328
11
85.8267
21
-75.8672
0
LINE
8
Black
10
85.8267
20
-75.8672
11
85.9176
21
-75.6175
0
LINE
8
Black
10
85.9176
20
-75.6175
11
86.0883
21
-75.414
0
LINE
8
Black
10
86.0883
20
-75.414
11
86.3184
21
-75.2812
0
LINE
8
Black
10
86.3184
20
-75.2812
11
86.58
21
-75.2351
0
LINE
8
Black
10
86.58
20
-75.2351
11
86.8416
21
-75.2812
0
LINE
8
Black
10
212.004
20
-29.9508
11
212.009
21
-29.9508
0
LINE
8
Black
10
212.009
20
-29.9508
11
212.013
21
-29.9523
0
LINE
8
Black
10
212.013
20
-29.9523
11
212.017
21
-29.953
0
LINE
8
Black
10
212.017
20
-29.953
11
212.021
21
-29.9552
0
LINE
8
Black
10
212.021
20
-29.9552
11
212.025
21
-29.9567
0
LINE
8
Black
10
212.025
20
-29.9567
11
212.028
21
-29.9595
0
LINE
8
Black
10
212.028
20
-29.9595
11
212.032
21
-29.9617
0
LINE
8
Black
10
212.032
20
-29.9617
11
212.035
21
-29.965
0
LINE
8
Black
10
212.035
20
-29.965
11
212.038
21
-29.9679
0
LINE
8
Black
10
212.038
20
-29.9679
11
212.04
21
-29.9716
0
LINE
8
Black
10
212.04
20
-29.9716
11
212.043
21
-29.975
0
LINE
8
Black
10
212.043
20
-29.975
11
212.045
21
-29.9791
0
LINE
8
Black
10
212.045
20
-29.9791
11
212.047
21
-29.9829
0
LINE
8
Black
10
212.047
20
-29.9829
11
212.048
21
-29.9872
0
LINE
8
Black
10
212.048
20
-29.9872
11
212.049
21
-29.9913
0
LINE
8
Black
10
212.049
20
-29.9913
11
212.049
21
-29.9957
0
LINE
8
Black
10
212.049
20
-29.9957
11
212.05
21
-30
0
LINE
8
Black
10
212.05
20
-30
11
212.05
21
-130
0
LINE
8
Black
10
212.05
20
-130
11
212.049
21
-130.004
0
LINE
8
Black
10
212.049
20
-130.004
11
212.049
21
-130.009
0
LINE
8
Black
10
212.049
20
-130.009
11
212.048
21
-130.013
0
LINE
8
Black
10
212.048
20
-130.013
11
212.047
21
-130.017
0
LINE
8
Black
10
212.047
20
-130.017
11
212.045
21
-130.021
0
LINE
8
Black
10
212.045
20
-130.021
11
212.043
21
-130.025
0
LINE
8
Black
10
212.043
20
-130.025
11
212.04
21
-130.028
0
LINE
8
Black
10
212.04
20
-130.028
11
212.038
21
-130.032
0
LINE
8
Black
10
212.038
20
-130.032
11
212.035
21
-130.035
0
LINE
8
Black
10
212.035
20
-130.035
11
212.032
21
-130.038
0
LINE
8
Black
10
212.032
20
-130.038
11
212.028
21
-130.04
0
LINE
8
Black
10
212.028
20
-130.04
11
212.025
21
-130.043
0
LINE
8
Black
10
212.025
20
-130.043
11
212.021
21
-130.045
0
LINE
8
Black
10
212.021
20
-130.045
11
212.017
21
-130.047
0
LINE
8
Black
10
212.017
20
-130.047
11
212.013
21
-130.048
0
LINE
8
Black
10
212.013
20
-130.048
11
212.009
21
-130.049
0
LINE
8
Black
10
212.009
20
-130.049
11
212.004
21
-130.049
0
LINE
8
Black
10
212.004
20
-130.049
11
212
21
-130.05
0
LINE
8
Black
10
212
20
-130.05
11
74.5
21
-130.05
0
LINE
8
Black
10
74.5
20
-130.05
11
74.4957
21
-130.049
0
LINE
8
Black
10
74.4957
20
-130.049
11
74.4913
21
-130.049
0
LINE
8
Black
10
74.4913
20
-130.049
11
74.4872
21
-130.048
0
LINE
8
Black
10
74.4872
20
-130.048
11
74.4829
21
-130.047
0
LINE
8
Black
10
74.4829
20
-130.047
11
74.4791
21
-130.045
0
LINE
8
Black
10
74.4791
20
-130.045
11
74.475
21
-130.043
0
LINE
8
Black
10
74.475
20
-130.043
11
74.4716
21
-130.04
0
LINE
8
Black
10
74.4716
20
-130.04
11
74.4679
21
-130.038
0
LINE
8
Black
10
74.4679
20
-130.038
11
74.465
21
-130.035
0
LINE
8
Black
10
74.465
20
-130.035
11
74.4617
21
-130.032
0
LINE
8
Black
10
74.4617
20
-130.032
11
74.4595
21
-130.028
0
LINE
8
Black
10
74.4595
20
-130.028
11
74.4567
21
-130.025
0
LINE
8
Black
10
74.4567
20
-130.025
11
74.4552
21
-130.021
0
LINE
8
Black
10
74.4552
20
-130.021
11
74.453
21
-130.017
0
LINE
8
Black
10
74.453
20
-130.017
11
74.4523
21
-130.013
0
LINE
8
Black
10
74.4523
20
-130.013
11
74.4508
21
-130.009
0
LINE
8
Black
10
74.4508
20
-130.009
11
74.4508
21
-130.004
0
LINE
8
Black
10
74.4508
20
-130.004
11
74.45
21
-130
0
LINE
8
Black
10
74.45
20
-130
11
74.45
21
-30
0
LINE
8
Black
10
74.45
20
-30
11
74.4508
21
-29.9957
0
LINE
8
Black
10
74.4508
20
-29.9957
11
74.4508
21
-29.9913
0
LINE
8
Black
10
74.4508
20
-29.9913
11
74.4523
21
-29.9872
0
LINE
8
Black
10
74.4523
20
-29.9872
11
74.453
21
-29.9829
0
LINE
8
Black
10
74.453
20
-29.9829
11
74.4552
21
-29.9791
0
LINE
8
Black
10
74.4552
20
-29.9791
11
74.4567
21
-29.975
0
LINE
8
Black
10
74.4567
20
-29.975
11
74.4595
21
-29.9716
0
LINE
8
Black
10
74.4595
20
-29.9716
11
74.4617
21
-29.9679
0
LINE
8
Black
10
74.4617
20
-29.9679
11
74.465
21
-29.965
0
LINE
8
Black
10
74.465
20
-29.965
11
74.4679
21
-29.9617
0
LINE
8
Black
10
74.4679
20
-29.9617
11
74.4716
21
-29.9595
0
LINE
8
Black
10
74.4716
20
-29.9595
11
74.475
21
-29.9567
0
LINE
8
Black
10
74.475
20
-29.9567
11
74.4791
21
-29.9552
0
LINE
8
Black
10
74.4791
20
-29.9552
11
74.4829
21
-29.953
0
LINE
8
Black
10
74.4829
20
-29.953
11
74.4872
21
-29.9523
0
LINE
8
Black
10
74.4872
20
-29.9523
11
74.4913
21
-29.9508
0
LINE
8
Black
10
74.4913
20
-29.9508
11
74.4957
21
-29.9508
0
LINE
8
Black
10
74.4957
20
-29.9508
11
74.5
21
-29.95
0
LINE
8
Black
10
74.5
20
-29.95
11
212
21
-29.95
0
LINE
8
Black
10
212
20
-29.95
11
212.004
21
-29.9508
0
LINE
8
Black
10
74.55
20
-30.05
11
74.55
21
-129.95
0
LINE
8
Black
10
74.55
20
-129.95
11
211.95
21
-129.95
0
LINE
8
Black
10
211.95
20
-129.95
11
211.95
21
-30.05
0
LINE
8
Black
10
211.95
20
-30.05
11
74.55
21
-30.05
  0
ENDSEC
  0
EOF
