  0
SECTION
  2
HEADER
  9
$ANGBASE
  50
0.0
  9
$ANGDIR
  70
  1
  9
$MEASUREMENT
  70
0
  0
ENDSEC
  0
SECTION
  2
TABLES
  0
TABLE
  2
LTYPE
  70
1
  0
LTYPE
  2
CONTINUOUS
  70
0
  3
Solid line
  72
65
  73
0
  40
0.0
  0
ENDTAB
  0
TABLE
  2
STYLE
  70
4
  0
STYLE
  2
KICAD
  70
0
  40
0
  41
1
  42
1
  50
0
  71
0
  3
isocp.shx
  0
STYLE
  2
KICADB
  70
0
  40
0
  41
1
  42
1
  50
0
  71
0
  3
isocp.shx
  0
STYLE
  2
KICADI
  70
0
  40
0
  41
1
  42
1
  50
15
  71
0
  3
isocp.shx
  0
STYLE
  2
KICADBI
  70
0
  40
0
  41
1
  42
1
  50
15
  71
0
  3
isocp.shx
  0
ENDTAB
  0
TABLE
  2
LAYER
  70
30
  0
LAYER
  2
BLACK
  70
0
  62
7
  6
CONTINUOUS
  0
LAYER
  2
GRAY1
  70
0
  62
251
  6
CONTINUOUS
  0
LAYER
  2
GRAY2
  70
0
  62
8
  6
CONTINUOUS
  0
LAYER
  2
GRAY3
  70
0
  62
9
  6
CONTINUOUS
  0
LAYER
  2
WHITE
  70
0
  62
7
  6
CONTINUOUS
  0
LAYER
  2
LYELLOW
  70
0
  62
51
  6
CONTINUOUS
  0
LAYER
  2
BLUE1
  70
0
  62
178
  6
CONTINUOUS
  0
LAYER
  2
GREEN1
  70
0
  62
98
  6
CONTINUOUS
  0
LAYER
  2
CYAN1
  70
0
  62
138
  6
CONTINUOUS
  0
LAYER
  2
RED1
  70
0
  62
18
  6
CONTINUOUS
  0
LAYER
  2
MAGENTA1
  70
0
  62
228
  6
CONTINUOUS
  0
LAYER
  2
BROWN1
  70
0
  62
58
  6
CONTINUOUS
  0
LAYER
  2
BLUE2
  70
0
  62
5
  6
CONTINUOUS
  0
LAYER
  2
GREEN2
  70
0
  62
3
  6
CONTINUOUS
  0
LAYER
  2
CYAN2
  70
0
  62
4
  6
CONTINUOUS
  0
LAYER
  2
RED2
  70
0
  62
1
  6
CONTINUOUS
  0
LAYER
  2
MAGENTA2
  70
0
  62
6
  6
CONTINUOUS
  0
LAYER
  2
BROWN2
  70
0
  62
54
  6
CONTINUOUS
  0
LAYER
  2
BLUE3
  70
0
  62
171
  6
CONTINUOUS
  0
LAYER
  2
GREEN3
  70
0
  62
91
  6
CONTINUOUS
  0
LAYER
  2
CYAN3
  70
0
  62
131
  6
CONTINUOUS
  0
LAYER
  2
RED3
  70
0
  62
11
  6
CONTINUOUS
  0
LAYER
  2
MAGENTA3
  70
0
  62
221
  6
CONTINUOUS
  0
LAYER
  2
YELLOW3
  70
0
  62
2
  6
CONTINUOUS
  0
LAYER
  2
BLUE4
  70
0
  62
5
  6
CONTINUOUS
  0
LAYER
  2
GREEN4
  70
0
  62
3
  6
CONTINUOUS
  0
LAYER
  2
CYAN4
  70
0
  62
4
  6
CONTINUOUS
  0
LAYER
  2
RED4
  70
0
  62
1
  6
CONTINUOUS
  0
LAYER
  2
MAGENTA4
  70
0
  62
6
  6
CONTINUOUS
  0
LAYER
  2
YELLOW4
  70
0
  62
2
  6
CONTINUOUS
  0
ENDTAB
  0
ENDSEC
  0
SECTION
  2
ENTITIES
0
LINE
8
Black
10
177.002
20
-166.007
11
177.002
21
-198.007
0
LINE
8
Black
10
177.002
20
-198.007
11
285.002
21
-198.007
0
LINE
8
Black
10
285.002
20
-198.007
11
285.002
21
-166.007
0
LINE
8
Black
10
285.002
20
-166.007
11
177.002
21
-166.007
0
LINE
8
Black
10
10
20
-10
11
10
21
-200.007
0
LINE
8
Black
10
10
20
-200.007
11
287.002
21
-200.007
0
LINE
8
Black
10
287.002
20
-200.007
11
287.002
21
-10
0
LINE
8
Black
10
287.002
20
-10
11
10
21
-10
0
LINE
8
Black
10
12
20
-12
11
12
21
-198.007
0
LINE
8
Black
10
12
20
-198.007
11
285.002
21
-198.007
0
LINE
8
Black
10
285.002
20
-198.007
11
285.002
21
-12
0
LINE
8
Black
10
285.002
20
-12
11
12
21
-12
0
LINE
8
Black
10
60
20
-12
11
60
21
-10
0
LINE
8
Black
10
110
20
-12
11
110
21
-10
0
LINE
8
Black
10
160
20
-12
11
160
21
-10
0
LINE
8
Black
10
210
20
-12
11
210
21
-10
0
LINE
8
Black
10
260
20
-12
11
260
21
-10
0
LINE
8
Black
10
35.9905
20
-11.5881
11
35.2476
21
-11.5881
0
LINE
8
Black
10
35.619
20
-11.5881
11
35.619
21
-10.2881
0
LINE
8
Black
10
35.619
20
-10.2881
11
35.4952
21
-10.4738
0
LINE
8
Black
10
35.4952
20
-10.4738
11
35.3714
21
-10.5976
0
LINE
8
Black
10
35.3714
20
-10.5976
11
35.2476
21
-10.6595
0
LINE
8
Black
10
85.2476
20
-10.4119
11
85.3095
21
-10.35
0
LINE
8
Black
10
85.3095
20
-10.35
11
85.4333
21
-10.2881
0
LINE
8
Black
10
85.4333
20
-10.2881
11
85.7429
21
-10.2881
0
LINE
8
Black
10
85.7429
20
-10.2881
11
85.8667
21
-10.35
0
LINE
8
Black
10
85.8667
20
-10.35
11
85.9286
21
-10.4119
0
LINE
8
Black
10
85.9286
20
-10.4119
11
85.9905
21
-10.5357
0
LINE
8
Black
10
85.9905
20
-10.5357
11
85.9905
21
-10.6595
0
LINE
8
Black
10
85.9905
20
-10.6595
11
85.9286
21
-10.8452
0
LINE
8
Black
10
85.9286
20
-10.8452
11
85.1857
21
-11.5881
0
LINE
8
Black
10
85.1857
20
-11.5881
11
85.9905
21
-11.5881
0
LINE
8
Black
10
135.186
20
-10.2881
11
135.99
21
-10.2881
0
LINE
8
Black
10
135.99
20
-10.2881
11
135.557
21
-10.7833
0
LINE
8
Black
10
135.557
20
-10.7833
11
135.743
21
-10.7833
0
LINE
8
Black
10
135.743
20
-10.7833
11
135.867
21
-10.8452
0
LINE
8
Black
10
135.867
20
-10.8452
11
135.929
21
-10.9071
0
LINE
8
Black
10
135.929
20
-10.9071
11
135.99
21
-11.031
0
LINE
8
Black
10
135.99
20
-11.031
11
135.99
21
-11.3405
0
LINE
8
Black
10
135.99
20
-11.3405
11
135.929
21
-11.4643
0
LINE
8
Black
10
135.929
20
-11.4643
11
135.867
21
-11.5262
0
LINE
8
Black
10
135.867
20
-11.5262
11
135.743
21
-11.5881
0
LINE
8
Black
10
135.743
20
-11.5881
11
135.371
21
-11.5881
0
LINE
8
Black
10
135.371
20
-11.5881
11
135.248
21
-11.5262
0
LINE
8
Black
10
135.248
20
-11.5262
11
135.186
21
-11.4643
0
LINE
8
Black
10
185.867
20
-10.7214
11
185.867
21
-11.5881
0
LINE
8
Black
10
185.557
20
-10.2262
11
185.248
21
-11.1548
0
LINE
8
Black
10
185.248
20
-11.1548
11
186.052
21
-11.1548
0
LINE
8
Black
10
235.929
20
-10.2881
11
235.31
21
-10.2881
0
LINE
8
Black
10
235.31
20
-10.2881
11
235.248
21
-10.9071
0
LINE
8
Black
10
235.248
20
-10.9071
11
235.31
21
-10.8452
0
LINE
8
Black
10
235.31
20
-10.8452
11
235.433
21
-10.7833
0
LINE
8
Black
10
235.433
20
-10.7833
11
235.743
21
-10.7833
0
LINE
8
Black
10
235.743
20
-10.7833
11
235.867
21
-10.8452
0
LINE
8
Black
10
235.867
20
-10.8452
11
235.929
21
-10.9071
0
LINE
8
Black
10
235.929
20
-10.9071
11
235.99
21
-11.031
0
LINE
8
Black
10
235.99
20
-11.031
11
235.99
21
-11.3405
0
LINE
8
Black
10
235.99
20
-11.3405
11
235.929
21
-11.4643
0
LINE
8
Black
10
235.929
20
-11.4643
11
235.867
21
-11.5262
0
LINE
8
Black
10
235.867
20
-11.5262
11
235.743
21
-11.5881
0
LINE
8
Black
10
235.743
20
-11.5881
11
235.433
21
-11.5881
0
LINE
8
Black
10
235.433
20
-11.5881
11
235.31
21
-11.5262
0
LINE
8
Black
10
235.31
20
-11.5262
11
235.248
21
-11.4643
0
LINE
8
Black
10
285.867
20
-10.2881
11
285.619
21
-10.2881
0
LINE
8
Black
10
285.619
20
-10.2881
11
285.495
21
-10.35
0
LINE
8
Black
10
285.495
20
-10.35
11
285.433
21
-10.4119
0
LINE
8
Black
10
285.433
20
-10.4119
11
285.31
21
-10.5976
0
LINE
8
Black
10
285.31
20
-10.5976
11
285.248
21
-10.8452
0
LINE
8
Black
10
285.248
20
-10.8452
11
285.248
21
-11.3405
0
LINE
8
Black
10
285.248
20
-11.3405
11
285.31
21
-11.4643
0
LINE
8
Black
10
285.31
20
-11.4643
11
285.371
21
-11.5262
0
LINE
8
Black
10
285.371
20
-11.5262
11
285.495
21
-11.5881
0
LINE
8
Black
10
285.495
20
-11.5881
11
285.743
21
-11.5881
0
LINE
8
Black
10
285.743
20
-11.5881
11
285.867
21
-11.5262
0
LINE
8
Black
10
285.867
20
-11.5262
11
285.929
21
-11.4643
0
LINE
8
Black
10
285.929
20
-11.4643
11
285.99
21
-11.3405
0
LINE
8
Black
10
285.99
20
-11.3405
11
285.99
21
-11.031
0
LINE
8
Black
10
285.99
20
-11.031
11
285.929
21
-10.9071
0
LINE
8
Black
10
285.929
20
-10.9071
11
285.867
21
-10.8452
0
LINE
8
Black
10
285.867
20
-10.8452
11
285.743
21
-10.7833
0
LINE
8
Black
10
285.743
20
-10.7833
11
285.495
21
-10.7833
0
LINE
8
Black
10
285.495
20
-10.7833
11
285.371
21
-10.8452
0
LINE
8
Black
10
285.371
20
-10.8452
11
285.31
21
-10.9071
0
LINE
8
Black
10
285.31
20
-10.9071
11
285.248
21
-11.031
0
LINE
8
Black
10
60
20
-198.007
11
60
21
-200.007
0
LINE
8
Black
10
110
20
-198.007
11
110
21
-200.007
0
LINE
8
Black
10
160
20
-198.007
11
160
21
-200.007
0
LINE
8
Black
10
210
20
-198.007
11
210
21
-200.007
0
LINE
8
Black
10
260
20
-198.007
11
260
21
-200.007
0
LINE
8
Black
10
35.9905
20
-199.595
11
35.2476
21
-199.595
0
LINE
8
Black
10
35.619
20
-199.595
11
35.619
21
-198.295
0
LINE
8
Black
10
35.619
20
-198.295
11
35.4952
21
-198.481
0
LINE
8
Black
10
35.4952
20
-198.481
11
35.3714
21
-198.605
0
LINE
8
Black
10
35.3714
20
-198.605
11
35.2476
21
-198.667
0
LINE
8
Black
10
85.2476
20
-198.419
11
85.3095
21
-198.357
0
LINE
8
Black
10
85.3095
20
-198.357
11
85.4333
21
-198.295
0
LINE
8
Black
10
85.4333
20
-198.295
11
85.7429
21
-198.295
0
LINE
8
Black
10
85.7429
20
-198.295
11
85.8667
21
-198.357
0
LINE
8
Black
10
85.8667
20
-198.357
11
85.9286
21
-198.419
0
LINE
8
Black
10
85.9286
20
-198.419
11
85.9905
21
-198.543
0
LINE
8
Black
10
85.9905
20
-198.543
11
85.9905
21
-198.667
0
LINE
8
Black
10
85.9905
20
-198.667
11
85.9286
21
-198.852
0
LINE
8
Black
10
85.9286
20
-198.852
11
85.1857
21
-199.595
0
LINE
8
Black
10
85.1857
20
-199.595
11
85.9905
21
-199.595
0
LINE
8
Black
10
135.186
20
-198.295
11
135.99
21
-198.295
0
LINE
8
Black
10
135.99
20
-198.295
11
135.557
21
-198.791
0
LINE
8
Black
10
135.557
20
-198.791
11
135.743
21
-198.791
0
LINE
8
Black
10
135.743
20
-198.791
11
135.867
21
-198.852
0
LINE
8
Black
10
135.867
20
-198.852
11
135.929
21
-198.914
0
LINE
8
Black
10
135.929
20
-198.914
11
135.99
21
-199.038
0
LINE
8
Black
10
135.99
20
-199.038
11
135.99
21
-199.348
0
LINE
8
Black
10
135.99
20
-199.348
11
135.929
21
-199.471
0
LINE
8
Black
10
135.929
20
-199.471
11
135.867
21
-199.533
0
LINE
8
Black
10
135.867
20
-199.533
11
135.743
21
-199.595
0
LINE
8
Black
10
135.743
20
-199.595
11
135.371
21
-199.595
0
LINE
8
Black
10
135.371
20
-199.595
11
135.248
21
-199.533
0
LINE
8
Black
10
135.248
20
-199.533
11
135.186
21
-199.471
0
LINE
8
Black
10
185.867
20
-198.729
11
185.867
21
-199.595
0
LINE
8
Black
10
185.557
20
-198.233
11
185.248
21
-199.162
0
LINE
8
Black
10
185.248
20
-199.162
11
186.052
21
-199.162
0
LINE
8
Black
10
235.929
20
-198.295
11
235.31
21
-198.295
0
LINE
8
Black
10
235.31
20
-198.295
11
235.248
21
-198.914
0
LINE
8
Black
10
235.248
20
-198.914
11
235.31
21
-198.852
0
LINE
8
Black
10
235.31
20
-198.852
11
235.433
21
-198.791
0
LINE
8
Black
10
235.433
20
-198.791
11
235.743
21
-198.791
0
LINE
8
Black
10
235.743
20
-198.791
11
235.867
21
-198.852
0
LINE
8
Black
10
235.867
20
-198.852
11
235.929
21
-198.914
0
LINE
8
Black
10
235.929
20
-198.914
11
235.99
21
-199.038
0
LINE
8
Black
10
235.99
20
-199.038
11
235.99
21
-199.348
0
LINE
8
Black
10
235.99
20
-199.348
11
235.929
21
-199.471
0
LINE
8
Black
10
235.929
20
-199.471
11
235.867
21
-199.533
0
LINE
8
Black
10
235.867
20
-199.533
11
235.743
21
-199.595
0
LINE
8
Black
10
235.743
20
-199.595
11
235.433
21
-199.595
0
LINE
8
Black
10
235.433
20
-199.595
11
235.31
21
-199.533
0
LINE
8
Black
10
235.31
20
-199.533
11
235.248
21
-199.471
0
LINE
8
Black
10
285.867
20
-198.295
11
285.619
21
-198.295
0
LINE
8
Black
10
285.619
20
-198.295
11
285.495
21
-198.357
0
LINE
8
Black
10
285.495
20
-198.357
11
285.433
21
-198.419
0
LINE
8
Black
10
285.433
20
-198.419
11
285.31
21
-198.605
0
LINE
8
Black
10
285.31
20
-198.605
11
285.248
21
-198.852
0
LINE
8
Black
10
285.248
20
-198.852
11
285.248
21
-199.348
0
LINE
8
Black
10
285.248
20
-199.348
11
285.31
21
-199.471
0
LINE
8
Black
10
285.31
20
-199.471
11
285.371
21
-199.533
0
LINE
8
Black
10
285.371
20
-199.533
11
285.495
21
-199.595
0
LINE
8
Black
10
285.495
20
-199.595
11
285.743
21
-199.595
0
LINE
8
Black
10
285.743
20
-199.595
11
285.867
21
-199.533
0
LINE
8
Black
10
285.867
20
-199.533
11
285.929
21
-199.471
0
LINE
8
Black
10
285.929
20
-199.471
11
285.99
21
-199.348
0
LINE
8
Black
10
285.99
20
-199.348
11
285.99
21
-199.038
0
LINE
8
Black
10
285.99
20
-199.038
11
285.929
21
-198.914
0
LINE
8
Black
10
285.929
20
-198.914
11
285.867
21
-198.852
0
LINE
8
Black
10
285.867
20
-198.852
11
285.743
21
-198.791
0
LINE
8
Black
10
285.743
20
-198.791
11
285.495
21
-198.791
0
LINE
8
Black
10
285.495
20
-198.791
11
285.371
21
-198.852
0
LINE
8
Black
10
285.371
20
-198.852
11
285.31
21
-198.914
0
LINE
8
Black
10
285.31
20
-198.914
11
285.248
21
-199.038
0
LINE
8
Black
10
10
20
-60
11
12
21
-60
0
LINE
8
Black
10
10
20
-110
11
12
21
-110
0
LINE
8
Black
10
10
20
-160
11
12
21
-160
0
LINE
8
Black
10
10.6905
20
-35.2167
11
11.3095
21
-35.2167
0
LINE
8
Black
10
10.5667
20
-35.5881
11
11
21
-34.2881
0
LINE
8
Black
10
11
20
-34.2881
11
11.4333
21
-35.5881
0
LINE
8
Black
10
11.0929
20
-84.9071
11
11.2786
21
-84.969
0
LINE
8
Black
10
11.2786
20
-84.969
11
11.3405
21
-85.031
0
LINE
8
Black
10
11.3405
20
-85.031
11
11.4024
21
-85.1548
0
LINE
8
Black
10
11.4024
20
-85.1548
11
11.4024
21
-85.3405
0
LINE
8
Black
10
11.4024
20
-85.3405
11
11.3405
21
-85.4643
0
LINE
8
Black
10
11.3405
20
-85.4643
11
11.2786
21
-85.5262
0
LINE
8
Black
10
11.2786
20
-85.5262
11
11.1548
21
-85.5881
0
LINE
8
Black
10
11.1548
20
-85.5881
11
10.6595
21
-85.5881
0
LINE
8
Black
10
10.6595
20
-85.5881
11
10.6595
21
-84.2881
0
LINE
8
Black
10
10.6595
20
-84.2881
11
11.0929
21
-84.2881
0
LINE
8
Black
10
11.0929
20
-84.2881
11
11.2167
21
-84.35
0
LINE
8
Black
10
11.2167
20
-84.35
11
11.2786
21
-84.4119
0
LINE
8
Black
10
11.2786
20
-84.4119
11
11.3405
21
-84.5357
0
LINE
8
Black
10
11.3405
20
-84.5357
11
11.3405
21
-84.6595
0
LINE
8
Black
10
11.3405
20
-84.6595
11
11.2786
21
-84.7833
0
LINE
8
Black
10
11.2786
20
-84.7833
11
11.2167
21
-84.8452
0
LINE
8
Black
10
11.2167
20
-84.8452
11
11.0929
21
-84.9071
0
LINE
8
Black
10
11.0929
20
-84.9071
11
10.6595
21
-84.9071
0
LINE
8
Black
10
11.4024
20
-135.464
11
11.3405
21
-135.526
0
LINE
8
Black
10
11.3405
20
-135.526
11
11.1548
21
-135.588
0
LINE
8
Black
10
11.1548
20
-135.588
11
11.031
21
-135.588
0
LINE
8
Black
10
11.031
20
-135.588
11
10.8452
21
-135.526
0
LINE
8
Black
10
10.8452
20
-135.526
11
10.7214
21
-135.402
0
LINE
8
Black
10
10.7214
20
-135.402
11
10.6595
21
-135.279
0
LINE
8
Black
10
10.6595
20
-135.279
11
10.5976
21
-135.031
0
LINE
8
Black
10
10.5976
20
-135.031
11
10.5976
21
-134.845
0
LINE
8
Black
10
10.5976
20
-134.845
11
10.6595
21
-134.598
0
LINE
8
Black
10
10.6595
20
-134.598
11
10.7214
21
-134.474
0
LINE
8
Black
10
10.7214
20
-134.474
11
10.8452
21
-134.35
0
LINE
8
Black
10
10.8452
20
-134.35
11
11.031
21
-134.288
0
LINE
8
Black
10
11.031
20
-134.288
11
11.1548
21
-134.288
0
LINE
8
Black
10
11.1548
20
-134.288
11
11.3405
21
-134.35
0
LINE
8
Black
10
11.3405
20
-134.35
11
11.4024
21
-134.412
0
LINE
8
Black
10
10.6595
20
-185.588
11
10.6595
21
-184.288
0
LINE
8
Black
10
10.6595
20
-184.288
11
10.969
21
-184.288
0
LINE
8
Black
10
10.969
20
-184.288
11
11.1548
21
-184.35
0
LINE
8
Black
10
11.1548
20
-184.35
11
11.2786
21
-184.474
0
LINE
8
Black
10
11.2786
20
-184.474
11
11.3405
21
-184.598
0
LINE
8
Black
10
11.3405
20
-184.598
11
11.4024
21
-184.845
0
LINE
8
Black
10
11.4024
20
-184.845
11
11.4024
21
-185.031
0
LINE
8
Black
10
11.4024
20
-185.031
11
11.3405
21
-185.279
0
LINE
8
Black
10
11.3405
20
-185.279
11
11.2786
21
-185.402
0
LINE
8
Black
10
11.2786
20
-185.402
11
11.1548
21
-185.526
0
LINE
8
Black
10
11.1548
20
-185.526
11
10.969
21
-185.588
0
LINE
8
Black
10
10.969
20
-185.588
11
10.6595
21
-185.588
0
LINE
8
Black
10
287.002
20
-60
11
285.002
21
-60
0
LINE
8
Black
10
287.002
20
-110
11
285.002
21
-110
0
LINE
8
Black
10
287.002
20
-160
11
285.002
21
-160
0
LINE
8
Black
10
285.693
20
-35.2167
11
286.312
21
-35.2167
0
LINE
8
Black
10
285.569
20
-35.5881
11
286.002
21
-34.2881
0
LINE
8
Black
10
286.002
20
-34.2881
11
286.436
21
-35.5881
0
LINE
8
Black
10
286.095
20
-84.9071
11
286.281
21
-84.969
0
LINE
8
Black
10
286.281
20
-84.969
11
286.343
21
-85.031
0
LINE
8
Black
10
286.343
20
-85.031
11
286.405
21
-85.1548
0
LINE
8
Black
10
286.405
20
-85.1548
11
286.405
21
-85.3405
0
LINE
8
Black
10
286.405
20
-85.3405
11
286.343
21
-85.4643
0
LINE
8
Black
10
286.343
20
-85.4643
11
286.281
21
-85.5262
0
LINE
8
Black
10
286.281
20
-85.5262
11
286.157
21
-85.5881
0
LINE
8
Black
10
286.157
20
-85.5881
11
285.662
21
-85.5881
0
LINE
8
Black
10
285.662
20
-85.5881
11
285.662
21
-84.2881
0
LINE
8
Black
10
285.662
20
-84.2881
11
286.095
21
-84.2881
0
LINE
8
Black
10
286.095
20
-84.2881
11
286.219
21
-84.35
0
LINE
8
Black
10
286.219
20
-84.35
11
286.281
21
-84.4119
0
LINE
8
Black
10
286.281
20
-84.4119
11
286.343
21
-84.5357
0
LINE
8
Black
10
286.343
20
-84.5357
11
286.343
21
-84.6595
0
LINE
8
Black
10
286.343
20
-84.6595
11
286.281
21
-84.7833
0
LINE
8
Black
10
286.281
20
-84.7833
11
286.219
21
-84.8452
0
LINE
8
Black
10
286.219
20
-84.8452
11
286.095
21
-84.9071
0
LINE
8
Black
10
286.095
20
-84.9071
11
285.662
21
-84.9071
0
LINE
8
Black
10
286.405
20
-135.464
11
286.343
21
-135.526
0
LINE
8
Black
10
286.343
20
-135.526
11
286.157
21
-135.588
0
LINE
8
Black
10
286.157
20
-135.588
11
286.033
21
-135.588
0
LINE
8
Black
10
286.033
20
-135.588
11
285.847
21
-135.526
0
LINE
8
Black
10
285.847
20
-135.526
11
285.724
21
-135.402
0
LINE
8
Black
10
285.724
20
-135.402
11
285.662
21
-135.279
0
LINE
8
Black
10
285.662
20
-135.279
11
285.6
21
-135.031
0
LINE
8
Black
10
285.6
20
-135.031
11
285.6
21
-134.845
0
LINE
8
Black
10
285.6
20
-134.845
11
285.662
21
-134.598
0
LINE
8
Black
10
285.662
20
-134.598
11
285.724
21
-134.474
0
LINE
8
Black
10
285.724
20
-134.474
11
285.847
21
-134.35
0
LINE
8
Black
10
285.847
20
-134.35
11
286.033
21
-134.288
0
LINE
8
Black
10
286.033
20
-134.288
11
286.157
21
-134.288
0
LINE
8
Black
10
286.157
20
-134.288
11
286.343
21
-134.35
0
LINE
8
Black
10
286.343
20
-134.35
11
286.405
21
-134.412
0
LINE
8
Black
10
285.662
20
-185.588
11
285.662
21
-184.288
0
LINE
8
Black
10
285.662
20
-184.288
11
285.971
21
-184.288
0
LINE
8
Black
10
285.971
20
-184.288
11
286.157
21
-184.35
0
LINE
8
Black
10
286.157
20
-184.35
11
286.281
21
-184.474
0
LINE
8
Black
10
286.281
20
-184.474
11
286.343
21
-184.598
0
LINE
8
Black
10
286.343
20
-184.598
11
286.405
21
-184.845
0
LINE
8
Black
10
286.405
20
-184.845
11
286.405
21
-185.031
0
LINE
8
Black
10
286.405
20
-185.031
11
286.343
21
-185.279
0
LINE
8
Black
10
286.343
20
-185.279
11
286.281
21
-185.402
0
LINE
8
Black
10
286.281
20
-185.402
11
286.157
21
-185.526
0
LINE
8
Black
10
286.157
20
-185.526
11
285.971
21
-185.588
0
LINE
8
Black
10
285.971
20
-185.588
11
285.662
21
-185.588
0
LINE
8
Black
10
200.359
20
-193.786
11
200.359
21
-192.286
0
LINE
8
Black
10
200.359
20
-192.286
11
200.716
21
-192.286
0
LINE
8
Black
10
200.716
20
-192.286
11
200.931
21
-192.357
0
LINE
8
Black
10
200.931
20
-192.357
11
201.074
21
-192.5
0
LINE
8
Black
10
201.074
20
-192.5
11
201.145
21
-192.643
0
LINE
8
Black
10
201.145
20
-192.643
11
201.216
21
-192.929
0
LINE
8
Black
10
201.216
20
-192.929
11
201.216
21
-193.143
0
LINE
8
Black
10
201.216
20
-193.143
11
201.145
21
-193.429
0
LINE
8
Black
10
201.145
20
-193.429
11
201.074
21
-193.571
0
LINE
8
Black
10
201.074
20
-193.571
11
200.931
21
-193.714
0
LINE
8
Black
10
200.931
20
-193.714
11
200.716
21
-193.786
0
LINE
8
Black
10
200.716
20
-193.786
11
200.359
21
-193.786
0
LINE
8
Black
10
202.502
20
-193.786
11
202.502
21
-193
0
LINE
8
Black
10
202.502
20
-193
11
202.431
21
-192.857
0
LINE
8
Black
10
202.431
20
-192.857
11
202.288
21
-192.786
0
LINE
8
Black
10
202.288
20
-192.786
11
202.002
21
-192.786
0
LINE
8
Black
10
202.002
20
-192.786
11
201.859
21
-192.857
0
LINE
8
Black
10
202.502
20
-193.714
11
202.359
21
-193.786
0
LINE
8
Black
10
202.359
20
-193.786
11
202.002
21
-193.786
0
LINE
8
Black
10
202.002
20
-193.786
11
201.859
21
-193.714
0
LINE
8
Black
10
201.859
20
-193.714
11
201.788
21
-193.571
0
LINE
8
Black
10
201.788
20
-193.571
11
201.788
21
-193.429
0
LINE
8
Black
10
201.788
20
-193.429
11
201.859
21
-193.286
0
LINE
8
Black
10
201.859
20
-193.286
11
202.002
21
-193.214
0
LINE
8
Black
10
202.002
20
-193.214
11
202.359
21
-193.214
0
LINE
8
Black
10
202.359
20
-193.214
11
202.502
21
-193.143
0
LINE
8
Black
10
203.002
20
-192.786
11
203.574
21
-192.786
0
LINE
8
Black
10
203.216
20
-192.286
11
203.216
21
-193.571
0
LINE
8
Black
10
203.216
20
-193.571
11
203.288
21
-193.714
0
LINE
8
Black
10
203.288
20
-193.714
11
203.431
21
-193.786
0
LINE
8
Black
10
203.431
20
-193.786
11
203.574
21
-193.786
0
LINE
8
Black
10
204.645
20
-193.714
11
204.502
21
-193.786
0
LINE
8
Black
10
204.502
20
-193.786
11
204.216
21
-193.786
0
LINE
8
Black
10
204.216
20
-193.786
11
204.074
21
-193.714
0
LINE
8
Black
10
204.074
20
-193.714
11
204.002
21
-193.571
0
LINE
8
Black
10
204.002
20
-193.571
11
204.002
21
-193
0
LINE
8
Black
10
204.002
20
-193
11
204.074
21
-192.857
0
LINE
8
Black
10
204.074
20
-192.857
11
204.216
21
-192.786
0
LINE
8
Black
10
204.216
20
-192.786
11
204.502
21
-192.786
0
LINE
8
Black
10
204.502
20
-192.786
11
204.645
21
-192.857
0
LINE
8
Black
10
204.645
20
-192.857
11
204.716
21
-193
0
LINE
8
Black
10
204.716
20
-193
11
204.716
21
-193.143
0
LINE
8
Black
10
204.716
20
-193.143
11
204.002
21
-193.286
0
LINE
8
Black
10
205.359
20
-193.643
11
205.431
21
-193.714
0
LINE
8
Black
10
205.431
20
-193.714
11
205.359
21
-193.786
0
LINE
8
Black
10
205.359
20
-193.786
11
205.288
21
-193.714
0
LINE
8
Black
10
205.288
20
-193.714
11
205.359
21
-193.643
0
LINE
8
Black
10
205.359
20
-193.643
11
205.359
21
-193.786
0
LINE
8
Black
10
205.359
20
-192.857
11
205.431
21
-192.929
0
LINE
8
Black
10
205.431
20
-192.929
11
205.359
21
-193
0
LINE
8
Black
10
205.359
20
-193
11
205.288
21
-192.929
0
LINE
8
Black
10
205.288
20
-192.929
11
205.359
21
-192.857
0
LINE
8
Black
10
205.359
20
-192.857
11
205.359
21
-193
0
LINE
8
Black
10
177.002
20
-194.507
11
285.002
21
-194.507
0
LINE
8
Black
10
178.359
20
-196.586
11
178.359
21
-195.086
0
LINE
8
Black
10
179.216
20
-196.586
11
178.574
21
-195.729
0
LINE
8
Black
10
179.216
20
-195.086
11
178.359
21
-195.943
0
LINE
8
Black
10
179.859
20
-196.586
11
179.859
21
-195.586
0
LINE
8
Black
10
179.859
20
-195.086
11
179.788
21
-195.157
0
LINE
8
Black
10
179.788
20
-195.157
11
179.859
21
-195.229
0
LINE
8
Black
10
179.859
20
-195.229
11
179.931
21
-195.157
0
LINE
8
Black
10
179.931
20
-195.157
11
179.859
21
-195.086
0
LINE
8
Black
10
179.859
20
-195.086
11
179.859
21
-195.229
0
LINE
8
Black
10
181.431
20
-196.443
11
181.359
21
-196.514
0
LINE
8
Black
10
181.359
20
-196.514
11
181.145
21
-196.586
0
LINE
8
Black
10
181.145
20
-196.586
11
181.002
21
-196.586
0
LINE
8
Black
10
181.002
20
-196.586
11
180.788
21
-196.514
0
LINE
8
Black
10
180.788
20
-196.514
11
180.645
21
-196.371
0
LINE
8
Black
10
180.645
20
-196.371
11
180.574
21
-196.229
0
LINE
8
Black
10
180.574
20
-196.229
11
180.502
21
-195.943
0
LINE
8
Black
10
180.502
20
-195.943
11
180.502
21
-195.729
0
LINE
8
Black
10
180.502
20
-195.729
11
180.574
21
-195.443
0
LINE
8
Black
10
180.574
20
-195.443
11
180.645
21
-195.3
0
LINE
8
Black
10
180.645
20
-195.3
11
180.788
21
-195.157
0
LINE
8
Black
10
180.788
20
-195.157
11
181.002
21
-195.086
0
LINE
8
Black
10
181.002
20
-195.086
11
181.145
21
-195.086
0
LINE
8
Black
10
181.145
20
-195.086
11
181.359
21
-195.157
0
LINE
8
Black
10
181.359
20
-195.157
11
181.431
21
-195.229
0
LINE
8
Black
10
182.716
20
-196.586
11
182.716
21
-195.8
0
LINE
8
Black
10
182.716
20
-195.8
11
182.645
21
-195.657
0
LINE
8
Black
10
182.645
20
-195.657
11
182.502
21
-195.586
0
LINE
8
Black
10
182.502
20
-195.586
11
182.216
21
-195.586
0
LINE
8
Black
10
182.216
20
-195.586
11
182.074
21
-195.657
0
LINE
8
Black
10
182.716
20
-196.514
11
182.574
21
-196.586
0
LINE
8
Black
10
182.574
20
-196.586
11
182.216
21
-196.586
0
LINE
8
Black
10
182.216
20
-196.586
11
182.074
21
-196.514
0
LINE
8
Black
10
182.074
20
-196.514
11
182.002
21
-196.371
0
LINE
8
Black
10
182.002
20
-196.371
11
182.002
21
-196.229
0
LINE
8
Black
10
182.002
20
-196.229
11
182.074
21
-196.086
0
LINE
8
Black
10
182.074
20
-196.086
11
182.216
21
-196.014
0
LINE
8
Black
10
182.216
20
-196.014
11
182.574
21
-196.014
0
LINE
8
Black
10
182.574
20
-196.014
11
182.716
21
-195.943
0
LINE
8
Black
10
184.074
20
-196.586
11
184.074
21
-195.086
0
LINE
8
Black
10
184.074
20
-196.514
11
183.931
21
-196.586
0
LINE
8
Black
10
183.931
20
-196.586
11
183.645
21
-196.586
0
LINE
8
Black
10
183.645
20
-196.586
11
183.502
21
-196.514
0
LINE
8
Black
10
183.502
20
-196.514
11
183.431
21
-196.443
0
LINE
8
Black
10
183.431
20
-196.443
11
183.359
21
-196.3
0
LINE
8
Black
10
183.359
20
-196.3
11
183.359
21
-195.871
0
LINE
8
Black
10
183.359
20
-195.871
11
183.431
21
-195.729
0
LINE
8
Black
10
183.431
20
-195.729
11
183.502
21
-195.657
0
LINE
8
Black
10
183.502
20
-195.657
11
183.645
21
-195.586
0
LINE
8
Black
10
183.645
20
-195.586
11
183.931
21
-195.586
0
LINE
8
Black
10
183.931
20
-195.586
11
184.074
21
-195.657
0
LINE
8
Black
10
185.931
20
-195.8
11
186.431
21
-195.8
0
LINE
8
Black
10
186.645
20
-196.586
11
185.931
21
-196.586
0
LINE
8
Black
10
185.931
20
-196.586
11
185.931
21
-195.086
0
LINE
8
Black
10
185.931
20
-195.086
11
186.645
21
-195.086
0
LINE
8
Black
10
187.288
20
-196.443
11
187.359
21
-196.514
0
LINE
8
Black
10
187.359
20
-196.514
11
187.288
21
-196.586
0
LINE
8
Black
10
187.288
20
-196.586
11
187.216
21
-196.514
0
LINE
8
Black
10
187.216
20
-196.514
11
187.288
21
-196.443
0
LINE
8
Black
10
187.288
20
-196.443
11
187.288
21
-196.586
0
LINE
8
Black
10
188.002
20
-196.586
11
188.002
21
-195.086
0
LINE
8
Black
10
188.002
20
-195.086
11
188.359
21
-195.086
0
LINE
8
Black
10
188.359
20
-195.086
11
188.574
21
-195.157
0
LINE
8
Black
10
188.574
20
-195.157
11
188.716
21
-195.3
0
LINE
8
Black
10
188.716
20
-195.3
11
188.788
21
-195.443
0
LINE
8
Black
10
188.788
20
-195.443
11
188.859
21
-195.729
0
LINE
8
Black
10
188.859
20
-195.729
11
188.859
21
-195.943
0
LINE
8
Black
10
188.859
20
-195.943
11
188.788
21
-196.229
0
LINE
8
Black
10
188.788
20
-196.229
11
188.716
21
-196.371
0
LINE
8
Black
10
188.716
20
-196.371
11
188.574
21
-196.514
0
LINE
8
Black
10
188.574
20
-196.514
11
188.359
21
-196.586
0
LINE
8
Black
10
188.359
20
-196.586
11
188.002
21
-196.586
0
LINE
8
Black
10
189.502
20
-196.443
11
189.574
21
-196.514
0
LINE
8
Black
10
189.574
20
-196.514
11
189.502
21
-196.586
0
LINE
8
Black
10
189.502
20
-196.586
11
189.431
21
-196.514
0
LINE
8
Black
10
189.431
20
-196.514
11
189.502
21
-196.443
0
LINE
8
Black
10
189.502
20
-196.443
11
189.502
21
-196.586
0
LINE
8
Black
10
190.145
20
-196.157
11
190.859
21
-196.157
0
LINE
8
Black
10
190.002
20
-196.586
11
190.502
21
-195.086
0
LINE
8
Black
10
190.502
20
-195.086
11
191.002
21
-196.586
0
LINE
8
Black
10
191.502
20
-196.443
11
191.574
21
-196.514
0
LINE
8
Black
10
191.574
20
-196.514
11
191.502
21
-196.586
0
LINE
8
Black
10
191.502
20
-196.586
11
191.431
21
-196.514
0
LINE
8
Black
10
191.431
20
-196.514
11
191.502
21
-196.443
0
LINE
8
Black
10
191.502
20
-196.443
11
191.502
21
-196.586
0
LINE
8
Black
10
194.502
20
-195.586
11
194.502
21
-197.086
0
LINE
8
Black
10
194.502
20
-195.657
11
194.645
21
-195.586
0
LINE
8
Black
10
194.645
20
-195.586
11
194.931
21
-195.586
0
LINE
8
Black
10
194.931
20
-195.586
11
195.074
21
-195.657
0
LINE
8
Black
10
195.074
20
-195.657
11
195.145
21
-195.729
0
LINE
8
Black
10
195.145
20
-195.729
11
195.216
21
-195.871
0
LINE
8
Black
10
195.216
20
-195.871
11
195.216
21
-196.3
0
LINE
8
Black
10
195.216
20
-196.3
11
195.145
21
-196.443
0
LINE
8
Black
10
195.145
20
-196.443
11
195.074
21
-196.514
0
LINE
8
Black
10
195.074
20
-196.514
11
194.931
21
-196.586
0
LINE
8
Black
10
194.931
20
-196.586
11
194.645
21
-196.586
0
LINE
8
Black
10
194.645
20
-196.586
11
194.502
21
-196.514
0
LINE
8
Black
10
196.502
20
-196.514
11
196.359
21
-196.586
0
LINE
8
Black
10
196.359
20
-196.586
11
196.074
21
-196.586
0
LINE
8
Black
10
196.074
20
-196.586
11
195.931
21
-196.514
0
LINE
8
Black
10
195.931
20
-196.514
11
195.859
21
-196.443
0
LINE
8
Black
10
195.859
20
-196.443
11
195.788
21
-196.3
0
LINE
8
Black
10
195.788
20
-196.3
11
195.788
21
-195.871
0
LINE
8
Black
10
195.788
20
-195.871
11
195.859
21
-195.729
0
LINE
8
Black
10
195.859
20
-195.729
11
195.931
21
-195.657
0
LINE
8
Black
10
195.931
20
-195.657
11
196.074
21
-195.586
0
LINE
8
Black
10
196.074
20
-195.586
11
196.359
21
-195.586
0
LINE
8
Black
10
196.359
20
-195.586
11
196.502
21
-195.657
0
LINE
8
Black
10
197.145
20
-196.586
11
197.145
21
-195.086
0
LINE
8
Black
10
197.145
20
-195.657
11
197.288
21
-195.586
0
LINE
8
Black
10
197.288
20
-195.586
11
197.574
21
-195.586
0
LINE
8
Black
10
197.574
20
-195.586
11
197.716
21
-195.657
0
LINE
8
Black
10
197.716
20
-195.657
11
197.788
21
-195.729
0
LINE
8
Black
10
197.788
20
-195.729
11
197.859
21
-195.871
0
LINE
8
Black
10
197.859
20
-195.871
11
197.859
21
-196.3
0
LINE
8
Black
10
197.859
20
-196.3
11
197.788
21
-196.443
0
LINE
8
Black
10
197.788
20
-196.443
11
197.716
21
-196.514
0
LINE
8
Black
10
197.716
20
-196.514
11
197.574
21
-196.586
0
LINE
8
Black
10
197.574
20
-196.586
11
197.288
21
-196.586
0
LINE
8
Black
10
197.288
20
-196.586
11
197.145
21
-196.514
0
LINE
8
Black
10
198.502
20
-195.586
11
198.502
21
-196.586
0
LINE
8
Black
10
198.502
20
-195.729
11
198.574
21
-195.657
0
LINE
8
Black
10
198.574
20
-195.657
11
198.716
21
-195.586
0
LINE
8
Black
10
198.716
20
-195.586
11
198.931
21
-195.586
0
LINE
8
Black
10
198.931
20
-195.586
11
199.074
21
-195.657
0
LINE
8
Black
10
199.074
20
-195.657
11
199.145
21
-195.8
0
LINE
8
Black
10
199.145
20
-195.8
11
199.145
21
-196.586
0
LINE
8
Black
10
200.431
20
-196.514
11
200.288
21
-196.586
0
LINE
8
Black
10
200.288
20
-196.586
11
200.002
21
-196.586
0
LINE
8
Black
10
200.002
20
-196.586
11
199.859
21
-196.514
0
LINE
8
Black
10
199.859
20
-196.514
11
199.788
21
-196.371
0
LINE
8
Black
10
199.788
20
-196.371
11
199.788
21
-195.8
0
LINE
8
Black
10
199.788
20
-195.8
11
199.859
21
-195.657
0
LINE
8
Black
10
199.859
20
-195.657
11
200.002
21
-195.586
0
LINE
8
Black
10
200.002
20
-195.586
11
200.288
21
-195.586
0
LINE
8
Black
10
200.288
20
-195.586
11
200.431
21
-195.657
0
LINE
8
Black
10
200.431
20
-195.657
11
200.502
21
-195.8
0
LINE
8
Black
10
200.502
20
-195.8
11
200.502
21
-195.943
0
LINE
8
Black
10
200.502
20
-195.943
11
199.788
21
-196.086
0
LINE
8
Black
10
201.002
20
-195.586
11
201.288
21
-196.586
0
LINE
8
Black
10
201.288
20
-196.586
11
201.574
21
-195.871
0
LINE
8
Black
10
201.574
20
-195.871
11
201.859
21
-196.586
0
LINE
8
Black
10
201.859
20
-196.586
11
202.145
21
-195.586
0
LINE
8
Black
10
204.502
20
-195.586
11
204.502
21
-196.586
0
LINE
8
Black
10
204.145
20
-195.014
11
203.788
21
-196.086
0
LINE
8
Black
10
203.788
20
-196.086
11
204.716
21
-196.086
0
LINE
8
Black
10
205.288
20
-196.443
11
205.359
21
-196.514
0
LINE
8
Black
10
205.359
20
-196.514
11
205.288
21
-196.586
0
LINE
8
Black
10
205.288
20
-196.586
11
205.216
21
-196.514
0
LINE
8
Black
10
205.216
20
-196.514
11
205.288
21
-196.443
0
LINE
8
Black
10
205.288
20
-196.443
11
205.288
21
-196.586
0
LINE
8
Black
10
206.288
20
-195.086
11
206.431
21
-195.086
0
LINE
8
Black
10
206.431
20
-195.086
11
206.574
21
-195.157
0
LINE
8
Black
10
206.574
20
-195.157
11
206.645
21
-195.229
0
LINE
8
Black
10
206.645
20
-195.229
11
206.716
21
-195.371
0
LINE
8
Black
10
206.716
20
-195.371
11
206.788
21
-195.657
0
LINE
8
Black
10
206.788
20
-195.657
11
206.788
21
-196.014
0
LINE
8
Black
10
206.788
20
-196.014
11
206.716
21
-196.3
0
LINE
8
Black
10
206.716
20
-196.3
11
206.645
21
-196.443
0
LINE
8
Black
10
206.645
20
-196.443
11
206.574
21
-196.514
0
LINE
8
Black
10
206.574
20
-196.514
11
206.431
21
-196.586
0
LINE
8
Black
10
206.431
20
-196.586
11
206.288
21
-196.586
0
LINE
8
Black
10
206.288
20
-196.586
11
206.145
21
-196.514
0
LINE
8
Black
10
206.145
20
-196.514
11
206.074
21
-196.443
0
LINE
8
Black
10
206.074
20
-196.443
11
206.002
21
-196.3
0
LINE
8
Black
10
206.002
20
-196.3
11
205.931
21
-196.014
0
LINE
8
Black
10
205.931
20
-196.014
11
205.931
21
-195.657
0
LINE
8
Black
10
205.931
20
-195.657
11
206.002
21
-195.371
0
LINE
8
Black
10
206.002
20
-195.371
11
206.074
21
-195.229
0
LINE
8
Black
10
206.074
20
-195.229
11
206.145
21
-195.157
0
LINE
8
Black
10
206.145
20
-195.157
11
206.288
21
-195.086
0
LINE
8
Black
10
207.431
20
-196.443
11
207.502
21
-196.514
0
LINE
8
Black
10
207.502
20
-196.514
11
207.431
21
-196.586
0
LINE
8
Black
10
207.431
20
-196.586
11
207.359
21
-196.514
0
LINE
8
Black
10
207.359
20
-196.514
11
207.431
21
-196.443
0
LINE
8
Black
10
207.431
20
-196.443
11
207.431
21
-196.586
0
LINE
8
Black
10
208.931
20
-196.586
11
208.074
21
-196.586
0
LINE
8
Black
10
208.502
20
-196.586
11
208.502
21
-195.086
0
LINE
8
Black
10
208.502
20
-195.086
11
208.359
21
-195.3
0
LINE
8
Black
10
208.359
20
-195.3
11
208.216
21
-195.443
0
LINE
8
Black
10
208.216
20
-195.443
11
208.074
21
-195.514
0
LINE
8
Black
10
209.574
20
-196.014
11
210.716
21
-196.014
0
LINE
8
Black
10
212.074
20
-195.586
11
212.074
21
-196.586
0
LINE
8
Black
10
211.716
20
-195.014
11
211.359
21
-196.086
0
LINE
8
Black
10
211.359
20
-196.086
11
212.288
21
-196.086
0
LINE
8
Black
10
212.859
20
-196.443
11
212.931
21
-196.514
0
LINE
8
Black
10
212.931
20
-196.514
11
212.859
21
-196.586
0
LINE
8
Black
10
212.859
20
-196.586
11
212.788
21
-196.514
0
LINE
8
Black
10
212.788
20
-196.514
11
212.859
21
-196.443
0
LINE
8
Black
10
212.859
20
-196.443
11
212.859
21
-196.586
0
LINE
8
Black
10
213.502
20
-195.229
11
213.574
21
-195.157
0
LINE
8
Black
10
213.574
20
-195.157
11
213.716
21
-195.086
0
LINE
8
Black
10
213.716
20
-195.086
11
214.074
21
-195.086
0
LINE
8
Black
10
214.074
20
-195.086
11
214.216
21
-195.157
0
LINE
8
Black
10
214.216
20
-195.157
11
214.288
21
-195.229
0
LINE
8
Black
10
214.288
20
-195.229
11
214.359
21
-195.371
0
LINE
8
Black
10
214.359
20
-195.371
11
214.359
21
-195.514
0
LINE
8
Black
10
214.359
20
-195.514
11
214.288
21
-195.729
0
LINE
8
Black
10
214.288
20
-195.729
11
213.431
21
-196.586
0
LINE
8
Black
10
213.431
20
-196.586
11
214.359
21
-196.586
0
LINE
8
Black
10
215.288
20
-195.086
11
215.431
21
-195.086
0
LINE
8
Black
10
215.431
20
-195.086
11
215.574
21
-195.157
0
LINE
8
Black
10
215.574
20
-195.157
11
215.645
21
-195.229
0
LINE
8
Black
10
215.645
20
-195.229
11
215.716
21
-195.371
0
LINE
8
Black
10
215.716
20
-195.371
11
215.788
21
-195.657
0
LINE
8
Black
10
215.788
20
-195.657
11
215.788
21
-196.014
0
LINE
8
Black
10
215.788
20
-196.014
11
215.716
21
-196.3
0
LINE
8
Black
10
215.716
20
-196.3
11
215.645
21
-196.443
0
LINE
8
Black
10
215.645
20
-196.443
11
215.574
21
-196.514
0
LINE
8
Black
10
215.574
20
-196.514
11
215.431
21
-196.586
0
LINE
8
Black
10
215.431
20
-196.586
11
215.288
21
-196.586
0
LINE
8
Black
10
215.288
20
-196.586
11
215.145
21
-196.514
0
LINE
8
Black
10
215.145
20
-196.514
11
215.074
21
-196.443
0
LINE
8
Black
10
215.074
20
-196.443
11
215.002
21
-196.3
0
LINE
8
Black
10
215.002
20
-196.3
11
214.931
21
-196.014
0
LINE
8
Black
10
214.931
20
-196.014
11
214.931
21
-195.657
0
LINE
8
Black
10
214.931
20
-195.657
11
215.002
21
-195.371
0
LINE
8
Black
10
215.002
20
-195.371
11
215.074
21
-195.229
0
LINE
8
Black
10
215.074
20
-195.229
11
215.145
21
-195.157
0
LINE
8
Black
10
215.145
20
-195.157
11
215.288
21
-195.086
0
LINE
8
Black
10
217.216
20
-196.586
11
216.359
21
-196.586
0
LINE
8
Black
10
216.788
20
-196.586
11
216.788
21
-195.086
0
LINE
8
Black
10
216.788
20
-195.086
11
216.645
21
-195.3
0
LINE
8
Black
10
216.645
20
-195.3
11
216.502
21
-195.443
0
LINE
8
Black
10
216.502
20
-195.443
11
216.359
21
-195.514
0
LINE
8
Black
10
218.502
20
-195.086
11
218.216
21
-195.086
0
LINE
8
Black
10
218.216
20
-195.086
11
218.074
21
-195.157
0
LINE
8
Black
10
218.074
20
-195.157
11
218.002
21
-195.229
0
LINE
8
Black
10
218.002
20
-195.229
11
217.859
21
-195.443
0
LINE
8
Black
10
217.859
20
-195.443
11
217.788
21
-195.729
0
LINE
8
Black
10
217.788
20
-195.729
11
217.788
21
-196.3
0
LINE
8
Black
10
217.788
20
-196.3
11
217.859
21
-196.443
0
LINE
8
Black
10
217.859
20
-196.443
11
217.931
21
-196.514
0
LINE
8
Black
10
217.931
20
-196.514
11
218.074
21
-196.586
0
LINE
8
Black
10
218.074
20
-196.586
11
218.359
21
-196.586
0
LINE
8
Black
10
218.359
20
-196.586
11
218.502
21
-196.514
0
LINE
8
Black
10
218.502
20
-196.514
11
218.574
21
-196.443
0
LINE
8
Black
10
218.574
20
-196.443
11
218.645
21
-196.3
0
LINE
8
Black
10
218.645
20
-196.3
11
218.645
21
-195.943
0
LINE
8
Black
10
218.645
20
-195.943
11
218.574
21
-195.8
0
LINE
8
Black
10
218.574
20
-195.8
11
218.502
21
-195.729
0
LINE
8
Black
10
218.502
20
-195.729
11
218.359
21
-195.657
0
LINE
8
Black
10
218.359
20
-195.657
11
218.074
21
-195.657
0
LINE
8
Black
10
218.074
20
-195.657
11
217.931
21
-195.729
0
LINE
8
Black
10
217.931
20
-195.729
11
217.859
21
-195.8
0
LINE
8
Black
10
217.859
20
-195.8
11
217.788
21
-195.943
0
LINE
8
Black
10
219.574
20
-195.086
11
219.716
21
-195.086
0
LINE
8
Black
10
219.716
20
-195.086
11
219.859
21
-195.157
0
LINE
8
Black
10
219.859
20
-195.157
11
219.931
21
-195.229
0
LINE
8
Black
10
219.931
20
-195.229
11
220.002
21
-195.371
0
LINE
8
Black
10
220.002
20
-195.371
11
220.074
21
-195.657
0
LINE
8
Black
10
220.074
20
-195.657
11
220.074
21
-196.014
0
LINE
8
Black
10
220.074
20
-196.014
11
220.002
21
-196.3
0
LINE
8
Black
10
220.002
20
-196.3
11
219.931
21
-196.443
0
LINE
8
Black
10
219.931
20
-196.443
11
219.859
21
-196.514
0
LINE
8
Black
10
219.859
20
-196.514
11
219.716
21
-196.586
0
LINE
8
Black
10
219.716
20
-196.586
11
219.574
21
-196.586
0
LINE
8
Black
10
219.574
20
-196.586
11
219.431
21
-196.514
0
LINE
8
Black
10
219.431
20
-196.514
11
219.359
21
-196.443
0
LINE
8
Black
10
219.359
20
-196.443
11
219.288
21
-196.3
0
LINE
8
Black
10
219.288
20
-196.3
11
219.216
21
-196.014
0
LINE
8
Black
10
219.216
20
-196.014
11
219.216
21
-195.657
0
LINE
8
Black
10
219.216
20
-195.657
11
219.288
21
-195.371
0
LINE
8
Black
10
219.288
20
-195.371
11
219.359
21
-195.229
0
LINE
8
Black
10
219.359
20
-195.229
11
219.431
21
-195.157
0
LINE
8
Black
10
219.431
20
-195.157
11
219.574
21
-195.086
0
LINE
8
Black
10
220.645
20
-195.229
11
220.716
21
-195.157
0
LINE
8
Black
10
220.716
20
-195.157
11
220.859
21
-195.086
0
LINE
8
Black
10
220.859
20
-195.086
11
221.216
21
-195.086
0
LINE
8
Black
10
221.216
20
-195.086
11
221.359
21
-195.157
0
LINE
8
Black
10
221.359
20
-195.157
11
221.431
21
-195.229
0
LINE
8
Black
10
221.431
20
-195.229
11
221.502
21
-195.371
0
LINE
8
Black
10
221.502
20
-195.371
11
221.502
21
-195.514
0
LINE
8
Black
10
221.502
20
-195.514
11
221.431
21
-195.729
0
LINE
8
Black
10
221.431
20
-195.729
11
220.574
21
-196.586
0
LINE
8
Black
10
220.574
20
-196.586
11
221.502
21
-196.586
0
LINE
8
Black
10
222.931
20
-196.586
11
222.074
21
-196.586
0
LINE
8
Black
10
222.502
20
-196.586
11
222.502
21
-195.086
0
LINE
8
Black
10
222.502
20
-195.086
11
222.359
21
-195.3
0
LINE
8
Black
10
222.359
20
-195.3
11
222.216
21
-195.443
0
LINE
8
Black
10
222.216
20
-195.443
11
222.074
21
-195.514
0
LINE
8
Black
10
223.502
20
-195.229
11
223.574
21
-195.157
0
LINE
8
Black
10
223.574
20
-195.157
11
223.716
21
-195.086
0
LINE
8
Black
10
223.716
20
-195.086
11
224.074
21
-195.086
0
LINE
8
Black
10
224.074
20
-195.086
11
224.216
21
-195.157
0
LINE
8
Black
10
224.216
20
-195.157
11
224.288
21
-195.229
0
LINE
8
Black
10
224.288
20
-195.229
11
224.359
21
-195.371
0
LINE
8
Black
10
224.359
20
-195.371
11
224.359
21
-195.514
0
LINE
8
Black
10
224.359
20
-195.514
11
224.288
21
-195.729
0
LINE
8
Black
10
224.288
20
-195.729
11
223.431
21
-196.586
0
LINE
8
Black
10
223.431
20
-196.586
11
224.359
21
-196.586
0
LINE
8
Black
10
225.288
20
-195.086
11
225.431
21
-195.086
0
LINE
8
Black
10
225.431
20
-195.086
11
225.574
21
-195.157
0
LINE
8
Black
10
225.574
20
-195.157
11
225.645
21
-195.229
0
LINE
8
Black
10
225.645
20
-195.229
11
225.716
21
-195.371
0
LINE
8
Black
10
225.716
20
-195.371
11
225.788
21
-195.657
0
LINE
8
Black
10
225.788
20
-195.657
11
225.788
21
-196.014
0
LINE
8
Black
10
225.788
20
-196.014
11
225.716
21
-196.3
0
LINE
8
Black
10
225.716
20
-196.3
11
225.645
21
-196.443
0
LINE
8
Black
10
225.645
20
-196.443
11
225.574
21
-196.514
0
LINE
8
Black
10
225.574
20
-196.514
11
225.431
21
-196.586
0
LINE
8
Black
10
225.431
20
-196.586
11
225.288
21
-196.586
0
LINE
8
Black
10
225.288
20
-196.586
11
225.145
21
-196.514
0
LINE
8
Black
10
225.145
20
-196.514
11
225.074
21
-196.443
0
LINE
8
Black
10
225.074
20
-196.443
11
225.002
21
-196.3
0
LINE
8
Black
10
225.002
20
-196.3
11
224.931
21
-196.014
0
LINE
8
Black
10
224.931
20
-196.014
11
224.931
21
-195.657
0
LINE
8
Black
10
224.931
20
-195.657
11
225.002
21
-195.371
0
LINE
8
Black
10
225.002
20
-195.371
11
225.074
21
-195.229
0
LINE
8
Black
10
225.074
20
-195.229
11
225.145
21
-195.157
0
LINE
8
Black
10
225.145
20
-195.157
11
225.288
21
-195.086
0
LINE
8
Black
10
226.645
20
-195.729
11
226.502
21
-195.657
0
LINE
8
Black
10
226.502
20
-195.657
11
226.431
21
-195.586
0
LINE
8
Black
10
226.431
20
-195.586
11
226.359
21
-195.443
0
LINE
8
Black
10
226.359
20
-195.443
11
226.359
21
-195.371
0
LINE
8
Black
10
226.359
20
-195.371
11
226.431
21
-195.229
0
LINE
8
Black
10
226.431
20
-195.229
11
226.502
21
-195.157
0
LINE
8
Black
10
226.502
20
-195.157
11
226.645
21
-195.086
0
LINE
8
Black
10
226.645
20
-195.086
11
226.931
21
-195.086
0
LINE
8
Black
10
226.931
20
-195.086
11
227.074
21
-195.157
0
LINE
8
Black
10
227.074
20
-195.157
11
227.145
21
-195.229
0
LINE
8
Black
10
227.145
20
-195.229
11
227.216
21
-195.371
0
LINE
8
Black
10
227.216
20
-195.371
11
227.216
21
-195.443
0
LINE
8
Black
10
227.216
20
-195.443
11
227.145
21
-195.586
0
LINE
8
Black
10
227.145
20
-195.586
11
227.074
21
-195.657
0
LINE
8
Black
10
227.074
20
-195.657
11
226.931
21
-195.729
0
LINE
8
Black
10
226.931
20
-195.729
11
226.645
21
-195.729
0
LINE
8
Black
10
226.645
20
-195.729
11
226.502
21
-195.8
0
LINE
8
Black
10
226.502
20
-195.8
11
226.431
21
-195.871
0
LINE
8
Black
10
226.431
20
-195.871
11
226.359
21
-196.014
0
LINE
8
Black
10
226.359
20
-196.014
11
226.359
21
-196.3
0
LINE
8
Black
10
226.359
20
-196.3
11
226.431
21
-196.443
0
LINE
8
Black
10
226.431
20
-196.443
11
226.502
21
-196.514
0
LINE
8
Black
10
226.502
20
-196.514
11
226.645
21
-196.586
0
LINE
8
Black
10
226.645
20
-196.586
11
226.931
21
-196.586
0
LINE
8
Black
10
226.931
20
-196.586
11
227.074
21
-196.514
0
LINE
8
Black
10
227.074
20
-196.514
11
227.145
21
-196.443
0
LINE
8
Black
10
227.145
20
-196.443
11
227.216
21
-196.3
0
LINE
8
Black
10
227.216
20
-196.3
11
227.216
21
-196.014
0
LINE
8
Black
10
227.216
20
-196.014
11
227.145
21
-195.871
0
LINE
8
Black
10
227.145
20
-195.871
11
227.074
21
-195.8
0
LINE
8
Black
10
227.074
20
-195.8
11
226.931
21
-195.729
0
LINE
8
Black
10
228.502
20
-195.586
11
228.502
21
-196.586
0
LINE
8
Black
10
228.145
20
-195.014
11
227.788
21
-196.086
0
LINE
8
Black
10
227.788
20
-196.086
11
228.716
21
-196.086
0
LINE
8
Black
10
229.931
20
-195.086
11
229.645
21
-195.086
0
LINE
8
Black
10
229.645
20
-195.086
11
229.502
21
-195.157
0
LINE
8
Black
10
229.502
20
-195.157
11
229.431
21
-195.229
0
LINE
8
Black
10
229.431
20
-195.229
11
229.288
21
-195.443
0
LINE
8
Black
10
229.288
20
-195.443
11
229.216
21
-195.729
0
LINE
8
Black
10
229.216
20
-195.729
11
229.216
21
-196.3
0
LINE
8
Black
10
229.216
20
-196.3
11
229.288
21
-196.443
0
LINE
8
Black
10
229.288
20
-196.443
11
229.359
21
-196.514
0
LINE
8
Black
10
229.359
20
-196.514
11
229.502
21
-196.586
0
LINE
8
Black
10
229.502
20
-196.586
11
229.788
21
-196.586
0
LINE
8
Black
10
229.788
20
-196.586
11
229.931
21
-196.514
0
LINE
8
Black
10
229.931
20
-196.514
11
230.002
21
-196.443
0
LINE
8
Black
10
230.002
20
-196.443
11
230.074
21
-196.3
0
LINE
8
Black
10
230.074
20
-196.3
11
230.074
21
-195.943
0
LINE
8
Black
10
230.074
20
-195.943
11
230.002
21
-195.8
0
LINE
8
Black
10
230.002
20
-195.8
11
229.931
21
-195.729
0
LINE
8
Black
10
229.931
20
-195.729
11
229.788
21
-195.657
0
LINE
8
Black
10
229.788
20
-195.657
11
229.502
21
-195.657
0
LINE
8
Black
10
229.502
20
-195.657
11
229.359
21
-195.729
0
LINE
8
Black
10
229.359
20
-195.729
11
229.288
21
-195.8
0
LINE
8
Black
10
229.288
20
-195.8
11
229.216
21
-195.943
0
LINE
8
Black
10
230.716
20
-196.014
11
231.859
21
-196.014
0
LINE
8
Black
10
231.288
20
-196.586
11
231.288
21
-195.443
0
LINE
8
Black
10
233.216
20
-195.086
11
232.931
21
-195.086
0
LINE
8
Black
10
232.931
20
-195.086
11
232.788
21
-195.157
0
LINE
8
Black
10
232.788
20
-195.157
11
232.716
21
-195.229
0
LINE
8
Black
10
232.716
20
-195.229
11
232.574
21
-195.443
0
LINE
8
Black
10
232.574
20
-195.443
11
232.502
21
-195.729
0
LINE
8
Black
10
232.502
20
-195.729
11
232.502
21
-196.3
0
LINE
8
Black
10
232.502
20
-196.3
11
232.574
21
-196.443
0
LINE
8
Black
10
232.574
20
-196.443
11
232.645
21
-196.514
0
LINE
8
Black
10
232.645
20
-196.514
11
232.788
21
-196.586
0
LINE
8
Black
10
232.788
20
-196.586
11
233.074
21
-196.586
0
LINE
8
Black
10
233.074
20
-196.586
11
233.216
21
-196.514
0
LINE
8
Black
10
233.216
20
-196.514
11
233.288
21
-196.443
0
LINE
8
Black
10
233.288
20
-196.443
11
233.359
21
-196.3
0
LINE
8
Black
10
233.359
20
-196.3
11
233.359
21
-195.943
0
LINE
8
Black
10
233.359
20
-195.943
11
233.288
21
-195.8
0
LINE
8
Black
10
233.288
20
-195.8
11
233.216
21
-195.729
0
LINE
8
Black
10
233.216
20
-195.729
11
233.074
21
-195.657
0
LINE
8
Black
10
233.074
20
-195.657
11
232.788
21
-195.657
0
LINE
8
Black
10
232.788
20
-195.657
11
232.645
21
-195.729
0
LINE
8
Black
10
232.645
20
-195.729
11
232.574
21
-195.8
0
LINE
8
Black
10
232.574
20
-195.8
11
232.502
21
-195.943
0
LINE
8
Black
10
234.788
20
-196.586
11
233.931
21
-196.586
0
LINE
8
Black
10
234.359
20
-196.586
11
234.359
21
-195.086
0
LINE
8
Black
10
234.359
20
-195.086
11
234.216
21
-195.3
0
LINE
8
Black
10
234.216
20
-195.3
11
234.074
21
-195.443
0
LINE
8
Black
10
234.074
20
-195.443
11
233.931
21
-195.514
0
LINE
8
Black
10
235.502
20
-196.586
11
235.788
21
-196.586
0
LINE
8
Black
10
235.788
20
-196.586
11
235.931
21
-196.514
0
LINE
8
Black
10
235.931
20
-196.514
11
236.002
21
-196.443
0
LINE
8
Black
10
236.002
20
-196.443
11
236.145
21
-196.229
0
LINE
8
Black
10
236.145
20
-196.229
11
236.216
21
-195.943
0
LINE
8
Black
10
236.216
20
-195.943
11
236.216
21
-195.371
0
LINE
8
Black
10
236.216
20
-195.371
11
236.145
21
-195.229
0
LINE
8
Black
10
236.145
20
-195.229
11
236.074
21
-195.157
0
LINE
8
Black
10
236.074
20
-195.157
11
235.931
21
-195.086
0
LINE
8
Black
10
235.931
20
-195.086
11
235.645
21
-195.086
0
LINE
8
Black
10
235.645
20
-195.086
11
235.502
21
-195.157
0
LINE
8
Black
10
235.502
20
-195.157
11
235.431
21
-195.229
0
LINE
8
Black
10
235.431
20
-195.229
11
235.359
21
-195.371
0
LINE
8
Black
10
235.359
20
-195.371
11
235.359
21
-195.729
0
LINE
8
Black
10
235.359
20
-195.729
11
235.431
21
-195.871
0
LINE
8
Black
10
235.431
20
-195.871
11
235.502
21
-195.943
0
LINE
8
Black
10
235.502
20
-195.943
11
235.645
21
-196.014
0
LINE
8
Black
10
235.645
20
-196.014
11
235.931
21
-196.014
0
LINE
8
Black
10
235.931
20
-196.014
11
236.074
21
-195.943
0
LINE
8
Black
10
236.074
20
-195.943
11
236.145
21
-195.871
0
LINE
8
Black
10
236.145
20
-195.871
11
236.216
21
-195.729
0
LINE
8
Black
10
237.574
20
-195.086
11
236.859
21
-195.086
0
LINE
8
Black
10
236.859
20
-195.086
11
236.788
21
-195.8
0
LINE
8
Black
10
236.788
20
-195.8
11
236.859
21
-195.729
0
LINE
8
Black
10
236.859
20
-195.729
11
237.002
21
-195.657
0
LINE
8
Black
10
237.002
20
-195.657
11
237.359
21
-195.657
0
LINE
8
Black
10
237.359
20
-195.657
11
237.502
21
-195.729
0
LINE
8
Black
10
237.502
20
-195.729
11
237.574
21
-195.8
0
LINE
8
Black
10
237.574
20
-195.8
11
237.645
21
-195.943
0
LINE
8
Black
10
237.645
20
-195.943
11
237.645
21
-196.3
0
LINE
8
Black
10
237.645
20
-196.3
11
237.574
21
-196.443
0
LINE
8
Black
10
237.574
20
-196.443
11
237.502
21
-196.514
0
LINE
8
Black
10
237.502
20
-196.514
11
237.359
21
-196.586
0
LINE
8
Black
10
237.359
20
-196.586
11
237.002
21
-196.586
0
LINE
8
Black
10
237.002
20
-196.586
11
236.859
21
-196.514
0
LINE
8
Black
10
236.859
20
-196.514
11
236.788
21
-196.443
0
LINE
8
Black
10
238.145
20
-195.086
11
239.074
21
-195.086
0
LINE
8
Black
10
239.074
20
-195.086
11
238.574
21
-195.657
0
LINE
8
Black
10
238.574
20
-195.657
11
238.788
21
-195.657
0
LINE
8
Black
10
238.788
20
-195.657
11
238.931
21
-195.729
0
LINE
8
Black
10
238.931
20
-195.729
11
239.002
21
-195.8
0
LINE
8
Black
10
239.002
20
-195.8
11
239.074
21
-195.943
0
LINE
8
Black
10
239.074
20
-195.943
11
239.074
21
-196.3
0
LINE
8
Black
10
239.074
20
-196.3
11
239.002
21
-196.443
0
LINE
8
Black
10
239.002
20
-196.443
11
238.931
21
-196.514
0
LINE
8
Black
10
238.931
20
-196.514
11
238.788
21
-196.586
0
LINE
8
Black
10
238.788
20
-196.586
11
238.359
21
-196.586
0
LINE
8
Black
10
238.359
20
-196.586
11
238.216
21
-196.514
0
LINE
8
Black
10
238.216
20
-196.514
11
238.145
21
-196.443
0
LINE
8
Black
10
239.931
20
-195.729
11
239.788
21
-195.657
0
LINE
8
Black
10
239.788
20
-195.657
11
239.716
21
-195.586
0
LINE
8
Black
10
239.716
20
-195.586
11
239.645
21
-195.443
0
LINE
8
Black
10
239.645
20
-195.443
11
239.645
21
-195.371
0
LINE
8
Black
10
239.645
20
-195.371
11
239.716
21
-195.229
0
LINE
8
Black
10
239.716
20
-195.229
11
239.788
21
-195.157
0
LINE
8
Black
10
239.788
20
-195.157
11
239.931
21
-195.086
0
LINE
8
Black
10
239.931
20
-195.086
11
240.216
21
-195.086
0
LINE
8
Black
10
240.216
20
-195.086
11
240.359
21
-195.157
0
LINE
8
Black
10
240.359
20
-195.157
11
240.431
21
-195.229
0
LINE
8
Black
10
240.431
20
-195.229
11
240.502
21
-195.371
0
LINE
8
Black
10
240.502
20
-195.371
11
240.502
21
-195.443
0
LINE
8
Black
10
240.502
20
-195.443
11
240.431
21
-195.586
0
LINE
8
Black
10
240.431
20
-195.586
11
240.359
21
-195.657
0
LINE
8
Black
10
240.359
20
-195.657
11
240.216
21
-195.729
0
LINE
8
Black
10
240.216
20
-195.729
11
239.931
21
-195.729
0
LINE
8
Black
10
239.931
20
-195.729
11
239.788
21
-195.8
0
LINE
8
Black
10
239.788
20
-195.8
11
239.716
21
-195.871
0
LINE
8
Black
10
239.716
20
-195.871
11
239.645
21
-196.014
0
LINE
8
Black
10
239.645
20
-196.014
11
239.645
21
-196.3
0
LINE
8
Black
10
239.645
20
-196.3
11
239.716
21
-196.443
0
LINE
8
Black
10
239.716
20
-196.443
11
239.788
21
-196.514
0
LINE
8
Black
10
239.788
20
-196.514
11
239.931
21
-196.586
0
LINE
8
Black
10
239.931
20
-196.586
11
240.216
21
-196.586
0
LINE
8
Black
10
240.216
20
-196.586
11
240.359
21
-196.514
0
LINE
8
Black
10
240.359
20
-196.514
11
240.431
21
-196.443
0
LINE
8
Black
10
240.431
20
-196.443
11
240.502
21
-196.3
0
LINE
8
Black
10
240.502
20
-196.3
11
240.502
21
-196.014
0
LINE
8
Black
10
240.502
20
-196.014
11
240.431
21
-195.871
0
LINE
8
Black
10
240.431
20
-195.871
11
240.359
21
-195.8
0
LINE
8
Black
10
240.359
20
-195.8
11
240.216
21
-195.729
0
LINE
8
Black
10
237.931
20
-194.827
11
240.788
21
-194.827
0
LINE
8
Black
10
241.788
20
-195.586
11
241.788
21
-196.586
0
LINE
8
Black
10
241.145
20
-195.586
11
241.145
21
-196.371
0
LINE
8
Black
10
241.145
20
-196.371
11
241.216
21
-196.514
0
LINE
8
Black
10
241.216
20
-196.514
11
241.359
21
-196.586
0
LINE
8
Black
10
241.359
20
-196.586
11
241.574
21
-196.586
0
LINE
8
Black
10
241.574
20
-196.586
11
241.716
21
-196.514
0
LINE
8
Black
10
241.716
20
-196.514
11
241.788
21
-196.443
0
LINE
8
Black
10
242.502
20
-196.586
11
242.502
21
-195.086
0
LINE
8
Black
10
242.502
20
-195.657
11
242.645
21
-195.586
0
LINE
8
Black
10
242.645
20
-195.586
11
242.931
21
-195.586
0
LINE
8
Black
10
242.931
20
-195.586
11
243.074
21
-195.657
0
LINE
8
Black
10
243.074
20
-195.657
11
243.145
21
-195.729
0
LINE
8
Black
10
243.145
20
-195.729
11
243.216
21
-195.871
0
LINE
8
Black
10
243.216
20
-195.871
11
243.216
21
-196.3
0
LINE
8
Black
10
243.216
20
-196.3
11
243.145
21
-196.443
0
LINE
8
Black
10
243.145
20
-196.443
11
243.074
21
-196.514
0
LINE
8
Black
10
243.074
20
-196.514
11
242.931
21
-196.586
0
LINE
8
Black
10
242.931
20
-196.586
11
242.645
21
-196.586
0
LINE
8
Black
10
242.645
20
-196.586
11
242.502
21
-196.514
0
LINE
8
Black
10
244.502
20
-195.586
11
244.502
21
-196.586
0
LINE
8
Black
10
243.859
20
-195.586
11
243.859
21
-196.371
0
LINE
8
Black
10
243.859
20
-196.371
11
243.931
21
-196.514
0
LINE
8
Black
10
243.931
20
-196.514
11
244.074
21
-196.586
0
LINE
8
Black
10
244.074
20
-196.586
11
244.288
21
-196.586
0
LINE
8
Black
10
244.288
20
-196.586
11
244.431
21
-196.514
0
LINE
8
Black
10
244.431
20
-196.514
11
244.502
21
-196.443
0
LINE
8
Black
10
245.216
20
-195.586
11
245.216
21
-196.586
0
LINE
8
Black
10
245.216
20
-195.729
11
245.288
21
-195.657
0
LINE
8
Black
10
245.288
20
-195.657
11
245.431
21
-195.586
0
LINE
8
Black
10
245.431
20
-195.586
11
245.645
21
-195.586
0
LINE
8
Black
10
245.645
20
-195.586
11
245.788
21
-195.657
0
LINE
8
Black
10
245.788
20
-195.657
11
245.859
21
-195.8
0
LINE
8
Black
10
245.859
20
-195.8
11
245.859
21
-196.586
0
LINE
8
Black
10
246.359
20
-195.586
11
246.931
21
-195.586
0
LINE
8
Black
10
246.574
20
-195.086
11
246.574
21
-196.371
0
LINE
8
Black
10
246.574
20
-196.371
11
246.645
21
-196.514
0
LINE
8
Black
10
246.645
20
-196.514
11
246.788
21
-196.586
0
LINE
8
Black
10
246.788
20
-196.586
11
246.931
21
-196.586
0
LINE
8
Black
10
248.074
20
-195.586
11
248.074
21
-196.586
0
LINE
8
Black
10
247.431
20
-195.586
11
247.431
21
-196.371
0
LINE
8
Black
10
247.431
20
-196.371
11
247.502
21
-196.514
0
LINE
8
Black
10
247.502
20
-196.514
11
247.645
21
-196.586
0
LINE
8
Black
10
247.645
20
-196.586
11
247.859
21
-196.586
0
LINE
8
Black
10
247.859
20
-196.586
11
248.002
21
-196.514
0
LINE
8
Black
10
248.002
20
-196.514
11
248.074
21
-196.443
0
LINE
8
Black
10
249.574
20
-196.586
11
248.716
21
-196.586
0
LINE
8
Black
10
249.145
20
-196.586
11
249.145
21
-195.086
0
LINE
8
Black
10
249.145
20
-195.086
11
249.002
21
-195.3
0
LINE
8
Black
10
249.002
20
-195.3
11
248.859
21
-195.443
0
LINE
8
Black
10
248.859
20
-195.443
11
248.716
21
-195.514
0
LINE
8
Black
10
250.931
20
-195.086
11
250.216
21
-195.086
0
LINE
8
Black
10
250.216
20
-195.086
11
250.145
21
-195.8
0
LINE
8
Black
10
250.145
20
-195.8
11
250.216
21
-195.729
0
LINE
8
Black
10
250.216
20
-195.729
11
250.359
21
-195.657
0
LINE
8
Black
10
250.359
20
-195.657
11
250.716
21
-195.657
0
LINE
8
Black
10
250.716
20
-195.657
11
250.859
21
-195.729
0
LINE
8
Black
10
250.859
20
-195.729
11
250.931
21
-195.8
0
LINE
8
Black
10
250.931
20
-195.8
11
251.002
21
-195.943
0
LINE
8
Black
10
251.002
20
-195.943
11
251.002
21
-196.3
0
LINE
8
Black
10
251.002
20
-196.3
11
250.931
21
-196.443
0
LINE
8
Black
10
250.931
20
-196.443
11
250.859
21
-196.514
0
LINE
8
Black
10
250.859
20
-196.514
11
250.716
21
-196.586
0
LINE
8
Black
10
250.716
20
-196.586
11
250.359
21
-196.586
0
LINE
8
Black
10
250.359
20
-196.586
11
250.216
21
-196.514
0
LINE
8
Black
10
250.216
20
-196.514
11
250.145
21
-196.443
0
LINE
8
Black
10
251.645
20
-196.443
11
251.716
21
-196.514
0
LINE
8
Black
10
251.716
20
-196.514
11
251.645
21
-196.586
0
LINE
8
Black
10
251.645
20
-196.586
11
251.574
21
-196.514
0
LINE
8
Black
10
251.574
20
-196.514
11
251.645
21
-196.443
0
LINE
8
Black
10
251.645
20
-196.443
11
251.645
21
-196.586
0
LINE
8
Black
10
252.645
20
-195.086
11
252.788
21
-195.086
0
LINE
8
Black
10
252.788
20
-195.086
11
252.931
21
-195.157
0
LINE
8
Black
10
252.931
20
-195.157
11
253.002
21
-195.229
0
LINE
8
Black
10
253.002
20
-195.229
11
253.074
21
-195.371
0
LINE
8
Black
10
253.074
20
-195.371
11
253.145
21
-195.657
0
LINE
8
Black
10
253.145
20
-195.657
11
253.145
21
-196.014
0
LINE
8
Black
10
253.145
20
-196.014
11
253.074
21
-196.3
0
LINE
8
Black
10
253.074
20
-196.3
11
253.002
21
-196.443
0
LINE
8
Black
10
253.002
20
-196.443
11
252.931
21
-196.514
0
LINE
8
Black
10
252.931
20
-196.514
11
252.788
21
-196.586
0
LINE
8
Black
10
252.788
20
-196.586
11
252.645
21
-196.586
0
LINE
8
Black
10
252.645
20
-196.586
11
252.502
21
-196.514
0
LINE
8
Black
10
252.502
20
-196.514
11
252.431
21
-196.443
0
LINE
8
Black
10
252.431
20
-196.443
11
252.359
21
-196.3
0
LINE
8
Black
10
252.359
20
-196.3
11
252.288
21
-196.014
0
LINE
8
Black
10
252.288
20
-196.014
11
252.288
21
-195.657
0
LINE
8
Black
10
252.288
20
-195.657
11
252.359
21
-195.371
0
LINE
8
Black
10
252.359
20
-195.371
11
252.431
21
-195.229
0
LINE
8
Black
10
252.431
20
-195.229
11
252.502
21
-195.157
0
LINE
8
Black
10
252.502
20
-195.157
11
252.645
21
-195.086
0
LINE
8
Black
10
254.431
20
-195.586
11
254.431
21
-196.586
0
LINE
8
Black
10
254.074
20
-195.014
11
253.716
21
-196.086
0
LINE
8
Black
10
253.716
20
-196.086
11
254.645
21
-196.086
0
LINE
8
Black
10
255.216
20
-196.443
11
255.288
21
-196.514
0
LINE
8
Black
10
255.288
20
-196.514
11
255.216
21
-196.586
0
LINE
8
Black
10
255.216
20
-196.586
11
255.145
21
-196.514
0
LINE
8
Black
10
255.145
20
-196.514
11
255.216
21
-196.443
0
LINE
8
Black
10
255.216
20
-196.443
11
255.216
21
-196.586
0
LINE
8
Black
10
256.716
20
-196.586
11
255.859
21
-196.586
0
LINE
8
Black
10
256.288
20
-196.586
11
256.288
21
-195.086
0
LINE
8
Black
10
256.288
20
-195.086
11
256.145
21
-195.3
0
LINE
8
Black
10
256.145
20
-195.3
11
256.002
21
-195.443
0
LINE
8
Black
10
256.002
20
-195.443
11
255.859
21
-195.514
0
LINE
8
Black
10
257.359
20
-196.014
11
258.502
21
-196.014
0
LINE
8
Black
10
259.145
20
-196.514
11
259.288
21
-196.586
0
LINE
8
Black
10
259.288
20
-196.586
11
259.574
21
-196.586
0
LINE
8
Black
10
259.574
20
-196.586
11
259.716
21
-196.514
0
LINE
8
Black
10
259.716
20
-196.514
11
259.788
21
-196.371
0
LINE
8
Black
10
259.788
20
-196.371
11
259.788
21
-196.3
0
LINE
8
Black
10
259.788
20
-196.3
11
259.716
21
-196.157
0
LINE
8
Black
10
259.716
20
-196.157
11
259.574
21
-196.086
0
LINE
8
Black
10
259.574
20
-196.086
11
259.359
21
-196.086
0
LINE
8
Black
10
259.359
20
-196.086
11
259.216
21
-196.014
0
LINE
8
Black
10
259.216
20
-196.014
11
259.145
21
-195.871
0
LINE
8
Black
10
259.145
20
-195.871
11
259.145
21
-195.8
0
LINE
8
Black
10
259.145
20
-195.8
11
259.216
21
-195.657
0
LINE
8
Black
10
259.216
20
-195.657
11
259.359
21
-195.586
0
LINE
8
Black
10
259.359
20
-195.586
11
259.574
21
-195.586
0
LINE
8
Black
10
259.574
20
-195.586
11
259.716
21
-195.657
0
LINE
8
Black
10
260.216
20
-195.586
11
260.788
21
-195.586
0
LINE
8
Black
10
260.431
20
-195.086
11
260.431
21
-196.371
0
LINE
8
Black
10
260.431
20
-196.371
11
260.502
21
-196.514
0
LINE
8
Black
10
260.502
20
-196.514
11
260.645
21
-196.586
0
LINE
8
Black
10
260.645
20
-196.586
11
260.788
21
-196.586
0
LINE
8
Black
10
261.931
20
-196.586
11
261.931
21
-195.8
0
LINE
8
Black
10
261.931
20
-195.8
11
261.859
21
-195.657
0
LINE
8
Black
10
261.859
20
-195.657
11
261.716
21
-195.586
0
LINE
8
Black
10
261.716
20
-195.586
11
261.431
21
-195.586
0
LINE
8
Black
10
261.431
20
-195.586
11
261.288
21
-195.657
0
LINE
8
Black
10
261.931
20
-196.514
11
261.788
21
-196.586
0
LINE
8
Black
10
261.788
20
-196.586
11
261.431
21
-196.586
0
LINE
8
Black
10
261.431
20
-196.586
11
261.288
21
-196.514
0
LINE
8
Black
10
261.288
20
-196.514
11
261.216
21
-196.371
0
LINE
8
Black
10
261.216
20
-196.371
11
261.216
21
-196.229
0
LINE
8
Black
10
261.216
20
-196.229
11
261.288
21
-196.086
0
LINE
8
Black
10
261.288
20
-196.086
11
261.431
21
-196.014
0
LINE
8
Black
10
261.431
20
-196.014
11
261.788
21
-196.014
0
LINE
8
Black
10
261.788
20
-196.014
11
261.931
21
-195.943
0
LINE
8
Black
10
262.645
20
-196.586
11
262.645
21
-195.086
0
LINE
8
Black
10
262.645
20
-195.657
11
262.788
21
-195.586
0
LINE
8
Black
10
262.788
20
-195.586
11
263.074
21
-195.586
0
LINE
8
Black
10
263.074
20
-195.586
11
263.216
21
-195.657
0
LINE
8
Black
10
263.216
20
-195.657
11
263.288
21
-195.729
0
LINE
8
Black
10
263.288
20
-195.729
11
263.359
21
-195.871
0
LINE
8
Black
10
263.359
20
-195.871
11
263.359
21
-196.3
0
LINE
8
Black
10
263.359
20
-196.3
11
263.288
21
-196.443
0
LINE
8
Black
10
263.288
20
-196.443
11
263.216
21
-196.514
0
LINE
8
Black
10
263.216
20
-196.514
11
263.074
21
-196.586
0
LINE
8
Black
10
263.074
20
-196.586
11
262.788
21
-196.586
0
LINE
8
Black
10
262.788
20
-196.586
11
262.645
21
-196.514
0
LINE
8
Black
10
264.216
20
-196.586
11
264.074
21
-196.514
0
LINE
8
Black
10
264.074
20
-196.514
11
264.002
21
-196.371
0
LINE
8
Black
10
264.002
20
-196.371
11
264.002
21
-195.086
0
LINE
8
Black
10
265.359
20
-196.514
11
265.216
21
-196.586
0
LINE
8
Black
10
265.216
20
-196.586
11
264.931
21
-196.586
0
LINE
8
Black
10
264.931
20
-196.586
11
264.788
21
-196.514
0
LINE
8
Black
10
264.788
20
-196.514
11
264.716
21
-196.371
0
LINE
8
Black
10
264.716
20
-196.371
11
264.716
21
-195.8
0
LINE
8
Black
10
264.716
20
-195.8
11
264.788
21
-195.657
0
LINE
8
Black
10
264.788
20
-195.657
11
264.931
21
-195.586
0
LINE
8
Black
10
264.931
20
-195.586
11
265.216
21
-195.586
0
LINE
8
Black
10
265.216
20
-195.586
11
265.359
21
-195.657
0
LINE
8
Black
10
265.359
20
-195.657
11
265.431
21
-195.8
0
LINE
8
Black
10
265.431
20
-195.8
11
265.431
21
-195.943
0
LINE
8
Black
10
265.431
20
-195.943
11
264.716
21
-196.086
0
LINE
8
Black
10
177.002
20
-191.507
11
285.002
21
-191.507
0
LINE
8
Black
10
264.216
20
-193.786
11
263.716
21
-193.071
0
LINE
8
Black
10
263.359
20
-193.786
11
263.359
21
-192.286
0
LINE
8
Black
10
263.359
20
-192.286
11
263.931
21
-192.286
0
LINE
8
Black
10
263.931
20
-192.286
11
264.074
21
-192.357
0
LINE
8
Black
10
264.074
20
-192.357
11
264.145
21
-192.429
0
LINE
8
Black
10
264.145
20
-192.429
11
264.216
21
-192.571
0
LINE
8
Black
10
264.216
20
-192.571
11
264.216
21
-192.786
0
LINE
8
Black
10
264.216
20
-192.786
11
264.145
21
-192.929
0
LINE
8
Black
10
264.145
20
-192.929
11
264.074
21
-193
0
LINE
8
Black
10
264.074
20
-193
11
263.931
21
-193.071
0
LINE
8
Black
10
263.931
20
-193.071
11
263.359
21
-193.071
0
LINE
8
Black
10
265.431
20
-193.714
11
265.288
21
-193.786
0
LINE
8
Black
10
265.288
20
-193.786
11
265.002
21
-193.786
0
LINE
8
Black
10
265.002
20
-193.786
11
264.859
21
-193.714
0
LINE
8
Black
10
264.859
20
-193.714
11
264.788
21
-193.571
0
LINE
8
Black
10
264.788
20
-193.571
11
264.788
21
-193
0
LINE
8
Black
10
264.788
20
-193
11
264.859
21
-192.857
0
LINE
8
Black
10
264.859
20
-192.857
11
265.002
21
-192.786
0
LINE
8
Black
10
265.002
20
-192.786
11
265.288
21
-192.786
0
LINE
8
Black
10
265.288
20
-192.786
11
265.431
21
-192.857
0
LINE
8
Black
10
265.431
20
-192.857
11
265.502
21
-193
0
LINE
8
Black
10
265.502
20
-193
11
265.502
21
-193.143
0
LINE
8
Black
10
265.502
20
-193.143
11
264.788
21
-193.286
0
LINE
8
Black
10
266.002
20
-192.786
11
266.359
21
-193.786
0
LINE
8
Black
10
266.359
20
-193.786
11
266.716
21
-192.786
0
LINE
8
Black
10
267.288
20
-193.643
11
267.359
21
-193.714
0
LINE
8
Black
10
267.359
20
-193.714
11
267.288
21
-193.786
0
LINE
8
Black
10
267.288
20
-193.786
11
267.216
21
-193.714
0
LINE
8
Black
10
267.216
20
-193.714
11
267.288
21
-193.643
0
LINE
8
Black
10
267.288
20
-193.643
11
267.288
21
-193.786
0
LINE
8
Black
10
267.288
20
-192.857
11
267.359
21
-192.929
0
LINE
8
Black
10
267.359
20
-192.929
11
267.288
21
-193
0
LINE
8
Black
10
267.288
20
-193
11
267.216
21
-192.929
0
LINE
8
Black
10
267.216
20
-192.929
11
267.288
21
-192.857
0
LINE
8
Black
10
267.288
20
-192.857
11
267.288
21
-193
0
LINE
8
Black
10
178.288
20
-193.714
11
178.502
21
-193.786
0
LINE
8
Black
10
178.502
20
-193.786
11
178.859
21
-193.786
0
LINE
8
Black
10
178.859
20
-193.786
11
179.002
21
-193.714
0
LINE
8
Black
10
179.002
20
-193.714
11
179.074
21
-193.643
0
LINE
8
Black
10
179.074
20
-193.643
11
179.145
21
-193.5
0
LINE
8
Black
10
179.145
20
-193.5
11
179.145
21
-193.357
0
LINE
8
Black
10
179.145
20
-193.357
11
179.074
21
-193.214
0
LINE
8
Black
10
179.074
20
-193.214
11
179.002
21
-193.143
0
LINE
8
Black
10
179.002
20
-193.143
11
178.859
21
-193.071
0
LINE
8
Black
10
178.859
20
-193.071
11
178.574
21
-193
0
LINE
8
Black
10
178.574
20
-193
11
178.431
21
-192.929
0
LINE
8
Black
10
178.431
20
-192.929
11
178.359
21
-192.857
0
LINE
8
Black
10
178.359
20
-192.857
11
178.288
21
-192.714
0
LINE
8
Black
10
178.288
20
-192.714
11
178.288
21
-192.571
0
LINE
8
Black
10
178.288
20
-192.571
11
178.359
21
-192.429
0
LINE
8
Black
10
178.359
20
-192.429
11
178.431
21
-192.357
0
LINE
8
Black
10
178.431
20
-192.357
11
178.574
21
-192.286
0
LINE
8
Black
10
178.574
20
-192.286
11
178.931
21
-192.286
0
LINE
8
Black
10
178.931
20
-192.286
11
179.145
21
-192.357
0
LINE
8
Black
10
179.788
20
-193.786
11
179.788
21
-192.786
0
LINE
8
Black
10
179.788
20
-192.286
11
179.716
21
-192.357
0
LINE
8
Black
10
179.716
20
-192.357
11
179.788
21
-192.429
0
LINE
8
Black
10
179.788
20
-192.429
11
179.859
21
-192.357
0
LINE
8
Black
10
179.859
20
-192.357
11
179.788
21
-192.286
0
LINE
8
Black
10
179.788
20
-192.286
11
179.788
21
-192.429
0
LINE
8
Black
10
180.359
20
-192.786
11
181.145
21
-192.786
0
LINE
8
Black
10
181.145
20
-192.786
11
180.359
21
-193.786
0
LINE
8
Black
10
180.359
20
-193.786
11
181.145
21
-193.786
0
LINE
8
Black
10
182.288
20
-193.714
11
182.145
21
-193.786
0
LINE
8
Black
10
182.145
20
-193.786
11
181.859
21
-193.786
0
LINE
8
Black
10
181.859
20
-193.786
11
181.716
21
-193.714
0
LINE
8
Black
10
181.716
20
-193.714
11
181.645
21
-193.571
0
LINE
8
Black
10
181.645
20
-193.571
11
181.645
21
-193
0
LINE
8
Black
10
181.645
20
-193
11
181.716
21
-192.857
0
LINE
8
Black
10
181.716
20
-192.857
11
181.859
21
-192.786
0
LINE
8
Black
10
181.859
20
-192.786
11
182.145
21
-192.786
0
LINE
8
Black
10
182.145
20
-192.786
11
182.288
21
-192.857
0
LINE
8
Black
10
182.288
20
-192.857
11
182.359
21
-193
0
LINE
8
Black
10
182.359
20
-193
11
182.359
21
-193.143
0
LINE
8
Black
10
182.359
20
-193.143
11
181.645
21
-193.286
0
LINE
8
Black
10
183.002
20
-193.643
11
183.074
21
-193.714
0
LINE
8
Black
10
183.074
20
-193.714
11
183.002
21
-193.786
0
LINE
8
Black
10
183.002
20
-193.786
11
182.931
21
-193.714
0
LINE
8
Black
10
182.931
20
-193.714
11
183.002
21
-193.643
0
LINE
8
Black
10
183.002
20
-193.643
11
183.002
21
-193.786
0
LINE
8
Black
10
183.002
20
-192.857
11
183.074
21
-192.929
0
LINE
8
Black
10
183.074
20
-192.929
11
183.002
21
-193
0
LINE
8
Black
10
183.002
20
-193
11
182.931
21
-192.929
0
LINE
8
Black
10
182.931
20
-192.929
11
183.002
21
-192.857
0
LINE
8
Black
10
183.002
20
-192.857
11
183.002
21
-193
0
LINE
8
Black
10
184.788
20
-193.357
11
185.502
21
-193.357
0
LINE
8
Black
10
184.645
20
-193.786
11
185.145
21
-192.286
0
LINE
8
Black
10
185.145
20
-192.286
11
185.645
21
-193.786
0
LINE
8
Black
10
186.788
20
-192.786
11
186.788
21
-193.786
0
LINE
8
Black
10
186.431
20
-192.214
11
186.074
21
-193.286
0
LINE
8
Black
10
186.074
20
-193.286
11
187.002
21
-193.286
0
LINE
8
Black
10
263.359
20
-196.586
11
263.359
21
-195.086
0
LINE
8
Black
10
264.716
20
-196.586
11
264.716
21
-195.086
0
LINE
8
Black
10
264.716
20
-196.514
11
264.574
21
-196.586
0
LINE
8
Black
10
264.574
20
-196.586
11
264.288
21
-196.586
0
LINE
8
Black
10
264.288
20
-196.586
11
264.145
21
-196.514
0
LINE
8
Black
10
264.145
20
-196.514
11
264.074
21
-196.443
0
LINE
8
Black
10
264.074
20
-196.443
11
264.002
21
-196.3
0
LINE
8
Black
10
264.002
20
-196.3
11
264.002
21
-195.871
0
LINE
8
Black
10
264.002
20
-195.871
11
264.074
21
-195.729
0
LINE
8
Black
10
264.074
20
-195.729
11
264.145
21
-195.657
0
LINE
8
Black
10
264.145
20
-195.657
11
264.288
21
-195.586
0
LINE
8
Black
10
264.288
20
-195.586
11
264.574
21
-195.586
0
LINE
8
Black
10
264.574
20
-195.586
11
264.716
21
-195.657
0
LINE
8
Black
10
265.431
20
-196.443
11
265.502
21
-196.514
0
LINE
8
Black
10
265.502
20
-196.514
11
265.431
21
-196.586
0
LINE
8
Black
10
265.431
20
-196.586
11
265.359
21
-196.514
0
LINE
8
Black
10
265.359
20
-196.514
11
265.431
21
-196.443
0
LINE
8
Black
10
265.431
20
-196.443
11
265.431
21
-196.586
0
LINE
8
Black
10
265.431
20
-195.657
11
265.502
21
-195.729
0
LINE
8
Black
10
265.502
20
-195.729
11
265.431
21
-195.8
0
LINE
8
Black
10
265.431
20
-195.8
11
265.359
21
-195.729
0
LINE
8
Black
10
265.359
20
-195.729
11
265.431
21
-195.657
0
LINE
8
Black
10
265.431
20
-195.657
11
265.431
21
-195.8
0
LINE
8
Black
10
268.074
20
-196.586
11
267.216
21
-196.586
0
LINE
8
Black
10
267.645
20
-196.586
11
267.645
21
-195.086
0
LINE
8
Black
10
267.645
20
-195.086
11
267.502
21
-195.3
0
LINE
8
Black
10
267.502
20
-195.3
11
267.359
21
-195.443
0
LINE
8
Black
10
267.359
20
-195.443
11
267.216
21
-195.514
0
LINE
8
Black
10
269.788
20
-195.014
11
268.502
21
-196.943
0
LINE
8
Black
10
271.074
20
-196.586
11
270.216
21
-196.586
0
LINE
8
Black
10
270.645
20
-196.586
11
270.645
21
-195.086
0
LINE
8
Black
10
270.645
20
-195.086
11
270.502
21
-195.3
0
LINE
8
Black
10
270.502
20
-195.3
11
270.359
21
-195.443
0
LINE
8
Black
10
270.359
20
-195.443
11
270.216
21
-195.514
0
LINE
8
Black
10
177.002
20
-187.507
11
285.002
21
-187.507
0
LINE
8
Black
10
178.455
20
-188.212
11
179.597
21
-188.212
0
LINE
8
Black
10
178.776
20
-190.212
11
179.026
21
-188.212
0
LINE
8
Black
10
180.014
20
-190.212
11
180.181
21
-188.879
0
LINE
8
Black
10
180.264
20
-188.212
11
180.157
21
-188.307
0
LINE
8
Black
10
180.157
20
-188.307
11
180.24
21
-188.402
0
LINE
8
Black
10
180.24
20
-188.402
11
180.347
21
-188.307
0
LINE
8
Black
10
180.347
20
-188.307
11
180.264
21
-188.212
0
LINE
8
Black
10
180.264
20
-188.212
11
180.24
21
-188.402
0
LINE
8
Black
10
180.847
20
-188.879
11
181.609
21
-188.879
0
LINE
8
Black
10
181.216
20
-188.212
11
181.002
21
-189.926
0
LINE
8
Black
10
181.002
20
-189.926
11
181.074
21
-190.117
0
LINE
8
Black
10
181.074
20
-190.117
11
181.252
21
-190.212
0
LINE
8
Black
10
181.252
20
-190.212
11
181.443
21
-190.212
0
LINE
8
Black
10
182.395
20
-190.212
11
182.216
21
-190.117
0
LINE
8
Black
10
182.216
20
-190.117
11
182.145
21
-189.926
0
LINE
8
Black
10
182.145
20
-189.926
11
182.359
21
-188.212
0
LINE
8
Black
10
183.931
20
-190.117
11
183.728
21
-190.212
0
LINE
8
Black
10
183.728
20
-190.212
11
183.347
21
-190.212
0
LINE
8
Black
10
183.347
20
-190.212
11
183.169
21
-190.117
0
LINE
8
Black
10
183.169
20
-190.117
11
183.097
21
-189.926
0
LINE
8
Black
10
183.097
20
-189.926
11
183.193
21
-189.164
0
LINE
8
Black
10
183.193
20
-189.164
11
183.312
21
-188.974
0
LINE
8
Black
10
183.312
20
-188.974
11
183.514
21
-188.879
0
LINE
8
Black
10
183.514
20
-188.879
11
183.895
21
-188.879
0
LINE
8
Black
10
183.895
20
-188.879
11
184.074
21
-188.974
0
LINE
8
Black
10
184.074
20
-188.974
11
184.145
21
-189.164
0
LINE
8
Black
10
184.145
20
-189.164
11
184.121
21
-189.355
0
LINE
8
Black
10
184.121
20
-189.355
11
183.145
21
-189.545
0
LINE
8
Black
10
184.895
20
-190.021
11
184.978
21
-190.117
0
LINE
8
Black
10
184.978
20
-190.117
11
184.871
21
-190.212
0
LINE
8
Black
10
184.871
20
-190.212
11
184.788
21
-190.117
0
LINE
8
Black
10
184.788
20
-190.117
11
184.895
21
-190.021
0
LINE
8
Black
10
184.895
20
-190.021
11
184.871
21
-190.212
0
LINE
8
Black
10
185.026
20
-188.974
11
185.109
21
-189.069
0
LINE
8
Black
10
185.109
20
-189.069
11
185.002
21
-189.164
0
LINE
8
Black
10
185.002
20
-189.164
11
184.919
21
-189.069
0
LINE
8
Black
10
184.919
20
-189.069
11
185.026
21
-188.974
0
LINE
8
Black
10
185.026
20
-188.974
11
185.002
21
-189.164
0
LINE
8
Black
10
178.859
20
-185.6
11
178.359
21
-185.6
0
LINE
8
Black
10
178.359
20
-186.386
11
178.359
21
-184.886
0
LINE
8
Black
10
178.359
20
-184.886
11
179.074
21
-184.886
0
LINE
8
Black
10
179.645
20
-186.386
11
179.645
21
-185.386
0
LINE
8
Black
10
179.645
20
-184.886
11
179.574
21
-184.957
0
LINE
8
Black
10
179.574
20
-184.957
11
179.645
21
-185.029
0
LINE
8
Black
10
179.645
20
-185.029
11
179.716
21
-184.957
0
LINE
8
Black
10
179.716
20
-184.957
11
179.645
21
-184.886
0
LINE
8
Black
10
179.645
20
-184.886
11
179.645
21
-185.029
0
LINE
8
Black
10
180.574
20
-186.386
11
180.431
21
-186.314
0
LINE
8
Black
10
180.431
20
-186.314
11
180.359
21
-186.171
0
LINE
8
Black
10
180.359
20
-186.171
11
180.359
21
-184.886
0
LINE
8
Black
10
181.716
20
-186.314
11
181.574
21
-186.386
0
LINE
8
Black
10
181.574
20
-186.386
11
181.288
21
-186.386
0
LINE
8
Black
10
181.288
20
-186.386
11
181.145
21
-186.314
0
LINE
8
Black
10
181.145
20
-186.314
11
181.074
21
-186.171
0
LINE
8
Black
10
181.074
20
-186.171
11
181.074
21
-185.6
0
LINE
8
Black
10
181.074
20
-185.6
11
181.145
21
-185.457
0
LINE
8
Black
10
181.145
20
-185.457
11
181.288
21
-185.386
0
LINE
8
Black
10
181.288
20
-185.386
11
181.574
21
-185.386
0
LINE
8
Black
10
181.574
20
-185.386
11
181.716
21
-185.457
0
LINE
8
Black
10
181.716
20
-185.457
11
181.788
21
-185.6
0
LINE
8
Black
10
181.788
20
-185.6
11
181.788
21
-185.743
0
LINE
8
Black
10
181.788
20
-185.743
11
181.074
21
-185.886
0
LINE
8
Black
10
182.431
20
-186.243
11
182.502
21
-186.314
0
LINE
8
Black
10
182.502
20
-186.314
11
182.431
21
-186.386
0
LINE
8
Black
10
182.431
20
-186.386
11
182.359
21
-186.314
0
LINE
8
Black
10
182.359
20
-186.314
11
182.431
21
-186.243
0
LINE
8
Black
10
182.431
20
-186.243
11
182.431
21
-186.386
0
LINE
8
Black
10
182.431
20
-185.457
11
182.502
21
-185.529
0
LINE
8
Black
10
182.502
20
-185.529
11
182.431
21
-185.6
0
LINE
8
Black
10
182.431
20
-185.6
11
182.359
21
-185.529
0
LINE
8
Black
10
182.359
20
-185.529
11
182.431
21
-185.457
0
LINE
8
Black
10
182.431
20
-185.457
11
182.431
21
-185.6
0
LINE
8
Black
10
184.216
20
-186.314
11
184.359
21
-186.386
0
LINE
8
Black
10
184.359
20
-186.386
11
184.645
21
-186.386
0
LINE
8
Black
10
184.645
20
-186.386
11
184.788
21
-186.314
0
LINE
8
Black
10
184.788
20
-186.314
11
184.859
21
-186.171
0
LINE
8
Black
10
184.859
20
-186.171
11
184.859
21
-186.1
0
LINE
8
Black
10
184.859
20
-186.1
11
184.788
21
-185.957
0
LINE
8
Black
10
184.788
20
-185.957
11
184.645
21
-185.886
0
LINE
8
Black
10
184.645
20
-185.886
11
184.431
21
-185.886
0
LINE
8
Black
10
184.431
20
-185.886
11
184.288
21
-185.814
0
LINE
8
Black
10
184.288
20
-185.814
11
184.216
21
-185.671
0
LINE
8
Black
10
184.216
20
-185.671
11
184.216
21
-185.6
0
LINE
8
Black
10
184.216
20
-185.6
11
184.288
21
-185.457
0
LINE
8
Black
10
184.288
20
-185.457
11
184.431
21
-185.386
0
LINE
8
Black
10
184.431
20
-185.386
11
184.645
21
-185.386
0
LINE
8
Black
10
184.645
20
-185.386
11
184.788
21
-185.457
0
LINE
8
Black
10
185.359
20
-185.386
11
185.645
21
-186.386
0
LINE
8
Black
10
185.645
20
-186.386
11
185.931
21
-185.671
0
LINE
8
Black
10
185.931
20
-185.671
11
186.216
21
-186.386
0
LINE
8
Black
10
186.216
20
-186.386
11
186.502
21
-185.386
0
LINE
8
Black
10
187.074
20
-186.386
11
187.074
21
-185.386
0
LINE
8
Black
10
187.074
20
-184.886
11
187.002
21
-184.957
0
LINE
8
Black
10
187.002
20
-184.957
11
187.074
21
-185.029
0
LINE
8
Black
10
187.074
20
-185.029
11
187.145
21
-184.957
0
LINE
8
Black
10
187.145
20
-184.957
11
187.074
21
-184.886
0
LINE
8
Black
10
187.074
20
-184.886
11
187.074
21
-185.029
0
LINE
8
Black
10
187.574
20
-185.386
11
188.145
21
-185.386
0
LINE
8
Black
10
187.788
20
-184.886
11
187.788
21
-186.171
0
LINE
8
Black
10
187.788
20
-186.171
11
187.859
21
-186.314
0
LINE
8
Black
10
187.859
20
-186.314
11
188.002
21
-186.386
0
LINE
8
Black
10
188.002
20
-186.386
11
188.145
21
-186.386
0
LINE
8
Black
10
189.288
20
-186.314
11
189.145
21
-186.386
0
LINE
8
Black
10
189.145
20
-186.386
11
188.859
21
-186.386
0
LINE
8
Black
10
188.859
20
-186.386
11
188.716
21
-186.314
0
LINE
8
Black
10
188.716
20
-186.314
11
188.645
21
-186.243
0
LINE
8
Black
10
188.645
20
-186.243
11
188.574
21
-186.1
0
LINE
8
Black
10
188.574
20
-186.1
11
188.574
21
-185.671
0
LINE
8
Black
10
188.574
20
-185.671
11
188.645
21
-185.529
0
LINE
8
Black
10
188.645
20
-185.529
11
188.716
21
-185.457
0
LINE
8
Black
10
188.716
20
-185.457
11
188.859
21
-185.386
0
LINE
8
Black
10
188.859
20
-185.386
11
189.145
21
-185.386
0
LINE
8
Black
10
189.145
20
-185.386
11
189.288
21
-185.457
0
LINE
8
Black
10
189.931
20
-186.386
11
189.931
21
-184.886
0
LINE
8
Black
10
190.574
20
-186.386
11
190.574
21
-185.6
0
LINE
8
Black
10
190.574
20
-185.6
11
190.502
21
-185.457
0
LINE
8
Black
10
190.502
20
-185.457
11
190.359
21
-185.386
0
LINE
8
Black
10
190.359
20
-185.386
11
190.145
21
-185.386
0
LINE
8
Black
10
190.145
20
-185.386
11
190.002
21
-185.457
0
LINE
8
Black
10
190.002
20
-185.457
11
189.931
21
-185.529
0
LINE
8
Black
10
191.859
20
-186.314
11
191.716
21
-186.386
0
LINE
8
Black
10
191.716
20
-186.386
11
191.431
21
-186.386
0
LINE
8
Black
10
191.431
20
-186.386
11
191.288
21
-186.314
0
LINE
8
Black
10
191.288
20
-186.314
11
191.216
21
-186.171
0
LINE
8
Black
10
191.216
20
-186.171
11
191.216
21
-185.6
0
LINE
8
Black
10
191.216
20
-185.6
11
191.288
21
-185.457
0
LINE
8
Black
10
191.288
20
-185.457
11
191.431
21
-185.386
0
LINE
8
Black
10
191.431
20
-185.386
11
191.716
21
-185.386
0
LINE
8
Black
10
191.716
20
-185.386
11
191.859
21
-185.457
0
LINE
8
Black
10
191.859
20
-185.457
11
191.931
21
-185.6
0
LINE
8
Black
10
191.931
20
-185.6
11
191.931
21
-185.743
0
LINE
8
Black
10
191.931
20
-185.743
11
191.216
21
-185.886
0
LINE
8
Black
10
192.574
20
-186.386
11
192.574
21
-185.386
0
LINE
8
Black
10
192.574
20
-185.671
11
192.645
21
-185.529
0
LINE
8
Black
10
192.645
20
-185.529
11
192.716
21
-185.457
0
LINE
8
Black
10
192.716
20
-185.457
11
192.859
21
-185.386
0
LINE
8
Black
10
192.859
20
-185.386
11
193.002
21
-185.386
0
LINE
8
Black
10
193.502
20
-186.243
11
193.574
21
-186.314
0
LINE
8
Black
10
193.574
20
-186.314
11
193.502
21
-186.386
0
LINE
8
Black
10
193.502
20
-186.386
11
193.431
21
-186.314
0
LINE
8
Black
10
193.431
20
-186.314
11
193.502
21
-186.243
0
LINE
8
Black
10
193.502
20
-186.243
11
193.502
21
-186.386
0
LINE
8
Black
10
194.216
20
-186.386
11
194.216
21
-184.886
0
LINE
8
Black
10
194.359
20
-185.814
11
194.788
21
-186.386
0
LINE
8
Black
10
194.788
20
-185.386
11
194.216
21
-185.957
0
LINE
8
Black
10
195.431
20
-186.386
11
195.431
21
-185.386
0
LINE
8
Black
10
195.431
20
-184.886
11
195.359
21
-184.957
0
LINE
8
Black
10
195.359
20
-184.957
11
195.431
21
-185.029
0
LINE
8
Black
10
195.431
20
-185.029
11
195.502
21
-184.957
0
LINE
8
Black
10
195.502
20
-184.957
11
195.431
21
-184.886
0
LINE
8
Black
10
195.431
20
-184.886
11
195.431
21
-185.029
0
LINE
8
Black
10
196.788
20
-186.314
11
196.645
21
-186.386
0
LINE
8
Black
10
196.645
20
-186.386
11
196.359
21
-186.386
0
LINE
8
Black
10
196.359
20
-186.386
11
196.216
21
-186.314
0
LINE
8
Black
10
196.216
20
-186.314
11
196.145
21
-186.243
0
LINE
8
Black
10
196.145
20
-186.243
11
196.074
21
-186.1
0
LINE
8
Black
10
196.074
20
-186.1
11
196.074
21
-185.671
0
LINE
8
Black
10
196.074
20
-185.671
11
196.145
21
-185.529
0
LINE
8
Black
10
196.145
20
-185.529
11
196.216
21
-185.457
0
LINE
8
Black
10
196.216
20
-185.457
11
196.359
21
-185.386
0
LINE
8
Black
10
196.359
20
-185.386
11
196.645
21
-185.386
0
LINE
8
Black
10
196.645
20
-185.386
11
196.788
21
-185.457
0
LINE
8
Black
10
198.074
20
-186.386
11
198.074
21
-185.6
0
LINE
8
Black
10
198.074
20
-185.6
11
198.002
21
-185.457
0
LINE
8
Black
10
198.002
20
-185.457
11
197.859
21
-185.386
0
LINE
8
Black
10
197.859
20
-185.386
11
197.574
21
-185.386
0
LINE
8
Black
10
197.574
20
-185.386
11
197.431
21
-185.457
0
LINE
8
Black
10
198.074
20
-186.314
11
197.931
21
-186.386
0
LINE
8
Black
10
197.931
20
-186.386
11
197.574
21
-186.386
0
LINE
8
Black
10
197.574
20
-186.386
11
197.431
21
-186.314
0
LINE
8
Black
10
197.431
20
-186.314
11
197.359
21
-186.171
0
LINE
8
Black
10
197.359
20
-186.171
11
197.359
21
-186.029
0
LINE
8
Black
10
197.359
20
-186.029
11
197.431
21
-185.886
0
LINE
8
Black
10
197.431
20
-185.886
11
197.574
21
-185.814
0
LINE
8
Black
10
197.574
20
-185.814
11
197.931
21
-185.814
0
LINE
8
Black
10
197.931
20
-185.814
11
198.074
21
-185.743
0
LINE
8
Black
10
199.431
20
-186.386
11
199.431
21
-184.886
0
LINE
8
Black
10
199.431
20
-186.314
11
199.288
21
-186.386
0
LINE
8
Black
10
199.288
20
-186.386
11
199.002
21
-186.386
0
LINE
8
Black
10
199.002
20
-186.386
11
198.859
21
-186.314
0
LINE
8
Black
10
198.859
20
-186.314
11
198.788
21
-186.243
0
LINE
8
Black
10
198.788
20
-186.243
11
198.716
21
-186.1
0
LINE
8
Black
10
198.716
20
-186.1
11
198.716
21
-185.671
0
LINE
8
Black
10
198.716
20
-185.671
11
198.788
21
-185.529
0
LINE
8
Black
10
198.788
20
-185.529
11
198.859
21
-185.457
0
LINE
8
Black
10
198.859
20
-185.457
11
199.002
21
-185.386
0
LINE
8
Black
10
199.002
20
-185.386
11
199.288
21
-185.386
0
LINE
8
Black
10
199.288
20
-185.386
11
199.431
21
-185.457
0
LINE
8
Black
10
199.788
20
-186.529
11
200.931
21
-186.529
0
LINE
8
Black
10
201.288
20
-185.386
11
201.288
21
-186.886
0
LINE
8
Black
10
201.288
20
-185.457
11
201.431
21
-185.386
0
LINE
8
Black
10
201.431
20
-185.386
11
201.716
21
-185.386
0
LINE
8
Black
10
201.716
20
-185.386
11
201.859
21
-185.457
0
LINE
8
Black
10
201.859
20
-185.457
11
201.931
21
-185.529
0
LINE
8
Black
10
201.931
20
-185.529
11
202.002
21
-185.671
0
LINE
8
Black
10
202.002
20
-185.671
11
202.002
21
-186.1
0
LINE
8
Black
10
202.002
20
-186.1
11
201.931
21
-186.243
0
LINE
8
Black
10
201.931
20
-186.243
11
201.859
21
-186.314
0
LINE
8
Black
10
201.859
20
-186.314
11
201.716
21
-186.386
0
LINE
8
Black
10
201.716
20
-186.386
11
201.431
21
-186.386
0
LINE
8
Black
10
201.431
20
-186.386
11
201.288
21
-186.314
0
LINE
8
Black
10
203.288
20
-186.314
11
203.145
21
-186.386
0
LINE
8
Black
10
203.145
20
-186.386
11
202.859
21
-186.386
0
LINE
8
Black
10
202.859
20
-186.386
11
202.716
21
-186.314
0
LINE
8
Black
10
202.716
20
-186.314
11
202.645
21
-186.243
0
LINE
8
Black
10
202.645
20
-186.243
11
202.574
21
-186.1
0
LINE
8
Black
10
202.574
20
-186.1
11
202.574
21
-185.671
0
LINE
8
Black
10
202.574
20
-185.671
11
202.645
21
-185.529
0
LINE
8
Black
10
202.645
20
-185.529
11
202.716
21
-185.457
0
LINE
8
Black
10
202.716
20
-185.457
11
202.859
21
-185.386
0
LINE
8
Black
10
202.859
20
-185.386
11
203.145
21
-185.386
0
LINE
8
Black
10
203.145
20
-185.386
11
203.288
21
-185.457
0
LINE
8
Black
10
203.931
20
-186.386
11
203.931
21
-184.886
0
LINE
8
Black
10
203.931
20
-185.457
11
204.074
21
-185.386
0
LINE
8
Black
10
204.074
20
-185.386
11
204.359
21
-185.386
0
LINE
8
Black
10
204.359
20
-185.386
11
204.502
21
-185.457
0
LINE
8
Black
10
204.502
20
-185.457
11
204.574
21
-185.529
0
LINE
8
Black
10
204.574
20
-185.529
11
204.645
21
-185.671
0
LINE
8
Black
10
204.645
20
-185.671
11
204.645
21
-186.1
0
LINE
8
Black
10
204.645
20
-186.1
11
204.574
21
-186.243
0
LINE
8
Black
10
204.574
20
-186.243
11
204.502
21
-186.314
0
LINE
8
Black
10
204.502
20
-186.314
11
204.359
21
-186.386
0
LINE
8
Black
10
204.359
20
-186.386
11
204.074
21
-186.386
0
LINE
8
Black
10
204.074
20
-186.386
11
203.931
21
-186.314
0
LINE
8
Black
10
177.002
20
-181.507
11
285.002
21
-181.507
0
LINE
8
Black
10
178.288
20
-183.614
11
178.502
21
-183.686
0
LINE
8
Black
10
178.502
20
-183.686
11
178.859
21
-183.686
0
LINE
8
Black
10
178.859
20
-183.686
11
179.002
21
-183.614
0
LINE
8
Black
10
179.002
20
-183.614
11
179.074
21
-183.543
0
LINE
8
Black
10
179.074
20
-183.543
11
179.145
21
-183.4
0
LINE
8
Black
10
179.145
20
-183.4
11
179.145
21
-183.257
0
LINE
8
Black
10
179.145
20
-183.257
11
179.074
21
-183.114
0
LINE
8
Black
10
179.074
20
-183.114
11
179.002
21
-183.043
0
LINE
8
Black
10
179.002
20
-183.043
11
178.859
21
-182.971
0
LINE
8
Black
10
178.859
20
-182.971
11
178.574
21
-182.9
0
LINE
8
Black
10
178.574
20
-182.9
11
178.431
21
-182.829
0
LINE
8
Black
10
178.431
20
-182.829
11
178.359
21
-182.757
0
LINE
8
Black
10
178.359
20
-182.757
11
178.288
21
-182.614
0
LINE
8
Black
10
178.288
20
-182.614
11
178.288
21
-182.471
0
LINE
8
Black
10
178.288
20
-182.471
11
178.359
21
-182.329
0
LINE
8
Black
10
178.359
20
-182.329
11
178.431
21
-182.257
0
LINE
8
Black
10
178.431
20
-182.257
11
178.574
21
-182.186
0
LINE
8
Black
10
178.574
20
-182.186
11
178.931
21
-182.186
0
LINE
8
Black
10
178.931
20
-182.186
11
179.145
21
-182.257
0
LINE
8
Black
10
179.788
20
-183.686
11
179.788
21
-182.186
0
LINE
8
Black
10
180.431
20
-183.686
11
180.431
21
-182.9
0
LINE
8
Black
10
180.431
20
-182.9
11
180.359
21
-182.757
0
LINE
8
Black
10
180.359
20
-182.757
11
180.216
21
-182.686
0
LINE
8
Black
10
180.216
20
-182.686
11
180.002
21
-182.686
0
LINE
8
Black
10
180.002
20
-182.686
11
179.859
21
-182.757
0
LINE
8
Black
10
179.859
20
-182.757
11
179.788
21
-182.829
0
LINE
8
Black
10
181.716
20
-183.614
11
181.574
21
-183.686
0
LINE
8
Black
10
181.574
20
-183.686
11
181.288
21
-183.686
0
LINE
8
Black
10
181.288
20
-183.686
11
181.145
21
-183.614
0
LINE
8
Black
10
181.145
20
-183.614
11
181.074
21
-183.471
0
LINE
8
Black
10
181.074
20
-183.471
11
181.074
21
-182.9
0
LINE
8
Black
10
181.074
20
-182.9
11
181.145
21
-182.757
0
LINE
8
Black
10
181.145
20
-182.757
11
181.288
21
-182.686
0
LINE
8
Black
10
181.288
20
-182.686
11
181.574
21
-182.686
0
LINE
8
Black
10
181.574
20
-182.686
11
181.716
21
-182.757
0
LINE
8
Black
10
181.716
20
-182.757
11
181.788
21
-182.9
0
LINE
8
Black
10
181.788
20
-182.9
11
181.788
21
-183.043
0
LINE
8
Black
10
181.788
20
-183.043
11
181.074
21
-183.186
0
LINE
8
Black
10
183.002
20
-183.614
11
182.859
21
-183.686
0
LINE
8
Black
10
182.859
20
-183.686
11
182.574
21
-183.686
0
LINE
8
Black
10
182.574
20
-183.686
11
182.431
21
-183.614
0
LINE
8
Black
10
182.431
20
-183.614
11
182.359
21
-183.471
0
LINE
8
Black
10
182.359
20
-183.471
11
182.359
21
-182.9
0
LINE
8
Black
10
182.359
20
-182.9
11
182.431
21
-182.757
0
LINE
8
Black
10
182.431
20
-182.757
11
182.574
21
-182.686
0
LINE
8
Black
10
182.574
20
-182.686
11
182.859
21
-182.686
0
LINE
8
Black
10
182.859
20
-182.686
11
183.002
21
-182.757
0
LINE
8
Black
10
183.002
20
-182.757
11
183.074
21
-182.9
0
LINE
8
Black
10
183.074
20
-182.9
11
183.074
21
-183.043
0
LINE
8
Black
10
183.074
20
-183.043
11
182.359
21
-183.186
0
LINE
8
Black
10
183.502
20
-182.686
11
184.074
21
-182.686
0
LINE
8
Black
10
183.716
20
-182.186
11
183.716
21
-183.471
0
LINE
8
Black
10
183.716
20
-183.471
11
183.788
21
-183.614
0
LINE
8
Black
10
183.788
20
-183.614
11
183.931
21
-183.686
0
LINE
8
Black
10
183.931
20
-183.686
11
184.074
21
-183.686
0
LINE
8
Black
10
184.574
20
-183.543
11
184.645
21
-183.614
0
LINE
8
Black
10
184.645
20
-183.614
11
184.574
21
-183.686
0
LINE
8
Black
10
184.574
20
-183.686
11
184.502
21
-183.614
0
LINE
8
Black
10
184.502
20
-183.614
11
184.574
21
-183.543
0
LINE
8
Black
10
184.574
20
-183.543
11
184.574
21
-183.686
0
LINE
8
Black
10
184.574
20
-182.757
11
184.645
21
-182.829
0
LINE
8
Black
10
184.645
20
-182.829
11
184.574
21
-182.9
0
LINE
8
Black
10
184.574
20
-182.9
11
184.502
21
-182.829
0
LINE
8
Black
10
184.502
20
-182.829
11
184.574
21
-182.757
0
LINE
8
Black
10
184.574
20
-182.757
11
184.574
21
-182.9
0
LINE
8
Black
10
197.002
20
-191.507
11
197.002
21
-194.507
0
LINE
8
Black
10
261.002
20
-191.507
11
261.002
21
-198.007
0
LINE
8
Black
10
212.004
20
-29.9508
11
212.009
21
-29.9508
0
LINE
8
Black
10
212.009
20
-29.9508
11
212.013
21
-29.9523
0
LINE
8
Black
10
212.013
20
-29.9523
11
212.017
21
-29.953
0
LINE
8
Black
10
212.017
20
-29.953
11
212.021
21
-29.9552
0
LINE
8
Black
10
212.021
20
-29.9552
11
212.025
21
-29.9567
0
LINE
8
Black
10
212.025
20
-29.9567
11
212.028
21
-29.9595
0
LINE
8
Black
10
212.028
20
-29.9595
11
212.032
21
-29.9617
0
LINE
8
Black
10
212.032
20
-29.9617
11
212.035
21
-29.965
0
LINE
8
Black
10
212.035
20
-29.965
11
212.038
21
-29.9679
0
LINE
8
Black
10
212.038
20
-29.9679
11
212.04
21
-29.9716
0
LINE
8
Black
10
212.04
20
-29.9716
11
212.043
21
-29.975
0
LINE
8
Black
10
212.043
20
-29.975
11
212.045
21
-29.9791
0
LINE
8
Black
10
212.045
20
-29.9791
11
212.047
21
-29.9829
0
LINE
8
Black
10
212.047
20
-29.9829
11
212.048
21
-29.9872
0
LINE
8
Black
10
212.048
20
-29.9872
11
212.049
21
-29.9913
0
LINE
8
Black
10
212.049
20
-29.9913
11
212.049
21
-29.9957
0
LINE
8
Black
10
212.049
20
-29.9957
11
212.05
21
-30
0
LINE
8
Black
10
212.05
20
-30
11
212.05
21
-130
0
LINE
8
Black
10
212.05
20
-130
11
212.049
21
-130.004
0
LINE
8
Black
10
212.049
20
-130.004
11
212.049
21
-130.009
0
LINE
8
Black
10
212.049
20
-130.009
11
212.048
21
-130.013
0
LINE
8
Black
10
212.048
20
-130.013
11
212.047
21
-130.017
0
LINE
8
Black
10
212.047
20
-130.017
11
212.045
21
-130.021
0
LINE
8
Black
10
212.045
20
-130.021
11
212.043
21
-130.025
0
LINE
8
Black
10
212.043
20
-130.025
11
212.04
21
-130.028
0
LINE
8
Black
10
212.04
20
-130.028
11
212.038
21
-130.032
0
LINE
8
Black
10
212.038
20
-130.032
11
212.035
21
-130.035
0
LINE
8
Black
10
212.035
20
-130.035
11
212.032
21
-130.038
0
LINE
8
Black
10
212.032
20
-130.038
11
212.028
21
-130.04
0
LINE
8
Black
10
212.028
20
-130.04
11
212.025
21
-130.043
0
LINE
8
Black
10
212.025
20
-130.043
11
212.021
21
-130.045
0
LINE
8
Black
10
212.021
20
-130.045
11
212.017
21
-130.047
0
LINE
8
Black
10
212.017
20
-130.047
11
212.013
21
-130.048
0
LINE
8
Black
10
212.013
20
-130.048
11
212.009
21
-130.049
0
LINE
8
Black
10
212.009
20
-130.049
11
212.004
21
-130.049
0
LINE
8
Black
10
212.004
20
-130.049
11
212
21
-130.05
0
LINE
8
Black
10
212
20
-130.05
11
74.5
21
-130.05
0
LINE
8
Black
10
74.5
20
-130.05
11
74.4957
21
-130.049
0
LINE
8
Black
10
74.4957
20
-130.049
11
74.4913
21
-130.049
0
LINE
8
Black
10
74.4913
20
-130.049
11
74.4872
21
-130.048
0
LINE
8
Black
10
74.4872
20
-130.048
11
74.4829
21
-130.047
0
LINE
8
Black
10
74.4829
20
-130.047
11
74.4791
21
-130.045
0
LINE
8
Black
10
74.4791
20
-130.045
11
74.475
21
-130.043
0
LINE
8
Black
10
74.475
20
-130.043
11
74.4716
21
-130.04
0
LINE
8
Black
10
74.4716
20
-130.04
11
74.4679
21
-130.038
0
LINE
8
Black
10
74.4679
20
-130.038
11
74.465
21
-130.035
0
LINE
8
Black
10
74.465
20
-130.035
11
74.4617
21
-130.032
0
LINE
8
Black
10
74.4617
20
-130.032
11
74.4595
21
-130.028
0
LINE
8
Black
10
74.4595
20
-130.028
11
74.4567
21
-130.025
0
LINE
8
Black
10
74.4567
20
-130.025
11
74.4552
21
-130.021
0
LINE
8
Black
10
74.4552
20
-130.021
11
74.453
21
-130.017
0
LINE
8
Black
10
74.453
20
-130.017
11
74.4523
21
-130.013
0
LINE
8
Black
10
74.4523
20
-130.013
11
74.4508
21
-130.009
0
LINE
8
Black
10
74.4508
20
-130.009
11
74.4508
21
-130.004
0
LINE
8
Black
10
74.4508
20
-130.004
11
74.45
21
-130
0
LINE
8
Black
10
74.45
20
-130
11
74.45
21
-30
0
LINE
8
Black
10
74.45
20
-30
11
74.4508
21
-29.9957
0
LINE
8
Black
10
74.4508
20
-29.9957
11
74.4508
21
-29.9913
0
LINE
8
Black
10
74.4508
20
-29.9913
11
74.4523
21
-29.9872
0
LINE
8
Black
10
74.4523
20
-29.9872
11
74.453
21
-29.9829
0
LINE
8
Black
10
74.453
20
-29.9829
11
74.4552
21
-29.9791
0
LINE
8
Black
10
74.4552
20
-29.9791
11
74.4567
21
-29.975
0
LINE
8
Black
10
74.4567
20
-29.975
11
74.4595
21
-29.9716
0
LINE
8
Black
10
74.4595
20
-29.9716
11
74.4617
21
-29.9679
0
LINE
8
Black
10
74.4617
20
-29.9679
11
74.465
21
-29.965
0
LINE
8
Black
10
74.465
20
-29.965
11
74.4679
21
-29.9617
0
LINE
8
Black
10
74.4679
20
-29.9617
11
74.4716
21
-29.9595
0
LINE
8
Black
10
74.4716
20
-29.9595
11
74.475
21
-29.9567
0
LINE
8
Black
10
74.475
20
-29.9567
11
74.4791
21
-29.9552
0
LINE
8
Black
10
74.4791
20
-29.9552
11
74.4829
21
-29.953
0
LINE
8
Black
10
74.4829
20
-29.953
11
74.4872
21
-29.9523
0
LINE
8
Black
10
74.4872
20
-29.9523
11
74.4913
21
-29.9508
0
LINE
8
Black
10
74.4913
20
-29.9508
11
74.4957
21
-29.9508
0
LINE
8
Black
10
74.4957
20
-29.9508
11
74.5
21
-29.95
0
LINE
8
Black
10
74.5
20
-29.95
11
212
21
-29.95
0
LINE
8
Black
10
212
20
-29.95
11
212.004
21
-29.9508
0
LINE
8
Black
10
74.55
20
-30.05
11
74.55
21
-129.95
0
LINE
8
Black
10
74.55
20
-129.95
11
211.95
21
-129.95
0
LINE
8
Black
10
211.95
20
-129.95
11
211.95
21
-30.05
0
LINE
8
Black
10
211.95
20
-30.05
11
74.55
21
-30.05
0
LINE
8
Black
10
98.8686
20
-108.279
11
98.8926
21
-108.289
0
LINE
8
Black
10
98.8926
20
-108.289
11
99.398
21
-108.611
0
LINE
8
Black
10
99.398
20
-108.611
11
99.8524
21
-108.611
0
LINE
8
Black
10
99.8524
20
-108.611
11
99.878
21
-108.615
0
LINE
8
Black
10
99.878
20
-108.615
11
99.9006
21
-108.628
0
LINE
8
Black
10
99.9006
20
-108.628
11
99.9173
21
-108.648
0
LINE
8
Black
10
99.9173
20
-108.648
11
99.9262
21
-108.673
0
LINE
8
Black
10
99.9262
20
-108.673
11
99.9262
21
-108.699
0
LINE
8
Black
10
99.9262
20
-108.699
11
99.9173
21
-108.723
0
LINE
8
Black
10
99.9173
20
-108.723
11
99.9006
21
-108.743
0
LINE
8
Black
10
99.9006
20
-108.743
11
99.878
21
-108.756
0
LINE
8
Black
10
99.878
20
-108.756
11
99.8524
21
-108.761
0
LINE
8
Black
10
99.8524
20
-108.761
11
99.398
21
-108.761
0
LINE
8
Black
10
99.398
20
-108.761
11
98.8926
21
-109.082
0
LINE
8
Black
10
98.8926
20
-109.082
11
98.8686
21
-109.092
0
LINE
8
Black
10
98.8686
20
-109.092
11
98.8426
21
-109.093
0
LINE
8
Black
10
98.8426
20
-109.093
11
98.8177
21
-109.086
0
LINE
8
Black
10
98.8177
20
-109.086
11
98.7971
21
-109.07
0
LINE
8
Black
10
98.7971
20
-109.07
11
98.7831
21
-109.048
0
LINE
8
Black
10
98.7831
20
-109.048
11
98.7775
21
-109.022
0
LINE
8
Black
10
98.7775
20
-109.022
11
98.7809
21
-108.996
0
LINE
8
Black
10
98.7809
20
-108.996
11
98.7929
21
-108.973
0
LINE
8
Black
10
98.7929
20
-108.973
11
98.8121
21
-108.956
0
LINE
8
Black
10
98.8121
20
-108.956
11
99.2365
21
-108.686
0
LINE
8
Black
10
99.2365
20
-108.686
11
98.8121
21
-108.416
0
LINE
8
Black
10
98.8121
20
-108.416
11
98.7929
21
-108.398
0
LINE
8
Black
10
98.7929
20
-108.398
11
98.7809
21
-108.375
0
LINE
8
Black
10
98.7809
20
-108.375
11
98.7775
21
-108.349
0
LINE
8
Black
10
98.7775
20
-108.349
11
98.7831
21
-108.324
0
LINE
8
Black
10
98.7831
20
-108.324
11
98.7971
21
-108.302
0
LINE
8
Black
10
98.7971
20
-108.302
11
98.8177
21
-108.286
0
LINE
8
Black
10
98.8177
20
-108.286
11
98.8426
21
-108.278
0
LINE
8
Black
10
98.8426
20
-108.278
11
98.8686
21
-108.279
0
LINE
8
Black
10
99.8799
20
-107.425
11
99.9021
21
-107.439
0
LINE
8
Black
10
99.9021
20
-107.439
11
99.9183
21
-107.46
0
LINE
8
Black
10
99.9183
20
-107.46
11
99.9266
21
-107.484
0
LINE
8
Black
10
99.9266
20
-107.484
11
99.9259
21
-107.51
0
LINE
8
Black
10
99.9259
20
-107.51
11
99.9163
21
-107.534
0
LINE
8
Black
10
99.9163
20
-107.534
11
99.899
21
-107.554
0
LINE
8
Black
10
99.899
20
-107.554
11
99.8761
21
-107.566
0
LINE
8
Black
10
99.8761
20
-107.566
11
99.6417
21
-107.645
0
LINE
8
Black
10
99.6417
20
-107.645
11
99.6417
21
-108.013
0
LINE
8
Black
10
99.6417
20
-108.013
11
99.8761
21
-108.091
0
LINE
8
Black
10
99.8761
20
-108.091
11
99.899
21
-108.103
0
LINE
8
Black
10
99.899
20
-108.103
11
99.9163
21
-108.123
0
LINE
8
Black
10
99.9163
20
-108.123
11
99.9259
21
-108.147
0
LINE
8
Black
10
99.9259
20
-108.147
11
99.9266
21
-108.173
0
LINE
8
Black
10
99.9266
20
-108.173
11
99.9183
21
-108.198
0
LINE
8
Black
10
99.9183
20
-108.198
11
99.9021
21
-108.218
0
LINE
8
Black
10
99.9021
20
-108.218
11
99.8799
21
-108.232
0
LINE
8
Black
10
99.8799
20
-108.232
11
99.8544
21
-108.237
0
LINE
8
Black
10
99.8544
20
-108.237
11
99.8287
21
-108.233
0
LINE
8
Black
10
99.8287
20
-108.233
11
98.8287
21
-107.9
0
LINE
8
Black
10
98.8287
20
-107.9
11
98.8268
21
-107.899
0
LINE
8
Black
10
98.8268
20
-107.899
11
98.8248
21
-107.898
0
LINE
8
Black
10
98.8248
20
-107.898
11
98.8154
21
-107.893
0
LINE
8
Black
10
98.8154
20
-107.893
11
98.8058
21
-107.887
0
LINE
8
Black
10
98.8058
20
-107.887
11
98.8044
21
-107.886
0
LINE
8
Black
10
98.8044
20
-107.886
11
98.8026
21
-107.885
0
LINE
8
Black
10
98.8026
20
-107.885
11
98.7958
21
-107.876
0
LINE
8
Black
10
98.7958
20
-107.876
11
98.7885
21
-107.868
0
LINE
8
Black
10
98.7885
20
-107.868
11
98.7877
21
-107.866
0
LINE
8
Black
10
98.7877
20
-107.866
11
98.7864
21
-107.864
0
LINE
8
Black
10
98.7864
20
-107.864
11
98.7829
21
-107.854
0
LINE
8
Black
10
98.7829
20
-107.854
11
98.7789
21
-107.844
0
LINE
8
Black
10
98.7789
20
-107.844
11
98.7788
21
-107.842
0
LINE
8
Black
10
98.7788
20
-107.842
11
98.7782
21
-107.84
0
LINE
8
Black
10
98.7782
20
-107.84
11
98.7785
21
-107.829
0
LINE
8
Black
10
98.7785
20
-107.829
11
98.7782
21
-107.818
0
LINE
8
Black
10
98.7782
20
-107.818
11
98.7788
21
-107.816
0
LINE
8
Black
10
98.7788
20
-107.816
11
98.7789
21
-107.814
0
LINE
8
Black
10
98.7789
20
-107.814
11
98.7829
21
-107.803
0
LINE
8
Black
10
98.7829
20
-107.803
11
98.7864
21
-107.793
0
LINE
8
Black
10
98.7864
20
-107.793
11
98.7877
21
-107.791
0
LINE
8
Black
10
98.7877
20
-107.791
11
98.7885
21
-107.789
0
LINE
8
Black
10
98.7885
20
-107.789
11
98.7958
21
-107.781
0
LINE
8
Black
10
98.7958
20
-107.781
11
98.8026
21
-107.772
0
LINE
8
Black
10
98.8026
20
-107.772
11
98.8044
21
-107.771
0
LINE
8
Black
10
98.8044
20
-107.771
11
98.8058
21
-107.77
0
LINE
8
Black
10
98.8058
20
-107.77
11
98.8154
21
-107.765
0
LINE
8
Black
10
98.8154
20
-107.765
11
98.8248
21
-107.759
0
LINE
8
Black
10
98.8248
20
-107.759
11
98.8268
21
-107.758
0
LINE
8
Black
10
98.8268
20
-107.758
11
98.8287
21
-107.757
0
LINE
8
Black
10
98.8287
20
-107.757
11
99.8287
21
-107.424
0
LINE
8
Black
10
99.8287
20
-107.424
11
99.8544
21
-107.42
0
LINE
8
Black
10
99.8544
20
-107.42
11
99.8799
21
-107.425
0
LINE
8
Black
10
99.0896
20
-107.829
11
99.4917
21
-107.963
0
LINE
8
Black
10
99.4917
20
-107.963
11
99.4917
21
-107.695
0
LINE
8
Black
10
99.4917
20
-107.695
11
99.0896
21
-107.829
0
LINE
8
Black
10
99.8588
20
-106.755
11
99.8654
21
-106.755
0
LINE
8
Black
10
99.8654
20
-106.755
11
99.8716
21
-106.757
0
LINE
8
Black
10
99.8716
20
-106.757
11
99.878
21
-106.758
0
LINE
8
Black
10
99.878
20
-106.758
11
99.8837
21
-106.761
0
LINE
8
Black
10
99.8837
20
-106.761
11
99.8899
21
-106.764
0
LINE
8
Black
10
99.8899
20
-106.764
11
99.8949
21
-106.768
0
LINE
8
Black
10
99.8949
20
-106.768
11
99.9006
21
-106.771
0
LINE
8
Black
10
99.9006
20
-106.771
11
99.9048
21
-106.776
0
LINE
8
Black
10
99.9048
20
-106.776
11
99.9098
21
-106.78
0
LINE
8
Black
10
99.9098
20
-106.78
11
99.9131
21
-106.786
0
LINE
8
Black
10
99.9131
20
-106.786
11
99.9173
21
-106.791
0
LINE
8
Black
10
99.9173
20
-106.791
11
99.9196
21
-106.797
0
LINE
8
Black
10
99.9196
20
-106.797
11
99.9229
21
-106.803
0
LINE
8
Black
10
99.9229
20
-106.803
11
99.924
21
-106.809
0
LINE
8
Black
10
99.924
20
-106.809
11
99.9262
21
-106.816
0
LINE
8
Black
10
99.9262
20
-106.816
11
99.9262
21
-106.822
0
LINE
8
Black
10
99.9262
20
-106.822
11
99.9274
21
-106.829
0
LINE
8
Black
10
99.9274
20
-106.829
11
99.9274
21
-107.305
0
LINE
8
Black
10
99.9274
20
-107.305
11
99.9229
21
-107.33
0
LINE
8
Black
10
99.9229
20
-107.33
11
99.9098
21
-107.353
0
LINE
8
Black
10
99.9098
20
-107.353
11
99.8899
21
-107.37
0
LINE
8
Black
10
99.8899
20
-107.37
11
99.8654
21
-107.379
0
LINE
8
Black
10
99.8654
20
-107.379
11
99.8394
21
-107.379
0
LINE
8
Black
10
99.8394
20
-107.379
11
99.8149
21
-107.37
0
LINE
8
Black
10
99.8149
20
-107.37
11
99.7949
21
-107.353
0
LINE
8
Black
10
99.7949
20
-107.353
11
99.7819
21
-107.33
0
LINE
8
Black
10
99.7819
20
-107.33
11
99.7774
21
-107.305
0
LINE
8
Black
10
99.7774
20
-107.305
11
99.7774
21
-106.904
0
LINE
8
Black
10
99.7774
20
-106.904
11
98.8524
21
-106.904
0
LINE
8
Black
10
98.8524
20
-106.904
11
98.8267
21
-106.899
0
LINE
8
Black
10
98.8267
20
-106.899
11
98.8042
21
-106.886
0
LINE
8
Black
10
98.8042
20
-106.886
11
98.7874
21
-106.866
0
LINE
8
Black
10
98.7874
20
-106.866
11
98.7785
21
-106.842
0
LINE
8
Black
10
98.7785
20
-106.842
11
98.7785
21
-106.816
0
LINE
8
Black
10
98.7785
20
-106.816
11
98.7874
21
-106.791
0
LINE
8
Black
10
98.7874
20
-106.791
11
98.8042
21
-106.771
0
LINE
8
Black
10
98.8042
20
-106.771
11
98.8267
21
-106.758
0
LINE
8
Black
10
98.8267
20
-106.758
11
98.8524
21
-106.754
0
LINE
8
Black
10
98.8524
20
-106.754
11
99.8524
21
-106.754
0
LINE
8
Black
10
99.8524
20
-106.754
11
99.8588
21
-106.755
0
LINE
8
Black
10
99.8588
20
-105.85
11
99.8654
21
-105.85
0
LINE
8
Black
10
99.8654
20
-105.85
11
99.8716
21
-105.852
0
LINE
8
Black
10
99.8716
20
-105.852
11
99.878
21
-105.853
0
LINE
8
Black
10
99.878
20
-105.853
11
99.8837
21
-105.857
0
LINE
8
Black
10
99.8837
20
-105.857
11
99.8899
21
-105.859
0
LINE
8
Black
10
99.8899
20
-105.859
11
99.8949
21
-105.863
0
LINE
8
Black
10
99.8949
20
-105.863
11
99.9006
21
-105.866
0
LINE
8
Black
10
99.9006
20
-105.866
11
99.9048
21
-105.871
0
LINE
8
Black
10
99.9048
20
-105.871
11
99.9098
21
-105.876
0
LINE
8
Black
10
99.9098
20
-105.876
11
99.9131
21
-105.881
0
LINE
8
Black
10
99.9131
20
-105.881
11
99.9173
21
-105.886
0
LINE
8
Black
10
99.9173
20
-105.886
11
99.9196
21
-105.892
0
LINE
8
Black
10
99.9196
20
-105.892
11
99.9229
21
-105.898
0
LINE
8
Black
10
99.9229
20
-105.898
11
99.924
21
-105.905
0
LINE
8
Black
10
99.924
20
-105.905
11
99.9262
21
-105.911
0
LINE
8
Black
10
99.9262
20
-105.911
11
99.9262
21
-105.917
0
LINE
8
Black
10
99.9262
20
-105.917
11
99.9274
21
-105.924
0
LINE
8
Black
10
99.9274
20
-105.924
11
99.9274
21
-106.4
0
LINE
8
Black
10
99.9274
20
-106.4
11
99.9229
21
-106.426
0
LINE
8
Black
10
99.9229
20
-106.426
11
99.9098
21
-106.448
0
LINE
8
Black
10
99.9098
20
-106.448
11
99.8899
21
-106.465
0
LINE
8
Black
10
99.8899
20
-106.465
11
99.8654
21
-106.474
0
LINE
8
Black
10
99.8654
20
-106.474
11
99.8394
21
-106.474
0
LINE
8
Black
10
99.8394
20
-106.474
11
99.8149
21
-106.465
0
LINE
8
Black
10
99.8149
20
-106.465
11
99.7949
21
-106.448
0
LINE
8
Black
10
99.7949
20
-106.448
11
99.7819
21
-106.426
0
LINE
8
Black
10
99.7819
20
-106.426
11
99.7774
21
-106.4
0
LINE
8
Black
10
99.7774
20
-106.4
11
99.7774
21
-105.999
0
LINE
8
Black
10
99.7774
20
-105.999
11
99.4036
21
-105.999
0
LINE
8
Black
10
99.4036
20
-105.999
11
99.4036
21
-106.257
0
LINE
8
Black
10
99.4036
20
-106.257
11
99.399
21
-106.283
0
LINE
8
Black
10
99.399
20
-106.283
11
99.386
21
-106.305
0
LINE
8
Black
10
99.386
20
-106.305
11
99.3661
21
-106.322
0
LINE
8
Black
10
99.3661
20
-106.322
11
99.3416
21
-106.331
0
LINE
8
Black
10
99.3416
20
-106.331
11
99.3155
21
-106.331
0
LINE
8
Black
10
99.3155
20
-106.331
11
99.2911
21
-106.322
0
LINE
8
Black
10
99.2911
20
-106.322
11
99.2711
21
-106.305
0
LINE
8
Black
10
99.2711
20
-106.305
11
99.2581
21
-106.283
0
LINE
8
Black
10
99.2581
20
-106.283
11
99.2536
21
-106.257
0
LINE
8
Black
10
99.2536
20
-106.257
11
99.2536
21
-105.999
0
LINE
8
Black
10
99.2536
20
-105.999
11
98.9274
21
-105.999
0
LINE
8
Black
10
98.9274
20
-105.999
11
98.9274
21
-106.4
0
LINE
8
Black
10
98.9274
20
-106.4
11
98.9229
21
-106.426
0
LINE
8
Black
10
98.9229
20
-106.426
11
98.9098
21
-106.448
0
LINE
8
Black
10
98.9098
20
-106.448
11
98.8899
21
-106.465
0
LINE
8
Black
10
98.8899
20
-106.465
11
98.8654
21
-106.474
0
LINE
8
Black
10
98.8654
20
-106.474
11
98.8394
21
-106.474
0
LINE
8
Black
10
98.8394
20
-106.474
11
98.8149
21
-106.465
0
LINE
8
Black
10
98.8149
20
-106.465
11
98.7949
21
-106.448
0
LINE
8
Black
10
98.7949
20
-106.448
11
98.7819
21
-106.426
0
LINE
8
Black
10
98.7819
20
-106.426
11
98.7774
21
-106.4
0
LINE
8
Black
10
98.7774
20
-106.4
11
98.7774
21
-105.924
0
LINE
8
Black
10
98.7774
20
-105.924
11
98.7785
21
-105.917
0
LINE
8
Black
10
98.7785
20
-105.917
11
98.7785
21
-105.911
0
LINE
8
Black
10
98.7785
20
-105.911
11
98.7808
21
-105.905
0
LINE
8
Black
10
98.7808
20
-105.905
11
98.7819
21
-105.898
0
LINE
8
Black
10
98.7819
20
-105.898
11
98.7852
21
-105.892
0
LINE
8
Black
10
98.7852
20
-105.892
11
98.7874
21
-105.886
0
LINE
8
Black
10
98.7874
20
-105.886
11
98.7916
21
-105.881
0
LINE
8
Black
10
98.7916
20
-105.881
11
98.7949
21
-105.876
0
LINE
8
Black
10
98.7949
20
-105.876
11
98.8
21
-105.871
0
LINE
8
Black
10
98.8
20
-105.871
11
98.8042
21
-105.866
0
LINE
8
Black
10
98.8042
20
-105.866
11
98.8099
21
-105.863
0
LINE
8
Black
10
98.8099
20
-105.863
11
98.8149
21
-105.859
0
LINE
8
Black
10
98.8149
20
-105.859
11
98.821
21
-105.857
0
LINE
8
Black
10
98.821
20
-105.857
11
98.8267
21
-105.853
0
LINE
8
Black
10
98.8267
20
-105.853
11
98.8332
21
-105.852
0
LINE
8
Black
10
98.8332
20
-105.852
11
98.8394
21
-105.85
0
LINE
8
Black
10
98.8394
20
-105.85
11
98.8459
21
-105.85
0
LINE
8
Black
10
98.8459
20
-105.85
11
98.8524
21
-105.849
0
LINE
8
Black
10
98.8524
20
-105.849
11
99.8524
21
-105.849
0
LINE
8
Black
10
99.8524
20
-105.849
11
99.8588
21
-105.85
0
LINE
8
Black
10
99.878
20
-104.853
11
99.9006
21
-104.866
0
LINE
8
Black
10
99.9006
20
-104.866
11
99.9173
21
-104.886
0
LINE
8
Black
10
99.9173
20
-104.886
11
99.9262
21
-104.911
0
LINE
8
Black
10
99.9262
20
-104.911
11
99.9262
21
-104.937
0
LINE
8
Black
10
99.9262
20
-104.937
11
99.9173
21
-104.961
0
LINE
8
Black
10
99.9173
20
-104.961
11
99.9006
21
-104.981
0
LINE
8
Black
10
99.9006
20
-104.981
11
99.878
21
-104.994
0
LINE
8
Black
10
99.878
20
-104.994
11
99.8524
21
-104.999
0
LINE
8
Black
10
99.8524
20
-104.999
11
99.4512
21
-104.999
0
LINE
8
Black
10
99.4512
20
-104.999
11
99.4512
21
-105.123
0
LINE
8
Black
10
99.4512
20
-105.123
11
99.8954
21
-105.434
0
LINE
8
Black
10
99.8954
20
-105.434
11
99.9138
21
-105.452
0
LINE
8
Black
10
99.9138
20
-105.452
11
99.9248
21
-105.476
0
LINE
8
Black
10
99.9248
20
-105.476
11
99.9271
21
-105.502
0
LINE
8
Black
10
99.9271
20
-105.502
11
99.9204
21
-105.527
0
LINE
8
Black
10
99.9204
20
-105.527
11
99.9054
21
-105.548
0
LINE
8
Black
10
99.9054
20
-105.548
11
99.8841
21
-105.563
0
LINE
8
Black
10
99.8841
20
-105.563
11
99.8589
21
-105.57
0
LINE
8
Black
10
99.8589
20
-105.57
11
99.833
21
-105.568
0
LINE
8
Black
10
99.833
20
-105.568
11
99.8094
21
-105.557
0
LINE
8
Black
10
99.8094
20
-105.557
11
99.451
21
-105.306
0
LINE
8
Black
10
99.451
20
-105.306
11
99.4504
21
-105.309
0
LINE
8
Black
10
99.4504
20
-105.309
11
99.4507
21
-105.313
0
LINE
8
Black
10
99.4507
20
-105.313
11
99.4482
21
-105.322
0
LINE
8
Black
10
99.4482
20
-105.322
11
99.4467
21
-105.33
0
LINE
8
Black
10
99.4467
20
-105.33
11
99.4445
21
-105.334
0
LINE
8
Black
10
99.4445
20
-105.334
11
99.4433
21
-105.338
0
LINE
8
Black
10
99.4433
20
-105.338
11
99.3957
21
-105.434
0
LINE
8
Black
10
99.3957
20
-105.434
11
99.3885
21
-105.443
0
LINE
8
Black
10
99.3885
20
-105.443
11
99.3816
21
-105.453
0
LINE
8
Black
10
99.3816
20
-105.453
11
99.334
21
-105.501
0
LINE
8
Black
10
99.334
20
-105.501
11
99.3242
21
-105.508
0
LINE
8
Black
10
99.3242
20
-105.508
11
99.3145
21
-105.515
0
LINE
8
Black
10
99.3145
20
-105.515
11
99.2193
21
-105.562
0
LINE
8
Black
10
99.2193
20
-105.562
11
99.2151
21
-105.564
0
LINE
8
Black
10
99.2151
20
-105.564
11
99.2114
21
-105.566
0
LINE
8
Black
10
99.2114
20
-105.566
11
99.2027
21
-105.567
0
LINE
8
Black
10
99.2027
20
-105.567
11
99.1943
21
-105.57
0
LINE
8
Black
10
99.1943
20
-105.57
11
99.19
21
-105.569
0
LINE
8
Black
10
99.19
20
-105.569
11
99.1857
21
-105.57
0
LINE
8
Black
10
99.1857
20
-105.57
11
99.0429
21
-105.57
0
LINE
8
Black
10
99.0429
20
-105.57
11
99.0386
21
-105.569
0
LINE
8
Black
10
99.0386
20
-105.569
11
99.0343
21
-105.57
0
LINE
8
Black
10
99.0343
20
-105.57
11
99.0259
21
-105.567
0
LINE
8
Black
10
99.0259
20
-105.567
11
99.0172
21
-105.566
0
LINE
8
Black
10
99.0172
20
-105.566
11
99.0135
21
-105.564
0
LINE
8
Black
10
99.0135
20
-105.564
11
99.0093
21
-105.562
0
LINE
8
Black
10
99.0093
20
-105.562
11
98.9141
21
-105.515
0
LINE
8
Black
10
98.9141
20
-105.515
11
98.9044
21
-105.508
0
LINE
8
Black
10
98.9044
20
-105.508
11
98.8946
21
-105.501
0
LINE
8
Black
10
98.8946
20
-105.501
11
98.847
21
-105.453
0
LINE
8
Black
10
98.847
20
-105.453
11
98.8401
21
-105.443
0
LINE
8
Black
10
98.8401
20
-105.443
11
98.8329
21
-105.434
0
LINE
8
Black
10
98.8329
20
-105.434
11
98.7853
21
-105.338
0
LINE
8
Black
10
98.7853
20
-105.338
11
98.7841
21
-105.334
0
LINE
8
Black
10
98.7841
20
-105.334
11
98.7819
21
-105.33
0
LINE
8
Black
10
98.7819
20
-105.33
11
98.7804
21
-105.322
0
LINE
8
Black
10
98.7804
20
-105.322
11
98.7779
21
-105.313
0
LINE
8
Black
10
98.7779
20
-105.313
11
98.7781
21
-105.309
0
LINE
8
Black
10
98.7781
20
-105.309
11
98.7774
21
-105.305
0
LINE
8
Black
10
98.7774
20
-105.305
11
98.7774
21
-104.924
0
LINE
8
Black
10
98.7774
20
-104.924
11
98.7785
21
-104.917
0
LINE
8
Black
10
98.7785
20
-104.917
11
98.7785
21
-104.911
0
LINE
8
Black
10
98.7785
20
-104.911
11
98.7808
21
-104.905
0
LINE
8
Black
10
98.7808
20
-104.905
11
98.7819
21
-104.898
0
LINE
8
Black
10
98.7819
20
-104.898
11
98.7852
21
-104.892
0
LINE
8
Black
10
98.7852
20
-104.892
11
98.7874
21
-104.886
0
LINE
8
Black
10
98.7874
20
-104.886
11
98.7916
21
-104.881
0
LINE
8
Black
10
98.7916
20
-104.881
11
98.7949
21
-104.876
0
LINE
8
Black
10
98.7949
20
-104.876
11
98.8
21
-104.871
0
LINE
8
Black
10
98.8
20
-104.871
11
98.8042
21
-104.866
0
LINE
8
Black
10
98.8042
20
-104.866
11
98.8099
21
-104.863
0
LINE
8
Black
10
98.8099
20
-104.863
11
98.8149
21
-104.859
0
LINE
8
Black
10
98.8149
20
-104.859
11
98.821
21
-104.857
0
LINE
8
Black
10
98.821
20
-104.857
11
98.8267
21
-104.853
0
LINE
8
Black
10
98.8267
20
-104.853
11
98.8332
21
-104.852
0
LINE
8
Black
10
98.8332
20
-104.852
11
98.8394
21
-104.85
0
LINE
8
Black
10
98.8394
20
-104.85
11
98.8459
21
-104.85
0
LINE
8
Black
10
98.8459
20
-104.85
11
98.8524
21
-104.849
0
LINE
8
Black
10
98.8524
20
-104.849
11
99.8524
21
-104.849
0
LINE
8
Black
10
99.8524
20
-104.849
11
99.878
21
-104.853
0
LINE
8
Black
10
98.9274
20
-104.999
11
98.9274
21
-105.287
0
LINE
8
Black
10
98.9274
20
-105.287
11
98.9616
21
-105.356
0
LINE
8
Black
10
98.9616
20
-105.356
11
98.992
21
-105.386
0
LINE
8
Black
10
98.992
20
-105.386
11
99.0606
21
-105.42
0
LINE
8
Black
10
99.0606
20
-105.42
11
99.168
21
-105.42
0
LINE
8
Black
10
99.168
20
-105.42
11
99.2365
21
-105.386
0
LINE
8
Black
10
99.2365
20
-105.386
11
99.2669
21
-105.356
0
LINE
8
Black
10
99.2669
20
-105.356
11
99.3012
21
-105.287
0
LINE
8
Black
10
99.3012
20
-105.287
11
99.3012
21
-104.999
0
LINE
8
Black
10
99.3012
20
-104.999
11
98.9274
21
-104.999
  0
ENDSEC
  0
EOF
